<svg width="40" height="40" viewBox="0 0 40 40" fill="none" xmlns="http://www.w3.org/2000/svg">
<path fill-rule="evenodd" clip-rule="evenodd" d="M17.3831 5.34342C18.4731 3.22342 21.5334 3.22342 22.6234 5.34342L26.3035 12.4934C26.3635 12.6134 26.4734 12.6934 26.6034 12.7134L34.6034 13.9734C36.9734 14.3434 37.9135 17.2234 36.2235 18.9034L30.5033 24.5834C30.4033 24.6734 30.3631 24.8134 30.3831 24.9434L31.6434 32.8734C32.0134 35.2234 29.5432 37.0034 27.4032 35.9234L20.1932 32.2834C20.0732 32.2234 19.9333 32.2234 19.8133 32.2834L12.6034 35.9234C10.4634 37.0034 7.98335 35.2234 8.35335 32.8734L9.62337 24.9434C9.64337 24.8134 9.59326 24.6834 9.50326 24.5834L3.78353 18.9034C2.08353 17.2234 3.02316 14.3434 5.40316 13.9734L13.3934 12.7134C13.5234 12.6934 13.6435 12.6134 13.7035 12.4934L17.3831 5.34342Z" fill="black"/>
</svg>
