<svg width="40" height="40" viewBox="0 0 40 40" fill="none" xmlns="http://www.w3.org/2000/svg">
<path d="M11.3294 36.6186C10.7194 36.6186 10.1194 36.4286 9.60941 36.0586C8.71941 35.4086 8.2795 34.3286 8.4495 33.2386L9.6995 25.3086C9.7195 25.1786 9.67939 25.0486 9.58939 24.9586L3.90946 19.2586C3.12946 18.4786 2.8595 17.3386 3.1995 16.2886C3.5395 15.2486 4.41955 14.4886 5.50955 14.3186L13.9595 12.9686C14.6395 12.8586 15.2794 13.3286 15.3894 14.0086C15.4994 14.6886 15.0294 15.3286 14.3494 15.4386L5.89945 16.7886C5.68945 16.8186 5.60938 16.9786 5.57938 17.0686C5.54938 17.1586 5.51948 17.3386 5.67948 17.4986L11.3494 23.1886C11.9994 23.8386 12.3095 24.7686 12.1695 25.6986L10.9195 33.6486C10.8895 33.8586 10.9894 33.9786 11.0794 34.0486C11.1594 34.1086 11.3196 34.1886 11.5096 34.0886L18.6595 30.4486C19.4795 30.0286 20.4696 30.0286 21.2996 30.4486L28.4495 34.0886C28.6495 34.1886 28.7997 34.1086 28.8797 34.0586C28.9597 33.9986 29.0796 33.8786 29.0496 33.6486L28.5096 30.2086C28.3996 29.5286 28.8696 28.8886 29.5496 28.7786C30.2296 28.6786 30.8693 29.1386 30.9793 29.8186L31.5193 33.2586C31.6893 34.3486 31.2394 35.4286 30.3494 36.0786C29.4594 36.7286 28.2996 36.8186 27.3196 36.3186L20.1692 32.6786C20.0492 32.6186 19.9196 32.6186 19.7996 32.6786L12.6394 36.3186C12.2194 36.5286 11.7694 36.6386 11.3094 36.6386L11.3294 36.6186ZM29.9895 24.8386C29.6695 24.8386 29.3497 24.7186 29.1097 24.4686C28.6197 23.9786 28.6197 23.1886 29.1097 22.6986L34.3094 17.4886C34.4594 17.3286 34.4395 17.1586 34.4095 17.0686C34.3795 16.9786 34.2994 16.8186 34.0794 16.7786L26.1595 15.5186C25.2395 15.3686 24.4593 14.8086 24.0193 13.9786L20.3694 6.80862C20.2694 6.60862 20.0893 6.57862 19.9993 6.57862C19.8993 6.57862 19.7297 6.60862 19.6297 6.80862L17.7195 10.5586C17.4095 11.1786 16.6493 11.4186 16.0393 11.1086C15.4193 10.7986 15.1795 10.0386 15.4895 9.42862L17.3997 5.67862C17.8997 4.69862 18.8993 4.08862 19.9993 4.08862C21.0993 4.08862 22.0994 4.69862 22.5994 5.67862L26.2395 12.8386C26.2995 12.9486 26.4196 13.0386 26.5496 13.0586L34.4695 14.3186C35.5595 14.4886 36.4493 15.2486 36.7893 16.2986C37.1293 17.3486 36.8594 18.4786 36.0794 19.2586L30.8797 24.4686C30.6397 24.7186 30.3193 24.8386 29.9993 24.8386H29.9895Z" fill="black"/>
<path d="M36.6599 37.9188C36.3399 37.9188 36.02 37.7988 35.78 37.5488L2.44996 4.2188C1.95996 3.7288 1.95996 2.9388 2.44996 2.4488C2.93996 1.9588 3.72998 1.9588 4.21998 2.4488L37.5501 35.7788C38.0401 36.2688 38.0401 37.0588 37.5501 37.5488C37.3101 37.7888 36.9897 37.9188 36.6697 37.9188H36.6599Z" fill="black"/>
</svg>
