<svg width="40" height="40" viewBox="0 0 40 40" fill="none" xmlns="http://www.w3.org/2000/svg">
<path d="M28.6607 36.2116C28.2107 36.2116 27.7609 36.1016 27.3309 35.8916L23.7608 34.0716C23.1508 33.7616 22.9008 33.0016 23.2108 32.3916C23.5208 31.7716 24.2807 31.5316 24.8907 31.8416L28.4608 33.6616C28.6608 33.7616 28.8207 33.6816 28.9007 33.6216C28.9807 33.5616 29.1009 33.4416 29.0709 33.2216L27.8209 25.2816C27.6709 24.3916 27.9707 23.4416 28.6207 22.7716L34.3109 17.0716C34.4609 16.9216 34.4407 16.7416 34.4107 16.6516C34.3807 16.5616 34.3009 16.4016 34.0809 16.3616L26.1507 15.1016C25.2307 14.9516 24.4308 14.3716 24.0108 13.5416L23.3409 12.2216C23.0309 11.6016 23.2707 10.8516 23.8907 10.5416C24.5107 10.2316 25.2609 10.4716 25.5709 11.0916L26.2408 12.4116C26.3008 12.5316 26.4108 12.6116 26.5408 12.6316L34.4708 13.8916C35.5608 14.0616 36.4408 14.8216 36.7908 15.8716C37.1308 16.9216 36.8609 18.0516 36.0809 18.8316L30.4007 24.5216C30.3107 24.6116 30.2708 24.7416 30.2908 24.8616L31.5408 32.8116C31.7108 33.9016 31.2607 34.9816 30.3707 35.6216C29.8607 35.9916 29.2607 36.1816 28.6507 36.1816L28.6607 36.2116Z" fill="black"/>
<path fill-rule="evenodd" clip-rule="evenodd" d="M17.6306 4.83136C18.5406 3.04136 21.2507 3.69136 21.2507 5.70136V29.7314C21.2507 30.8314 20.6306 31.8314 19.6606 32.3314L12.6606 35.8914C10.5406 36.9714 8.09065 35.1914 8.46065 32.8414L9.71065 24.9014C9.73065 24.7714 9.69077 24.6414 9.59077 24.5414L3.92061 18.8514C2.24061 17.1614 3.17071 14.2814 5.52071 13.9114L13.4506 12.6514C13.5806 12.6314 13.6907 12.5514 13.7507 12.4314L17.6306 4.84136V4.83136Z" fill="black"/>
</svg>
