<svg width="40" height="40" viewBox="0 0 40 40" fill="none" xmlns="http://www.w3.org/2000/svg">
<path d="M11.3449 36.26C10.7349 36.26 10.1349 36.07 9.62491 35.7C8.73491 35.05 8.295 33.97 8.465 32.88L9.715 24.95C9.735 24.82 9.69489 24.69 9.60489 24.6L3.92496 18.9C3.14496 18.12 2.875 16.98 3.215 15.93C3.555 14.89 4.43506 14.13 5.52506 13.96L13.455 12.7C13.585 12.68 13.695 12.6 13.755 12.48L17.4049 5.31998C17.9049 4.33998 18.905 3.72998 20.005 3.72998C21.105 3.72998 22.1049 4.33998 22.6049 5.31998L26.245 12.48C26.305 12.59 26.4248 12.68 26.5548 12.7L34.475 13.96C35.565 14.13 36.4451 14.89 36.7851 15.94C37.1251 16.99 36.8549 18.12 36.0749 18.9L30.4049 24.59C30.3049 24.69 30.2651 24.82 30.2851 24.96L31.5351 32.89C31.7051 33.98 31.2549 35.06 30.3649 35.71C29.4749 36.36 28.3149 36.45 27.3349 35.95L20.185 32.31C20.065 32.25 19.9249 32.25 19.8149 32.31L12.6549 35.95C12.2349 36.16 11.7849 36.27 11.3249 36.27L11.3449 36.26ZM19.6349 6.45998L15.985 13.61C15.565 14.44 14.7649 15.02 13.8449 15.17L5.91495 16.43C5.70495 16.46 5.62488 16.62 5.59488 16.71C5.56488 16.8 5.53498 16.98 5.69498 17.14L11.3649 22.83C12.0149 23.48 12.325 24.41 12.185 25.34L10.935 33.29C10.905 33.5 11.0049 33.62 11.0949 33.69C11.1749 33.75 11.3351 33.83 11.5251 33.73L18.675 30.09C19.495 29.67 20.4849 29.67 21.3149 30.09L28.465 33.73C28.665 33.83 28.8149 33.75 28.8949 33.7C28.9749 33.64 29.0949 33.52 29.0649 33.3L27.8149 25.36C27.6749 24.43 27.9849 23.49 28.6449 22.84L34.3048 17.16C34.4648 17 34.4349 16.83 34.4049 16.74C34.3749 16.65 34.2949 16.49 34.0749 16.45L26.1549 15.19C25.2349 15.04 24.455 14.48 24.015 13.65L20.3649 6.47998C20.2649 6.27998 20.085 6.24998 19.995 6.24998C19.905 6.24998 19.7249 6.27998 19.6249 6.47998L19.6349 6.45998Z" fill="black"/>
</svg>
