<svg width="40" height="40" viewBox="0 0 40 40" fill="none" xmlns="http://www.w3.org/2000/svg">
<path d="M23.3301 32.9201C20.8001 32.9201 18.75 30.8601 18.75 28.3401V11.6701C18.75 10.5201 17.8199 9.59008 16.6699 9.59008C16.1199 9.59008 15.5902 9.81008 15.2002 10.2001C14.8102 10.5901 14.5901 11.1201 14.6001 11.6701L14.6299 18.3201C14.6299 20.8601 12.57 22.9201 10.04 22.9201H3.33008C2.64008 22.9201 2.08008 22.3601 2.08008 21.6701C2.08008 20.9801 2.64008 20.4201 3.33008 20.4201H10.04C11.19 20.4201 12.1299 19.4801 12.1299 18.3201L12.1001 11.6801C12.1001 10.4601 12.5702 9.30008 13.4302 8.43008C14.2902 7.56008 15.4399 7.08008 16.6699 7.08008C19.1999 7.08008 21.25 9.13008 21.25 11.6601V28.3301C21.25 29.4801 22.1801 30.4101 23.3301 30.4101C24.4801 30.4101 25.4199 29.4801 25.4199 28.3301V21.6601C25.4199 19.1301 27.47 17.0801 30 17.0801H36.6699C37.3599 17.0801 37.9199 17.6401 37.9199 18.3301C37.9199 19.0201 37.3599 19.5801 36.6699 19.5801H30C28.85 19.5801 27.9199 20.5201 27.9199 21.6601V28.3301C27.9199 30.8601 25.8601 32.9101 23.3301 32.9101V32.9201Z" fill="black"/>
<path d="M6.66992 26.2503C6.34992 26.2503 6.03004 26.1303 5.79004 25.8803L2.4502 22.5503C2.2102 22.3203 2.08008 22.0001 2.08008 21.6701C2.08008 21.3401 2.2102 21.0203 2.4502 20.7903L5.79004 17.4603C6.28004 16.9703 7.07006 16.9703 7.56006 17.4603C8.05006 17.9503 8.05006 18.7403 7.56006 19.2303L5.10986 21.6803L7.56006 24.1303C8.05006 24.6203 8.05006 25.4103 7.56006 25.9003C7.32006 26.1503 7.00018 26.2703 6.68018 26.2703L6.66992 26.2503Z" fill="black"/>
</svg>
