<svg width="40" height="40" viewBox="0 0 40 40" fill="none" xmlns="http://www.w3.org/2000/svg">
<path d="M16.6649 32.915C14.1349 32.915 12.0751 30.855 12.0751 28.335V21.665C12.0751 20.515 11.145 19.585 9.995 19.585H3.32507C2.63507 19.585 2.07507 19.025 2.07507 18.335C2.07507 17.645 2.63507 17.085 3.32507 17.085H9.995C12.525 17.085 14.5751 19.145 14.5751 21.665V28.335C14.5751 29.485 15.5149 30.415 16.6649 30.415C17.8149 30.415 18.745 29.485 18.745 28.335V11.665C18.745 9.14496 20.7951 7.08496 23.3251 7.08496C24.5551 7.08496 25.7048 7.56496 26.5648 8.43496C27.4248 9.30496 27.9049 10.455 27.8949 11.685L27.8749 18.325C27.8749 18.885 28.085 19.415 28.475 19.805C28.865 20.195 29.395 20.415 29.955 20.415H36.6649C37.3549 20.415 37.9149 20.975 37.9149 21.665C37.9149 22.355 37.3549 22.915 36.6649 22.915H29.955C28.725 22.915 27.575 22.435 26.705 21.565C25.835 20.695 25.3649 19.535 25.3749 18.305L25.3949 11.665C25.3949 11.105 25.1848 10.585 24.7948 10.185C24.4048 9.79496 23.8851 9.57496 23.3251 9.57496C22.1751 9.57496 21.245 10.505 21.245 11.655V28.325C21.245 30.855 19.1949 32.905 16.6649 32.905V32.915Z" fill="black"/>
<path d="M33.3249 26.2449C33.0049 26.2449 32.685 26.1249 32.445 25.8749C31.955 25.3849 31.955 24.5949 32.445 24.1049L34.8947 21.6549L32.445 19.2049C31.955 18.7149 31.955 17.9249 32.445 17.4349C32.935 16.9449 33.725 16.9449 34.215 17.4349L37.5549 20.7649C37.7949 20.9949 37.925 21.3149 37.925 21.6449C37.925 21.9749 37.7949 22.2949 37.5549 22.5249L34.215 25.8549C33.975 26.0949 33.6547 26.2249 33.3347 26.2249L33.3249 26.2449Z" fill="black"/>
</svg>
