<svg xmlns="http://www.w3.org/2000/svg" width="248" height="203" fill="none"><g clip-path="url(#a)"><path fill="#003f23" d="M213.556 98.937c19.02 0 34.447-15.428 34.447-34.447s-15.427-34.447-34.447-34.447c-19.019 0-34.447 15.428-34.447 34.447s15.428 34.447 34.447 34.447"/><path fill="#1c6c6c" d="M188.135 116.988c19.019 0 34.447-15.428 34.447-34.447s-15.428-34.447-34.447-34.447-34.447 15.428-34.447 34.447 15.427 34.447 34.447 34.447" opacity=".8"/><path fill="#00975f" d="M175.455 68.925c19.019 0 34.447-15.427 34.447-34.447C209.902 15.46 194.505 0 175.455 0s-34.447 15.428-34.447 34.447 15.428 34.447 34.447 34.447" opacity=".8"/><path fill="#1c6c6c" d="M153.653 114.24c23.08 0 41.787-18.707 41.787-41.786s-18.707-41.786-41.787-41.786-41.786 18.707-41.786 41.786 18.707 41.786 41.786 41.786" opacity=".7"/><path fill="#003f23" d="M192.318 84.82h-15.552v115.74h15.552z"/><path fill="#003f23" d="m188.133 105.464 38.038-20.644-38.038 10.306zM177.417 98.938l-45.065-30.012 46.72 19.894z"/><path fill="#1c6c6c" d="M76.36 199.188c0 .53.686 3.31 2.779 3.31 2.124 0 3.03-2.623 3.03-3.154 0-.25-.188-1.25-.25-1.968-.688-5.996-.969-5.528-2.718-5.528-2.342 0-2.842 6.309-2.842 7.371z"/><path fill="#ddbb92" d="M77.955 190.661c0-.905-.094-2.092-.156-3.404 0-.531.374-.968.905-.968h2.03c.531 0 .968.469.906.999-.156 1.687-.312 3.186-.531 4.06a.9.9 0 0 0 0 .406c.125.687.062 1.218 0 1.281.125.531.187 1.967.187 2.623-.03 1.374-.406 1.874-.937 2.186-.312.188-.687.063-1.124.063s-1 .062-1.343-.125c-.593-.344-.905-.875-.874-2.249 0-.905.25-1.999.562-2.654 0-.156-.094-1 .25-1.749a1 1 0 0 0 .093-.437z"/><path fill="#1c6c6c" d="M71.702 186.727c1.156 0 1.936.687 2.217 1.748.469 1.781-.718 3.592-.812 6.496 0 .469-1.249 4.123-3.935 3.686-.874-.157-1.061-1.125-1.093-2.593-.031-1.467.594-3.248.781-4.06.312-1.499.437-3.029.625-3.591.437-1.405.28-1.655 1.686-1.686z"/><path fill="#ddbb92" d="M69.7 187.383c.188-1.374 0-3.498-.187-4.778-.062-.531.312-1 .843-1.031l1.812-.094c.5 0 .936.375.968.875.062 1.374.187 3.685 0 4.372v.469c0 .187.093.499.187.718.25.187-.156 2.717-.156 2.936 0 .905-.062 1.561-.531 2.467-.125.25-.656-.125-1.999-.063-1.28.063-1.592.531-1.749.188-.187-.438.188-1.312.188-2.093 0-.156.28-3.06.5-3.747.218-.687.062-.125.062-.219z"/><path fill="#1c6c6c" d="m65.926 141.973 8.9.624 8.901-.624c.78 2.904.656 6.09.375 9.15-.344 4.123-1.343 10.931-1.75 15.178-.03.375.25 1.062.22 1.437-.032.624-.375.937-.407 1.592-.062 2.53.125 4.779.188 6.809.156 5.933-.125 10.431-.281 11.649s-.406.78-.843.812c-.75.031-1.937.093-3.342-.094a.89.89 0 0 1-.78-.937c.03-1.593-.063-7.964-1.469-17.926-.53-3.748.219-16.99 0-18.801l-1.467-.968c-.188 2.436-1.843 14.522-1.874 14.834-.063 1.968.78 2.998.905 5.684.25 6.371.125 11.868 0 13.304 0 .438-.374.812-.812.844-2.248.249-3.279.031-3.404-.719 0 0-1.842-7.745-3.654-18.02-.093-.468.032-8.026 0-8.525-.156-8.683.438-9.182.594-15.303"/><path stroke="#003f23" stroke-linecap="round" stroke-linejoin="round" stroke-width=".7" d="m72.703 149.156 3.092 1.562"/><path fill="#1c6c6c" d="M76.86 187.692c0 .625.405 1.125 1.03 1.25.625.124 1.093.124 1.874.124.78 0 1.374-.125 1.905-.249.562-.125.937-.625.937-1.187v-.219c0-.749-.687-1.311-1.437-1.187-.5.094-1.062.157-1.53.157-.437 0-.937-.063-1.374-.125a1.21 1.21 0 0 0-1.374 1.155v.281zM74.045 183.728c0 .594-.375 1.094-.937 1.25s-1.062.218-1.812.281c-.718.062-1.405 0-1.936-.094a1.26 1.26 0 0 1-1.062-1.093 1.267 1.267 0 0 1 1.312-1.437c.78.032 1.124.032 1.593 0 .468-.031.906-.125 1.343-.218.75-.156 1.499.406 1.499 1.187z"/><path stroke="#003f23" stroke-linecap="round" stroke-linejoin="round" stroke-width=".7" d="M70.578 163.738s1.343.375 1.468 1.78l-.718-.437"/><path fill="#ddbb92" d="m58.74 142.909-2.904-.812 3.342-13.71 4.403 2.092z"/><path fill="#ddbb92" d="M56.217 141.159c-.313.156-.5.594-1.093 1.468-.188.219-1.437 1.124-2 2.904-.155.469-.187 1.062-.218 1.656 0 .718.188 1.499.562 1.873.281.282.531.625.968.625.438 0 .063-.312.25-.125.157.156.375.281.563 0 .187-.312-.125-.781-.438-1.405-.156-1.249.344-1.936.438-2.186.405-.594 2.123.156 2.123.156-.156.468.219 1.03.094 1.468s-.312 1.717-.125 1.842c.5.281.75-.343 1.218-1.155.219-.375.281-2.061.312-2.436.188-1.812.281-3.248-.187-3.873-.219-.281-1.999-1.062-2.467-.843z"/><path stroke="#d0a067" stroke-linecap="round" stroke-linejoin="round" stroke-width=".7" d="M55.155 142.598c-.187.218-1.437 1.124-1.999 2.904-.156.469-.187 1.062-.218 1.655 0 .719.187 1.499.562 1.874.28.281.53.625.968.625s.062-.313.25-.125c.156.156.374.281.562 0 .187-.313-.125-.781-.437-1.406-.157-1.249.343-1.936.437-2.186.406-.593 2.123.156 2.123.156"/><path stroke="#d0a067" stroke-linecap="round" stroke-linejoin="round" stroke-width=".7" d="M54.688 149.56c-.281-.25-.968-1.062-1-1.405-.125-.781 0-1.874 0-2.155"/><path fill="#1c6c6c" d="M57.68 132.541c.5-2.436 1.186-4.341 1.936-7.651 1.25-5.465.468-3.623 1.343-7.808.937-4.434 5.028-5.559 5.028-5.559l.5 8.776-3.373 13.617s-.531.062-2.342-.157c-1.78-.218-3.092-1.218-3.092-1.218"/><path fill="#ddbb92" d="m92.754 140.847 2.81-1.093-4.403-12.617-4.184 2.498z"/><path fill="#1c6c6c" d="M92.97 131.198c-.718-2.373-1.311-4.153-2.373-7.37-1.78-5.309-.812-3.56-2.124-7.651-1.374-4.31-5.559-5.029-5.559-5.029l.375 8.776 5.09 13.398s.719.187 2.499-.187c1.749-.406 2.092-1.905 2.092-1.905z"/><path fill="#cceadf" d="m84.76 144.846-.249-31.761s-5.653-2.311-6.121-2.467c-.812-.219-6.433-.094-7.246.062-.468.094-5.559 2.623-5.559 2.623l-.687 31.543s7.183 1.124 10.15 1.031c2.998-.063 9.713-1.031 9.713-1.031"/><path stroke="#80cbaf" stroke-linecap="round" stroke-linejoin="round" stroke-width=".7" d="M68.617 128.605s5.715 1.375 11.774.219c0 0-1.874 1.405-7.964 1.093"/><path fill="#ddbb92" d="M79.011 114.052c.688-.968.688-2.092.688-2.686 0-1.155-1.031-1.28-4.841-1.28s-5.028.094-5.028 1.249-.063 1.749.593 2.717c0 0 1.406 1.749 4.404 1.749s4.216-1.749 4.216-1.749z"/><path stroke="#80cbaf" stroke-linecap="round" stroke-linejoin="round" stroke-width=".7" d="M71.953 116.457s3.03 1.624 5.56 0"/><path stroke="#ddbb92" stroke-linecap="round" stroke-linejoin="round" stroke-width=".7" d="m70.39 111.898 2.718.125.718.469M79.076 111.898l-2.717.125-.718.469"/><path fill="#ddbb92" d="M77.137 104.465c.031 1.874.219 4.341.78 6.496h-6.37c.562-2.061.718-4.591.78-6.496z"/><path fill="#d0a067" d="M74.545 111.492c1.57 0 2.842-1.426 2.842-3.185s-1.272-3.186-2.842-3.186-2.842 1.426-2.842 3.186c0 1.759 1.272 3.185 2.842 3.185"/><path fill="#1c6c6c" d="M71.08 110.18s-1.092 4.247-1.842 11.18c-.78 7.277-1.155 15.022-.718 24.079.031.812-1.03 1.249-1.874 1.249-1.624 0-2.904-.187-3.498-1.093 0 0 .875-4.591 1.28-8.37.282-2.686.5-4.622.5-7.558 0-7.682-1.092-16.427-.03-17.52 0 0 1.405-1.436 6.183-1.999zM78.453 110.242s1.062 4.248 1.78 11.181c.75 7.276 1.124 15.021.687 24.078-.03.812 1.03 1.249 1.874 1.249 1.624 0 2.905-.187 3.53-1.093 0 0-1.312-5.527-1.5-8.151s-.125-5.496-.125-8.432c0-7.683.843-16.115-.187-17.208 0 0-1-1.155-6.059-1.624"/><path stroke="#003f23" stroke-linecap="round" stroke-linejoin="round" stroke-width=".7" d="M85.73 120.801s-.811 2.967-.53 3.591l.812-1.186M63.117 121.203s1.968 4.778 1.655 5.434l-1.655-2.842"/><path fill="#ddbb92" d="M93.937 139.633c.562-.157.843-.469 1.312-.188.312.188.812 1.124 1.374 2.061.218.281 1.874 1.999 1.78 4.81-.062 2.03-1.936 3.935-1.156 1.999-.156.468-.25 1.218-.468 1.155-.344-.094-.687.094-.437-2.249-.188-.812-.125-1.093-.25-1.311-.187-.281-.375-.937-.469-1.187-.374-.625-1.093-.062-1.093-.062.156.499.25.655.344 1.124.094.531.343 1.842.125 1.936-.812.344-.968-.781-1.406-1.624-.218-.406-.5-1.624-.624-1.967-.562-1.812-.5-3.186 0-3.779.5-.594.593-.625.937-.718z"/><path stroke="#ddbb92" stroke-linecap="round" stroke-linejoin="round" stroke-width=".7" d="M97.281 148.189c.219-.499.437-1.593.281-2.155-.187-.562-.28-1.062-.437-1.311M97.781 144.473s.438.843.656 1.592"/><path fill="#ddbb92" d="M78.324 102.995c-.281.968-.906 2.623-.032 2.873.875.281 1.468-.063 2.249-1.937.406-.905.375-2.154-.5-2.435-.874-.282-1.405.499-1.717 1.467z"/><path fill="#ddbb92" d="M67.707 98.344s-.656 10.993 4.435 11.743c0 0 5.122.343 6.152-4.716 0 0 .968-2.467.937-5.996 0-1.936-.937-6.683-6.152-6.652-2.374 0-4.653 1.718-5.34 5.621z"/><path fill="#1c6c6c" d="M78.859 106.152a.531.531 0 1 0 0-1.062.531.531 0 0 0 0 1.062"/><path fill="#003f23" d="M76.108 95.22a2.623 2.623 0 1 0 0-5.247 2.623 2.623 0 0 0 0 5.246"/><path stroke="#4c7965" stroke-linecap="round" stroke-linejoin="round" stroke-width=".7" d="M76.358 90.754s-1.718.343-1.842 2.498M77.36 92.66s.343.875-.47 1.749"/><path fill="#003f23" d="M77.703 93.719c2.342 1.874 2.56 4.216 2.123 6.059-.406 1.655-1.311 2.685-1.311 2.685-1.218-.281-7.59-4.06-8.245-6.027-.687 2.155-1.78 4.091-2.592 5.153 0 0-1.936-6.059 2.748-8.62 1.905-1.03 4.997-1.124 7.277.719z"/><path stroke="#4c7965" stroke-linecap="round" stroke-linejoin="round" stroke-width=".7" d="M68.835 96.938s-.812 1.155-.843 2.154M77.36 95.063s2.123 1.499 2.31 4.34M78.108 100.276s-1.561-.718-1.967-2.186"/><path fill="#ddbb92" d="M114.089 154.651c-.094-.593-.219-1.655-1.749-1.874-1.187-.187-5.496.281-6.652.438-1.062.156-2.124.125-3.029.125-1.718-2.53-5.84-6.746-5.84-6.746l-2.592.499s5.777 8.839 6.901 9.338c.469.188 8.558.063 9.182 0 3.342-.374 3.904-1.062 3.81-1.78zM122.117 157.337l.25-4.778s1.905 1.374 2.561 2.998c.593 1.436 1.874 4.872 1.905 4.997.25.406 1.218 1.842 1.593 3.06.218.687 1.436 4.966 1.436 4.966-.25.718-1.655.999-1.905.437-.343-.718-2.092-3.154-2.529-4.029-.5-.905-.625-1.905-1.125-3.185-.937-2.311-2.155-4.466-2.155-4.466z"/><path fill="#fff" stroke="#1c6c6c" stroke-linecap="round" stroke-linejoin="round" stroke-width=".7" d="M116.647 198.095s-.25.656-.468 1.624c-.313 1.28.843 1.624.843 1.624s3.123 1.374 4.06-2.78c.093-.468-.063-.936.156-1.405.468-1.031.562-1.343-.344-3.248l-4.216 4.216z"/><path fill="#1c6c6c" d="M116.679 197.845s.749-2.155 1.093-3.873c0 0 2.811-.281 2.748-.624.344.343.5.343.875 1.53 0 0-.032.219-.344.906 0 0 0 .999-.281 1.873-.281.875-.094.906-.312 1.406 0 0-.75 1.53-1.062 1.124-.469-.593-.375-.749-1.593-.812-1.437-.094-1.561.812-1.624.875-.094.124-.219-1.593.562-2.405z"/><path fill="#fff" d="M120.709 194.723c-.094.906-1.374 1.655-2.062 1.562-.718-.094-.968-1.375-.843-2.28.094-.906 1.281-1.374 1.999-1.312.718.094 1.031 1.093.937 2.03z"/><path fill="#ddbb92" d="M120.707 174.484c-.062-.375-2.748-.343-3.654.25-.78.5.219 3.779.344 7.714 0 .656.25 3.373.343 3.904.375 2.436.406 7.183.281 8.401 0 .062 0 1.03 1.187.687.781-.219 1.187-1.312 1.187-1.406.187-1.28 1.218-5.184 1.187-7.62 0-1.312-.219-2.311-.25-3.029-.219-4.091 0-5.497-.625-8.901"/><path fill="#77a7a7" d="M118.676 194.72c-.781-.062-1.437.187-1.468.999 0 .157 0 .313.031.469 0 0-.406 1.124 1.062 1.312 1.468.156 1.624-1.187 1.624-1.187.031-.125.062-.25.093-.406.063-.812-.562-1.124-1.342-1.187"/><path stroke="#fff" stroke-linecap="round" stroke-miterlimit="10" stroke-width="1.1" d="M119.335 197.093s-.594-.843-1.937-.687"/><path stroke="#fff" stroke-linecap="round" stroke-miterlimit="10" stroke-width="1.1" d="M119.397 196.626s-.874-.5-2.03.219M119.21 197.749s-.594-.843-1.937-.687M119.178 197.749s-1.093-.375-1.936-.219"/><path stroke="#fff" stroke-linecap="round" stroke-miterlimit="10" stroke-width="1.1" d="M119.272 197.251s-.874-.5-2.03.219M119.898 197.037c.127-.206-.09-.571-.486-.816-.396-.246-.82-.278-.947-.073s.09.57.486.816c.396.245.82.278.947.073Z"/><path stroke="#fff" stroke-linecap="round" stroke-miterlimit="10" stroke-width="1.1" d="M117.728 196.837c.441-.15.736-.457.658-.685s-.498-.293-.939-.142c-.441.15-.735.457-.658.685.078.229.499.292.939.142Z"/><path fill="#fff" stroke="#1c6c6c" stroke-linecap="round" stroke-linejoin="round" stroke-width=".7" d="M115.119 194.595s.343.625.687 1.531c.499 1.218-.594 1.749-.594 1.749s-2.904 1.811-4.403-2.187c-.156-.437-.063-.936-.344-1.374-.624-.968-.749-1.249-.125-3.279z"/><path fill="#1c6c6c" d="M115.059 194.345s-1.062-2.03-1.624-3.685c0 0-2.81.125-2.81-.25-.281.375-.438.406-.656 1.655 0 0 .062.219.468.844 0 0 .156.999.531 1.811.187.375.219.874.5 1.343 0 0 .968 1.405 1.218.968.375-.625.281-.781 1.468-1.031 1.405-.281 1.655.594 1.717.656.125.125 0-1.593-.905-2.311z"/><path fill="#fff" d="M110.618 191.813c.218.874 1.593 1.436 2.28 1.249s.749-1.499.531-2.374c-.219-.874-1.468-1.186-2.155-.999s-.875 1.249-.656 2.124"/><path fill="#ddbb92" d="M112.027 171.764c.125-.375 3.185-.343 4.029.375.718.593-.125 1.655-.469 5.184-.062.656-.187 4.091-.343 4.56-.719 2.373-1.843 8.213-1.906 9.4 0 .063-.343 1.437-1.467.906-.719-.312-1-1.468-1-1.53 0-1.312-.218-6.215.094-7.496.812-3.154.562-5.621.531-4.403.062-4.06-.594-3.717.5-7.027z"/><path fill="#77a7a7" d="M112.619 191.535c.781-.156 1.437 0 1.593.781a1.2 1.2 0 0 1 0 .468s.562 1.062-.875 1.437c-1.436.374-1.78-.937-1.78-.937-.062-.125-.093-.25-.125-.375-.156-.781.406-1.187 1.187-1.343z"/><path stroke="#fff" stroke-linecap="round" stroke-miterlimit="10" stroke-width="1.1" d="M112.312 193.968s.469-.906 1.812-.937"/><path stroke="#fff" stroke-linecap="round" stroke-miterlimit="10" stroke-width="1.1" d="M112.188 193.5s.811-.624 2.029-.062M112.531 194.593s.469-.906 1.812-.937M112.562 194.626s1.031-.531 1.906-.5"/><path stroke="#fff" stroke-linecap="round" stroke-miterlimit="10" stroke-width="1.1" d="M112.406 194.125s.812-.624 2.03-.062M112.661 193.812c.357-.298.522-.69.368-.876-.155-.185-.57-.094-.928.204s-.523.69-.368.876c.155.185.57.094.928-.204Z"/><path stroke="#fff" stroke-linecap="round" stroke-miterlimit="10" stroke-width="1.1" d="M114.731 193.179c.045-.237-.289-.5-.747-.587-.457-.087-.865.034-.91.271s.289.501.746.588c.458.087.865-.034.911-.272Z"/><path fill="#1c6c6c" d="m110.03 169.766-2.561 6.933 1.343.781-.157.749s1.406.531 2.249.593c.843.094 2.467 0 2.467 0l.375-1.155.281 1.28s.812.25 2.249.281c1.436 0 2.342-.187 2.342-.187l.437-1.187.562 1.156s1.343 0 2.124-.094c.781-.125 1.593-.437 1.655-.437.156 0-.156-.687-.156-.687l1.53-.687-2.186-7.183-12.554-.063z"/><path stroke="#003f23" stroke-linecap="round" stroke-linejoin="round" stroke-width=".7" d="m110.062 173.574-1.25 3.935M114.117 173.762l-.406 3.966M118.523 173.918l.5 3.904M122.18 173.668l1.03 4.06"/><path fill="#77a7a7" d="M109.562 169.891s2.311.937 5.902 1.249c3.561.313 7.339-.718 7.339-.718l-.499-7.121.468-5.683s1.343-.906 1.874-1.656 1.187-2.092 1.187-2.092l-4.154-1.968s-.718-.562-4.278-.812c-2.499-.187-4.154-.093-5.028.094-.594.125-3.873.999-3.873.999s.5 2.03.812 2.874c.562 1.592 1.593 2.592 1.593 2.592l.156 5.278z"/><path fill="#ddbb92" d="M120.646 152.558c.124.75-1.781 1.125-3.623 1-1.843-.156-3.654-.75-3.498-1.499.125-.687.874-1.406 3.685-1.187 2.936.219 3.373 1.187 3.467 1.718z"/><path fill="#ddbb92" d="M115.742 148.375c-.125.999-.156 2.217-.562 3.248l4.028.312c-.218-1.062-.093-2.28-.093-3.31z"/><path fill="#d0a067" d="M117.335 151.435c.966 0 1.749-.839 1.749-1.874s-.783-1.873-1.749-1.873-1.749.838-1.749 1.873.783 1.874 1.749 1.874"/><path stroke="#ddbb92" stroke-linecap="round" stroke-linejoin="round" stroke-width=".7" d="M102.656 153.34s-.625.281-.687.656"/><path fill="#ddbb92" d="M128.421 167.239c.687-.25.968-.469 1.999.937.156.187 1.468 1.78 1.468 3.653 0 1.375-.781 1.468-.812 1.437-.094.344-.219.687-.344.781-.187.125-.656 0-.562-.625.062-.562.156-1.311.125-1.374-.125-.343-.437-.874-.5-1.062-.281-.375-.781.063-.781.063-.281.25-.874.531-.78.843.093.343.312 1.374.125 1.468-.594.312-.562-.5-.906-1.031-.156-.25-.25-1.53-.25-1.749 0-.562.094-2.061.188-2.436.218-1.03.499-.687 1.03-.905"/><path stroke="#d0a067" stroke-linecap="round" stroke-linejoin="round" stroke-width=".7" d="M127.172 170.581c0 .25.094 1.499.25 1.749.343.531.312 1.311.905 1.03.157-.093-.031-1.093-.125-1.468-.062-.312.5-.562.781-.843 0 0 .5-.437.781-.062.062.156.344.718.5 1.062 0 .062-.063.812-.125 1.374-.094.656.375.749.562.624.125-.093.25-.437.343-.78 0 0 .781-.063.812-1.437 0-1.874-.936-3.029-1.124-3.217"/><path stroke="#d0a067" stroke-linecap="round" stroke-linejoin="round" stroke-width=".7" d="M130.859 170.426s.594.843.219 2.842"/><path stroke="#ddbb92" stroke-linecap="round" stroke-linejoin="round" stroke-width=".7" d="M125.391 161.836s.593-.469 1.061-.469"/><path fill="#003f23" d="M111.25 139.91c-.905-.125-2.529.499-2.467 3.06 0 .687.25 1.281.468 1.905.25.718.25 2.311-.124 2.998.718-.562 1.03-.968 1.249-1.311.874-1.281 0-2.374.187-3.623.156-.937.968-1.374 1.53-1.936.75-.719-.312-1.031-.843-1.093"/><path stroke="#4c7965" stroke-linecap="round" stroke-linejoin="round" stroke-width=".7" d="M111.188 140.783s.312-.25.905.094"/><path fill="#003f23" d="M122.996 139.317c.875-.219 2.561.25 2.749 2.811.062.687-.125 1.28-.281 1.936-.188.75 0 2.342.406 2.998-.75-.499-1.125-.874-1.375-1.187-.999-1.186-.218-2.373-.531-3.591-.249-.906-1.093-1.249-1.717-1.749-.812-.656.218-1.093.718-1.218z"/><path stroke="#4c7965" stroke-linecap="round" stroke-linejoin="round" stroke-width=".7" d="M123.124 140.192s-.312-.219-.874.187"/><path fill="#ddbb92" d="M124.087 145.808c.319-.764.062-1.599-.574-1.865-.637-.266-1.412.137-1.731.901-.32.763-.063 1.598.574 1.865.636.266 1.411-.137 1.731-.901M112.607 147.18c.608-.327.782-1.183.389-1.912-.392-.729-1.203-1.055-1.81-.727-.608.327-.782 1.183-.389 1.912.392.729 1.203 1.054 1.81.727"/><path fill="#ddbb92" d="M112.155 144.534c.406 4.435 3.435 5.809 5.465 5.715 1.905-.093 5.059-1.374 4.997-6.308-.031-3.279-2.592-5.809-5.59-5.653s-5.185 2.998-4.872 6.246"/><path fill="#003f23" d="M121.272 138.474c-2.874-2.686-7.246-.531-7.246-.531-3.654 2.342-1.874 6.621-1.874 6.621 1.062-3.873 3.717-5.341 3.717-5.341s1.374 1.905 3.466 3.155c2.155 1.28 3.373 1.686 3.373 1.686.375-1.874-.156-4.372-1.405-5.559z"/><path stroke="#003f23" stroke-linecap="round" stroke-linejoin="round" stroke-width=".7" d="M115.839 139.223s-.469 1.499.749 3.404"/><path stroke="#4c7965" stroke-linecap="round" stroke-linejoin="round" stroke-width=".7" d="M119.805 140.754s1.53.312 1.998 2.03M120.492 139.254s1.156.343 1.499 1.468"/><path fill="#ddbb92" d="m92.977 145.751.187-1.436 1.124-1.53 1.75-.594.842-.281s.531.281.157.843c0 0 1.061-.125.562.969 0 0 .843.218-.094 1.061 0 0 .812.687.031 1.25l-1.062.999-1.124.656s-.812.343-1.53-.469c-.719-.812-.812-.406-.906-1.499z"/><path stroke="#d0a067" stroke-linecap="round" stroke-linejoin="round" stroke-width=".7" d="m96.162 147.375 1.405-1.342c.781-.563-.03-1.25-.03-1.25.936-.843.093-1.061.093-1.061.468-1.094-.562-.969-.562-.969.343-.562-.156-.843-.156-.843l-.844.281-1.748.594-1.125 1.53-.187 1.436c.094 1.094.375.937.906 1.5 0 0 .343.406 1.249.499"/><path stroke="#d0a067" stroke-linecap="round" stroke-linejoin="round" stroke-width=".7" d="m96.881 142.785-1.874 1.031-.812.874M97.569 143.598l-2.155 1.155-.656.75M97.538 144.785l-1.655 1.062-.375.468"/><path fill="#77a7a7" d="M17.116 81.762h-1.905v116.926h1.905z"/><path fill="#1c6c6c" stroke="#a4c4c4" stroke-miterlimit="10" stroke-width="2" d="M29.357 80.95H2.405a2.03 2.03 0 0 0-2.03 2.03v15.552a2.03 2.03 0 0 0 2.03 2.03h26.952a2.03 2.03 0 0 0 2.03-2.03V82.979a2.03 2.03 0 0 0-2.03-2.03Z"/><path fill="#fff" fill-rule="evenodd" d="M11.06 92.94a2.44 2.44 0 0 1 2.435 2.436h5.06a2.44 2.44 0 0 1 2.436-2.436 2.44 2.44 0 0 1 2.435 2.436h1.437c.593 0 1.062-.468 1.062-1.062v-8.682a1.04 1.04 0 0 0-1.03-1.03H7.78c-.593 0-.968.5-1.062 1.061l-.874 5.029v3.591c0 .593.468 1.062 1.062 1.062h1.748a2.44 2.44 0 0 1 2.436-2.436zm7.12-3.716h-3.998c-.25 0-.468-.188-.468-.438v-2.592a.48.48 0 0 1 .468-.468h3.998c.25 0 .437.219.437.468v2.592c0 .25-.187.438-.437.438m-5.59.218c0 .313-.25.5-.563.562l-4.466 1c-.28.062-.593-.25-.562-.562l.687-4.154c.063-.312.25-.562.562-.562h3.78a.56.56 0 0 1 .561.562zm7.151-.687v-2.592c0-.25.188-.468.438-.468h3.997a.48.48 0 0 1 .468.468v2.592c0 .25-.218.437-.468.437h-3.997a.427.427 0 0 1-.438-.437" clip-rule="evenodd"/><path fill="#fff" fill-rule="evenodd" d="M12.935 95.378a1.88 1.88 0 0 0-1.874-1.874 1.88 1.88 0 0 0-1.873 1.874 1.88 1.88 0 0 0 1.873 1.873 1.88 1.88 0 0 0 1.874-1.873M20.991 93.504a1.88 1.88 0 0 0-1.874 1.874 1.88 1.88 0 0 0 1.874 1.873 1.88 1.88 0 0 0 1.874-1.873 1.88 1.88 0 0 0-1.874-1.874" clip-rule="evenodd"/><path stroke="#d0a067" stroke-linecap="round" stroke-linejoin="round" stroke-width=".7" d="M98.498 146.219c-.062 2.03-1.936 3.935-1.155 1.998-.156.469-.25 1.218-.469 1.156-.343-.094-.687.094-.437-2.249"/></g><defs><clipPath id="a"><path fill="#fff" d="M0 0h248v202.529H0z"/></clipPath></defs></svg>