<svg width="20" height="20" viewBox="0 0 20 20" fill="none" xmlns="http://www.w3.org/2000/svg">
<path d="M19 4.5C19 6.15685 17.6569 7.5 16 7.5C14.3431 7.5 13 6.15685 13 4.5C13 2.84315 14.3431 1.5 16 1.5C17.6569 1.5 19 2.84315 19 4.5Z" fill="#A2AD00"/>
<path d="M12.0376 3.72983C11.0395 3.26163 9.92532 3 8.75 3C4.46979 3 1 6.46979 1 10.75C1 15.0302 4.46979 18.5 8.75 18.5C13.0302 18.5 16.5 15.0302 16.5 10.75C16.5 9.93049 16.3728 9.14069 16.1371 8.39927C15.8689 8.46509 15.5885 8.5 15.3 8.5C14.9455 8.5 14.6032 8.44729 14.2807 8.34927C14.6005 9.08489 14.7778 9.89674 14.7778 10.75C14.7778 14.0791 12.0791 16.7778 8.75 16.7778C5.42095 16.7778 2.72222 14.0791 2.72222 10.75C2.72222 7.42095 5.42095 4.72222 8.75 4.72222C9.8826 4.72222 10.9422 5.0346 11.8475 5.57789C11.8162 5.3899 11.8 5.19685 11.8 5C11.8 4.55196 11.8842 4.12359 12.0376 3.72983Z" fill="black"/>
<path d="M7.88891 10.75V6.44449H9.61113V9.88893H13.0556V11.6112H8.75002C8.27444 11.6112 7.88891 11.2256 7.88891 10.75Z" fill="black"/>
</svg>
