<svg width="300" height="178" viewBox="0 0 300 178" fill="none" xmlns="http://www.w3.org/2000/svg">
<g clip-path="url(#clip0_10879_7734)">
<g clip-path="url(#clip1_10879_7734)">
<path d="M135.549 162.714C141.067 162.592 254.756 163.141 260.274 163.445C263.506 163.628 266.982 164.177 269.695 166.86C271.128 168.293 271.646 170.366 270.122 172.165C267.134 175.671 261.921 176.037 258.171 176.281C239.268 177.5 65.4269 177.104 46.5855 176.921C42.0733 176.921 33.2623 177.073 29.7562 172.927C28.7196 171.708 28.7806 170.153 29.7562 168.903C32.8355 164.909 41.3111 164.33 45.4574 164.025C59.9696 162.897 121.098 163.08 135.579 162.744H135.549V162.714Z" fill="#22A8C3"/>
<path d="M221.007 113.415C199.513 110.366 185.245 131.951 192.532 151.463C199.94 171.402 226.556 179.207 240.794 161.707C255.184 143.994 243.141 116.524 221.007 113.415ZM195.977 152.317C187.836 134.024 200.733 113.049 221.465 116.311C242.044 119.543 252.013 147.226 236.708 162.043C223.599 174.726 202.989 168.018 195.977 152.317Z" fill="#00151A"/>
<path d="M140.428 106.799C120.763 104.024 107.165 122.774 111.403 141.219C115.671 159.848 137.196 171.86 154.086 160.335C175.61 145.671 165.763 110.366 140.428 106.799ZM116.251 146.555C107.684 128.598 119.848 106.372 140.854 109.665C160.062 112.652 169.543 137.47 157.897 152.866C146.19 168.323 124.056 162.957 116.22 146.585L116.251 146.555Z" fill="#00151A"/>
<path d="M214.879 114.511C215.793 114.267 215.641 115.334 215.732 116.035C216.921 124.145 217.379 132.346 218.354 140.456L223.141 133.414C226.464 128.871 229.116 123.414 232.531 118.993C232.714 118.779 233.019 118.261 233.293 118.292C233.812 118.322 233.537 119.023 233.385 119.298C232.866 120.334 231.616 121.798 230.915 122.834C226.83 129.145 222.805 135.487 218.568 141.737C218.049 143.017 219.848 143.688 220.732 144.237C227.653 143.535 234.604 142.712 241.555 142.133C242.744 142.042 244.818 141.676 245.854 141.767C246.891 141.859 246.22 141.798 246.281 142.011C246.342 142.499 246.098 142.56 245.702 142.621C240.123 143.109 234.574 143.596 228.994 144.176C226.83 144.389 224.238 144.511 222.165 144.907C221.982 144.938 221.83 144.907 221.677 145.09C227.805 149.328 233.598 154.023 239.452 158.596C239.818 158.871 241.555 159.938 241.525 160.304C241.525 160.67 241.281 160.7 241.129 160.731C240.58 160.792 233.629 154.999 232.592 154.206C228.69 151.218 224.635 148.353 220.702 145.395C220.488 145.06 219.025 145.151 218.873 145.304C219.391 152.895 221.007 160.395 221.616 167.987C221.616 168.596 221.86 170.029 221.738 170.517C221.616 170.975 221.037 170.914 220.946 170.578L218.019 145.395L215.915 145.761C214.177 148.322 212.379 150.883 210.58 153.383C208.202 156.645 205.671 160.273 203.11 163.353C202.409 164.176 201.677 164.054 202.257 163.078C205.885 158.109 209.787 153.292 213.263 148.2C213.446 147.956 214.879 145.914 214.787 145.822L192.714 148.84C192.348 148.718 192.318 148.2 192.653 148.048C193.019 147.895 194.482 147.743 195.031 147.651C201.769 146.554 208.568 145.853 215.305 144.907C215.915 144.694 216.494 143.231 216.921 142.743L195.275 126.157C195.062 125.944 195.123 125.517 195.427 125.456L217.531 141.92L214.818 114.542H214.879V114.511Z" fill="#00151A"/>
<path d="M137.592 134.633L133.751 107.896C133.934 107.499 134.604 107.713 134.543 108.17C135.793 116.524 137.165 124.847 138.232 133.2L150.214 110.243C150.214 110.639 150.702 110.822 150.489 111.219L138.598 134.572C138.354 135.274 138.598 136.005 139.421 135.975C145.671 135.731 151.921 135.365 158.202 135.243C160.336 135.213 163.019 134.999 165.092 135.152C165.915 135.213 165.915 136.036 165.092 136.066C162.928 136.158 160.702 136.005 158.507 136.066C152.409 136.219 146.312 136.615 140.214 136.707C140.092 137.011 140.245 136.92 140.367 137.011C140.824 137.438 141.434 137.865 141.922 138.292C148.019 143.292 154.452 147.926 160.763 152.652C160.976 153.139 160.58 153.475 160.123 153.2L154.94 149.42L138.873 137.011C139.482 142.713 140.611 148.353 141.434 154.024C141.8 156.676 142.318 159.511 142.501 162.194C142.562 162.835 142.867 164.085 141.861 163.627C140.763 154.694 139.208 145.853 137.897 136.95L137.47 136.889C133.568 144.268 129.665 151.676 126.037 159.176C125.915 159.45 125.55 159.542 125.306 159.359C124.97 159.085 125.732 157.774 125.915 157.408C129.117 150.487 133.08 143.78 136.434 136.92C130.428 137.164 124.452 137.194 118.446 137.316C117.501 137.316 111.403 137.713 111.129 137.499C110.885 137.316 111.037 136.889 111.403 136.768C112.104 136.554 114.635 136.585 115.58 136.554C122.44 136.31 129.482 136.554 136.312 136.066C136.8 136.036 137.074 136.005 137.104 135.426C130.184 129.603 123.172 123.841 116.678 117.56C116.586 116.95 116.922 116.646 117.409 117.042C122.867 122.438 128.812 127.286 134.635 132.286L137.592 134.572V134.633Z" fill="#00151A"/>
<path d="M242.622 125.182C239.116 119.969 232.897 115 226.83 113.231C216.952 110.365 205.885 113.048 198.11 119.573L192.5 112.652L192.104 111.859L197.622 93.5971C197.866 91.9813 195.854 91.7679 195.58 93.4142L180.976 141.554L154.848 101.189V100.762C155.336 99.0849 156.86 96.7679 157.165 95.1215C157.257 94.6642 157.074 93.841 156.555 93.8105L144.055 92.774L150.366 73.1703L150.488 72.774C150.854 72.0118 150.397 71.4325 149.817 71.3105H149.665C149.299 71.3105 148.933 71.463 148.72 71.8898C148.689 72.0423 148.628 72.1642 148.567 72.3166C145.976 80.1825 143.598 88.1398 140.854 95.9447L124.482 92.4386V74.9081C124.482 74.1154 123.598 73.5362 122.897 73.9935C122.439 74.2984 122.47 74.9996 122.439 75.4874C122.165 81.1886 122.775 87.2252 122.5 92.9569C122.653 94.0849 123.08 94.2374 124.055 94.4813C129.696 95.9447 135.824 96.5849 141.494 98.0788C142.836 98.1398 142.988 95.7008 143.324 94.7252L154.817 95.6703L149.604 108.231C148.354 107.743 147.135 107.195 145.854 106.798C136.982 104.085 127.683 105.792 119.848 110.487C119.238 110.823 116.311 112.713 116.128 113.17C115.793 113.993 116.311 114.786 117.226 114.603C118.567 113.78 119.787 112.804 121.128 112.012C129.482 107.103 139.665 105.853 148.659 109.969L148.567 110.365L132.958 140.609C132.927 140.731 133.08 140.945 133.141 140.945L165 143.567L164.513 146.28C164.513 147.286 165.793 147.743 166.372 146.859C169.665 132.804 164.421 116.372 151.433 109.207L153.811 103.353L154.299 103.872C163.08 116.646 170.793 130.579 179.726 143.231C179.909 143.506 180.488 144.451 180.763 144.451L245.915 149.817C245.915 151.25 244.726 153.567 244.97 154.878C245.092 155.487 246.403 155.701 246.708 155.091C247.013 153.963 247.378 152.774 247.622 151.615C249.299 143.597 247.287 131.981 242.683 125.122L242.622 125.182ZM190.153 143.262C189.878 140.426 190.458 137.439 191.159 134.725C192.348 130.152 194.482 125.884 197.836 122.53L216.311 145.426L190.122 143.262H190.153Z" fill="#C91D39"/>
<path d="M221.433 126.22C217.226 126.555 216.341 133.994 221.433 133.842C226.006 133.72 226.89 125.793 221.433 126.22ZM221.158 131.89C219.055 131.799 219.787 128.171 221.951 128.171C224.116 128.171 223.445 131.982 221.158 131.89Z" fill="#EADADB"/>
<path d="M228.78 123.75C229.512 123.597 229.634 123.994 230.091 124.207C230.945 124.573 231.738 124.756 232.713 124.695C233.445 124.665 234.299 123.841 234.878 124.756C235.793 126.189 233.384 126.707 232.439 126.707C231.494 126.707 228.567 126.189 228.14 125C227.988 124.543 228.354 123.841 228.811 123.75H228.78Z" fill="#EADADB"/>
<path d="M220.366 123.049C220.884 122.988 224.756 123.293 225.244 123.445C226.25 123.75 226.281 125.336 225.092 125.397C224.391 125.458 220.793 125.183 220.153 125C219.208 124.756 219.238 123.201 220.336 123.019H220.366V123.049Z" fill="#EADADB"/>
<path d="M230.061 127.622C225.853 127.957 224.969 135.396 230.061 135.244C234.634 135.122 235.518 127.195 230.061 127.622ZM229.786 133.262C227.683 133.171 228.414 129.543 230.579 129.543C232.744 129.543 232.073 133.384 229.786 133.262Z" fill="#EADADB"/>
<path d="M188.08 90.64C186.799 89.6948 186.067 88.2924 188.202 87.957C191.616 88.079 195.061 88.018 198.476 88.0485C199.909 88.0485 201.311 88.0485 202.714 88.079C204.086 88.079 206.677 88.018 207.927 88.2619C209.787 88.6583 210.122 90.3046 208.903 91.6765C206.555 94.268 201.403 94.6034 196.647 93.7802C193.171 93.1704 189.939 91.9814 188.08 90.6704V90.64Z" fill="#00151A"/>
<path d="M157.378 74.6038C155.64 74.3904 152.408 73.8111 150.305 73.1708C149.908 73.0489 149.573 72.9269 149.299 72.805C148.933 72.6526 148.689 72.4696 148.567 72.2867C148.597 72.1343 148.658 72.0123 148.719 71.8599C148.933 71.433 149.299 71.2501 149.664 71.2806H149.817C150.488 71.4026 156.677 72.5611 157.835 72.9879C159.055 73.4452 158.628 74.7257 157.408 74.6038H157.378Z" fill="#00151A"/>
<path d="M163.11 170.883C161.677 168.383 157.988 165.944 155.061 164.999C154.908 164.938 154.725 164.908 154.573 164.908C153.78 164.908 148.475 164.908 142.957 164.847C137.439 164.847 132.103 164.908 131.341 164.908C130.579 164.908 131.006 164.908 130.853 164.999C127.927 165.914 124.238 168.383 122.805 170.883C122.561 171.31 122.439 171.767 122.835 171.798H163.079C163.506 171.798 163.353 171.31 163.11 170.883Z" fill="#00404D"/>
<path d="M141.006 101.402C139.908 101.615 139.664 102.256 139.725 103.231C139.756 105.243 139.847 109.054 139.969 113.841C140.305 127.896 140.762 150.792 141.067 164.542C141.067 165.548 141.067 166.249 141.494 166.707C142.561 167.743 145.518 167.621 145.579 165.792C145.732 155.701 146.128 112.774 146.189 102.865C146.189 102.073 145.701 101.676 145 101.493C143.902 101.188 142.164 101.158 141.006 101.402Z" fill="#00404D"/>
<path d="M91.6774 0.457297C90.3055 0.335345 59.4518 -0.365874 53.7201 0.792663C52.6225 1.00608 51.8604 1.85974 51.8604 3.07925V103.78H93.8725V2.65242C93.8725 1.34144 93.2323 0.609736 91.6774 0.457297Z" fill="#00404D"/>
<path d="M67.8045 11.189C63.6887 11.8597 63.4448 19.2073 68.4448 18.6585C72.9265 18.1707 73.1399 10.3353 67.8045 11.189ZM67.9875 16.7682C65.9143 16.8597 66.3411 13.2317 68.4753 13.0487C70.5484 12.8658 70.2436 16.6768 67.9875 16.7682Z" fill="#99D9E5"/>
<path d="M74.7558 8.17013C75.457 7.95671 75.6094 8.35306 76.0667 8.50549C76.9509 8.77988 77.7131 8.93232 78.6582 8.77988C79.3594 8.68842 80.1521 7.83476 80.7924 8.65793C81.7985 9.96891 79.4814 10.6701 78.5363 10.7616C77.4387 10.8531 74.7253 10.5787 74.207 9.45062C74.0241 9.02379 74.3289 8.29208 74.7558 8.17013Z" fill="#99D9E5"/>
<path d="M66.4635 8.17056C66.9818 8.04861 70.7623 8.04861 71.2806 8.17056C72.2866 8.38398 72.4391 9.93886 71.2806 10.0913C70.5793 10.1828 67.0732 10.2132 66.433 10.0913C65.4879 9.90837 65.3964 8.38398 66.433 8.14008L66.4635 8.17056Z" fill="#99D9E5"/>
<path d="M76.3412 11.8599C72.2253 12.5306 71.9814 19.8782 76.9814 19.3294C81.4631 18.8416 81.6765 11.0062 76.3412 11.8599ZM76.5546 17.4086C74.4814 17.5001 74.9082 13.8721 77.0424 13.6891C79.1155 13.5062 78.8107 17.3172 76.5546 17.4086Z" fill="#99D9E5"/>
<path d="M86.6775 41.5548C85.6714 41.4633 63.0495 40.945 58.8422 41.7987C58.0495 41.9511 57.4702 42.5609 57.4702 43.4755V89.4511C57.4702 89.6036 57.5617 89.817 57.7141 90.0304C57.897 90.2743 58.1409 90.5182 58.3544 90.5792C59.7873 90.8841 84.8788 90.9755 87.2873 90.5792C88.2019 90.4268 88.2324 89.6341 88.2934 88.8414V43.1402C88.2934 42.195 87.8361 41.6463 86.6775 41.5243V41.5548Z" fill="#99D9E5"/>
<path d="M93.8725 103.75V168.11C93.8116 169.177 93.7506 170.274 92.5006 170.488C89.2384 170.976 55.0006 170.854 53.0494 170.488C52.4701 170.366 51.8604 169.451 51.8604 168.963V103.78H93.8725V103.75Z" fill="#22A8C3"/>
<path d="M88.2626 45.4873C87.8968 46.3715 87.5614 47.1032 87.1651 47.8044C82.0126 58.0178 72.1956 59.5727 63.2016 63.0178C61.1285 63.8105 59.2077 64.7861 57.4395 65.9141V89.4507C57.4395 89.6032 57.5309 89.8166 57.6834 90.03C60.8236 79.0544 67.409 73.78 80.0004 69.6336C83.476 68.6275 88.0492 66.158 88.2321 62.0117C88.2321 61.7373 88.2321 61.4629 88.2626 61.1885V45.4873Z" fill="#70C9DB"/>
</g>
</g>
<defs>
<clipPath id="clip0_10879_7734">
<rect width="300" height="177.012" fill="white"/>
</clipPath>
<clipPath id="clip1_10879_7734">
<rect width="242.073" height="177.012" fill="white" transform="translate(28.9634 0.12207)"/>
</clipPath>
</defs>
</svg>
