<svg width="201" height="215" viewBox="0 0 201 215" fill="none" xmlns="http://www.w3.org/2000/svg">
<g clip-path="url(#clip0_10879_16781)">
<path d="M158.099 130.469C126.556 128.639 108.474 161.624 121.357 189.073C134.499 217.086 174.016 225.244 192.554 198.176C211.322 170.773 190.573 132.36 158.099 130.485V130.469ZM126.434 189.85C112.453 164.308 128.66 132.345 159.09 134.571C189.292 136.783 207.084 175.775 186.654 199.091C169.183 219.037 138.463 211.809 126.434 189.85Z" fill="#00151A"/>
<path d="M40.478 130.469C11.633 128.807 -5.83864 157.613 2.50078 183.857C10.9317 210.376 43.5424 225.213 66.6702 206.487C96.1249 182.653 77.6471 132.619 40.478 130.469ZM10.1694 191.024C-4.40554 165.985 10.581 132.315 41.4537 134.571C69.6736 136.63 86.3829 171.46 71.3354 195.172C56.2268 218.976 23.4637 213.868 10.1694 191.024Z" fill="#00151A"/>
<path d="M151.056 132.376C152.351 131.979 152.214 133.535 152.397 134.556C154.577 146.268 155.706 158.177 157.611 169.935L164.152 159.413C168.695 152.596 172.262 144.529 176.989 137.911C177.233 137.576 177.644 136.828 178.071 136.844C178.849 136.874 178.467 137.896 178.284 138.308C177.598 139.832 175.86 142.028 174.915 143.614C169.32 153.023 163.862 162.493 158.069 171.795C157.413 173.686 160.02 174.57 161.346 175.318C171.393 173.899 181.425 172.298 191.503 171.063C193.21 170.865 196.213 170.224 197.738 170.285C199.263 170.346 198.287 170.316 198.378 170.636C198.5 171.338 198.165 171.429 197.586 171.566C189.521 172.573 181.44 173.625 173.391 174.784C170.28 175.226 166.5 175.546 163.496 176.233C163.237 176.294 162.993 176.233 162.81 176.507C171.957 182.332 180.648 188.813 189.444 195.127C189.993 195.523 192.6 196.956 192.585 197.505C192.555 198.054 192.25 198.1 192.036 198.146C191.228 198.268 180.815 190.262 179.245 189.164C173.375 185.031 167.353 181.128 161.438 177.041C161.103 176.568 158.983 176.782 158.785 177.026C159.959 188.036 162.734 198.832 164.075 209.842C164.182 210.711 164.548 212.77 164.38 213.502C164.228 214.188 163.389 214.127 163.252 213.624L157.535 177.193L154.486 177.864C152.092 181.692 149.653 185.504 147.153 189.24C143.875 194.105 140.399 199.534 136.877 204.154C135.917 205.405 134.834 205.267 135.612 203.788C140.612 196.346 145.979 189.118 150.751 181.524C150.995 181.143 152.961 178.108 152.824 177.971L120.899 183.613C120.351 183.446 120.274 182.698 120.762 182.47C121.311 182.226 123.43 181.921 124.193 181.783C133.919 179.816 143.768 178.398 153.51 176.614C154.364 176.263 155.126 174.098 155.736 173.351L123.324 150.477C123.019 150.187 123.064 149.546 123.491 149.424L156.575 172.1L151.056 132.452V132.376Z" fill="#00151A"/>
<path d="M40.0513 170.926L40.7831 131.644C41.1185 131.095 42.0485 131.583 41.8808 132.223C41.7131 144.499 41.774 156.774 41.3319 169.035L63.8804 138.856C63.8042 139.421 64.4597 139.787 64.0481 140.32L41.4996 171.094C40.9813 172.039 41.1947 173.137 42.3534 173.32C51.3941 174.448 60.4653 175.363 69.4756 176.629C72.5705 177.071 76.4276 177.407 79.3853 178.093C80.544 178.383 80.361 179.557 79.2176 179.42C76.077 179.054 72.9059 178.322 69.7652 177.91C60.9684 176.705 52.1259 175.867 43.3596 174.57C43.1309 174.967 43.3596 174.906 43.4968 175.058C44.0457 175.76 44.8384 176.553 45.4483 177.254C53.0407 185.855 61.2124 193.998 69.1554 202.278C69.3231 203.041 68.7133 203.437 68.1035 202.919L61.5173 196.255L41.3319 174.677C40.8898 183.019 41.1947 191.375 41.0575 199.732C40.9813 203.636 41.027 207.829 40.6916 211.703C40.6154 212.633 40.7831 214.493 39.4414 213.624C39.975 200.54 39.7769 187.456 39.975 174.372L39.3805 174.189C32.0777 183.888 24.7293 193.602 17.7467 203.544C17.5181 203.925 16.954 203.971 16.649 203.651C16.2527 203.193 17.64 201.485 17.9602 201.013C24.1652 191.802 31.4527 183.11 37.8559 174.037C29.1963 173 20.5825 171.627 11.9229 170.407C10.566 170.209 1.72346 169.34 1.35756 168.959C1.05264 168.654 1.3728 168.059 1.9369 167.967C2.98885 167.815 6.63259 168.471 7.97422 168.638C17.884 169.889 27.9309 171.841 37.8559 172.786C38.5572 172.847 38.9841 172.878 39.1365 172.054C30.5684 162.066 21.8479 152.154 13.981 141.632C13.9963 140.747 14.5299 140.381 15.1702 141.083C21.7411 150.095 29.1811 158.452 36.3466 166.976L40.0513 170.941V170.911H40.0665L40.0513 170.926Z" fill="#00151A"/>
<path d="M154.577 177.498H117.393C116.676 173.427 116.631 168.959 117.347 164.902C118.536 158.132 121.128 151.666 125.58 146.405L123.598 144.377C124.147 143.508 123.598 144.422 123.598 144.422L115.807 137.286L115.396 136.173L121.753 104.545C121.921 102.151 118.948 102.09 118.78 104.515L106.477 165.68C106.096 165.68 105.501 165.055 105.196 164.689C90.7585 147.411 77.9063 128.136 63.6363 110.66L62.8892 109.989C62.7215 109.837 62.4928 109.746 62.1879 109.746H43.954L50.7841 80.5583L50.9213 79.9483C51.3482 78.8046 50.6164 77.9964 49.7931 77.8896H49.5644C49.0308 77.8896 48.5125 78.1946 48.2533 78.8504C48.2076 79.0638 48.1466 79.2773 48.1008 79.4756C45.2651 91.1871 42.7648 103.005 39.7309 114.656L15.5664 111.53L13.4777 86.109C13.3405 84.9806 12.0446 84.2029 11.0842 84.9806C10.4591 85.4838 10.5811 86.4903 10.6115 87.2222C10.886 95.5331 12.502 104.195 12.7764 112.567C13.1118 114.198 13.7674 114.351 15.231 114.61C23.6009 116.074 32.5349 116.242 40.9353 117.736C42.8716 117.66 42.8106 114.122 43.1917 112.673H59.962L53.9247 131.506C52.0495 130.942 50.22 130.317 48.299 129.89C35.1115 127.008 21.8172 130.591 11.0232 138.338C10.1999 138.917 6.15979 141.998 5.96159 142.654C5.90061 142.852 5.87012 143.05 5.87012 143.248C5.87012 144.209 6.6324 144.91 7.7301 144.621C9.55959 143.264 11.2214 141.723 13.0814 140.412C22.9301 133.473 35.02 130.241 46.7745 132.498C48.7717 132.879 50.7689 133.428 52.7356 134.144C52.7661 134.144 52.7813 134.175 52.8118 134.175L38.6942 173.244C38.2064 175.592 41.1488 176.05 41.6367 173.671L55.5103 135.364C82.8764 148.525 80.4371 180.945 80.4371 180.945L80.0712 184.955C80.1932 186.434 82.0989 186.907 82.8307 185.58C85.9103 164.796 76.214 141.342 56.5013 132.498L59.3827 123.988L60.1602 124.675C74.4303 142.15 87.008 161.471 101.446 178.749C101.659 179.008 102.208 179.74 102.65 180.136C102.833 180.319 103.016 180.441 103.138 180.441H157.306L154.592 177.498H154.577Z" fill="#C91D39"/>
<path d="M107.605 101.374C105.623 100.169 104.418 98.217 107.452 97.4545C112.422 97.2105 117.393 96.7378 122.363 96.3413C124.421 96.1736 126.464 96.0058 128.507 95.8838C130.519 95.7618 134.254 95.3043 136.069 95.5483C138.813 95.8991 139.499 98.2627 137.883 100.382C134.788 104.439 127.379 105.506 120.381 104.881C115.289 104.423 110.425 103.097 107.605 101.374Z" fill="#00151A"/>
<path d="M61.2119 81.7935C58.6659 81.702 53.894 81.2598 50.7686 80.5583C50.1893 80.4363 49.6861 80.2838 49.244 80.1465C48.7104 79.9636 48.3293 79.7348 48.1006 79.4756C48.1463 79.2621 48.2073 79.0486 48.253 78.8504C48.5122 78.1946 49.0306 77.9049 49.5642 77.8896H49.7929C50.7838 77.9964 59.8856 78.9114 61.6236 79.4146C63.4683 79.9483 62.9957 81.8545 61.2119 81.7935Z" fill="#00151A"/>
<path d="M201.412 157.567L165.127 180.441H157.291L154.577 177.498L154.394 177.3L154.287 177.193L125.58 146.405L123.598 144.377C123.598 144.377 136.922 127.221 161.3 128.899C166.499 129.249 171.698 130.195 176.455 132.36C186.959 137.118 194.872 145.947 201.412 157.567Z" fill="#C91D39"/>
<path fill-rule="evenodd" clip-rule="evenodd" d="M165.464 85.0657C165.874 85.2182 166.145 85.6093 166.145 86.0466V97.5584H172.767C173.176 97.5584 173.547 97.7971 173.718 98.1694C173.888 98.5417 173.826 98.9791 173.558 99.2889L160.316 114.637C160.031 114.968 159.57 115.087 159.161 114.934C158.751 114.782 158.48 114.391 158.48 113.953V102.442H151.858C151.449 102.442 151.078 102.203 150.907 101.831C150.737 101.458 150.799 101.021 151.067 100.711L164.309 85.3625C164.594 85.0316 165.055 84.9133 165.464 85.0657Z" fill="#C91D39"/>
<path d="M86.9185 187.676L87.2782 187.913C100.877 179.704 114.476 171.493 128.081 163.281L128.087 162.824C123.387 156.764 117.603 149.136 112.458 143.6C111.959 143.063 111.315 142.102 110.467 142.584C106.355 145.41 102.277 148.332 98.4786 151.569C96.7181 153.07 94.4386 154.991 92.9346 156.703C92.4504 157.256 91.1179 158.687 91.2241 159.381C91.2772 159.728 91.7356 160.361 91.8722 160.882C92.2197 162.21 92.6143 163.926 92.1727 165.26C91.5049 167.277 88.4286 169.519 87.0141 171.17C82.3882 176.573 83.4567 181.976 86.92 187.676H86.9185Z" fill="#C1DB70"/>
<path d="M86.9186 187.676C87.4619 188.572 88.4514 190.297 89.6428 189.925L128.925 166.673C130.77 165.491 128.992 163.993 128.085 162.826L86.9186 187.678V187.676Z" fill="#86B200"/>
<path d="M56.5997 101.929C58.8094 92.1828 71.5776 88.1215 79.8277 85.1575C88.0808 82.1935 97.5905 79.9443 105.505 76.66C113.64 73.2847 120.225 63.5883 128.478 60.4103C130.594 59.5953 130.715 60.0036 132.169 61.5668C142.42 72.5805 144.485 91.468 128.932 98.7255C123.79 101.125 117.105 102.432 110.57 103.497C113.28 104.506 115.145 104.878 118.701 105.192C118.015 108.938 112.971 131.961 111.118 140.862L118.059 148.918C115.772 150.304 113.01 152.09 110.676 153.412C107.996 154.931 105.281 156.39 102.523 157.749C99.5696 159.205 95.6737 161.198 92.5974 162.192C91.9311 162.409 90.8885 162.902 90.2207 162.53C88.6378 160.158 87.0199 157.799 85.3839 155.447C77.0534 143.463 68.266 131.638 61.2529 118.882C58.3693 113.637 55.1943 108.134 56.5997 101.929ZM91.2542 117.974C91.3802 117.507 91.5077 117.039 91.6352 116.573C92.567 113.154 93.5383 109.744 94.5309 106.34C90.8384 107.161 87.1596 108.05 83.4246 108.657L91.2542 117.974Z" fill="#86B200"/>
<path d="M35.8909 29.4618C35.8712 33.1012 36.3644 37.2232 38.2585 40.3936C43.1985 48.6619 55.2139 44.121 61.4212 39.9277C65.3854 40.3542 69.0324 41.8597 72.4638 43.7993C76.0258 41.3756 79.1295 36.3505 78.5876 31.9114C78.5543 31.6351 78.4419 31.0402 78.3114 30.8293C77.6892 29.8185 70.937 28.8259 69.4831 28.8775C72.2498 22.0799 69.0779 12.6202 62.69 8.97474C57.1869 5.83468 49.0203 5.7937 43.9513 9.85651C40.6109 12.5337 31.904 22.3758 31.4684 26.5069C31.1694 29.3389 33.6508 29.6758 35.8894 29.4618H35.8909Z" fill="#994000"/>
<path d="M72.7858 30.8231C79.6942 31.1509 81.5731 26.4279 75.3689 22.7051L72.3973 21.1161C75.8424 20.6365 82.033 18.5421 80.7566 14.0179C79.7018 10.2753 73.9605 9.31767 70.6489 9.07484C72.5748 7.45245 74.7557 5.49313 72.206 3.15136C66.7788 -1.8342 54.2777 1.17232 48.9203 5.31101C46.4875 7.18989 45.3645 7.78027 47.0718 10.808C49.0994 14.4034 53.094 17.3128 56.6514 19.266C54.7877 22.3499 57.0323 26.5068 58.7245 29.2523C60.8796 32.7506 64.7725 37.0198 69.3376 36.4021C72.1954 36.0151 74.1016 33.6338 72.7858 30.8246V30.8231Z" fill="#C1DB70"/>
<path d="M64.6769 19.9992C56.3616 18.7972 52.8315 28.1112 57.9293 33.5414C63.3869 39.3541 71.1073 29.3192 69.189 23.6431C68.6031 21.913 66.489 20.2603 64.6784 19.9992H64.6769Z" fill="#994000"/>
<path d="M166.95 10.0736C154.329 28.5118 146.232 32.1345 130.934 29.5317C109.621 25.9059 92.276 16.8485 79.0555 28.0777C77.7245 27.6452 76.4284 27.0928 75.4116 26.727C73.9516 26.2019 72.4339 28.1475 71.6401 29.2327C69.6687 31.9296 67.509 36.1108 66.7153 39.0217C66.3344 40.4164 65.5952 41.922 67.1554 42.7597C69.0707 43.7887 72.44 44.5551 74.633 45.3792C75.7363 45.7935 76.7759 46.352 77.893 46.7239C79.6413 44.3791 72.1228 37.3644 74.2399 35.2928C88.3634 21.4819 116.328 44.3639 139.468 46.3232C151.649 47.3552 163.346 45.7161 176.37 35.2928C182.403 30.465 189.867 20.1631 190.011 18.7547C190.193 16.9851 167.481 9.29196 166.947 10.0705L166.95 10.0736Z" fill="#86B200"/>
<path d="M58.3419 77.3172L64.9878 75.1757C66.1473 74.4108 64.4778 70.4421 63.9892 69.401C63.3017 67.9364 60.6806 63.564 59.1478 63.1679C57.9776 62.8659 54.2351 65.0483 53.0968 65.7616C48.4649 68.6649 43.1894 74.3122 44.0044 80.2569C44.871 86.5795 54.4749 87.9348 57.9033 82.799C59.1023 81.0006 58.7501 79.2841 58.3419 77.3172Z" fill="#994000"/>
<path d="M82.4521 51.3801C82.4323 51.6441 82.1774 51.7124 81.977 51.7762C73.3794 54.4791 61.0164 58.4205 53.7346 62.793C51.619 64.0633 51.4885 65.1211 52.4552 67.4492C53.7225 70.4997 57.2845 74.0146 60.0375 75.7888C61.4611 76.707 63.17 77.7071 64.9578 77.1623C72.8968 74.7492 96.9185 68.2611 96.9185 68.2611C97.5301 68.3143 98.5242 71.1918 98.767 71.858C99.5426 73.9737 100.089 76.15 100.52 78.3613C105.199 77.5372 109.731 75.9375 114.153 74.2393C123.268 70.741 132.798 66.4764 139.334 59.02L134.334 54.0011C140.966 45.9225 133.121 40.7366 126.05 37.9775C118.829 35.1592 110.487 32.7597 102.878 31.2451C95.2946 29.735 75.7454 26.2884 73.5661 36.9591C72.1455 43.9131 77.2267 48.073 82.4521 51.3801Z" fill="#C1DB70"/>
<path d="M41.5688 22.2697C41.1044 22.7402 41.1272 24.9939 42.1652 24.7253C43.475 24.3868 42.8953 20.9281 41.5688 22.2697Z" fill="#00151A"/>
<path d="M47.5406 19.2508C47.6514 19.2508 47.7622 19.2159 47.8578 19.1461C48.093 18.9716 48.1416 18.6377 47.9671 18.4024C47.2917 17.4964 46.4995 16.6829 45.6117 15.9878C44.8665 15.4035 44.0545 14.9027 43.197 14.4975C42.9314 14.373 42.6158 14.4853 42.4898 14.7509C42.3638 15.0165 42.4777 15.3322 42.7432 15.4582C43.5294 15.83 44.2731 16.2898 44.956 16.8241C45.7695 17.4615 46.4965 18.2067 47.1142 19.0368C47.2189 19.1765 47.3782 19.2508 47.5406 19.2508Z" fill="#00151A"/>
<path d="M37.9157 36.6268C37.9279 36.6268 37.9415 36.6268 37.9537 36.6268C39.6353 36.5069 41.2561 36.0759 42.7738 35.3474C44.3218 34.6037 45.6923 33.5823 46.8503 32.312C47.0476 32.095 47.0324 31.7596 46.8154 31.5623C46.5984 31.365 46.263 31.3802 46.0657 31.5972C45.0002 32.7658 43.7391 33.7053 42.314 34.3897C40.9177 35.0606 39.4243 35.4567 37.8778 35.5675C37.5849 35.5887 37.3648 35.8422 37.3861 36.1351C37.4058 36.4143 37.6395 36.6283 37.9157 36.6283V36.6268Z" fill="#00151A"/>
<path d="M97.4311 68.7013C97.4782 68.7013 97.5252 68.6952 97.5708 68.6831C100.034 68.0093 102.537 67.2975 105.009 66.5659C112.708 64.2894 116.947 63.0358 121.86 61.0052C126.041 59.2766 130.178 57.1898 134.157 54.7994C134.409 54.6476 134.49 54.3214 134.339 54.0709C134.188 53.819 133.863 53.7386 133.611 53.8888C129.677 56.2518 125.587 58.3159 121.454 60.0248C116.593 62.0342 112.373 63.2817 104.711 65.5476C102.242 66.2776 99.7471 66.9879 97.2915 67.6602C97.0077 67.7376 96.8423 68.029 96.9197 68.3128C96.9834 68.5495 97.1989 68.7043 97.4311 68.7043V68.7013Z" fill="#00151A"/>
<path d="M94.5292 106.871C94.5459 106.871 94.5626 106.871 94.5793 106.868C97.5266 106.593 100.164 106.218 103.062 105.79C105.566 105.421 108.09 104.99 110.532 104.573C111.866 104.345 113.244 104.11 114.582 103.89C114.872 103.843 115.068 103.57 115.021 103.28C114.974 102.99 114.701 102.794 114.411 102.841C113.068 103.061 111.688 103.297 110.352 103.526C107.917 103.942 105.399 104.373 102.907 104.74C100.025 105.165 97.4007 105.538 94.4807 105.81C94.1893 105.837 93.9738 106.095 94.0011 106.388C94.0269 106.663 94.2576 106.871 94.5292 106.871Z" fill="#00151A"/>
<path d="M110.773 141.393C110.896 141.393 111.019 141.351 111.119 141.266C111.342 141.075 111.368 140.739 111.177 140.516L92.2648 118.461C92.0736 118.238 91.7382 118.212 91.5151 118.404C91.292 118.595 91.2662 118.93 91.4574 119.153L110.369 141.208C110.474 141.331 110.623 141.393 110.773 141.393Z" fill="#00151A"/>
<path d="M93.4973 165.209C94.0983 165.209 94.719 165.122 95.2244 164.979L95.5143 164.899C96.1973 164.709 96.7375 164.56 97.1746 164.325C97.4326 164.187 97.5298 163.864 97.3917 163.606C97.252 163.348 96.9318 163.251 96.6723 163.389C96.3399 163.566 95.8512 163.703 95.2305 163.874L94.9376 163.956C93.725 164.296 92.4805 164.122 92.2619 163.902C92.2983 163.733 92.5928 163.407 93.0056 163.082C95.191 163.615 96.2337 163.175 96.8089 162.933C97.1443 162.792 97.9881 162.19 97.7468 161.498C97.6527 161.229 97.4554 161.02 97.1746 160.894C96.2033 160.455 94.3867 161.135 93.8524 161.354C93.5944 161.458 93.2014 161.662 92.7961 161.929L92.7688 161.921C89.7836 161.09 89.2964 160.563 89.216 160.41C89.4102 160.138 90.509 159.566 92.1542 159.323C94.1393 159.03 95.8178 159.056 97.0441 159.076H97.1731C97.4645 159.079 97.7073 158.848 97.7119 158.555C97.7164 158.262 97.4827 158.021 97.1883 158.016H97.0593C95.7981 157.995 94.0679 157.968 91.9963 158.274C90.7017 158.465 88.231 159.141 88.143 160.325C88.0762 161.234 89.1431 161.952 91.7914 162.748C91.3771 163.185 91.107 163.676 91.2208 164.155C91.2678 164.353 91.4014 164.635 91.7747 164.855C92.2027 165.107 92.8371 165.213 93.4958 165.213L93.4973 165.209ZM96.5918 161.82C96.522 161.879 96.4446 161.933 96.3961 161.955C96.0273 162.109 95.4839 162.339 94.4595 162.255C95.5097 161.851 96.2595 161.772 96.5918 161.82Z" fill="#00151A"/>
<path d="M98.9078 47.5645C99.143 47.5645 99.357 47.4082 99.4208 47.1699C99.4967 46.8861 99.3282 46.5947 99.0444 46.5203L89.1841 43.8917C88.9003 43.8158 88.6089 43.9843 88.5345 44.2681C88.4586 44.5519 88.6271 44.8433 88.9109 44.9177L98.7712 47.5463C98.8167 47.5584 98.8638 47.5645 98.9078 47.5645Z" fill="#00151A"/>
<path d="M82.966 51.8111C83.0146 51.8111 83.0632 51.8051 83.1117 51.7914C88.9487 50.1341 94.901 48.5785 100.802 47.1686C105.217 46.1138 109.71 45.1151 114.156 44.2015C114.443 44.1423 114.628 43.8615 114.569 43.5747C114.509 43.2879 114.229 43.1027 113.942 43.1619C109.486 44.0786 104.981 45.0787 100.556 46.1365C94.64 47.5495 88.674 49.1081 82.8219 50.77C82.5396 50.8504 82.3757 51.1433 82.4561 51.4256C82.5229 51.6594 82.7354 51.8111 82.9676 51.8111H82.966Z" fill="#00151A"/>
</g>
<defs>
<clipPath id="clip0_10879_16781">
<rect width="201" height="215" fill="white" transform="matrix(-1 0 0 1 201 0)"/>
</clipPath>
</defs>
</svg>
