<svg width="201" height="138" viewBox="0 0 201 138" fill="none" xmlns="http://www.w3.org/2000/svg">
<g clip-path="url(#clip0_10879_16897)">
<path d="M158.099 52.7142C126.556 50.8843 108.474 83.8686 121.357 111.317C134.499 139.33 174.016 147.489 192.554 120.421C211.322 93.0182 190.573 54.6052 158.099 52.7295V52.7142ZM126.434 112.095C112.453 86.5525 128.66 54.5899 159.09 56.8163C189.292 59.0275 207.084 98.02 186.654 121.336C169.183 141.282 138.463 134.054 126.434 112.095Z" fill="#00151A"/>
<path d="M40.478 52.7142C11.633 51.052 -5.83864 79.858 2.50078 106.102C10.9317 132.621 43.5424 147.458 66.6702 128.732C96.1249 104.897 77.6471 54.8644 40.478 52.7142ZM10.1694 113.269C-4.40554 88.2299 10.581 54.5594 41.4537 56.8163C69.6736 58.8749 86.3829 93.7044 71.3354 117.417C56.2268 141.221 23.4637 136.113 10.1694 113.269Z" fill="#00151A"/>
<path d="M151.056 54.6204C152.351 54.2239 152.214 55.7794 152.397 56.8011C154.577 68.5126 155.706 80.4223 157.611 92.1795L164.152 81.6575C168.695 74.841 172.262 66.7741 176.989 60.1559C177.233 59.8205 177.644 59.0732 178.071 59.0885C178.849 59.119 178.467 60.1407 178.284 60.5524C177.598 62.0774 175.86 64.2733 174.915 65.8592C169.32 75.268 163.862 84.7379 158.069 94.0399C157.413 95.9309 160.02 96.8153 161.346 97.5625C171.393 96.1444 181.425 94.5432 191.503 93.308C193.21 93.1097 196.213 92.4693 197.738 92.5303C199.263 92.5913 198.287 92.5608 198.378 92.881C198.5 93.5825 198.165 93.674 197.586 93.8112C189.521 94.8177 181.44 95.8699 173.391 97.0288C170.28 97.4711 166.5 97.7913 163.496 98.4775C163.237 98.5385 162.993 98.4775 162.81 98.752C171.957 104.577 180.648 111.058 189.444 117.371C189.993 117.768 192.6 119.201 192.585 119.75C192.555 120.299 192.25 120.345 192.036 120.391C191.228 120.513 180.815 112.507 179.245 111.409C173.375 107.276 167.353 103.373 161.438 99.2857C161.103 98.813 158.983 99.0265 158.785 99.2705C159.959 110.28 162.734 121.077 164.075 132.087C164.182 132.956 164.548 135.015 164.38 135.747C164.228 136.433 163.389 136.372 163.252 135.869L157.535 99.4382L154.486 100.109C152.092 103.937 149.653 107.749 147.153 111.485C143.875 116.35 140.399 121.778 136.877 126.399C135.917 127.649 134.834 127.512 135.612 126.033C140.612 118.591 145.979 111.363 150.751 103.769C150.995 103.388 152.961 100.353 152.824 100.216L120.899 105.858C120.351 105.69 120.274 104.943 120.762 104.714C121.311 104.47 123.43 104.166 124.193 104.028C133.919 102.061 143.768 100.643 153.51 98.8587C154.364 98.508 155.126 96.3426 155.736 95.5954L123.324 72.7214C123.019 72.4316 123.064 71.7912 123.491 71.6692L156.575 94.3449L151.056 54.6967V54.6204Z" fill="#00151A"/>
<path d="M40.0513 93.1707L40.7831 53.8884C41.1185 53.3394 42.0485 53.8274 41.8808 54.4679C41.7131 66.7436 41.774 79.0193 41.3319 91.2798L63.8804 61.1013C63.8042 61.6656 64.4597 62.0316 64.0481 62.5653L41.4996 93.3384C40.9813 94.2839 41.1947 95.3818 42.3534 95.5648C51.3941 96.6933 60.4653 97.6082 69.4756 98.8739C72.5705 99.3162 76.4276 99.6516 79.3853 100.338C80.544 100.628 80.361 101.802 79.2176 101.665C76.077 101.299 72.9059 100.567 69.7652 100.155C60.9684 98.9502 52.1259 98.1115 43.3596 96.8153C43.1309 97.2118 43.3596 97.1508 43.4968 97.3033C44.0457 98.0047 44.8384 98.7977 45.4483 99.4992C53.0407 108.1 61.2124 116.243 69.1554 124.523C69.3231 125.286 68.7133 125.682 68.1035 125.164L61.5173 118.5L41.3319 96.922C40.8898 105.263 41.1947 113.62 41.0575 121.977C40.9813 125.881 41.027 130.074 40.6916 133.947C40.6154 134.878 40.7831 136.738 39.4414 135.869C39.975 122.785 39.7769 109.701 39.975 96.617L39.3805 96.434C32.0777 106.133 24.7293 115.846 17.7467 125.789C17.5181 126.17 16.954 126.216 16.649 125.896C16.2527 125.438 17.64 123.73 17.9602 123.258C24.1652 114.047 31.4527 105.355 37.8559 96.2816C29.1963 95.2446 20.5825 93.8722 11.9229 92.6522C10.566 92.454 1.72346 91.5848 1.35756 91.2035C1.05264 90.8985 1.3728 90.3038 1.9369 90.2123C2.98885 90.0598 6.63259 90.7155 7.97422 90.8833C17.884 92.1337 27.9309 94.0856 37.8559 95.0311C38.5572 95.0921 38.9841 95.1226 39.1365 94.2991C30.5684 84.3108 21.8479 74.3988 13.981 63.8767C13.9963 62.9923 14.5299 62.6263 15.1702 63.3277C21.7411 72.3401 29.1811 80.6967 36.3466 89.2211L40.0513 93.1859V93.1554H40.0665L40.0513 93.1707Z" fill="#00151A"/>
<path d="M154.577 99.7432H117.393C116.676 95.6716 116.631 91.2035 117.347 87.1472C118.536 80.3765 121.128 73.9108 125.58 68.6498L123.598 66.6216C124.147 65.7524 123.598 66.6674 123.598 66.6674L115.807 59.5307L115.396 58.4175L121.753 26.7904C121.921 24.3962 118.948 24.3352 118.78 26.7599L106.477 87.9249C106.096 87.9249 105.501 87.2997 105.196 86.9337C90.7585 69.6562 77.9063 50.3811 63.6363 32.9053L62.8892 32.2344C62.7215 32.0819 62.4928 31.9904 62.1879 31.9904H43.954L50.7841 2.80315L50.9213 2.19318C51.3482 1.04948 50.6164 0.241267 49.7931 0.134521H49.5644C49.0308 0.134521 48.5125 0.439508 48.2533 1.09523C48.2076 1.30872 48.1466 1.52221 48.1008 1.72045C45.2651 13.4319 42.7648 25.2502 39.7309 36.9007L15.5664 33.7746L13.4777 8.35391C13.3405 7.22546 12.0446 6.44775 11.0842 7.22546C10.4591 7.72869 10.5811 8.73515 10.6115 9.46711C10.886 17.778 12.502 26.4396 12.7764 34.8115C13.1118 36.4432 13.7674 36.5957 15.231 36.8549C23.6009 38.3189 32.5349 38.4866 40.9353 39.981C42.8716 39.9048 42.8106 36.3669 43.1917 34.9183H59.962L53.9247 53.7512C52.0495 53.187 50.22 52.5617 48.299 52.1347C35.1115 49.2526 21.8172 52.8362 11.0232 60.5829C10.1999 61.1623 6.15979 64.2427 5.96159 64.8984C5.90061 65.0967 5.87012 65.2949 5.87012 65.4932C5.87012 66.4539 6.6324 67.1553 7.7301 66.8656C9.55959 65.5084 11.2214 63.9682 13.0814 62.6568C22.9301 55.7183 35.02 52.4855 46.7745 54.7424C48.7717 55.1236 50.7689 55.6726 52.7356 56.3893C52.7661 56.3893 52.7813 56.4198 52.8118 56.4198L38.6942 95.4886C38.2064 97.837 41.1488 98.2945 41.6367 95.9156L55.5103 57.6093C82.8764 70.7694 80.4371 103.19 80.4371 103.19L80.0712 107.2C80.1932 108.679 82.0989 109.152 82.8307 107.825C85.9103 87.0405 76.214 63.587 56.5013 54.7424L59.3827 46.2333L60.1602 46.9195C74.4303 64.3952 87.008 83.7161 101.446 100.994C101.659 101.253 102.208 101.985 102.65 102.381C102.833 102.564 103.016 102.686 103.138 102.686H157.306L154.592 99.7432H154.577Z" fill="#EDACB0"/>
<path d="M107.605 23.6185C105.623 22.4138 104.418 20.4618 107.452 19.6994C112.422 19.4554 117.393 18.9827 122.363 18.5862C124.421 18.4184 126.464 18.2507 128.507 18.1287C130.519 18.0067 134.254 17.5492 136.069 17.7932C138.813 18.1439 139.499 20.5076 137.883 22.6272C134.788 26.6836 127.379 27.751 120.381 27.1258C115.289 26.6683 110.425 25.3416 107.605 23.6185Z" fill="#00151A"/>
<path d="M61.2119 4.03835C58.6659 3.94685 53.894 3.50462 50.7686 2.80315C50.1893 2.68116 49.6861 2.52867 49.244 2.39142C48.7104 2.20843 48.3293 1.97969 48.1006 1.72045C48.1463 1.50696 48.2073 1.29347 48.253 1.09523C48.5122 0.439508 49.0306 0.149771 49.5642 0.134521H49.7929C50.7838 0.241267 59.8856 1.15623 61.6236 1.65945C63.4683 2.19318 62.9957 4.09935 61.2119 4.03835Z" fill="#00151A"/>
<path d="M201.412 79.8123L165.127 102.686H157.291L154.577 99.7432L154.394 99.5449L154.287 99.4382L125.58 68.6498L123.598 66.6216C123.598 66.6216 136.922 49.4661 161.3 51.1435C166.499 51.4943 171.698 52.4397 176.455 54.6051C186.959 59.3629 194.872 68.1923 201.412 79.8123Z" fill="#C91D39"/>
<path fill-rule="evenodd" clip-rule="evenodd" d="M167.192 18.0457C167.477 18.1516 167.666 18.4234 167.666 18.7273V26.727H172.273C172.557 26.727 172.816 26.8929 172.934 27.1516C173.052 27.4103 173.009 27.7143 172.823 27.9296L163.611 38.5955C163.413 38.8255 163.092 38.9077 162.807 38.8017C162.523 38.6959 162.334 38.4241 162.334 38.1202V30.1205H157.727C157.443 30.1205 157.184 29.9546 157.066 29.6959C156.948 29.4372 156.991 29.1332 157.177 28.9178L166.389 18.2519C166.587 18.022 166.908 17.9397 167.192 18.0457Z" fill="#C91D39"/>
</g>
<defs>
<clipPath id="clip0_10879_16897">
<rect width="201" height="138" fill="white" transform="matrix(-1 0 0 1 201 0)"/>
</clipPath>
</defs>
</svg>
