<svg width="189" height="201" viewBox="0 0 189 201" fill="none" xmlns="http://www.w3.org/2000/svg">
<g clip-path="url(#clip0_7598_3814)">
<path d="M167.273 200.833C162.732 200.833 158.241 199.365 154.625 196.43C150.584 193.151 148.028 188.365 147.432 182.956C147.209 180.967 147.262 178.954 147.599 176.986C147.73 176.181 147.918 175.359 148.152 174.565C151.027 164.791 160.648 158.269 170.542 159.4C177.235 160.165 183.279 164.412 186.313 170.485C190.659 179.18 188.1 190.29 180.361 196.331C176.518 199.333 171.867 200.833 167.273 200.833ZM168.337 167.879C163.062 167.879 157.971 171.683 156.408 176.993C156.273 177.45 156.167 177.925 156.085 178.408C155.883 179.602 155.848 180.804 155.986 182.006C156.334 185.161 157.773 187.908 160.049 189.751C164.175 193.101 170.63 193.016 175.069 189.549C179.645 185.976 181.169 179.436 178.617 174.331C176.869 170.832 173.399 168.386 169.563 167.946C169.152 167.9 168.744 167.876 168.333 167.876L168.337 167.879Z" fill="#00151A"/>
<path d="M19.9806 199.238C15.4396 199.238 10.9481 197.77 7.33229 194.835C1.10383 189.777 -1.49816 180.989 0.85923 172.97C3.73418 163.193 13.3622 156.674 23.2491 157.805C23.8801 157.876 24.5182 157.982 25.1846 158.127C27.1592 158.556 29.0699 159.29 30.8601 160.311C34.3483 162.296 37.2481 165.345 39.0205 168.886C43.3666 177.575 40.8072 188.688 33.0686 194.732C29.2259 197.735 24.5749 199.238 19.9771 199.238H19.9806ZM21.0512 166.281C15.7693 166.281 10.6787 170.084 9.1154 175.395C7.9562 179.333 8.63329 184.807 12.7561 188.153C16.8788 191.503 23.3377 191.414 27.776 187.951C32.3525 184.378 33.8804 177.837 31.328 172.736C30.3106 170.698 28.6303 168.939 26.5991 167.784C25.5675 167.195 24.4827 166.773 23.359 166.532C22.9726 166.447 22.6252 166.391 22.2813 166.352C21.8701 166.305 21.4589 166.281 21.0477 166.281H21.0512Z" fill="#00151A"/>
<path d="M8.60985 154.493L4.56152 150.076C13.4593 149.179 20.3259 148.86 27.0648 150.044C27.7419 150.164 28.4119 150.31 29.0677 150.473L60.6212 72.647L65.1127 74.2776L42.9781 128.877L65.2509 177.694H138.138C138.426 175.39 139.245 171.955 140.347 169.353C144.218 160.189 152.347 153.415 161.588 151.859C167.122 150.926 167.306 150.774 178.774 151.795L172.847 155.868C168.636 155.655 166.016 155.932 162.414 156.566C154.768 157.913 147.993 163.525 144.746 171.214C143.903 173.217 143.25 175.886 142.967 177.694H167.359V182.473H62.1881L40.5143 134.967L33.5946 152.039C40.2485 155.049 45.3071 160.728 48.1501 168.527C49.2313 171.491 49.6425 174.351 49.9687 177.024L45.2256 177.606C44.9313 175.202 44.5697 172.65 43.6622 170.158C41.3119 163.713 37.1856 159.005 31.7938 156.485L28.7345 164.028L22.3359 179.814L17.9082 178.017L24.2785 162.309L27.2598 154.95C26.9266 154.872 26.5827 154.808 26.2424 154.744C20.9002 153.805 15.5331 153.886 8.61339 154.485" fill="#008099"/>
<path d="M92.904 6.1877L65.115 74.2882C63.775 73.8841 60.6235 72.6576 60.6235 72.6576C60.6377 72.6115 81.5212 21.4983 87.7922 6.06717C89.4477 6.35077 91.1812 6.37912 92.904 6.1877Z" fill="#00151A"/>
<path d="M92.9005 6.51342C92.6027 7.56981 91.6455 8.25752 90.5998 8.25752C90.3871 8.25752 90.1708 8.22917 89.9546 8.1689L79.2238 5.52446C77.9512 5.16642 77.2139 3.8477 77.5684 2.57861C77.9229 1.30598 79.2416 0.565078 80.5142 0.923117L91.2485 3.56757C92.5176 3.92561 93.2585 5.24433 92.904 6.51342H92.9005Z" fill="#00151A"/>
</g>
<defs>
<clipPath id="clip0_7598_3814">
<rect width="189" height="201" fill="white"/>
</clipPath>
</defs>
</svg>
