<svg width="40" height="40" viewBox="0 0 40 40" fill="none" xmlns="http://www.w3.org/2000/svg">
<path d="M33.3301 35.415H6.66992C4.13992 35.415 2.08008 33.355 2.08008 30.835V9.16496C2.08008 6.63496 4.13992 4.58496 6.66992 4.58496H33.3301C35.8601 4.58496 37.9199 6.64496 37.9199 9.16496V30.835C37.9199 33.365 35.8601 35.415 33.3301 35.415ZM6.66992 7.07496C5.51992 7.07496 4.58008 8.00496 4.58008 9.15496V30.825C4.58008 31.975 5.51992 32.905 6.66992 32.905H33.3301C34.4801 32.905 35.4199 31.975 35.4199 30.825V9.15496C35.4199 8.00496 34.4801 7.07496 33.3301 7.07496H6.66992Z" fill="black"/>
<path fill-rule="evenodd" clip-rule="evenodd" d="M10.4134 15.5441C11.1038 15.544 11.6635 16.1036 11.6635 16.794L11.6636 19.3221H12.6981C13.3885 19.3221 13.9481 19.8817 13.9481 20.5721C13.9481 21.2625 13.3885 21.8221 12.6981 21.8221H11.6637V25.4951C11.6637 25.9093 11.9995 26.2451 12.4137 26.2451H13.15C13.8403 26.2451 14.4 26.8047 14.4 27.4951C14.4 28.1854 13.8403 28.7451 13.15 28.7451H12.4137C10.6188 28.7451 9.1637 27.29 9.1637 25.4951V21.8221H8.0654C7.37505 21.8221 6.8154 21.2625 6.8154 20.5721C6.8154 19.8817 7.37505 19.3221 8.0654 19.3221H9.16363L9.16349 16.7941C9.16345 16.1038 9.72306 15.5441 10.4134 15.5441Z" fill="black"/>
<path fill-rule="evenodd" clip-rule="evenodd" d="M21.8816 27.4951C21.8816 26.8048 22.4412 26.2451 23.1316 26.2451H31.6655C32.3559 26.2451 32.9155 26.8048 32.9155 27.4951C32.9155 28.1855 32.3559 28.7451 31.6655 28.7451H23.1316C22.4412 28.7451 21.8816 28.1855 21.8816 27.4951Z" fill="black"/>
<path d="M19.3872 22.4951C19.3872 23.1855 18.8276 23.7451 18.1372 23.7451C17.4469 23.7451 16.8872 23.1855 16.8872 22.4951C16.8872 21.8048 17.4469 21.2451 18.1372 21.2451C18.8276 21.2451 19.3872 21.8048 19.3872 22.4951Z" fill="black"/>
<path d="M19.3872 27.4951C19.3872 28.1855 18.8276 28.7451 18.1372 28.7451C17.4469 28.7451 16.8872 28.1855 16.8872 27.4951C16.8872 26.8048 17.4469 26.2451 18.1372 26.2451C18.8276 26.2451 19.3872 26.8048 19.3872 27.4951Z" fill="black"/>
</svg>
