<svg width="201" height="138" viewBox="0 0 201 138" fill="none" xmlns="http://www.w3.org/2000/svg">
<g clip-path="url(#clip0_7600_1006)">
<path d="M157.836 53.2847C190.161 55.1636 210.818 93.3892 192.131 120.66C173.673 147.599 134.335 139.492 121.256 111.606C108.442 84.2862 126.436 51.4605 157.836 53.2847ZM126.305 112.381C138.272 134.23 168.85 141.428 186.247 121.574C206.576 98.3718 188.874 59.5588 158.808 57.3627C128.516 55.1499 112.385 86.9649 126.305 112.381Z" fill="#22A8C3"/>
<path d="M40.7434 53.2845C77.7398 55.4214 96.1294 105.216 66.8156 128.944C43.7925 147.578 11.3249 132.812 2.93668 106.424C-5.36803 80.3052 12.0321 51.6257 40.7434 53.2845ZM10.5721 113.547C23.8123 136.283 56.4317 141.354 71.4657 117.67C86.4452 94.0736 69.8008 59.4129 41.7148 57.3625C10.9773 55.1179 -3.9399 88.6251 10.5721 113.547Z" fill="#22A8C3"/>
<path d="M149.084 55.5824L156.242 94.7748L122.385 73.6291C121.965 73.7672 121.938 74.4046 122.262 74.6793L155.464 96.0497C154.886 96.8161 154.221 99.0091 153.379 99.3886C143.748 101.571 134.015 103.407 124.431 105.781C123.668 105.971 121.57 106.34 121.045 106.617C120.572 106.868 120.695 107.611 121.235 107.755L152.745 100.795C152.894 100.935 151.059 104.033 150.837 104.42C146.393 112.163 141.379 119.58 136.718 127.192C136.009 128.701 137.091 128.781 137.991 127.496C141.305 122.756 144.537 117.205 147.583 112.234C149.931 108.404 152.183 104.514 154.402 100.607L157.406 99.8241L164.627 135.805C164.795 136.315 165.63 136.323 165.757 135.644C165.894 134.923 165.449 132.876 165.307 132.019C163.514 121.147 160.294 110.521 158.652 99.6208C158.835 99.3749 160.948 99.0683 161.3 99.5252C167.348 103.33 173.516 106.948 179.527 110.811C181.142 111.849 191.811 119.36 192.623 119.209C192.845 119.168 193.141 118.798 193.142 118.56C193.145 118.013 190.482 116.695 189.928 116.332C180.907 110.425 171.998 104.347 162.651 98.9515C162.818 98.6783 163.066 98.7208 163.32 98.6495C166.278 97.8254 170.011 97.3579 173.1 96.7782C181.06 95.2833 189.041 93.8961 197.029 92.5514C197.606 92.3951 197.934 92.2934 197.78 91.5923C197.679 91.2857 197.395 91.2705 197.128 91.272C195.601 91.2842 192.646 92.0339 190.964 92.3116C180.996 93.9614 171.086 95.9859 161.154 97.8238C159.811 97.1121 157.163 96.3593 157.746 94.4485C163.094 84.9585 168.129 75.3031 173.296 65.7159C174.162 64.1087 175.788 61.8489 176.416 60.2948C176.584 59.8774 176.921 58.8424 176.144 58.8485C175.716 58.8515 175.344 59.6103 175.115 59.9624C170.705 66.7586 167.498 74.9282 163.265 81.8974L157.214 92.638C154.818 81.0308 153.182 69.24 150.515 57.689C150.285 56.6903 150.353 55.1195 149.083 55.5809L149.084 55.5824Z" fill="#22A8C3"/>
<path d="M39.9255 93.805L35.3983 90.8576C26.4227 84.3347 17.2438 78.0576 8.73273 70.923C7.94202 70.4039 7.5201 70.8699 7.71892 71.738C17.8509 80.0245 28.6507 87.5081 39.323 95.0995C39.3609 95.9358 38.9572 96.0071 38.2545 96.1118C28.4412 97.5764 18.2668 98.1 8.39429 99.2656C7.0648 99.4234 3.38443 99.6814 2.4025 100.068C1.89407 100.269 1.72562 100.924 2.08987 101.155C2.5391 101.439 11.2946 100.159 12.6438 100.02C21.2884 99.1244 29.9437 98.3823 38.5656 97.3017C34.5438 107.604 29.5916 117.745 25.7974 128.123C25.5956 128.674 24.6562 130.651 25.154 130.999C25.5167 131.252 26.0615 131.073 26.1784 130.64C30.5523 119.358 35.3178 108.229 40.0499 97.0983L40.6752 97.1317C43.6195 109.812 46.9462 122.413 49.5673 135.174C51.0743 135.688 50.4612 133.925 50.317 133.02C49.7099 129.203 48.6612 125.16 47.7901 121.372C45.9294 113.274 43.6301 105.271 42.0593 97.1059L66.7352 113.107L74.6908 117.969C75.4087 118.332 75.9095 117.801 75.5589 117.1C65.9005 111.02 56.0584 105.121 46.6579 98.6221C45.899 98.0969 44.9414 97.5111 44.2463 96.9663C44.0885 96.8418 43.8881 96.9708 44.002 96.5231C52.7908 95.6565 61.5341 94.3589 70.3139 93.4179C73.46 93.081 76.6805 93.0082 79.813 92.6197C80.9437 92.48 80.8404 91.2796 79.6567 91.2978C76.635 91.3448 72.8195 91.9322 69.7311 92.2539C60.7161 93.1903 51.7269 94.4879 42.7286 95.5609C41.5661 95.6671 41.0926 94.6382 41.3718 93.6122L55.7715 58.4735C56.0417 57.8755 55.3208 57.6752 55.2585 57.1122L40.701 91.6696C38.1953 79.7134 35.1903 67.8725 32.4115 55.98C32.4221 55.3152 31.4037 55.0724 31.2049 55.684L39.9209 93.8034L39.9255 93.805Z" fill="#22A8C3"/>
<path d="M6.37115 65.4001C6.56693 64.7566 10.5872 61.6955 11.4022 61.1112C22.1474 53.3999 35.3724 49.8288 48.5063 52.7033C50.4156 53.1221 52.2459 53.7535 54.1096 54.309L60.1226 35.5581H43.4221C43.0457 37.0014 43.0943 40.5133 41.1729 40.5907C32.806 39.1004 23.914 38.9243 15.5835 37.4719C14.1341 37.2184 13.4769 37.0697 13.1461 35.4428C12.8805 27.1138 11.2641 18.4949 10.9985 10.2175C10.9743 9.48749 10.8513 8.48583 11.4736 7.98044C12.4312 7.20036 13.7197 7.97285 13.8624 9.09897L15.9386 34.3971L39.9967 37.5113C43.0807 25.7129 45.5985 13.737 48.4775 1.87483C49.1756 0.0885318 51.8741 1.0037 51.135 2.98122L44.2007 32.6427H62.3566C63.1049 32.6427 63.4676 33.7885 63.4054 34.4639C63.1868 36.8679 61.2578 40.4071 60.7373 42.89L60.8025 43.5031L103.328 98.6554L118.7 27.434C118.869 25.0239 121.839 25.0937 121.666 27.4719L115.853 54.4729L116.53 55.555L125.465 64.8705C135.94 54.5503 151.591 49.3431 166.185 52.3102C175.171 54.1375 184.736 60.5952 190.413 67.6933C197.865 77.0073 202.137 93.556 200.682 105.326C200.474 107.016 200.086 108.766 199.785 110.448C199.404 111.389 197.515 111.237 197.252 110.364C196.697 108.504 198.201 104.978 197.991 102.928H103.328C102.941 102.928 101.986 101.632 101.686 101.27C87.3163 84.0766 74.5178 64.9008 60.3093 47.5022L59.5414 46.8177L56.8247 55.5428C76.4573 64.356 85.9489 87.4337 82.8893 108.121C82.1608 109.435 80.2743 108.966 80.1483 107.499L80.5095 103.509H34.1977C34.1188 103.509 33.8593 103.198 33.9033 103.035L52.8469 57.5006L52.9288 56.9194C39.4671 52.0552 24.9202 55.0754 13.4541 63.16C11.6026 64.4668 9.94073 66.0011 8.1256 67.3519C6.82039 67.6918 5.9978 66.6264 6.36963 65.3971L6.37115 65.4001ZM116.823 100.018H154.883L125.466 69.1473C121.038 74.3848 118.454 80.8197 117.272 87.5566C116.565 91.5937 116.11 95.963 116.823 100.018Z" fill="#D7425B"/>
<path d="M107.567 24.3301C110.379 26.0375 115.22 27.367 120.283 27.8147C127.242 28.4279 134.616 27.3716 137.703 23.3315C139.318 21.2174 138.626 18.8771 135.902 18.5235C134.102 18.2898 130.383 18.7375 128.38 18.8635C126.339 18.991 124.299 19.1488 122.258 19.3188C117.316 19.7255 112.375 20.193 107.422 20.4312C104.399 21.1901 105.586 23.1266 107.567 24.3301Z" fill="#22A8C3"/>
<path d="M50.8571 0.735747C48.6967 0.601572 47.606 1.95609 49.5296 3.57685C51.4531 5.1976 61.2123 5.57032 61.2123 5.57032C62.983 5.5767 63.4931 3.31063 61.6784 2.56734C59.8637 1.82405 52.9985 0.867793 50.8571 0.735747Z" fill="#22A8C3"/>
</g>
<defs>
<clipPath id="clip0_7600_1006">
<rect width="201" height="138" fill="white" transform="matrix(-1 0 0 1 201 0)"/>
</clipPath>
</defs>
</svg>
