<svg width="201" height="215" viewBox="0 0 201 215" fill="none" xmlns="http://www.w3.org/2000/svg">
<g clip-path="url(#clip0_7555_3077)">
<path d="M157.836 131.039C190.161 132.918 210.818 171.144 192.131 198.415C173.673 225.354 134.335 217.246 121.256 189.361C108.442 162.041 126.436 129.215 157.836 131.039ZM126.305 190.136C138.272 211.984 168.85 219.183 186.247 199.329C206.576 176.126 188.874 137.313 158.808 135.117C128.516 132.905 112.385 164.72 126.305 190.136Z" fill="#22A8C3"/>
<path d="M40.7434 131.039C77.7398 133.176 96.1294 182.971 66.8156 206.699C43.7925 225.333 11.3249 210.567 2.93668 184.179C-5.36803 158.06 12.0321 129.381 40.7434 131.039ZM10.5721 191.302C23.8123 214.038 56.4317 219.109 71.4657 195.425C86.4452 171.828 69.8008 137.168 41.7148 135.117C10.9773 132.873 -3.9399 166.38 10.5721 191.302Z" fill="#22A8C3"/>
<path d="M149.084 133.337L156.242 172.53L122.385 151.384C121.965 151.522 121.938 152.16 122.262 152.434L155.464 173.805C154.886 174.571 154.221 176.764 153.379 177.143C143.748 179.326 134.015 181.162 124.431 183.536C123.668 183.726 121.57 184.094 121.045 184.372C120.572 184.623 120.695 185.366 121.235 185.51L152.745 178.55C152.894 178.69 151.059 181.788 150.837 182.175C146.393 189.918 141.379 197.335 136.718 204.947C136.009 206.456 137.091 206.536 137.991 205.251C141.305 200.511 144.537 194.959 147.583 189.989C149.931 186.158 152.183 182.269 154.402 178.362L157.406 177.579L164.627 213.56C164.795 214.07 165.63 214.078 165.757 213.399C165.894 212.678 165.449 210.631 165.307 209.773C163.514 198.902 160.294 188.276 158.652 177.376C158.835 177.13 160.948 176.823 161.3 177.28C167.348 181.085 173.516 184.703 179.527 188.565C181.142 189.604 191.811 197.115 192.623 196.964C192.845 196.923 193.141 196.553 193.142 196.315C193.145 195.768 190.482 194.449 189.928 194.087C180.907 188.18 171.998 182.102 162.651 176.706C162.818 176.433 163.066 176.476 163.32 176.404C166.278 175.58 170.011 175.113 173.1 174.533C181.06 173.038 189.041 171.651 197.029 170.306C197.606 170.15 197.934 170.048 197.78 169.347C197.679 169.041 197.395 169.025 197.128 169.027C195.601 169.039 192.646 169.789 190.964 170.067C180.996 171.716 171.086 173.741 161.154 175.579C159.811 174.867 157.163 174.114 157.746 172.203C163.094 162.713 168.129 153.058 173.296 143.471C174.162 141.864 175.788 139.604 176.416 138.05C176.584 137.632 176.921 136.597 176.144 136.603C175.716 136.606 175.344 137.365 175.115 137.717C170.705 144.513 167.498 152.683 163.265 159.652L157.214 170.393C154.818 158.786 153.182 146.995 150.515 135.444C150.285 134.445 150.353 132.874 149.083 133.336L149.084 133.337Z" fill="#22A8C3"/>
<path d="M39.9255 171.56L35.3983 168.613C26.4227 162.09 17.2438 155.812 8.73273 148.678C7.94202 148.159 7.5201 148.625 7.71892 149.493C17.8509 157.779 28.6507 165.263 39.323 172.854C39.3609 173.691 38.9572 173.762 38.2545 173.867C28.4412 175.331 18.2668 175.855 8.39429 177.02C7.0648 177.178 3.38443 177.436 2.4025 177.823C1.89407 178.024 1.72562 178.679 2.08987 178.91C2.5391 179.194 11.2946 177.914 12.6438 177.775C21.2884 176.879 29.9437 176.137 38.5656 175.057C34.5438 185.359 29.5916 195.5 25.7974 205.877C25.5956 206.428 24.6562 208.406 25.154 208.753C25.5167 209.007 26.0615 208.828 26.1784 208.395C30.5523 197.113 35.3178 185.984 40.0499 174.853L40.6752 174.887C43.6195 187.567 46.9462 200.168 49.5673 212.929C51.0743 213.443 50.4612 211.68 50.317 210.775C49.7099 206.958 48.6612 202.915 47.7901 199.127C45.9294 191.029 43.6301 183.026 42.0593 174.861L66.7352 190.862L74.6908 195.724C75.4087 196.087 75.9095 195.556 75.5589 194.855C65.9005 188.775 56.0584 182.876 46.6579 176.377C45.899 175.852 44.9414 175.266 44.2463 174.721C44.0885 174.597 43.8881 174.726 44.002 174.278C52.7908 173.411 61.5341 172.114 70.3139 171.173C73.46 170.836 76.6805 170.763 79.813 170.375C80.9437 170.235 80.8404 169.034 79.6567 169.053C76.635 169.1 72.8195 169.687 69.7311 170.009C60.7161 170.945 51.7269 172.243 42.7286 173.316C41.5661 173.422 41.0926 172.393 41.3718 171.367L55.7715 136.228C56.0417 135.63 55.3208 135.43 55.2585 134.867L40.701 169.424C38.1953 157.468 35.1903 145.627 32.4115 133.735C32.4221 133.07 31.4037 132.827 31.2049 133.439L39.9209 171.558L39.9255 171.56Z" fill="#22A8C3"/>
<path d="M6.37115 143.155C6.56693 142.512 10.5872 139.45 11.4022 138.866C22.1474 131.155 35.3724 127.584 48.5063 130.458C50.4156 130.877 52.2459 131.508 54.1096 132.064L60.1226 113.313H43.4221C43.0457 114.756 43.0943 118.268 41.1729 118.346C32.806 116.855 23.914 116.679 15.5835 115.227C14.1341 114.973 13.4769 114.825 13.1461 113.198C12.8805 104.869 11.2641 96.2498 10.9985 87.9724C10.9743 87.2424 10.8513 86.2407 11.4736 85.7353C12.4312 84.9552 13.7197 85.7277 13.8624 86.8539L15.9386 112.152L39.9967 115.266C43.0807 103.468 45.5985 91.4919 48.4775 79.6297C49.1756 77.8434 51.8741 78.7586 51.135 80.7361L44.2007 110.398H62.3566C63.1049 110.398 63.4676 111.543 63.4054 112.219C63.1868 114.623 61.2578 118.162 60.7373 120.645L60.8025 121.258L103.328 176.41L118.7 105.189C118.869 102.779 121.839 102.849 121.666 105.227L115.853 132.228L116.53 133.31L125.465 142.625C135.94 132.305 151.591 127.098 166.185 130.065C175.171 131.892 184.736 138.35 190.413 145.448C197.865 154.762 202.137 171.311 200.682 183.08C200.474 184.771 200.086 186.521 199.785 188.203C199.404 189.144 197.515 188.992 197.252 188.119C196.697 186.258 198.201 182.733 197.991 180.683H103.328C102.941 180.683 101.986 179.386 101.686 179.025C87.3163 161.831 74.5178 142.656 60.3093 125.257L59.5414 124.573L56.8247 133.298C76.4573 142.111 85.9489 165.189 82.8893 185.876C82.1608 187.19 80.2743 186.721 80.1483 185.254L80.5095 181.264H34.1977C34.1188 181.264 33.8593 180.953 33.9033 180.79L52.8469 135.256L52.9288 134.674C39.4671 129.81 24.9202 132.83 13.4541 140.915C11.6026 142.222 9.94073 143.756 8.1256 145.107C6.82039 145.447 5.9978 144.381 6.36963 143.152L6.37115 143.155ZM116.823 177.773H154.883L125.466 146.902C121.038 152.14 118.454 158.575 117.272 165.312C116.565 169.349 116.11 173.718 116.823 177.773Z" fill="#D7425B"/>
<path d="M107.567 102.085C110.379 103.793 115.22 105.122 120.283 105.57C127.242 106.183 134.616 105.127 137.703 101.087C139.318 98.9725 138.626 96.6323 135.902 96.2786C134.102 96.0449 130.383 96.4926 128.38 96.6186C126.339 96.7461 124.299 96.9039 122.258 97.0739C117.316 97.4806 112.375 97.9481 107.422 98.1864C104.399 98.9452 105.586 100.882 107.567 102.085Z" fill="#22A8C3"/>
<path d="M117.755 173.202C117.25 173.061 117.075 173.644 116.711 173.844C113.921 175.381 110.679 176.632 107.79 178.127C104.067 180.053 98.013 182.942 94.7986 185.328C94.5997 185.475 94.234 185.702 94.2825 186.004C94.363 186.509 96.0127 189.097 96.4635 189.462C98.5169 191.127 102.272 188.313 104.235 187.193C108.447 184.792 114.223 181.637 118.069 178.89C120.988 176.806 119.904 175.403 117.756 173.202H117.755Z" fill="#22A8C3"/>
<path d="M86.9185 187.676L87.2782 187.913C100.877 179.704 114.476 171.493 128.081 163.281L128.087 162.824C123.387 156.764 117.603 149.136 112.458 143.6C111.959 143.062 111.315 142.102 110.467 142.584C106.355 145.41 102.277 148.332 98.4786 151.569C96.7181 153.07 94.4386 154.991 92.9346 156.703C92.4504 157.256 91.1179 158.687 91.2241 159.38C91.2772 159.728 91.7356 160.361 91.8722 160.881C92.2197 162.209 92.6143 163.926 92.1727 165.26C91.5049 167.277 88.4286 169.518 87.0141 171.17C82.3882 176.573 83.4567 181.975 86.92 187.676H86.9185Z" fill="#E4F0C2"/>
<path d="M86.9186 187.676C87.4619 188.571 88.4514 190.297 89.6428 189.925L128.925 166.673C130.77 165.49 128.992 163.993 128.085 162.825L86.9186 187.677V187.676Z" fill="#86B200"/>
<path d="M56.5997 101.929C58.8094 92.1828 71.5776 88.1215 79.8277 85.1575C88.0808 82.1935 97.5905 79.9443 105.505 76.66C113.64 73.2847 120.225 63.5883 128.478 60.4103C130.594 59.5953 130.715 60.0036 132.169 61.5668C142.42 72.5805 144.485 91.468 128.932 98.7255C123.79 101.125 117.105 102.432 110.57 103.497C113.28 104.506 115.145 104.878 118.701 105.192C118.015 108.938 112.971 131.961 111.118 140.862L118.059 148.918C115.772 150.304 113.01 152.09 110.676 153.412C107.996 154.931 105.281 156.39 102.523 157.749C99.5696 159.205 95.6737 161.198 92.5974 162.192C91.9311 162.409 90.8885 162.902 90.2207 162.53C88.6378 160.158 87.0199 157.799 85.3839 155.447C77.0534 143.463 68.266 131.638 61.2529 118.882C58.3693 113.637 55.1943 108.134 56.5997 101.929ZM91.2542 117.974C91.3802 117.507 91.5077 117.039 91.6352 116.573C92.567 113.154 93.5383 109.744 94.5309 106.34C90.8384 107.161 87.1596 108.05 83.4246 108.657L91.2542 117.974Z" fill="#86B200"/>
<path d="M35.8909 29.4616C35.8712 33.101 36.3644 37.223 38.2585 40.3934C43.1985 48.6617 55.2139 44.1208 61.4212 39.9275C65.3854 40.3539 69.0324 41.8595 72.4638 43.799C76.0258 41.3753 79.1295 36.3503 78.5876 31.9111C78.5543 31.6349 78.4419 31.04 78.3114 30.829C77.6892 29.8182 70.937 28.8257 69.4831 28.8773C72.2498 22.0796 69.0779 12.62 62.69 8.9745C57.1869 5.83443 49.0203 5.79346 43.9513 9.85627C40.6109 12.5334 31.904 22.3756 31.4684 26.5067C31.1694 29.3387 33.6508 29.6756 35.8894 29.4616H35.8909Z" fill="#B24A00"/>
<path d="M72.7858 30.8231C79.6942 31.1509 81.5731 26.4279 75.3689 22.7051L72.3973 21.1161C75.8424 20.6365 82.033 18.5421 80.7566 14.0179C79.7018 10.2753 73.9605 9.31767 70.6489 9.07484C72.5748 7.45245 74.7557 5.49313 72.206 3.15136C66.7788 -1.8342 54.2777 1.17232 48.9203 5.31101C46.4875 7.18989 45.3645 7.78027 47.0718 10.808C49.0994 14.4034 53.094 17.3128 56.6514 19.266C54.7877 22.3499 57.0323 26.5068 58.7245 29.2523C60.8796 32.7506 64.7725 37.0198 69.3376 36.4021C72.1954 36.0151 74.1016 33.6338 72.7858 30.8246V30.8231Z" fill="#E4F0C2"/>
<path d="M64.6769 19.999C56.3616 18.797 52.8315 28.1109 57.9293 33.5412C63.3869 39.3539 71.1073 29.319 69.189 23.6429C68.6031 21.9128 66.489 20.26 64.6784 19.999H64.6769Z" fill="#B24A00"/>
<path d="M166.95 10.0733C154.329 28.5115 146.232 32.1342 130.934 29.5314C109.621 25.9057 92.276 16.8482 79.0555 28.0775C77.7245 27.645 76.4284 27.0925 75.4116 26.7268C73.9516 26.2016 72.4339 28.1473 71.6401 29.2324C69.6687 31.9293 67.509 36.1105 66.7153 39.0214C66.3344 40.4162 65.5952 41.9217 67.1554 42.7595C69.0707 43.7884 72.44 44.5549 74.633 45.379C75.7363 45.7933 76.7759 46.3518 77.893 46.7236C79.6413 44.3788 72.1228 37.3641 74.2399 35.2925C88.3634 21.4817 116.328 44.3636 139.468 46.323C151.649 47.355 163.346 45.7159 176.37 35.2925C182.403 30.4648 189.867 20.1628 190.011 18.7544C190.193 16.9848 167.481 9.29172 166.947 10.0703L166.95 10.0733Z" fill="#86B200"/>
<path d="M58.3419 77.3169L64.9878 75.1755C66.1473 74.4106 64.4778 70.4419 63.9892 69.4007C63.3017 67.9362 60.6806 63.5638 59.1478 63.1677C57.9776 62.8656 54.2351 65.0481 53.0968 65.7614C48.4649 68.6647 43.1894 74.3119 44.0044 80.2567C44.871 86.5793 54.4749 87.9346 57.9033 82.7988C59.1023 81.0003 58.7501 79.2838 58.3419 77.3169Z" fill="#B24A00"/>
<path d="M82.4521 51.3798C82.4323 51.6439 82.1774 51.7122 81.977 51.7759C73.3794 54.4789 61.0164 58.4203 53.7346 62.7927C51.619 64.063 51.4885 65.1208 52.4552 67.4489C53.7225 70.4995 57.2845 74.0144 60.0375 75.7886C61.4611 76.7068 63.17 77.7069 64.9578 77.1621C72.8968 74.749 96.9185 68.2609 96.9185 68.2609C97.5301 68.314 98.5242 71.1915 98.767 71.8578C99.5426 73.9734 100.089 76.1498 100.52 78.361C105.199 77.5369 109.731 75.9373 114.153 74.239C123.268 70.7408 132.798 66.4761 139.334 59.0198L134.334 54.0008C140.966 45.9223 133.121 40.7364 126.05 37.9772C118.829 35.1589 110.487 32.7595 102.878 31.2448C95.2946 29.7347 75.7454 26.2881 73.5661 36.9589C72.1455 43.9129 77.2267 48.0728 82.4521 51.3798Z" fill="#C1DB70"/>
<path d="M53.3142 79.8801C51.5977 79.7845 50.7311 80.7497 52.2594 81.9047L61.5415 83.3252C62.9484 83.3298 63.3536 81.7149 61.9118 81.1853C60.47 80.6556 55.0155 79.9742 53.3142 79.8801Z" fill="#22A8C3"/>
<path d="M41.5688 22.2697C41.1044 22.7402 41.1272 24.9939 42.1652 24.7253C43.475 24.3868 42.8953 20.9281 41.5688 22.2697Z" fill="#00151A"/>
<path d="M47.5406 19.2508C47.6514 19.2508 47.7622 19.2159 47.8578 19.1461C48.093 18.9716 48.1416 18.6377 47.9671 18.4024C47.2917 17.4964 46.4995 16.6829 45.6117 15.9878C44.8665 15.4035 44.0545 14.9027 43.197 14.4975C42.9314 14.373 42.6158 14.4853 42.4898 14.7509C42.3638 15.0165 42.4777 15.3322 42.7432 15.4582C43.5294 15.83 44.2731 16.2898 44.956 16.8241C45.7695 17.4615 46.4965 18.2067 47.1142 19.0368C47.2189 19.1765 47.3782 19.2508 47.5406 19.2508Z" fill="#00151A"/>
<path d="M37.9157 36.6268C37.9279 36.6268 37.9415 36.6268 37.9537 36.6268C39.6353 36.5069 41.2561 36.0759 42.7738 35.3474C44.3218 34.6037 45.6923 33.5823 46.8503 32.312C47.0476 32.095 47.0324 31.7596 46.8154 31.5623C46.5984 31.365 46.263 31.3802 46.0657 31.5972C45.0002 32.7658 43.7391 33.7053 42.314 34.3897C40.9177 35.0606 39.4243 35.4567 37.8778 35.5675C37.5849 35.5887 37.3648 35.8422 37.3861 36.1351C37.4058 36.4143 37.6395 36.6283 37.9157 36.6283V36.6268Z" fill="#00151A"/>
<path d="M97.4311 68.7013C97.4782 68.7013 97.5252 68.6952 97.5708 68.6831C100.034 68.0093 102.537 67.2975 105.009 66.5659C112.708 64.2894 116.947 63.0358 121.86 61.0052C126.041 59.2766 130.178 57.1898 134.157 54.7994C134.409 54.6476 134.49 54.3214 134.339 54.0709C134.188 53.819 133.863 53.7386 133.611 53.8888C129.677 56.2518 125.587 58.3159 121.454 60.0248C116.593 62.0342 112.373 63.2817 104.711 65.5476C102.242 66.2776 99.7471 66.9879 97.2915 67.6602C97.0077 67.7376 96.8423 68.029 96.9197 68.3128C96.9834 68.5495 97.1989 68.7043 97.4311 68.7043V68.7013Z" fill="#00151A"/>
<path d="M94.5292 106.871C94.5459 106.871 94.5626 106.871 94.5793 106.868C97.5266 106.593 100.164 106.218 103.062 105.79C105.566 105.421 108.09 104.99 110.532 104.573C111.866 104.345 113.244 104.11 114.582 103.89C114.872 103.843 115.068 103.57 115.021 103.28C114.974 102.99 114.701 102.794 114.411 102.841C113.068 103.061 111.688 103.297 110.352 103.526C107.917 103.942 105.399 104.373 102.907 104.74C100.025 105.165 97.4007 105.538 94.4807 105.81C94.1893 105.837 93.9738 106.095 94.0011 106.388C94.0269 106.663 94.2576 106.871 94.5292 106.871Z" fill="#00151A"/>
<path d="M110.773 141.393C110.896 141.393 111.019 141.351 111.119 141.266C111.342 141.075 111.368 140.739 111.177 140.516L92.2648 118.461C92.0736 118.238 91.7382 118.212 91.5151 118.404C91.292 118.595 91.2662 118.93 91.4574 119.153L110.369 141.208C110.474 141.331 110.623 141.393 110.773 141.393Z" fill="#00151A"/>
<path d="M93.4973 165.209C94.0983 165.209 94.719 165.122 95.2244 164.979L95.5143 164.899C96.1973 164.709 96.7375 164.56 97.1746 164.325C97.4326 164.187 97.5298 163.864 97.3917 163.606C97.252 163.348 96.9318 163.251 96.6723 163.389C96.3399 163.566 95.8512 163.703 95.2305 163.874L94.9376 163.956C93.725 164.296 92.4805 164.122 92.2619 163.902C92.2983 163.733 92.5928 163.407 93.0056 163.082C95.191 163.615 96.2337 163.175 96.8089 162.933C97.1443 162.792 97.9881 162.19 97.7468 161.498C97.6527 161.229 97.4554 161.02 97.1746 160.894C96.2033 160.455 94.3867 161.135 93.8524 161.354C93.5944 161.458 93.2014 161.662 92.7961 161.929L92.7688 161.921C89.7836 161.09 89.2964 160.563 89.216 160.41C89.4102 160.138 90.509 159.566 92.1542 159.323C94.1393 159.03 95.8178 159.056 97.0441 159.076H97.1731C97.4645 159.079 97.7073 158.848 97.7119 158.555C97.7164 158.262 97.4827 158.021 97.1883 158.016H97.0593C95.7981 157.995 94.0679 157.968 91.9963 158.274C90.7017 158.465 88.231 159.141 88.143 160.325C88.0762 161.234 89.1431 161.952 91.7914 162.748C91.3771 163.185 91.107 163.676 91.2208 164.155C91.2678 164.353 91.4014 164.635 91.7747 164.855C92.2027 165.107 92.8371 165.213 93.4958 165.213L93.4973 165.209ZM96.5918 161.82C96.522 161.879 96.4446 161.933 96.3961 161.955C96.0273 162.109 95.4839 162.339 94.4595 162.255C95.5097 161.851 96.2595 161.772 96.5918 161.82Z" fill="#00151A"/>
<path d="M98.9078 47.5645C99.143 47.5645 99.357 47.4082 99.4208 47.1699C99.4967 46.8861 99.3282 46.5947 99.0444 46.5203L89.1841 43.8917C88.9003 43.8158 88.6089 43.9843 88.5345 44.2681C88.4586 44.5519 88.6271 44.8433 88.9109 44.9177L98.7712 47.5463C98.8167 47.5584 98.8638 47.5645 98.9078 47.5645Z" fill="#00151A"/>
<path d="M82.966 51.8111C83.0146 51.8111 83.0632 51.8051 83.1117 51.7914C88.9487 50.1341 94.901 48.5785 100.802 47.1686C105.217 46.1138 109.71 45.1151 114.156 44.2015C114.443 44.1423 114.628 43.8615 114.569 43.5747C114.509 43.2879 114.229 43.1027 113.942 43.1619C109.486 44.0786 104.981 45.0787 100.556 46.1365C94.64 47.5495 88.674 49.1081 82.8219 50.77C82.5396 50.8504 82.3757 51.1433 82.4561 51.4256C82.5229 51.6594 82.7354 51.8111 82.9676 51.8111H82.966Z" fill="#00151A"/>
</g>
<defs>
<clipPath id="clip0_7555_3077">
<rect width="201" height="215" fill="white" transform="matrix(-1 0 0 1 201 0)"/>
</clipPath>
</defs>
</svg>
