<svg width="201" height="215" viewBox="0 0 201 215" fill="none" xmlns="http://www.w3.org/2000/svg">
<g clip-path="url(#clip0_10879_16991)">
<path d="M158.098 130.946C126.555 129.116 108.473 162.1 121.356 189.549C134.498 217.562 174.015 225.721 192.554 198.653C211.321 171.25 190.572 132.837 158.098 130.961V130.946ZM126.433 190.327C112.452 164.784 128.659 132.822 159.089 135.048C189.291 137.259 207.083 176.252 186.653 199.568C169.182 219.514 138.462 212.286 126.433 190.327Z" fill="#22A8C3"/>
<path d="M40.477 130.946C11.632 129.284 -5.83962 158.09 2.49981 184.334C10.9307 210.852 43.5414 225.69 66.6692 206.964C96.124 183.129 77.6461 133.096 40.477 130.946ZM10.1684 191.501C-4.40652 166.462 10.5801 132.791 41.4527 135.048C69.6726 137.107 86.3819 171.936 71.3344 195.649C56.2258 219.453 23.4627 214.344 10.1684 191.501Z" fill="#22A8C3"/>
<path d="M151.055 132.852C152.35 132.456 152.213 134.011 152.396 135.033C154.576 146.744 155.705 158.654 157.61 170.411L164.151 159.889C168.694 153.073 172.261 145.006 176.988 138.388C177.232 138.052 177.643 137.305 178.07 137.32C178.848 137.351 178.466 138.372 178.283 138.784C177.597 140.309 175.859 142.505 174.914 144.091C169.319 153.5 163.861 162.97 158.068 172.272C157.412 174.163 160.019 175.047 161.345 175.794C171.392 174.376 181.424 172.775 191.502 171.54C193.209 171.341 196.213 170.701 197.737 170.762C199.262 170.823 198.286 170.792 198.377 171.113C198.499 171.814 198.164 171.906 197.585 172.043C189.52 173.049 181.439 174.102 173.39 175.261C170.279 175.703 166.499 176.023 163.495 176.709C163.236 176.77 162.992 176.709 162.809 176.984C171.957 182.809 180.647 189.29 189.443 195.603C189.992 196 192.599 197.433 192.584 197.982C192.554 198.531 192.249 198.577 192.035 198.622C191.227 198.744 180.814 190.739 179.244 189.641C173.374 185.508 167.352 181.604 161.437 177.517C161.102 177.045 158.982 177.258 158.784 177.502C159.958 188.512 162.733 199.309 164.074 210.319C164.181 211.188 164.547 213.247 164.379 213.979C164.227 214.665 163.388 214.604 163.251 214.101L157.534 177.67L154.485 178.341C152.091 182.168 149.652 185.981 147.152 189.717C143.874 194.581 140.398 200.01 136.876 204.631C135.916 205.881 134.833 205.744 135.611 204.265C140.611 196.823 145.978 189.595 150.75 182.001C150.994 181.619 152.96 178.585 152.823 178.448L120.898 184.09C120.35 183.922 120.273 183.175 120.761 182.946C121.31 182.702 123.429 182.397 124.192 182.26C133.918 180.293 143.767 178.875 153.509 177.09C154.363 176.74 155.125 174.574 155.735 173.827L123.323 150.953C123.018 150.663 123.063 150.023 123.49 149.901L156.574 172.577L151.055 132.928V132.852Z" fill="#22A8C3"/>
<path d="M40.0503 171.402L40.7821 132.12C41.1175 131.571 42.0475 132.059 41.8798 132.7C41.7121 144.975 41.7731 157.251 41.3309 169.511L63.8794 139.333C63.8032 139.897 64.4587 140.263 64.0471 140.797L41.4986 171.57C40.9803 172.516 41.1937 173.614 42.3524 173.797C51.3931 174.925 60.4644 175.84 69.4746 177.106C72.5695 177.548 76.4267 177.883 79.3843 178.57C80.543 178.859 80.3601 180.033 79.2166 179.896C76.076 179.53 72.9049 178.798 69.7643 178.387C60.9675 177.182 52.1249 176.343 43.3586 175.047C43.1299 175.443 43.3586 175.382 43.4958 175.535C44.0447 176.236 44.8375 177.029 45.4473 177.731C53.0397 186.331 61.2114 194.475 69.1544 202.755C69.3221 203.517 68.7123 203.914 68.1025 203.395L61.5163 196.732L41.3309 175.154C40.8888 183.495 41.1937 191.852 41.0565 200.208C40.9803 204.112 41.026 208.306 40.6906 212.179C40.6144 213.109 40.7821 214.97 39.4405 214.101C39.9741 201.017 39.7759 187.933 39.9741 174.849L39.3795 174.666C32.0768 184.364 24.7283 194.078 17.7458 204.021C17.5171 204.402 16.953 204.448 16.6481 204.127C16.2517 203.67 17.639 201.962 17.9592 201.489C24.1642 192.279 31.4517 183.587 37.8549 174.513C29.1953 173.476 20.5815 172.104 11.9219 170.884C10.565 170.686 1.72248 169.816 1.35658 169.435C1.05167 169.13 1.37183 168.536 1.93592 168.444C2.98788 168.292 6.63161 168.947 7.97324 169.115C17.883 170.365 27.9299 172.317 37.8549 173.263C38.5562 173.324 38.9831 173.354 39.1356 172.531C30.5674 162.543 21.8469 152.63 13.9801 142.108C13.9953 141.224 14.5289 140.858 15.1692 141.559C21.7402 150.572 29.1801 158.928 36.3456 167.453L40.0503 171.418V171.387H40.0655L40.0503 171.402Z" fill="#22A8C3"/>
<path d="M154.576 177.975H117.392C116.675 173.903 116.63 169.435 117.346 165.379C118.535 158.608 121.127 152.142 125.579 146.881L123.597 144.853C124.146 143.984 123.597 144.899 123.597 144.899L115.806 137.762L115.395 136.649L121.752 105.022C121.92 102.628 118.947 102.567 118.779 104.992L106.476 166.157C106.095 166.157 105.5 165.531 105.195 165.165C90.7575 147.888 77.9053 128.613 63.6353 111.137L62.8883 110.466C62.7206 110.314 62.4919 110.222 62.187 110.222H43.953L50.7831 81.0348L50.9203 80.4249C51.3472 79.2812 50.6154 78.473 49.7922 78.3662H49.5635C49.0299 78.3662 48.5115 78.6712 48.2523 79.3269C48.2066 79.5404 48.1456 79.7539 48.0999 79.9521C45.2642 91.6636 42.7639 103.482 39.73 115.132L15.5654 112.006L13.4768 86.5856C13.3396 85.4572 12.0437 84.6794 11.0832 85.4572C10.4581 85.9604 10.5801 86.9668 10.6106 87.6988C10.885 96.0097 12.501 104.671 12.7755 113.043C13.1109 114.675 13.7664 114.827 15.23 115.087C23.6 116.551 32.534 116.718 40.9344 118.213C42.8706 118.136 42.8096 114.599 43.1907 113.15H59.9611L53.9238 131.983C52.0485 131.419 50.219 130.793 48.2981 130.366C35.1105 127.484 21.8162 131.068 11.0222 138.815C10.1989 139.394 6.15881 142.474 5.96062 143.13C5.89963 143.328 5.86914 143.527 5.86914 143.725C5.86914 144.686 6.63143 145.387 7.72912 145.097C9.55861 143.74 11.2204 142.2 13.0804 140.888C22.9291 133.95 35.019 130.717 46.7735 132.974C48.7707 133.355 50.7679 133.904 52.7346 134.621C52.7651 134.621 52.7803 134.652 52.8108 134.652L38.6932 173.72C38.2054 176.069 41.1478 176.526 41.6357 174.147L55.5093 135.841C82.8754 149.001 80.4361 181.421 80.4361 181.421L80.0702 185.432C80.1922 186.911 82.0979 187.384 82.8297 186.057C85.9093 165.272 76.213 141.819 56.5003 132.974L59.3817 124.465L60.1593 125.151C74.4293 142.627 87.007 161.948 101.445 179.225C101.658 179.485 102.207 180.217 102.649 180.613C102.832 180.796 103.015 180.918 103.137 180.918H157.305L154.591 177.975H154.576Z" fill="#EDACB0"/>
<path d="M107.604 101.85C105.622 100.645 104.418 98.6935 107.451 97.9311C112.422 97.6871 117.392 97.2143 122.362 96.8179C124.42 96.6501 126.463 96.4824 128.506 96.3604C130.518 96.2384 134.253 95.7809 136.068 96.0249C138.812 96.3756 139.498 98.7393 137.882 100.859C134.787 104.915 127.378 105.983 120.38 105.357C115.288 104.9 110.424 103.573 107.604 101.85Z" fill="#22A8C3"/>
<path d="M61.211 82.27C58.6649 82.1785 53.893 81.7363 50.7676 81.0348C50.1883 80.9128 49.6852 80.7604 49.243 80.6231C48.7094 80.4401 48.3283 80.2114 48.0996 79.9521C48.1453 79.7387 48.2063 79.5252 48.2521 79.3269C48.5112 78.6712 49.0296 78.3815 49.5632 78.3662H49.7919C50.7829 78.473 59.8846 79.3879 61.6226 79.8911C63.4673 80.4249 62.9947 82.331 61.211 82.27Z" fill="#22A8C3"/>
<path d="M201.411 158.044L165.126 180.918H157.29L154.576 177.975L154.393 177.777L154.286 177.67L125.579 146.881L123.597 144.853C123.597 144.853 136.921 127.698 161.299 129.375C166.498 129.726 171.697 130.671 176.454 132.837C186.958 137.595 194.871 146.424 201.411 158.044Z" fill="#D7425B"/>
<path fill-rule="evenodd" clip-rule="evenodd" d="M167.192 96.0457C167.477 96.1516 167.666 96.4234 167.666 96.7273V104.727H172.273C172.557 104.727 172.816 104.893 172.934 105.152C173.052 105.41 173.009 105.714 172.823 105.93L163.611 116.596C163.413 116.826 163.092 116.908 162.807 116.802C162.523 116.696 162.334 116.424 162.334 116.12V108.12H157.727C157.443 108.12 157.184 107.955 157.066 107.696C156.948 107.437 156.991 107.133 157.177 106.918L166.389 96.2519C166.587 96.022 166.908 95.9397 167.192 96.0457Z" fill="#D7425B"/>
<path d="M86.9185 187.676L87.2782 187.913C100.877 179.704 114.476 171.493 128.081 163.281L128.087 162.824C123.387 156.764 117.603 149.136 112.458 143.6C111.959 143.062 111.315 142.102 110.467 142.584C106.355 145.41 102.277 148.332 98.4786 151.569C96.7181 153.07 94.4386 154.991 92.9346 156.703C92.4504 157.256 91.1179 158.687 91.2241 159.38C91.2772 159.728 91.7356 160.361 91.8722 160.881C92.2197 162.209 92.6143 163.926 92.1727 165.26C91.5049 167.277 88.4286 169.518 87.0141 171.17C82.3882 176.573 83.4567 181.975 86.92 187.676H86.9185Z" fill="#E4F0C2"/>
<path d="M86.9186 187.676C87.4619 188.571 88.4514 190.297 89.6428 189.925L128.925 166.673C130.77 165.49 128.992 163.993 128.085 162.825L86.9186 187.677V187.676Z" fill="#86B200"/>
<path d="M56.5997 101.929C58.8094 92.1828 71.5776 88.1215 79.8277 85.1575C88.0808 82.1935 97.5905 79.9443 105.505 76.66C113.64 73.2847 120.225 63.5883 128.478 60.4103C130.594 59.5953 130.715 60.0036 132.169 61.5668C142.42 72.5805 144.485 91.468 128.932 98.7255C123.79 101.125 117.105 102.432 110.57 103.497C113.28 104.506 115.145 104.878 118.701 105.192C118.015 108.938 112.971 131.961 111.118 140.862L118.059 148.918C115.772 150.304 113.01 152.09 110.676 153.412C107.996 154.931 105.281 156.39 102.523 157.749C99.5696 159.205 95.6737 161.198 92.5974 162.192C91.9311 162.409 90.8885 162.902 90.2207 162.53C88.6378 160.158 87.0199 157.799 85.3839 155.447C77.0534 143.463 68.266 131.638 61.2529 118.882C58.3693 113.637 55.1943 108.134 56.5997 101.929ZM91.2542 117.974C91.3802 117.507 91.5077 117.039 91.6352 116.573C92.567 113.154 93.5383 109.744 94.5309 106.34C90.8384 107.161 87.1596 108.05 83.4246 108.657L91.2542 117.974Z" fill="#86B200"/>
<path d="M35.8909 29.4616C35.8712 33.101 36.3644 37.223 38.2585 40.3934C43.1985 48.6617 55.2139 44.1208 61.4212 39.9275C65.3854 40.3539 69.0324 41.8595 72.4638 43.799C76.0258 41.3753 79.1295 36.3503 78.5876 31.9111C78.5543 31.6349 78.4419 31.04 78.3114 30.829C77.6892 29.8182 70.937 28.8257 69.4831 28.8773C72.2498 22.0796 69.0779 12.62 62.69 8.9745C57.1869 5.83443 49.0203 5.79346 43.9513 9.85627C40.6109 12.5334 31.904 22.3756 31.4684 26.5067C31.1694 29.3387 33.6508 29.6756 35.8894 29.4616H35.8909Z" fill="#B24A00"/>
<path d="M72.7858 30.8231C79.6942 31.1509 81.5731 26.4279 75.3689 22.7051L72.3973 21.1161C75.8424 20.6365 82.033 18.5421 80.7566 14.0179C79.7018 10.2753 73.9605 9.31767 70.6489 9.07484C72.5748 7.45245 74.7557 5.49313 72.206 3.15136C66.7788 -1.8342 54.2777 1.17232 48.9203 5.31101C46.4875 7.18989 45.3645 7.78027 47.0718 10.808C49.0994 14.4034 53.094 17.3128 56.6514 19.266C54.7877 22.3499 57.0323 26.5068 58.7245 29.2523C60.8796 32.7506 64.7725 37.0198 69.3376 36.4021C72.1954 36.0151 74.1016 33.6338 72.7858 30.8246V30.8231Z" fill="#E4F0C2"/>
<path d="M64.6769 19.999C56.3616 18.797 52.8315 28.1109 57.9293 33.5412C63.3869 39.3539 71.1073 29.319 69.189 23.6429C68.6031 21.9128 66.489 20.26 64.6784 19.999H64.6769Z" fill="#B24A00"/>
<path d="M166.95 10.0733C154.329 28.5115 146.232 32.1342 130.934 29.5314C109.621 25.9057 92.276 16.8482 79.0555 28.0775C77.7245 27.645 76.4284 27.0925 75.4116 26.7268C73.9516 26.2016 72.4339 28.1473 71.6401 29.2324C69.6687 31.9293 67.509 36.1105 66.7153 39.0214C66.3344 40.4162 65.5952 41.9217 67.1554 42.7595C69.0707 43.7884 72.44 44.5549 74.633 45.379C75.7363 45.7933 76.7759 46.3518 77.893 46.7236C79.6413 44.3788 72.1228 37.3641 74.2399 35.2925C88.3634 21.4817 116.328 44.3636 139.468 46.323C151.649 47.355 163.346 45.7159 176.37 35.2925C182.403 30.4648 189.867 20.1628 190.011 18.7544C190.193 16.9848 167.481 9.29172 166.947 10.0703L166.95 10.0733Z" fill="#86B200"/>
<path d="M58.3419 77.3169L64.9878 75.1755C66.1473 74.4106 64.4778 70.4419 63.9892 69.4007C63.3017 67.9362 60.6806 63.5638 59.1478 63.1677C57.9776 62.8656 54.2351 65.0481 53.0968 65.7614C48.4649 68.6647 43.1894 74.3119 44.0044 80.2567C44.871 86.5793 54.4749 87.9346 57.9033 82.7988C59.1023 81.0003 58.7501 79.2838 58.3419 77.3169Z" fill="#B24A00"/>
<path d="M82.4521 51.3798C82.4323 51.6439 82.1774 51.7122 81.977 51.7759C73.3794 54.4789 61.0164 58.4203 53.7346 62.7927C51.619 64.063 51.4885 65.1208 52.4552 67.4489C53.7225 70.4995 57.2845 74.0144 60.0375 75.7886C61.4611 76.7068 63.17 77.7069 64.9578 77.1621C72.8968 74.749 96.9185 68.2609 96.9185 68.2609C97.5301 68.314 98.5242 71.1915 98.767 71.8578C99.5426 73.9734 100.089 76.1498 100.52 78.361C105.199 77.5369 109.731 75.9373 114.153 74.239C123.268 70.7408 132.798 66.4761 139.334 59.0198L134.334 54.0008C140.966 45.9223 133.121 40.7364 126.05 37.9772C118.829 35.1589 110.487 32.7595 102.878 31.2448C95.2946 29.7347 75.7454 26.2881 73.5661 36.9589C72.1455 43.9129 77.2267 48.0728 82.4521 51.3798Z" fill="#C1DB70"/>
<path d="M53.3142 79.8801C51.5977 79.7845 50.7311 80.7497 52.2594 81.9047L61.5415 83.3252C62.9484 83.3298 63.3536 81.7149 61.9118 81.1853C60.47 80.6556 55.0155 79.9742 53.3142 79.8801Z" fill="#22A8C3"/>
<path d="M41.5688 22.2697C41.1044 22.7402 41.1272 24.9939 42.1652 24.7253C43.475 24.3868 42.8953 20.9281 41.5688 22.2697Z" fill="#00151A"/>
<path d="M47.5406 19.2508C47.6514 19.2508 47.7622 19.2159 47.8578 19.1461C48.093 18.9716 48.1416 18.6377 47.9671 18.4024C47.2917 17.4964 46.4995 16.6829 45.6117 15.9878C44.8665 15.4035 44.0545 14.9027 43.197 14.4975C42.9314 14.373 42.6158 14.4853 42.4898 14.7509C42.3638 15.0165 42.4777 15.3322 42.7432 15.4582C43.5294 15.83 44.2731 16.2898 44.956 16.8241C45.7695 17.4615 46.4965 18.2067 47.1142 19.0368C47.2189 19.1765 47.3782 19.2508 47.5406 19.2508Z" fill="#00151A"/>
<path d="M37.9157 36.6268C37.9279 36.6268 37.9415 36.6268 37.9537 36.6268C39.6353 36.5069 41.2561 36.0759 42.7738 35.3474C44.3218 34.6037 45.6923 33.5823 46.8503 32.312C47.0476 32.095 47.0324 31.7596 46.8154 31.5623C46.5984 31.365 46.263 31.3802 46.0657 31.5972C45.0002 32.7658 43.7391 33.7053 42.314 34.3897C40.9177 35.0606 39.4243 35.4567 37.8778 35.5675C37.5849 35.5887 37.3648 35.8422 37.3861 36.1351C37.4058 36.4143 37.6395 36.6283 37.9157 36.6283V36.6268Z" fill="#00151A"/>
<path d="M97.4311 68.7013C97.4782 68.7013 97.5252 68.6952 97.5708 68.6831C100.034 68.0093 102.537 67.2975 105.009 66.5659C112.708 64.2894 116.947 63.0358 121.86 61.0052C126.041 59.2766 130.178 57.1898 134.157 54.7994C134.409 54.6476 134.49 54.3214 134.339 54.0709C134.188 53.819 133.863 53.7386 133.611 53.8888C129.677 56.2518 125.587 58.3159 121.454 60.0248C116.593 62.0342 112.373 63.2817 104.711 65.5476C102.242 66.2776 99.7471 66.9879 97.2915 67.6602C97.0077 67.7376 96.8423 68.029 96.9197 68.3128C96.9834 68.5495 97.1989 68.7043 97.4311 68.7043V68.7013Z" fill="#00151A"/>
<path d="M94.5292 106.871C94.5459 106.871 94.5626 106.871 94.5793 106.868C97.5266 106.593 100.164 106.218 103.062 105.79C105.566 105.421 108.09 104.99 110.532 104.573C111.866 104.345 113.244 104.11 114.582 103.89C114.872 103.843 115.068 103.57 115.021 103.28C114.974 102.99 114.701 102.794 114.411 102.841C113.068 103.061 111.688 103.297 110.352 103.526C107.917 103.942 105.399 104.373 102.907 104.74C100.025 105.165 97.4007 105.538 94.4807 105.81C94.1893 105.837 93.9738 106.095 94.0011 106.388C94.0269 106.663 94.2576 106.871 94.5292 106.871Z" fill="#00151A"/>
<path d="M110.773 141.393C110.896 141.393 111.019 141.351 111.119 141.266C111.342 141.075 111.368 140.739 111.177 140.516L92.2648 118.461C92.0736 118.238 91.7382 118.212 91.5151 118.404C91.292 118.595 91.2662 118.93 91.4574 119.153L110.369 141.208C110.474 141.331 110.623 141.393 110.773 141.393Z" fill="#00151A"/>
<path d="M93.4973 165.209C94.0983 165.209 94.719 165.122 95.2244 164.979L95.5143 164.899C96.1973 164.709 96.7375 164.56 97.1746 164.325C97.4326 164.187 97.5298 163.864 97.3917 163.606C97.252 163.348 96.9318 163.251 96.6723 163.389C96.3399 163.566 95.8512 163.703 95.2305 163.874L94.9376 163.956C93.725 164.296 92.4805 164.122 92.2619 163.902C92.2983 163.733 92.5928 163.407 93.0056 163.082C95.191 163.615 96.2337 163.175 96.8089 162.933C97.1443 162.792 97.9881 162.19 97.7468 161.498C97.6527 161.229 97.4554 161.02 97.1746 160.894C96.2033 160.455 94.3867 161.135 93.8524 161.354C93.5944 161.458 93.2014 161.662 92.7961 161.929L92.7688 161.921C89.7836 161.09 89.2964 160.563 89.216 160.41C89.4102 160.138 90.509 159.566 92.1542 159.323C94.1393 159.03 95.8178 159.056 97.0441 159.076H97.1731C97.4645 159.079 97.7073 158.848 97.7119 158.555C97.7164 158.262 97.4827 158.021 97.1883 158.016H97.0593C95.7981 157.995 94.0679 157.968 91.9963 158.274C90.7017 158.465 88.231 159.141 88.143 160.325C88.0762 161.234 89.1431 161.952 91.7914 162.748C91.3771 163.185 91.107 163.676 91.2208 164.155C91.2678 164.353 91.4014 164.635 91.7747 164.855C92.2027 165.107 92.8371 165.213 93.4958 165.213L93.4973 165.209ZM96.5918 161.82C96.522 161.879 96.4446 161.933 96.3961 161.955C96.0273 162.109 95.4839 162.339 94.4595 162.255C95.5097 161.851 96.2595 161.772 96.5918 161.82Z" fill="#00151A"/>
<path d="M98.9078 47.5645C99.143 47.5645 99.357 47.4082 99.4208 47.1699C99.4967 46.8861 99.3282 46.5947 99.0444 46.5203L89.1841 43.8917C88.9003 43.8158 88.6089 43.9843 88.5345 44.2681C88.4586 44.5519 88.6271 44.8433 88.9109 44.9177L98.7712 47.5463C98.8167 47.5584 98.8638 47.5645 98.9078 47.5645Z" fill="#00151A"/>
<path d="M82.966 51.8111C83.0146 51.8111 83.0632 51.8051 83.1117 51.7914C88.9487 50.1341 94.901 48.5785 100.802 47.1686C105.217 46.1138 109.71 45.1151 114.156 44.2015C114.443 44.1423 114.628 43.8615 114.569 43.5747C114.509 43.2879 114.229 43.1027 113.942 43.1619C109.486 44.0786 104.981 45.0787 100.556 46.1365C94.64 47.5495 88.674 49.1081 82.8219 50.77C82.5396 50.8504 82.3757 51.1433 82.4561 51.4256C82.5229 51.6594 82.7354 51.8111 82.9676 51.8111H82.966Z" fill="#00151A"/>
</g>
<defs>
<clipPath id="clip0_10879_16991">
<rect width="201" height="215" fill="white" transform="matrix(-1 0 0 1 201 0)"/>
</clipPath>
</defs>
</svg>
