<svg width="201" height="140" viewBox="0 0 201 140" fill="none" xmlns="http://www.w3.org/2000/svg">
<g clip-path="url(#clip0_10879_17107)">
<path d="M158.098 54.193C126.555 52.3631 108.473 85.3474 121.356 112.796C134.498 140.809 174.015 148.968 192.554 121.9C211.321 94.497 190.572 56.0839 158.098 54.2083V54.193ZM126.433 113.574C112.452 88.0313 128.659 56.0687 159.089 58.2951C189.291 60.5062 207.083 99.4988 186.653 122.815C169.182 142.761 138.462 135.533 126.433 113.574Z" fill="#22A8C3"/>
<path d="M40.477 54.1932C11.632 52.531 -5.83962 81.337 2.49981 107.581C10.9307 134.1 43.5414 148.937 66.6692 130.211C96.124 106.376 77.6461 56.3434 40.477 54.1932ZM10.1684 114.748C-4.40652 89.7089 10.5801 56.0384 41.4527 58.2953C69.6726 60.3539 86.3819 95.1834 71.3344 118.896C56.2258 142.7 23.4627 137.592 10.1684 114.748Z" fill="#22A8C3"/>
<path d="M151.055 56.0994C152.35 55.7029 152.213 57.2584 152.396 58.2801C154.576 69.9916 155.705 81.9013 157.61 93.6585L164.151 83.1365C168.694 76.32 172.261 68.2531 176.988 61.6349C177.232 61.2995 177.643 60.5522 178.07 60.5675C178.848 60.598 178.466 61.6197 178.283 62.0314C177.597 63.5564 175.859 65.7523 174.914 67.3382C169.319 76.747 163.861 86.2169 158.068 95.519C157.412 97.4099 160.019 98.2943 161.345 99.0415C171.392 97.6234 181.424 96.0222 191.502 94.787C193.209 94.5887 196.213 93.9483 197.737 94.0093C199.262 94.0703 198.286 94.0398 198.377 94.36C198.499 95.0615 198.164 95.153 197.585 95.2902C189.52 96.2967 181.439 97.3489 173.39 98.5078C170.279 98.9501 166.499 99.2703 163.495 99.9565C163.236 100.018 162.992 99.9565 162.809 100.231C171.957 106.056 180.647 112.537 189.443 118.85C189.992 119.247 192.599 120.68 192.584 121.229C192.554 121.778 192.249 121.824 192.035 121.87C191.227 121.992 180.814 113.986 179.244 112.888C173.374 108.755 167.352 104.852 161.437 100.765C161.102 100.292 158.982 100.505 158.784 100.749C159.958 111.759 162.733 122.556 164.074 133.566C164.181 134.435 164.547 136.494 164.379 137.226C164.227 137.912 163.388 137.851 163.251 137.348L157.534 100.917L154.485 101.588C152.091 105.416 149.652 109.228 147.152 112.964C143.874 117.829 140.398 123.257 136.876 127.878C135.916 129.128 134.833 128.991 135.611 127.512C140.611 120.07 145.978 112.842 150.75 105.248C150.994 104.867 152.96 101.832 152.823 101.695L120.898 107.337C120.35 107.169 120.273 106.422 120.761 106.193C121.31 105.949 123.429 105.645 124.192 105.507C133.918 103.54 143.767 102.122 153.509 100.338C154.363 99.987 155.125 97.8216 155.735 97.0744L123.323 74.2004C123.018 73.9107 123.063 73.2702 123.49 73.1482L156.574 95.8239L151.055 56.1757V56.0994Z" fill="#22A8C3"/>
<path d="M40.0503 94.6497L40.7821 55.3674C41.1175 54.8184 42.0475 55.3064 41.8798 55.9469C41.7121 68.2226 41.7731 80.4983 41.3309 92.7588L63.8794 62.5803C63.8032 63.1446 64.4587 63.5106 64.0471 64.0443L41.4986 94.8174C40.9803 95.7629 41.1937 96.8608 42.3524 97.0438C51.3931 98.1723 60.4644 99.0872 69.4746 100.353C72.5695 100.795 76.4267 101.131 79.3843 101.817C80.543 102.107 80.3601 103.281 79.2166 103.144C76.076 102.778 72.9049 102.046 69.7643 101.634C60.9675 100.429 52.1249 99.5905 43.3586 98.2943C43.1299 98.6908 43.3586 98.6298 43.4958 98.7823C44.0447 99.4837 44.8375 100.277 45.4473 100.978C53.0397 109.579 61.2114 117.722 69.1544 126.002C69.3221 126.765 68.7123 127.161 68.1025 126.643L61.5163 119.979L41.3309 98.401C40.8888 106.742 41.1937 115.099 41.0565 123.456C40.9803 127.36 41.026 131.553 40.6906 135.426C40.6144 136.357 40.7821 138.217 39.4405 137.348C39.9741 124.264 39.7759 111.18 39.9741 98.096L39.3795 97.913C32.0768 107.612 24.7283 117.325 17.7458 127.268C17.5171 127.649 16.953 127.695 16.6481 127.375C16.2517 126.917 17.639 125.209 17.9592 124.737C24.1642 115.526 31.4517 106.834 37.8549 97.7606C29.1953 96.7236 20.5815 95.3512 11.9219 94.1312C10.565 93.933 1.72248 93.0638 1.35658 92.6825C1.05167 92.3775 1.37183 91.7828 1.93592 91.6913C2.98788 91.5388 6.63161 92.1945 7.97324 92.3623C17.883 93.6127 27.9299 95.5646 37.8549 96.5101C38.5562 96.5711 38.9831 96.6016 39.1356 95.7781C30.5674 85.7898 21.8469 75.8778 13.9801 65.3557C13.9953 64.4713 14.5289 64.1053 15.1692 64.8068C21.7402 73.8191 29.1801 82.1757 36.3456 90.7001L40.0503 94.6649V94.6344H40.0655L40.0503 94.6497Z" fill="#22A8C3"/>
<path d="M154.576 101.222H117.392C116.675 97.1504 116.63 92.6823 117.346 88.626C118.535 81.8553 121.127 75.3895 125.579 70.1285L123.597 68.1004C124.146 67.2312 123.597 68.1461 123.597 68.1461L115.806 61.0094L115.395 59.8962L121.752 28.2691C121.92 25.875 118.947 25.814 118.779 28.2386L106.476 89.4037C106.095 89.4037 105.5 88.7785 105.195 88.4125C90.7575 71.135 77.9053 51.8598 63.6353 34.3841L62.8883 33.7131C62.7206 33.5606 62.4919 33.4691 62.187 33.4691H43.953L50.7831 4.28191L50.9203 3.67194C51.3472 2.52824 50.6154 1.72003 49.7922 1.61328H49.5635C49.0299 1.61328 48.5115 1.91827 48.2523 2.57399C48.2066 2.78748 48.1456 3.00097 48.0999 3.19921C45.2642 14.9107 42.7639 26.7289 39.73 38.3794L15.5654 35.2533L13.4768 9.83267C13.3396 8.70422 12.0437 7.92651 11.0832 8.70422C10.4581 9.20745 10.5801 10.2139 10.6106 10.9459C10.885 19.2568 12.501 27.9184 12.7755 36.2903C13.1109 37.9219 13.7664 38.0744 15.23 38.3337C23.6 39.7976 32.534 39.9654 40.9344 41.4598C42.8706 41.3835 42.8096 37.8457 43.1907 36.397H59.9611L53.9238 55.2299C52.0485 54.6657 50.219 54.0405 48.2981 53.6135C35.1105 50.7314 21.8162 54.315 11.0222 62.0616C10.1989 62.6411 6.15881 65.7215 5.96062 66.3772C5.89963 66.5754 5.86914 66.7737 5.86914 66.9719C5.86914 67.9326 6.63143 68.6341 7.72912 68.3444C9.55861 66.9872 11.2204 65.447 13.0804 64.1355C22.9291 57.1971 35.019 53.9642 46.7735 56.2211C48.7707 56.6024 50.7679 57.1514 52.7346 57.8681C52.7651 57.8681 52.7803 57.8986 52.8108 57.8986L38.6932 96.9674C38.2054 99.3158 41.1478 99.7732 41.6357 97.3943L55.5093 59.088C82.8754 72.2482 80.4361 104.668 80.4361 104.668L80.0702 108.679C80.1922 110.158 82.0979 110.631 82.8297 109.304C85.9093 88.5192 76.213 65.0658 56.5003 56.2211L59.3817 47.712L60.1593 48.3982C74.4293 65.874 87.007 85.1949 101.445 102.472C101.658 102.732 102.207 103.464 102.649 103.86C102.832 104.043 103.015 104.165 103.137 104.165H157.305L154.591 101.222H154.576Z" fill="#EDACB0"/>
<path d="M107.604 25.0975C105.622 23.8928 104.418 21.9408 107.451 21.1784C112.422 20.9344 117.392 20.4617 122.362 20.0652C124.42 19.8974 126.463 19.7297 128.506 19.6077C130.518 19.4857 134.253 19.0282 136.068 19.2722C138.812 19.6229 139.498 21.9866 137.882 24.1062C134.787 28.1626 127.378 29.23 120.38 28.6048C115.288 28.1473 110.424 26.8206 107.604 25.0975Z" fill="#22A8C3"/>
<path d="M61.211 5.51711C58.6649 5.42561 53.893 4.98338 50.7676 4.28191C50.1883 4.15992 49.6852 4.00743 49.243 3.87018C48.7094 3.68719 48.3283 3.45845 48.0996 3.19921C48.1453 2.98572 48.2063 2.77223 48.2521 2.57399C48.5112 1.91827 49.0296 1.62853 49.5632 1.61328H49.7919C50.7829 1.72003 59.8846 2.63499 61.6226 3.13821C63.4673 3.67194 62.9947 5.57811 61.211 5.51711Z" fill="#22A8C3"/>
<path d="M201.411 81.291L165.126 104.165H157.29L154.576 101.222L154.393 101.024L154.286 100.917L125.579 70.1285L123.597 68.1004C123.597 68.1004 136.921 50.9449 161.299 52.6223C166.498 52.973 171.697 53.9185 176.454 56.0839C186.958 60.8417 194.871 69.671 201.411 81.291Z" fill="#D7425B"/>
<path fill-rule="evenodd" clip-rule="evenodd" d="M167.192 18.0457C167.477 18.1516 167.666 18.4234 167.666 18.7273V26.727H172.273C172.557 26.727 172.816 26.8929 172.934 27.1516C173.052 27.4103 173.009 27.7143 172.823 27.9296L163.611 38.5955C163.413 38.8255 163.092 38.9077 162.807 38.8017C162.523 38.6959 162.334 38.4241 162.334 38.1202V30.1205H157.727C157.443 30.1205 157.184 29.9546 157.066 29.6959C156.948 29.4372 156.991 29.1332 157.177 28.9178L166.389 18.2519C166.587 18.022 166.908 17.9397 167.192 18.0457Z" fill="#D7425B"/>
</g>
<defs>
<clipPath id="clip0_10879_17107">
<rect width="201" height="140" fill="white" transform="matrix(-1 0 0 1 201 0)"/>
</clipPath>
</defs>
</svg>
