<svg width="300" height="177" viewBox="0 0 300 177" fill="none" xmlns="http://www.w3.org/2000/svg">
<g clip-path="url(#clip0_10879_8655)">
<path d="M132.073 162.58C138.933 162.458 279.817 163.007 286.646 163.312C290.671 163.494 294.969 164.043 298.323 166.726C300.091 168.159 300.762 170.232 298.872 172.03C295.183 175.536 288.719 175.902 284.055 176.146C260.61 177.365 45.1828 176.969 21.8291 176.786C16.2498 176.756 5.30472 176.939 0.944964 172.793C-0.335524 171.573 -0.274549 170.018 0.944964 168.768C4.75594 164.775 15.2742 164.196 20.3962 163.891C38.3535 162.763 114.116 162.946 132.073 162.61V162.58Z" fill="#99D9E5"/>
<g clip-path="url(#clip1_10879_8655)">
<path d="M190.709 109.309C169.055 107.322 155.856 129.592 164.084 148.769C172.476 168.34 199.468 174.864 212.845 156.675C226.386 138.26 213.001 111.359 190.708 109.319L190.709 109.309ZM167.558 149.421C158.531 131.53 170.416 109.919 191.296 112.153C212.018 114.371 223.355 141.602 208.765 157.168C196.287 170.484 175.324 164.803 167.558 149.421Z" fill="#22A8C3"/>
<path d="M109.806 106.592C90.0045 104.783 77.322 124.193 82.4521 142.437C87.6388 160.872 109.726 171.83 126.067 159.484C146.877 143.77 135.322 108.93 109.806 106.592ZM87.5613 147.544C78.1145 129.985 89.2 107.171 110.383 109.436C129.745 111.504 140.434 135.846 129.537 151.809C118.595 167.833 96.1779 163.563 87.5613 147.544Z" fill="#22A8C3"/>
<path d="M185.82 110.457C186.72 110.214 186.59 111.28 186.692 111.987C187.921 120.093 188.422 128.311 189.462 136.442L194.203 129.356C197.486 124.772 200.126 119.306 203.529 114.863C203.705 114.638 204.005 114.133 204.298 114.154C204.832 114.192 204.547 114.886 204.411 115.165C203.904 116.198 202.658 117.669 201.971 118.738C197.906 125.08 193.933 131.468 189.733 137.732C189.239 139.018 191.011 139.686 191.906 140.231C198.85 139.487 205.787 138.618 212.747 138.001C213.926 137.904 216.006 137.532 217.054 137.61C218.101 137.687 217.43 137.643 217.486 137.866C217.554 138.351 217.321 138.406 216.919 138.487C211.349 138.993 205.767 139.53 200.203 140.142C198.054 140.374 195.446 140.507 193.364 140.91C193.184 140.946 193.018 140.898 192.886 141.083C199.043 145.301 204.871 149.959 210.775 154.504C211.144 154.79 212.904 155.836 212.881 156.213C212.847 156.59 212.636 156.615 212.488 156.641C211.93 156.706 204.952 150.959 203.898 150.168C199.956 147.19 195.904 144.366 191.93 141.418C191.71 141.085 190.247 141.183 190.105 141.346C190.659 148.946 192.318 156.436 192.986 164.04C193.04 164.641 193.244 166.065 193.112 166.565C192.991 167.033 192.416 166.972 192.333 166.623L189.242 141.433L187.129 141.824C185.394 144.401 183.628 146.967 181.822 149.479C179.455 152.749 176.939 156.403 174.41 159.5C173.72 160.338 172.979 160.219 173.548 159.219C177.159 154.216 181.018 149.368 184.475 144.255C184.652 143.998 186.075 141.957 185.983 141.859L163.895 145.003C163.521 144.875 163.486 144.359 163.827 144.213C164.21 144.058 165.674 143.897 166.202 143.82C172.938 142.692 179.745 141.944 186.487 140.941C187.082 140.72 187.656 139.248 188.093 138.748L166.327 122.266C166.124 122.06 166.17 121.621 166.467 121.547L188.699 137.907L185.818 110.509L185.82 110.457Z" fill="#22A8C3"/>
<path d="M108.578 134.41L109.989 107.408C110.232 107.038 110.86 107.395 110.73 107.832C110.332 116.271 110.09 124.716 109.503 133.139L125.709 112.902C125.643 113.289 126.086 113.556 125.79 113.913L109.571 134.559C109.192 135.197 109.314 135.957 110.106 136.11C116.299 137.095 122.517 137.934 128.685 139.012C130.804 139.388 133.449 139.708 135.468 140.248C136.258 140.474 136.105 141.278 135.322 141.157C133.17 140.832 131.006 140.256 128.855 139.9C122.832 138.868 116.769 138.087 110.77 136.993C110.603 137.261 110.762 137.224 110.853 137.332C111.214 137.827 111.741 138.391 112.144 138.888C117.168 144.979 122.601 150.768 127.873 156.647C127.971 157.175 127.542 157.434 127.134 157.063L122.758 152.328L109.373 137.02C108.876 142.747 108.893 148.502 108.605 154.247C108.463 156.93 108.397 159.816 108.077 162.472C108.003 163.11 108.076 164.394 107.173 163.765C107.842 154.778 108.008 145.774 108.446 136.779L108.042 136.639C102.795 143.142 97.5159 149.653 92.4836 156.331C92.3175 156.588 91.9285 156.606 91.7261 156.379C91.464 156.055 92.4577 154.912 92.6889 154.594C97.1695 148.403 102.383 142.592 106.996 136.499C101.064 135.586 95.171 134.443 89.2429 133.404C88.3142 133.236 82.2522 132.434 82.0093 132.164C81.8067 131.947 82.0406 131.545 82.4307 131.495C83.1578 131.415 85.6489 131.95 86.5678 132.096C93.3551 133.185 100.221 134.76 107.025 135.639C107.506 135.697 107.799 135.728 107.923 135.165C102.26 128.097 96.491 121.078 91.323 113.659C91.3539 113.051 91.7294 112.812 92.1536 113.309C96.4652 119.66 101.39 125.579 106.121 131.608L108.578 134.421L108.579 134.4L108.589 134.4L108.578 134.41Z" fill="#22A8C3"/>
<path d="M187.2 141.575L161.624 140.716C161.225 137.899 161.296 134.825 161.883 132.051C162.857 127.422 164.789 123.034 167.973 119.518L166.656 118.078C167.054 117.492 166.655 118.109 166.655 118.109L161.461 113.02L161.204 112.245L166.307 90.6381C166.478 88.9952 164.434 88.8846 164.263 90.5485L154.388 132.335C154.126 132.326 153.732 131.882 153.53 131.624C143.999 119.407 135.604 105.852 126.192 93.5022L125.694 93.0235C125.582 92.9147 125.427 92.8465 125.217 92.8394L112.675 92.4184L118.047 72.5005L118.155 72.0841C118.475 71.3073 117.991 70.7345 117.427 70.6421L117.27 70.6368C116.903 70.6245 116.539 70.8223 116.346 71.2674C116.309 71.4131 116.262 71.5586 116.226 71.6939C114.006 79.6838 112.013 87.7549 109.657 95.6983L93.1084 92.9902L92.2587 75.4571C92.1904 74.6777 91.317 74.1129 90.6384 74.6256C90.1969 74.9573 90.2575 75.6524 90.2616 76.1566C90.2584 81.8793 91.17 87.8743 91.1655 93.639C91.3585 94.769 91.8059 94.889 92.8066 95.1011C98.5298 96.3013 104.671 96.623 110.414 97.8449C111.748 97.8371 111.788 95.4023 112.083 94.4147L123.618 94.8019L119.031 107.616C117.754 107.185 116.51 106.713 115.199 106.374C106.195 104.088 96.9677 106.246 89.3645 111.325C88.7848 111.704 85.9348 113.73 85.7833 114.176C85.7368 114.311 85.7113 114.447 85.7067 114.583C85.6845 115.244 86.1926 115.744 86.9543 115.57C88.244 114.679 89.4226 113.658 90.7322 112.799C97.6666 108.254 106.057 106.309 114.09 108.133C115.455 108.441 116.816 108.865 118.152 109.403C118.173 109.404 118.183 109.425 118.204 109.426L107.591 135.972C107.201 137.576 109.215 137.959 109.605 136.334L120.032 110.306C138.551 119.99 136.125 142.233 136.125 142.233L135.781 144.983C135.831 146.003 137.13 146.373 137.664 145.477C140.263 131.252 134.135 114.896 120.78 108.357L122.959 102.571L123.477 103.061C132.889 115.411 141.094 128.991 150.626 141.208C150.767 141.391 151.127 141.907 151.422 142.19C151.544 142.32 151.667 142.408 151.751 142.411L189.009 143.662L187.21 141.575L187.2 141.575Z" fill="#EDACB0"/>
<path d="M156.649 88.1295C155.314 87.2552 154.53 85.8848 156.635 85.4304C160.059 85.3773 163.488 85.1669 166.916 85.009C168.336 84.9411 169.745 84.8729 171.153 84.8362C172.54 84.7987 175.119 84.5703 176.362 84.78C178.241 85.0846 178.658 86.7263 177.498 88.1469C175.275 90.8654 170.154 91.4286 165.356 90.837C161.864 90.4047 158.549 89.3799 156.649 88.1295Z" fill="#22A8C3"/>
<path d="M125.191 73.5914C123.442 73.4697 120.17 73.0553 118.037 72.5007C117.641 72.4034 117.298 72.2869 116.998 72.1823C116.635 72.0441 116.378 71.8779 116.227 71.6944C116.263 71.5486 116.31 71.4031 116.346 71.2678C116.539 70.8228 116.902 70.6355 117.27 70.6373L117.427 70.6426C118.106 70.7389 124.346 71.5784 125.529 71.9646C126.786 72.3743 126.417 73.6745 125.191 73.5914Z" fill="#22A8C3"/>
<path d="M219.874 128.948L194.389 143.843L188.999 143.662L187.2 141.575L187.079 141.435L187.008 141.359L167.973 119.519L166.657 118.078C166.657 118.078 176.218 106.586 192.947 108.303C196.514 108.664 200.068 109.434 203.29 111.033C210.405 114.548 215.644 120.804 219.874 128.948Z" fill="#D7425B"/>
<path d="M189.546 122.018C185.34 122.549 184.826 130.039 189.93 129.654C194.498 129.314 194.986 121.329 189.546 122.018ZM189.545 127.688C187.424 127.701 187.999 124.024 190.165 123.918C192.268 123.81 191.845 127.671 189.545 127.688Z" fill="#EDACB0"/>
<path d="M196.759 119.172C197.469 118.986 197.613 119.39 198.09 119.564C198.972 119.877 199.764 120.04 200.723 119.936C201.45 119.865 202.266 119.011 202.888 119.882C203.86 121.259 201.497 121.894 200.53 121.945C199.415 122.013 196.646 121.626 196.15 120.454C195.965 120.007 196.315 119.284 196.76 119.162L196.759 119.172Z" fill="#EDACB0"/>
<path d="M188.308 118.889C188.836 118.791 192.695 118.921 193.215 119.054C194.235 119.319 194.35 120.887 193.17 121.026C192.464 121.108 188.866 121.008 188.22 120.86C187.272 120.65 187.209 119.094 188.308 118.879C188.308 118.886 188.308 118.889 188.308 118.889Z" fill="#EDACB0"/>
<path d="M198.248 122.993C194.041 123.523 193.527 131.014 198.632 130.629C203.2 130.289 203.699 122.304 198.248 122.993ZM198.247 128.652C196.126 128.665 196.701 124.988 198.867 124.882C200.97 124.775 200.546 128.646 198.247 128.652Z" fill="#EDACB0"/>
<path fill-rule="evenodd" clip-rule="evenodd" d="M197.763 85.672C197.957 85.7515 198.081 85.9428 198.074 86.1518L197.889 91.6542L201.057 91.7606C201.253 91.7671 201.427 91.8872 201.502 92.0679C201.578 92.2485 201.541 92.4566 201.408 92.6004L194.826 99.724C194.684 99.8776 194.462 99.9267 194.268 99.8473C194.075 99.7679 193.951 99.5765 193.958 99.3675L194.143 93.8652L190.974 93.7588C190.779 93.7522 190.605 93.6322 190.529 93.4515C190.454 93.2708 190.491 93.0627 190.623 92.9189L197.206 85.7953C197.348 85.6418 197.57 85.5926 197.763 85.672Z" fill="#D7425B"/>
</g>
<path d="M134.147 170.75C132.714 168.25 129.025 165.811 126.098 164.866C125.945 164.805 125.763 164.775 125.61 164.775C124.817 164.775 119.513 164.744 113.994 164.714C108.476 164.714 103.141 164.775 102.378 164.775C102.195 164.775 102.043 164.775 101.891 164.866C98.9637 165.781 95.2747 168.25 93.8418 170.75C93.5979 171.177 93.4759 171.634 93.8723 171.665C97.5308 171.665 105.702 171.665 113.994 171.665C122.287 171.665 130.458 171.665 134.116 171.665C134.543 171.665 134.391 171.177 134.147 170.75Z" fill="#008099"/>
<path d="M112.043 101.273C110.945 101.486 110.702 102.127 110.763 103.102C110.793 105.114 110.885 108.925 111.006 113.711C111.342 127.765 111.799 150.66 112.104 164.409C112.104 165.415 112.104 166.116 112.531 166.573C113.598 167.61 116.555 167.488 116.616 165.659C116.769 155.568 117.165 112.644 117.226 102.736C117.226 101.944 116.738 101.547 116.037 101.364C114.939 101.06 113.202 101.029 112.043 101.273Z" fill="#008099"/>
<path d="M62.7136 0.335204C61.3416 0.213261 30.4879 -0.48791 24.7562 0.670547C23.6587 0.883947 22.8965 1.73755 22.8965 2.95697V103.651H64.9087V2.53018C64.9087 1.21929 64.2684 0.487633 62.7136 0.335204Z" fill="#008099"/>
<path d="M38.8416 11.0669C34.7258 11.7376 34.4819 19.0846 39.4819 18.5359C43.9636 18.0481 44.177 10.2133 38.8416 11.0669ZM39.0246 16.6458C36.9514 16.7372 37.3782 13.1094 39.5124 12.9265C41.5855 12.7436 41.2807 16.5543 39.0246 16.6458Z" fill="#99D9E5"/>
<path d="M45.7929 8.04805C46.4941 7.83465 46.6465 8.23097 47.1039 8.3834C47.988 8.65777 48.7502 8.8102 49.6953 8.65777C50.3965 8.56631 51.1892 7.71271 51.8295 8.53583C52.8356 9.84671 50.5185 10.5479 49.5734 10.6393C48.4758 10.7308 45.7624 10.4564 45.2441 9.32845C45.0612 8.90165 45.3661 8.17 45.7929 8.04805Z" fill="#99D9E5"/>
<path d="M37.5001 8.04849C38.0184 7.92655 41.7989 7.92655 42.3172 8.04849C43.3233 8.26189 43.4757 9.81666 42.3172 9.96909C41.616 10.0605 38.1099 10.091 37.4696 9.96909C36.5245 9.78617 36.433 8.26189 37.4696 8.018L37.5001 8.04849Z" fill="#99D9E5"/>
<path d="M47.3783 11.7368C43.2624 12.4075 43.0185 19.7546 48.0185 19.2058C52.5002 18.718 52.7136 10.8832 47.3783 11.7368ZM47.5917 17.2852C45.5185 17.3767 45.9453 13.7489 48.0795 13.566C50.1527 13.383 49.8478 17.1938 47.5917 17.2852Z" fill="#99D9E5"/>
<path d="M57.7137 41.4298C56.7076 41.3383 34.0856 40.8201 29.8783 41.6737C29.0856 41.8261 28.5063 42.4358 28.5063 43.3504V89.3228C28.5063 89.4753 28.5978 89.6886 28.7503 89.902C28.9332 90.1459 29.1771 90.3898 29.3905 90.4508C30.8234 90.7557 55.9149 90.8471 58.3234 90.4508C59.2381 90.2984 59.2685 89.5057 59.3295 88.7131V43.015C59.3295 42.07 58.8722 41.5212 57.7137 41.3993V41.4298Z" fill="#99D9E5"/>
<path d="M64.9087 103.621V167.976C64.8477 169.043 64.7867 170.141 63.5367 170.354C60.2745 170.842 26.0367 170.72 24.0855 170.324C23.5062 170.202 22.8965 169.287 22.8965 168.8V103.621H64.9087Z" fill="#99D9E5"/>
<path d="M59.2988 45.3623C58.9329 46.2464 58.5975 46.978 58.2012 47.6792C53.0488 57.8919 43.2317 59.4467 34.2378 62.8916C32.1646 63.6842 30.2439 64.6598 28.4756 65.7877V89.3227C28.4756 89.4751 28.567 89.6885 28.7195 89.9019C31.8597 78.9271 38.4451 73.653 51.0366 69.507C54.5122 68.501 59.0853 66.0316 59.2683 61.8856C59.2683 61.6112 59.2683 61.3368 59.2988 61.0624V45.3623Z" fill="#70C9DB"/>
<path d="M225.641 166.665L225.763 166.97L240.214 166.818L239.787 168.464C239.787 169.012 240.153 169.195 240.854 169.073C250.61 169.165 260.336 169.195 270.031 169.195L270.336 169.012C270.336 167.458 270.336 165.903 270.183 164.348C269.939 161.178 269.238 158.007 269.147 154.806L254.939 154.349C254.878 153.953 255.092 152.703 254.817 152.489C250.153 152.215 245.458 152.001 240.763 152.215C239.909 153.617 239.421 154.989 238.08 156.056C235.275 158.282 229.848 159.105 227.683 161.787C226.738 162.946 225.915 165.202 225.671 166.665H225.641Z" fill="#C2E8F0"/>
<path d="M225.64 166.665C225.458 167.793 225.458 168.89 226.829 169.256C226.982 169.287 227.988 169.47 228.079 169.47H239.817C239.878 169.47 239.817 170.232 239.97 170.628C240.214 171.299 241.159 171.634 241.799 171.695C246.281 172.152 264.634 171.604 268.75 171.604C270.945 171.39 270.275 170.537 270.244 169.043C270 168.89 269.726 168.89 269.451 168.89C259.634 168.586 249.756 169.256 239.939 168.738L240.549 166.543L225.61 166.695L225.64 166.665Z" fill="#008099"/>
<path d="M263.689 80.8175C260.061 80.2993 253.323 80.9394 249.543 81.3662C248.354 81.4882 246.951 81.3663 246.494 82.6162C245.884 84.2624 245.61 87.7378 245.336 89.5974C244.97 92.2496 244.787 94.9019 244.421 97.5542C241.921 115.632 239.055 133.71 236.921 151.819C237.043 152.672 237.439 153.16 238.262 153.465C239.025 153.739 248.171 153.953 250.732 154.44C251.098 154.501 251.25 154.898 251.586 155.05C252.714 155.629 268.354 155.812 270.214 155.416C271.555 155.142 272.012 153.8 272.104 152.581C270.061 130.875 267.378 109.23 265.457 87.5244C265.305 85.7562 265.397 83.8051 265.153 82.0674C265.031 81.1833 264.543 80.9699 263.72 80.848L263.689 80.8175Z" fill="#008099"/>
<path d="M240.122 42.7411C239.482 47.5578 241.068 50.6674 245.519 52.5575C246.464 52.9538 247.592 53.1672 248.507 53.6245C249.147 53.9598 249.543 54.4781 249.879 55.1183C250.092 55.5146 250.275 55.9414 250.458 56.3682C250.946 57.4657 251.525 58.5022 252.958 58.7461C252.988 58.7461 253.049 58.7461 253.08 58.7461C253.933 57.4047 257.257 55.2402 257.257 55.1488C257.44 54.0513 257.47 52.8623 257.409 51.8563C262.104 48.9907 263.598 43.7166 263.171 38.4426C262.592 31.187 255.336 27.1324 248.598 28.9616C245.885 29.6932 238.385 34.8148 237.104 37.2841C235.793 39.8145 237.287 42.5277 240.062 42.7411H240.122Z" fill="#E8AA7D"/>
<path d="M255.884 40.881C256.098 40.6981 259.025 49.0512 258.262 49.8438C257.988 50.1487 257.561 50.1182 257.256 50.3316C255.945 51.1852 255.183 52.5266 255.823 54.0813C256.403 55.4532 257.714 55.1178 258.933 55.5446C262.195 56.6726 264.055 61.3064 265.031 64.355C265.671 66.3366 266.006 68.3791 266.555 70.3912C269.39 67.9218 271.677 64.5684 271.951 60.6967C272.287 55.8495 268.659 52.0083 269.147 46.9782C269.299 45.3319 270 43.7467 270 42.07C270 33.534 258.72 24.5407 250.427 27.3759C247.287 28.4429 246.311 30.333 247.805 33.412C248.872 35.668 250.854 36.1557 252.195 37.8934C252.927 38.7775 253.781 41.8261 255 41.7041C255.519 41.6432 255.64 41.1249 255.884 40.9115V40.881Z" fill="#22A8C3"/>
<path d="M260.427 38.0759C254.879 37.2528 254.421 43.7768 255.946 47.5875C257.013 50.2397 257.958 50.3617 260.702 49.8434C266.86 48.6545 265.671 38.8686 260.397 38.1064L260.427 38.0759Z" fill="#E8AA7D"/>
<path d="M212.988 37.3141C210.427 35.6374 209.299 37.8018 210.488 40.1188C209.513 39.9968 208.75 40.5151 208.689 41.5211C208.659 42.9844 210.58 44.905 211.342 46.1244C212.744 48.4414 213.202 50.8802 215.061 53.0447C215.641 53.6849 218.232 55.9713 218.933 56.2457C219.177 56.3372 219.299 56.3676 219.543 56.3676C220.427 56.3676 224.086 54.0507 224.817 53.3191C225.305 52.8313 225.793 52.435 225.427 51.6728C223.11 48.106 219.177 36.8568 215.671 34.9667C213.811 33.9606 212.744 35.4544 212.988 37.2836V37.3141Z" fill="#E5A97B"/>
<path d="M213.11 26.9185C211.891 26.8271 210.671 27.1929 210.336 28.5038C209.482 34.8753 207.195 41.7041 206.525 48.0451C206.372 49.417 206.403 50.2706 207.836 50.7584C209.939 51.49 215.945 52.679 218.202 52.8924C220.275 53.0753 221.006 52.557 221.616 50.6364C223.476 44.8441 223.903 37.8324 225.549 31.9182C225.793 30.7293 225.183 29.8147 224.086 29.3879C222.134 28.6562 215.214 27.071 213.171 26.9185H213.11Z" fill="#00151A"/>
<path d="M207.958 48.1974C207.958 49.6302 208.689 49.8131 209.817 50.1485C212.134 50.7887 214.939 51.0935 217.348 51.4594L220.671 47.6487L220.762 47.5572L224.055 31.8571C224.177 31.2169 223.811 30.5767 223.171 30.4242C222.653 30.3023 222.104 30.1803 221.89 30.1499C221.159 30.0279 221.403 31.4607 220.64 31.5827C220.336 31.6132 215.366 30.5462 214.909 30.3633C213.811 29.9365 214.939 28.8695 214.512 28.5341C214.208 28.3207 212.775 28.0159 212.073 28.4122C211.342 28.8085 210.671 33.1375 210.61 33.9911L209.36 40.6065C208.964 42.7709 208.019 46.1853 207.988 48.2279L207.958 48.1974Z" fill="#99D9E5"/>
<path d="M218.659 44.4478C218.324 44.6612 217.958 44.6612 216.586 44.3563C213.964 43.7771 214.421 43.9295 213.049 43.5332C212.653 43.4112 212.135 43.3198 211.738 42.9235C211.311 42.4967 211.311 42.1613 211.464 41.1553C211.616 40.2407 211.952 38.686 212.317 37.1617C212.378 36.8568 212.47 36.552 212.531 36.2776C212.561 36.1556 212.592 36.0337 212.622 35.9118C212.775 35.3325 212.958 34.9362 213.171 34.7533C213.507 34.4484 213.903 34.418 214.391 34.4789C216.25 34.6618 218.964 35.3325 219.726 35.6069C219.878 35.6679 220.244 35.8508 220.458 36.2166C220.61 36.4605 220.702 36.7654 220.641 37.1617C220.641 37.2531 220.61 37.3446 220.58 37.4665C220.244 39.4481 220.092 40.2407 219.33 43.4112C219.238 43.7771 219.116 44.2039 218.628 44.4782L218.659 44.4478Z" fill="#2B353A"/>
<path d="M218.079 40.8807C218.354 40.7587 218.598 40.6368 218.72 40.3319C219.055 39.4783 218.171 38.7772 217.378 38.8381C217.165 38.8381 217.134 39.204 217.104 39.3869C216.982 40.0576 216.708 41.7038 216.708 41.7038C216.647 41.7952 216.067 41.6428 216.006 41.5209C215.945 41.3989 216.037 40.4539 216.098 40.3624C216.22 40.3319 216.464 40.4539 216.555 40.3624C216.616 40.3014 216.708 39.6917 216.677 39.6612C216.586 39.5393 216.342 39.6003 216.22 39.5393C216.22 39.3564 216.464 38.6552 216.403 38.5333C216.372 38.4418 215.884 38.3199 215.793 38.4113C215.671 38.5028 215.579 39.3869 215.518 39.4174L214.756 39.204C214.756 39.021 214.756 38.4113 214.634 38.3199C214.512 38.2589 213.903 38.1065 213.811 38.1674C213.384 38.9296 212.988 39.6917 212.622 40.4844C212.5 40.7587 212.287 41.155 212.195 41.4294C212.195 41.5209 212.195 41.6123 212.287 41.6428C212.317 41.6428 212.866 41.7343 212.897 41.7038L213.384 40.7587C213.384 40.7587 213.811 40.7892 213.872 40.8197C213.903 40.8197 214.025 40.8502 214.055 40.8807C214.055 41.0636 213.964 41.7648 214.055 41.8867C214.116 41.9477 214.726 42.1001 214.787 42.0696C214.848 42.0696 214.878 41.9172 214.878 41.8562L214.817 40.088C214.817 40.0271 215.275 40.1795 215.427 40.21C215.366 40.5148 215.305 40.7892 215.275 41.0941C215.214 41.5209 215.153 42.0391 215.579 42.283C216.067 42.5879 217.561 42.8013 218.11 42.5879C218.842 42.3135 218.811 41.2465 218.11 40.9112L218.079 40.8807ZM213.598 40.0271L214.055 39.082V40.1185L213.598 40.0271ZM217.744 39.6308C218.293 39.8137 218.14 40.271 217.622 40.3014L217.744 39.6308ZM217.348 41.8562L217.439 41.1855C217.439 41.1855 217.805 41.3075 217.805 41.4904C217.805 41.7952 217.5 41.9172 217.348 41.8562Z" fill="white"/>
<path d="M220.61 37.4357C219.269 37.954 218.293 37.893 217.623 37.8015C216.982 37.7406 216.525 37.6186 215.275 37.2528C214.818 37.1308 213.263 36.887 212.348 37.1918C212.409 36.887 212.501 36.5821 212.562 36.3077C212.592 36.1858 212.623 36.0639 212.653 35.9419C213.11 35.8809 213.72 35.8809 214.482 35.9724C215.062 36.0638 215.244 36.0943 216.281 36.3687C217.623 36.7345 218.049 36.7041 218.293 36.7041C218.994 36.765 219.726 36.6126 220.519 36.1858C220.671 36.4297 220.763 36.7345 220.702 37.1309C220.702 37.2223 220.671 37.3138 220.641 37.4357H220.61Z" fill="white"/>
<path d="M221.433 39.6007C219.513 39.1739 218.964 40.8811 219.025 42.4663C219.025 43.198 219.36 43.9296 219.33 44.6613C219.269 45.9112 216.952 47.1306 216.952 50.545C216.799 52.9839 218.903 56.4593 221.433 56.7946C223.08 57.008 227.775 54.6606 227.135 52.2522C226.068 49.3866 224.513 46.5209 223.415 43.7162C222.988 42.6187 222.653 39.875 221.464 39.6007H221.433Z" fill="#E8AA7D"/>
<path d="M265.824 100.664C265.153 102.005 262.866 103.865 261.525 102.524C260.336 101.335 262.561 99.3835 263.232 98.5299C264.574 96.8227 265.122 95.4508 267.439 95.207C270.702 94.8716 272.47 96.5788 274.238 99.2311C275.153 100.572 276.006 102.28 276.372 103.956C276.555 104.81 276.464 106.578 275.366 106.609C274.269 106.67 273.659 104.779 273.08 104.109C273.171 104.536 273.293 105.359 273.354 105.755C273.476 106.7 273.964 108.712 272.775 108.987C270.61 109.474 270.305 106.121 269.878 104.688C269.817 105.298 269.726 106.913 269.634 107.401C268.842 111.151 267.134 109.261 266.555 107.035C266.006 104.81 266.037 102.828 265.793 100.664H265.824Z" fill="#E8AA7D"/>
<path d="M216.037 56.6728C216.555 57.4959 217.836 59.447 218.476 60.3616C221.677 65.0259 226.311 72.7997 230.519 76.3056C233.567 78.8664 236.037 76.9458 238.933 75.2386C241.159 73.9277 244.238 72.2205 246.372 70.4523C245.153 76.458 243.445 82.4942 242.378 88.4389C242.134 89.323 242.836 89.8717 243.598 90.0851L259.025 91.2436C259.238 93.1947 259.512 95.1458 259.787 97.1273C259.939 98.2553 259.97 99.6272 261.494 99.5662C263.263 99.5052 266.128 98.8345 267.958 98.4687C268.964 98.2858 274.634 97.2798 274.97 96.7615C275.061 96.6091 275.061 96.4566 275 96.2737C271.952 85.6037 269.482 74.7203 266.403 64.0503C265.336 60.3311 264.177 55.3314 259.543 54.8132C258.689 54.7217 257.683 54.7522 256.982 55.0266C255 55.7582 253.964 57.2825 253.11 58.5934C253.08 58.5934 253.019 58.5934 252.988 58.5934C251.555 58.3495 251.006 57.3435 250.519 56.246C250.336 55.8192 250.122 55.4229 249.909 55.0266C248.628 55.6668 247.47 56.4594 246.494 57.0081C243.659 58.6544 239.726 61.7639 236.921 62.9529C235.214 63.6845 234.848 62.2212 234.116 60.9103C231.952 57.2215 228.537 49.8745 226.189 46.4601C226.037 46.2467 225.58 45.7284 225.366 45.637C225 45.515 224.604 45.637 224.269 45.8199C221.433 47.8319 217.836 49.3562 215.092 51.4293C214.452 51.917 213.964 52.1609 214.086 53.0755C214.086 53.0755 215.549 55.7887 216.098 56.6118L216.037 56.6728Z" fill="#C2E8F0"/>
<path d="M240.061 158.16C240.061 158.16 240 158.16 239.97 158.16C238.14 157.611 236.951 156.544 237.134 155.63C237.165 155.416 237.287 155.233 237.409 155.081C237.104 154.746 236.494 153.983 236.799 153.435C236.951 153.13 237.531 152.703 239.512 153.221C240.427 153.465 241.311 153.923 242.073 154.593C242.226 154.715 242.226 154.929 242.104 155.081C241.982 155.233 241.768 155.233 241.616 155.111C240.945 154.502 240.153 154.105 239.329 153.892C238.262 153.618 237.47 153.618 237.378 153.77C237.378 153.77 237.287 153.953 237.896 154.685C238.171 154.563 238.445 154.441 238.659 154.41C239.482 154.258 240.366 154.502 240.762 154.837C241.006 155.05 241.098 155.264 241.098 155.386C241.098 155.874 240.457 156.178 240.092 156.3C239.177 156.544 238.323 156.026 237.835 155.569C237.775 155.63 237.744 155.691 237.744 155.752C237.683 156.178 238.445 157.002 240.122 157.52C240.305 157.581 240.396 157.764 240.366 157.947C240.336 158.099 240.183 158.191 240.031 158.191L240.061 158.16ZM240.457 155.386C240.305 155.233 239.604 154.929 238.872 155.081C238.75 155.081 238.628 155.142 238.506 155.203C238.903 155.508 239.451 155.813 240 155.66C240.214 155.599 240.396 155.477 240.488 155.416L240.457 155.386Z" fill="#00151A"/>
<path d="M254.512 159.836C252.866 159.683 251.646 158.86 251.677 157.915C251.677 157.58 251.86 157.306 252.043 157.092C251.829 156.818 251.524 156.361 251.677 155.934C252.104 154.867 254.695 155.415 254.726 155.415C255.457 155.568 256.128 155.873 256.768 156.3C256.921 156.422 256.951 156.635 256.86 156.787C256.738 156.94 256.524 156.97 256.372 156.879C255.823 156.513 255.213 156.239 254.573 156.086C253.445 155.842 252.409 155.964 252.317 156.178C252.287 156.3 252.5 156.574 252.561 156.696C252.652 156.635 252.713 156.574 252.744 156.574C253.506 156.208 254.604 156.239 255.152 156.94C255.244 157.062 255.64 157.641 255.366 158.068C255.274 158.22 255.061 158.403 254.604 158.403C253.994 158.403 253.14 158.159 252.5 157.61C252.378 157.732 252.317 157.854 252.317 157.946C252.317 158.342 253.079 159.013 254.543 159.165C254.726 159.165 254.848 159.348 254.848 159.531C254.848 159.683 254.695 159.836 254.512 159.836ZM254.817 157.732C254.817 157.671 254.756 157.519 254.665 157.397C254.36 157.001 253.628 157.001 253.11 157.214C253.354 157.367 253.628 157.519 253.933 157.61C254.39 157.763 254.726 157.732 254.848 157.702L254.817 157.732Z" fill="#00151A"/>
<path d="M240.122 169.501C240.305 169.501 240.457 169.379 240.457 169.196C240.671 166.147 241.86 164.44 242.805 163.556C243.811 162.581 245 162.093 247.348 161.117C248.567 160.599 249.817 160.172 251.098 159.806C251.281 159.745 251.372 159.562 251.342 159.38C251.281 159.197 251.098 159.105 250.915 159.136C249.634 159.501 248.354 159.959 247.104 160.477C244.756 161.453 243.445 162.001 242.348 163.038C241.311 164.013 240.031 165.873 239.787 169.135C239.787 169.318 239.909 169.501 240.091 169.501H240.122Z" fill="#00151A"/>
<path d="M242.195 45.4841C242.348 46.5511 243.232 47.1609 243.567 47.3743C244.787 48.1974 246.128 48.045 246.89 47.9535C247.134 47.9535 247.622 47.862 248.14 47.7096C248.75 47.5267 249.512 47.1914 250.214 46.5816C250.671 46.1853 251.707 45.3012 251.982 43.777C252.012 43.5331 252.195 42.4966 251.738 41.4905C251.616 41.2466 251.494 41.0332 251.311 40.8198C251.128 40.6064 250.579 39.9358 249.634 39.7833C249.451 39.7833 248.72 39.6614 248.049 40.0577C247.805 40.2101 247.805 40.2711 247.134 40.8808C247.134 40.8808 246.707 41.2771 246.311 41.582C245.61 42.1612 244.97 42.527 244.604 42.71C243.232 43.4721 242.927 43.2892 242.531 43.8074C242.012 44.4781 242.134 45.3317 242.165 45.5146L242.195 45.4841Z" fill="#00151A"/>
<path d="M248.14 47.1615C248.14 47.3445 248.14 47.5274 248.14 47.7103C248.75 47.5274 249.512 47.192 250.213 46.5823C250.671 46.186 251.707 45.3019 251.982 43.7776C252.012 43.5338 252.195 42.4972 251.738 41.4912C251.311 41.6741 250.884 42.0095 250.427 42.3143C249.817 42.7411 249.024 43.3204 248.506 44.3874C248.018 45.4544 248.049 46.3689 248.079 47.192L248.14 47.1615Z" fill="#C2570A"/>
<path d="M245.259 38.3561C245.299 37.8526 245.06 37.4226 244.724 37.3956C244.389 37.3686 244.084 37.7548 244.043 38.2583C244.003 38.7618 244.242 39.1918 244.578 39.2188C244.913 39.2458 245.218 38.8596 245.259 38.3561Z" fill="#00151A"/>
<path d="M246.707 36.5522C246.799 36.5522 246.89 36.5522 246.982 36.4607C247.104 36.3388 247.104 36.0949 246.982 35.973C246.585 35.5767 246.128 35.2108 245.61 34.9669C245.366 34.845 245.213 34.7535 245.061 34.7231C244.878 34.6621 244.695 34.7231 244.634 34.906C244.573 35.0889 244.634 35.2718 244.817 35.3328C244.939 35.3633 245.061 35.4547 245.305 35.5767C245.762 35.8205 246.159 36.1254 246.524 36.4607C246.585 36.5217 246.646 36.5522 246.738 36.5522H246.707Z" fill="#00151A"/>
<path d="M246.707 70.8791C246.86 70.8791 247.012 70.7571 247.043 70.6047L248.323 62.526C248.323 62.3431 248.232 62.1602 248.049 62.1297C247.866 62.0992 247.683 62.2211 247.653 62.404L246.372 70.4828C246.372 70.6657 246.464 70.8486 246.646 70.8791H246.707Z" fill="#00151A"/>
<path d="M259.421 91.609H259.451C259.634 91.609 259.787 91.4261 259.756 91.2432L256.89 63.7756C256.89 63.5926 256.708 63.4402 256.525 63.4707C256.342 63.4707 256.189 63.6536 256.22 63.8365L259.086 91.3041C259.086 91.4871 259.238 91.609 259.421 91.609Z" fill="#00151A"/>
<path d="M251.22 155.081C251.342 155.081 251.464 155.02 251.525 154.898C251.616 154.745 251.525 154.532 251.403 154.441C251.403 154.441 250.945 154.166 250.945 153.252L252.409 98.2555C252.409 98.0726 252.256 97.9201 252.073 97.8896C251.89 97.8896 251.738 98.0116 251.708 98.225L250.244 153.221C250.244 154.563 251.006 154.989 251.037 155.02C251.098 155.02 251.159 155.05 251.189 155.05L251.22 155.081Z" fill="#00151A"/>
</g>
<defs>
<clipPath id="clip0_10879_8655">
<rect width="300" height="177" fill="white"/>
</clipPath>
<clipPath id="clip1_10879_8655">
<rect width="138.33" height="94.9728" fill="white" transform="matrix(-0.999437 -0.0335508 -0.0335508 0.999437 221.434 74.041)"/>
</clipPath>
</defs>
</svg>
