<svg width="200" height="197" viewBox="0 0 200 197" fill="none" xmlns="http://www.w3.org/2000/svg">
<g clip-path="url(#clip0_10879_16734)">
<path d="M112.683 98.3276C114.884 99.1387 114.679 101.649 114.739 103.612C114.751 125.401 114.742 153.015 114.745 176.08C114.745 179.635 114.746 182.97 114.744 186.44C114.688 189.487 114.833 191.158 113.503 192.741C111.136 195.276 105.853 196.048 102.449 196.388C97.9592 196.8 87.5219 195.874 85.7719 191.575C85.2349 190.224 85.2825 188.503 85.2587 186.878C85.2483 169.13 85.2555 119.709 85.2605 103.719C85.2921 102.172 85.2334 100.513 85.9734 99.3611C87.0099 97.7134 90.8286 97.6733 92.9626 97.5965C96.5098 97.5011 100.562 97.5438 104.361 97.5501C106.927 97.5673 111.157 97.6283 112.66 98.3183L112.683 98.3276Z" fill="#D7425B"/>
<path d="M109.326 93.7573C105.987 99.1651 96.1158 95.8688 91.1367 94.5076C84.3617 92.6282 77.8586 90.2225 71.8219 86.6781C56.427 78.2393 43.3301 66.2531 32.0251 52.9025C27.2095 47.3188 22.266 41.2167 16.5037 36.7321C13.7629 34.6005 10.7954 32.8025 7.398 31.3937C5.86751 30.7411 4.168 30.2189 2.6895 29.5488C0.198068 28.5181 0.0268443 26.6287 0.0431372 24.2557C0.189093 17.9775 -0.234595 7.96961 0.208947 1.79936C0.671099 -0.80336 3.49846 0.0631033 5.82989 0.475348C12.8801 1.99196 19.4948 5.37702 25.2203 9.73016C38.0856 19.5872 45.8889 34.7083 57.1919 46.1219C59.8477 48.8163 62.6588 51.3317 65.6294 53.6884C76.7326 62.6407 90.3191 68.3483 101.088 77.6901C104.983 81.1531 111.841 88.4736 109.344 93.7234L109.326 93.7573Z" fill="#D7425B"/>
<path d="M90.6744 93.7573C94.0135 99.1651 103.884 95.8688 108.864 94.5076C115.639 92.6282 122.142 90.2225 128.178 86.6781C143.573 78.2393 156.67 66.2531 167.975 52.9025C172.791 47.3188 177.734 41.2167 183.497 36.7321C186.237 34.6004 189.205 32.8025 192.602 31.3936C194.133 30.7411 195.832 30.2189 197.311 29.5488C199.802 28.5181 199.973 26.6287 199.957 24.2557C199.811 17.9775 200.235 7.96961 199.791 1.79936C199.329 -0.80336 196.502 0.0631033 194.17 0.475348C187.12 1.99196 180.505 5.37702 174.78 9.73016C161.915 19.5872 154.111 34.7083 142.808 46.1218C140.153 48.8163 137.341 51.3317 134.371 53.6884C123.268 62.6407 109.681 68.3483 98.9123 77.6901C95.0168 81.1531 88.1597 88.4736 90.6563 93.7234L90.6744 93.7573Z" fill="#D7425B"/>
<path d="M46.7081 16.3776C43.8649 16.5451 41.2066 17.201 40.0729 19.1969C38.6144 21.7648 38.8009 25.2666 38.6576 28.2098C38.4249 33.8119 38.343 39.1957 38.6389 44.7585C38.71 49.9455 40.1592 54.23 44.798 57.0046C51.2533 60.9527 58.0649 64.474 64.5415 68.2636C67.0832 69.764 69.6252 71.4051 71.5415 73.6736C74.4294 76.9416 75.0745 81.6409 75.0373 85.8481C75.0095 88.9841 74.8442 92.2164 75.9396 95.155C77.7026 99.8843 82.0705 100.803 86.6014 100.917C91.7977 101.326 97.2641 101.367 102.422 101.09C106.246 100.887 109.997 100.662 113.738 100.541C118.416 100.503 123.292 99.6101 124.291 94.3444C125.069 90.5423 124.634 86.6225 124.866 82.7506C125.075 79.8564 125.488 76.8075 127.113 74.3494C128.606 72.0892 131.354 70.5169 133.811 69.1156C136.427 67.6258 139.066 66.1407 141.669 64.6772C145.282 62.6459 148.943 60.6061 152.538 58.5553C155.145 57.0522 157.907 55.4258 159.413 52.7479C161.33 49.2089 161.285 45.043 161.354 41.1285C161.428 36.8633 161.683 32.5934 161.465 28.3283C161.298 25.0745 161.333 20.0778 158.45 17.8986C156.991 16.7958 155.087 16.4848 153.26 16.4076C138.981 15.804 124.774 15.338 110.463 15.4797C96.5882 15.617 82.7169 15.4146 68.8428 15.6012C61.4588 15.7005 54.0801 15.9433 46.7081 16.3776Z" fill="#22A8C3"/>
<path d="M99.8496 25.1752C89.4508 25.0091 80.2522 33.6608 79.7468 44.0458C78.8665 54.9865 87.7434 65.0606 98.699 65.5933C110.022 66.4352 120.037 57.1684 120.182 45.8365C120.522 34.6084 111.1 25.1171 99.9022 25.1752L99.8496 25.1752ZM99.8576 60.9701C91.8918 61.1018 84.7851 54.4063 84.422 46.4504C83.7469 38.0291 90.5867 30.2785 99.0231 29.8918C110.003 29.1493 118.299 40.1469 114.643 50.5069C112.588 56.6615 106.391 61.0324 99.9102 60.9701L99.8576 60.9701Z" fill="#99D9E5"/>
<path d="M112.066 45.3573C112.152 36.9565 102.914 30.7952 95.2252 34.3162C86.2389 38.1482 85.3412 50.7261 93.7465 55.751C101.606 60.6688 112.077 54.6713 112.066 45.4759V45.3573Z" fill="#99D9E5"/>
<path d="M77.5154 140.498C72.6325 129.793 87.8943 120.211 95.9353 116.582C98.5897 115.383 102.773 114.347 105.05 112.893C109.253 110.23 105.928 104.731 104.296 101.463C102.893 98.6512 85.8665 71.4032 91.4366 55.3313C92.8167 51.3493 95.2845 47.5921 98.6616 45.0185C101.698 42.7042 105.915 41.5574 109.649 42.6316C112.914 43.5711 115.151 46.4985 116.138 49.6351C117.346 53.4761 116.378 57.4 116.276 61.3145C116.171 65.3674 117.113 69.1635 118.441 72.9594C118.707 73.7193 118.987 74.4743 119.277 75.2254C119.436 75.6383 120.427 77.3641 120.283 77.7218C122.823 71.3915 130.626 67.7074 137.071 70.0925C141.358 59.6544 151.404 62.6786 158.331 68.3211C169.937 77.7901 176.523 92.1103 181.351 105.907C184.187 113.985 185.526 120.609 188.752 128.537C191.426 135.116 193.004 138.52 195.903 145.561C198.957 152.963 200.074 153.914 196.078 158.987C190.714 165.817 172.732 179.15 157.739 182.314C153.489 183.223 153.251 181.579 151.019 177.072C144.486 163.954 139.097 153.06 125.249 146.434C118.445 143.185 109.899 141.586 102.44 142.869C93.5016 144.406 85.7089 148.198 80.3787 144.171C78.8386 143.008 77.9859 141.525 77.5154 140.498Z" fill="#E8AA7D"/>
<path d="M117.267 72.9478C117.366 72.8779 117.449 72.8194 117.572 72.7829C118.353 72.4817 119.218 72.8639 119.524 73.6171C121.363 78.2023 123.503 81.4859 124.97 83.4298C129.462 89.3488 133.819 92.6819 137.491 95.1835C138.184 95.6382 138.354 96.5858 137.887 97.2617C137.432 97.9549 136.485 98.1249 135.809 97.658C131.942 95.0211 127.326 91.4972 122.591 85.2299C121 83.1482 118.715 79.6215 116.755 74.7244C116.49 74.0664 116.736 73.3236 117.284 72.9375L117.268 72.9489L117.267 72.9478Z" fill="#00151A"/>
<path d="M136.679 69.5751C137.094 69.2832 137.632 69.2013 138.133 69.42C141.376 70.7833 143.534 72.1924 147.812 76.8229C150.655 79.9083 152.907 83.4586 154.499 87.3748C154.818 88.1434 154.446 89.0253 153.677 89.3439C152.908 89.6624 152.026 89.2905 151.708 88.5218C150.248 84.9337 148.19 81.6945 145.579 78.8672C141.34 74.2588 139.503 73.2701 136.954 72.1863C136.18 71.8626 135.836 70.9873 136.16 70.2135C136.265 69.9409 136.463 69.7271 136.678 69.5758L136.679 69.5751Z" fill="#00151A"/>
<path d="M189.782 117.413C191.593 117.641 191.614 118.543 192.208 119.978C195.586 128.13 198.157 140.256 199.265 149.045C201.352 165.603 199.168 181.739 190.49 196.295C186.778 196.93 182.955 196.961 179.196 196.75C165.122 195.961 152.311 191.776 140.2 184.68C138.573 183.727 134.667 181.529 133.465 180.353C132.917 179.818 131.133 174.447 130.628 173.218C128.021 166.871 124.996 160.721 121.448 154.847C121.259 153.733 123.355 151.614 124.115 150.794C135.459 138.566 156.673 126.772 172.335 121.2C176.156 119.84 185.991 116.938 189.782 117.413Z" fill="#C2E8F0"/>
</g>
<defs>
<clipPath id="clip0_10879_16734">
<rect width="200" height="196.867" fill="white"/>
</clipPath>
</defs>
</svg>
