<svg width="300" height="178" viewBox="0 0 300 178" fill="none" xmlns="http://www.w3.org/2000/svg">
<g clip-path="url(#clip0_10879_8446)">
<g clip-path="url(#clip1_10879_8446)">
<path d="M135.549 162.714C141.067 162.592 254.756 163.141 260.274 163.445C263.506 163.628 266.982 164.177 269.695 166.86C271.128 168.293 271.646 170.366 270.122 172.165C267.134 175.671 261.921 176.037 258.171 176.281C239.268 177.5 65.4269 177.104 46.5855 176.921C42.0733 176.921 33.2623 177.073 29.7562 172.927C28.7196 171.708 28.7806 170.153 29.7562 168.903C32.8355 164.909 41.3111 164.33 45.4574 164.025C59.9696 162.897 121.098 163.08 135.579 162.744H135.549V162.714Z" fill="#99D9E5"/>
<path d="M221.007 113.416C199.513 110.367 185.245 131.952 192.532 151.464C199.94 171.403 226.556 179.208 240.794 161.708C255.184 143.995 243.141 116.525 221.007 113.416ZM195.977 152.318C187.836 134.025 200.733 113.05 221.465 116.312C242.044 119.544 252.013 147.227 236.708 162.044C223.599 174.727 202.989 168.019 195.977 152.318Z" fill="#22A8C3"/>
<path d="M140.428 106.8C120.763 104.025 107.165 122.775 111.403 141.22C115.671 159.849 137.196 171.861 154.086 160.336C175.61 145.672 165.763 110.367 140.428 106.8ZM116.251 146.556C107.684 128.599 119.848 106.373 140.854 109.666C160.062 112.653 169.543 137.47 157.897 152.867C146.19 168.324 124.056 162.958 116.22 146.586L116.251 146.556Z" fill="#22A8C3"/>
<path d="M214.879 114.512C215.793 114.268 215.641 115.335 215.732 116.036C216.921 124.146 217.379 132.347 218.354 140.457L223.141 133.415C226.464 128.872 229.116 123.415 232.531 118.994C232.714 118.78 233.019 118.262 233.293 118.293C233.812 118.323 233.537 119.024 233.385 119.299C232.866 120.335 231.616 121.799 230.915 122.835C226.83 129.146 222.805 135.488 218.568 141.738C218.049 143.018 219.848 143.689 220.732 144.238C227.653 143.536 234.604 142.713 241.555 142.134C242.744 142.043 244.818 141.677 245.854 141.768C246.891 141.86 246.22 141.799 246.281 142.012C246.342 142.5 246.098 142.561 245.702 142.622C240.123 143.11 234.574 143.597 228.994 144.177C226.83 144.39 224.238 144.512 222.165 144.908C221.982 144.939 221.83 144.908 221.677 145.091C227.805 149.329 233.598 154.024 239.452 158.597C239.818 158.872 241.555 159.939 241.525 160.305C241.525 160.671 241.281 160.701 241.129 160.732C240.58 160.793 233.629 155 232.592 154.207C228.69 151.219 224.635 148.354 220.702 145.396C220.488 145.061 219.025 145.152 218.873 145.305C219.391 152.896 221.007 160.396 221.616 167.988C221.616 168.597 221.86 170.03 221.738 170.518C221.616 170.976 221.037 170.915 220.946 170.579L218.019 145.396L215.915 145.762C214.177 148.323 212.379 150.884 210.58 153.384C208.202 156.646 205.671 160.274 203.11 163.354C202.409 164.177 201.677 164.055 202.257 163.079C205.885 158.11 209.787 153.293 213.263 148.201C213.446 147.957 214.879 145.915 214.787 145.823L192.714 148.841C192.348 148.719 192.318 148.201 192.653 148.049C193.019 147.896 194.482 147.744 195.031 147.652C201.769 146.555 208.568 145.854 215.305 144.908C215.915 144.695 216.494 143.232 216.921 142.744L195.275 126.158C195.062 125.945 195.123 125.518 195.427 125.457L217.531 141.921L214.818 114.543H214.879V114.512Z" fill="#22A8C3"/>
<path d="M137.592 134.634L133.751 107.897C133.934 107.5 134.604 107.714 134.543 108.171C135.793 116.525 137.165 124.848 138.232 133.201L150.214 110.244C150.214 110.64 150.702 110.823 150.489 111.22L138.598 134.573C138.354 135.275 138.598 136.006 139.421 135.976C145.671 135.732 151.921 135.366 158.202 135.244C160.336 135.214 163.019 135 165.092 135.153C165.915 135.214 165.915 136.037 165.092 136.067C162.928 136.159 160.702 136.006 158.507 136.067C152.409 136.22 146.312 136.616 140.214 136.708C140.092 137.012 140.245 136.921 140.367 137.012C140.824 137.439 141.434 137.866 141.922 138.293C148.019 143.293 154.452 147.927 160.763 152.653C160.976 153.14 160.58 153.476 160.123 153.201L154.94 149.421L138.873 137.012C139.482 142.714 140.611 148.354 141.434 154.025C141.8 156.677 142.318 159.512 142.501 162.195C142.562 162.836 142.867 164.086 141.861 163.628C140.763 154.695 139.208 145.854 137.897 136.951L137.47 136.89C133.568 144.269 129.665 151.677 126.037 159.177C125.915 159.451 125.55 159.543 125.306 159.36C124.97 159.086 125.732 157.775 125.915 157.409C129.117 150.488 133.08 143.781 136.434 136.921C130.428 137.165 124.452 137.195 118.446 137.317C117.501 137.317 111.403 137.714 111.129 137.5C110.885 137.317 111.037 136.89 111.403 136.769C112.104 136.555 114.635 136.586 115.58 136.555C122.44 136.311 129.482 136.555 136.312 136.067C136.8 136.037 137.074 136.006 137.104 135.427C130.184 129.604 123.172 123.842 116.678 117.561C116.586 116.951 116.922 116.647 117.409 117.043C122.867 122.439 128.812 127.287 134.635 132.287L137.592 134.573V134.634Z" fill="#22A8C3"/>
<path d="M242.622 125.183C239.116 119.97 232.897 115.001 226.83 113.232C216.952 110.366 205.885 113.049 198.11 119.574L192.5 112.653L192.104 111.86L197.622 93.5981C197.866 91.9823 195.854 91.7688 195.58 93.4152L180.976 141.555L154.848 101.19V100.763C155.336 99.0859 156.86 96.7688 157.165 95.1225C157.257 94.6652 157.074 93.842 156.555 93.8115L144.055 92.7749L150.366 73.1713L150.488 72.7749C150.854 72.0127 150.397 71.4335 149.817 71.3115H149.665C149.299 71.3115 148.933 71.464 148.72 71.8908C148.689 72.0432 148.628 72.1652 148.567 72.3176C145.976 80.1835 143.598 88.1408 140.854 95.9457L124.482 92.4396V74.9091C124.482 74.1164 123.598 73.5371 122.897 73.9945C122.439 74.2993 122.47 75.0005 122.439 75.4884C122.165 81.1896 122.775 87.2262 122.5 92.9579C122.653 94.0859 123.08 94.2384 124.055 94.4823C129.696 95.9457 135.824 96.5859 141.494 98.0798C142.836 98.1408 142.988 95.7018 143.324 94.7262L154.817 95.6713L149.604 108.232C148.354 107.744 147.135 107.196 145.854 106.799C136.982 104.086 127.683 105.793 119.848 110.488C119.238 110.824 116.311 112.714 116.128 113.171C115.793 113.994 116.311 114.787 117.226 114.604C118.567 113.781 119.787 112.805 121.128 112.013C129.482 107.104 139.665 105.854 148.659 109.97L148.567 110.366L132.958 140.61C132.927 140.732 133.08 140.946 133.141 140.946L165 143.568L164.513 146.281C164.513 147.287 165.793 147.744 166.372 146.86C169.665 132.805 164.421 116.372 151.433 109.208L153.811 103.354L154.299 103.872C163.08 116.647 170.793 130.58 179.726 143.232C179.909 143.507 180.488 144.452 180.763 144.452L245.915 149.818C245.915 151.251 244.726 153.568 244.97 154.879C245.092 155.488 246.403 155.702 246.708 155.092C247.013 153.964 247.378 152.775 247.622 151.616C249.299 143.598 247.287 131.982 242.683 125.122L242.622 125.183ZM190.153 143.263C189.878 140.427 190.458 137.44 191.159 134.726C192.348 130.153 194.482 125.885 197.836 122.531L216.311 145.427L190.122 143.263H190.153Z" fill="#D7425B"/>
<path d="M221.433 126.221C217.226 126.556 216.341 133.995 221.433 133.843C226.006 133.721 226.89 125.794 221.433 126.221ZM221.158 131.891C219.055 131.8 219.787 128.172 221.951 128.172C224.116 128.172 223.445 131.983 221.158 131.891Z" fill="#EADADB"/>
<path d="M228.78 123.751C229.512 123.598 229.634 123.995 230.091 124.208C230.945 124.574 231.738 124.757 232.713 124.696C233.445 124.665 234.299 123.842 234.878 124.757C235.793 126.19 233.384 126.708 232.439 126.708C231.494 126.708 228.567 126.19 228.14 125.001C227.988 124.544 228.354 123.842 228.811 123.751H228.78Z" fill="#EADADB"/>
<path d="M220.366 123.05C220.884 122.989 224.756 123.294 225.244 123.446C226.25 123.751 226.281 125.337 225.092 125.398C224.391 125.459 220.793 125.184 220.153 125.001C219.208 124.757 219.238 123.202 220.336 123.02H220.366V123.05Z" fill="#EADADB"/>
<path d="M230.061 127.623C225.853 127.958 224.969 135.397 230.061 135.245C234.634 135.123 235.518 127.196 230.061 127.623ZM229.786 133.263C227.683 133.172 228.414 129.544 230.579 129.544C232.744 129.544 232.073 133.385 229.786 133.263Z" fill="#EADADB"/>
<path d="M188.08 90.6409C186.799 89.6958 186.067 88.2934 188.202 87.958C191.616 88.08 195.061 88.019 198.476 88.0495C199.909 88.0495 201.311 88.0495 202.714 88.08C204.086 88.08 206.677 88.019 207.927 88.2629C209.787 88.6592 210.122 90.3056 208.903 91.6775C206.555 94.269 201.403 94.6044 196.647 93.7812C193.171 93.1714 189.939 91.9824 188.08 90.6714V90.6409Z" fill="#22A8C3"/>
<path d="M157.378 74.6038C155.64 74.3904 152.408 73.8111 150.305 73.1708C149.908 73.0489 149.573 72.9269 149.299 72.805C148.933 72.6526 148.689 72.4696 148.567 72.2867C148.597 72.1343 148.658 72.0123 148.719 71.8599C148.933 71.433 149.299 71.2501 149.664 71.2806H149.817C150.488 71.4026 156.677 72.5611 157.835 72.9879C159.055 73.4452 158.628 74.7257 157.408 74.6038H157.378Z" fill="#22A8C3"/>
<path d="M163.11 170.883C161.677 168.383 157.988 165.944 155.061 164.999C154.908 164.938 154.725 164.908 154.573 164.908C153.78 164.908 148.475 164.908 142.957 164.847C137.439 164.847 132.103 164.908 131.341 164.908C130.579 164.908 131.006 164.908 130.853 164.999C127.927 165.914 124.238 168.383 122.805 170.883C122.561 171.31 122.439 171.767 122.835 171.798H163.079C163.506 171.798 163.353 171.31 163.11 170.883Z" fill="#008099"/>
<path d="M141.006 101.402C139.908 101.615 139.664 102.256 139.725 103.231C139.756 105.243 139.847 109.054 139.969 113.841C140.305 127.896 140.762 150.792 141.067 164.542C141.067 165.548 141.067 166.249 141.494 166.707C142.561 167.743 145.518 167.621 145.579 165.792C145.732 155.701 146.128 112.774 146.189 102.865C146.189 102.073 145.701 101.676 145 101.493C143.902 101.188 142.164 101.158 141.006 101.402Z" fill="#008099"/>
<path d="M91.6774 0.457297C90.3055 0.335345 59.4518 -0.365874 53.7201 0.792663C52.6225 1.00608 51.8604 1.85974 51.8604 3.07925V103.78H93.8725V2.65242C93.8725 1.34144 93.2323 0.609736 91.6774 0.457297Z" fill="#008099"/>
<path d="M67.8045 11.189C63.6887 11.8597 63.4448 19.2073 68.4448 18.6585C72.9265 18.1707 73.1399 10.3353 67.8045 11.189ZM67.9875 16.7682C65.9143 16.8597 66.3411 13.2317 68.4753 13.0487C70.5484 12.8658 70.2436 16.6768 67.9875 16.7682Z" fill="#99D9E5"/>
<path d="M74.7558 8.17013C75.457 7.95671 75.6094 8.35306 76.0667 8.50549C76.9509 8.77988 77.7131 8.93232 78.6582 8.77988C79.3594 8.68842 80.1521 7.83476 80.7924 8.65793C81.7985 9.96891 79.4814 10.6701 78.5363 10.7616C77.4387 10.8531 74.7253 10.5787 74.207 9.45062C74.0241 9.02379 74.3289 8.29208 74.7558 8.17013Z" fill="#99D9E5"/>
<path d="M66.4635 8.17056C66.9818 8.04861 70.7623 8.04861 71.2806 8.17056C72.2866 8.38398 72.4391 9.93886 71.2806 10.0913C70.5793 10.1828 67.0732 10.2132 66.433 10.0913C65.4879 9.90837 65.3964 8.38398 66.433 8.14008L66.4635 8.17056Z" fill="#99D9E5"/>
<path d="M76.3412 11.8599C72.2253 12.5306 71.9814 19.8782 76.9814 19.3294C81.4631 18.8416 81.6765 11.0062 76.3412 11.8599ZM76.5546 17.4086C74.4814 17.5001 74.9082 13.8721 77.0424 13.6891C79.1155 13.5062 78.8107 17.3172 76.5546 17.4086Z" fill="#99D9E5"/>
<path d="M86.6775 41.5548C85.6714 41.4633 63.0495 40.945 58.8422 41.7987C58.0495 41.9511 57.4702 42.5609 57.4702 43.4755V89.4511C57.4702 89.6036 57.5617 89.817 57.7141 90.0304C57.897 90.2743 58.1409 90.5182 58.3544 90.5792C59.7873 90.8841 84.8788 90.9755 87.2873 90.5792C88.2019 90.4268 88.2324 89.6341 88.2934 88.8414V43.1402C88.2934 42.195 87.8361 41.6463 86.6775 41.5243V41.5548Z" fill="#99D9E5"/>
<path d="M93.8725 103.75V168.11C93.8116 169.177 93.7506 170.274 92.5006 170.488C89.2384 170.976 55.0006 170.854 53.0494 170.488C52.4701 170.366 51.8604 169.451 51.8604 168.963V103.78H93.8725V103.75Z" fill="#99D9E5"/>
<path d="M88.2626 45.4873C87.8968 46.3715 87.5614 47.1032 87.1651 47.8044C82.0126 58.0178 72.1956 59.5727 63.2016 63.0178C61.1285 63.8105 59.2077 64.7861 57.4395 65.9141V89.4507C57.4395 89.6032 57.5309 89.8166 57.6834 90.03C60.8236 79.0544 67.409 73.78 80.0004 69.6336C83.476 68.6275 88.0492 66.158 88.2321 62.0117C88.2321 61.7373 88.2321 61.4629 88.2626 61.1885V45.4873Z" fill="#70C9DB"/>
</g>
</g>
<defs>
<clipPath id="clip0_10879_8446">
<rect width="300" height="177.012" fill="white"/>
</clipPath>
<clipPath id="clip1_10879_8446">
<rect width="242.073" height="177.012" fill="white" transform="translate(28.9634 0.12207)"/>
</clipPath>
</defs>
</svg>
