<svg width="300" height="178" viewBox="0 0 300 178" fill="none" xmlns="http://www.w3.org/2000/svg">
<g clip-path="url(#clip0_10879_8880)">
<g clip-path="url(#clip1_10879_8880)">
<path d="M135.549 162.652C141.067 162.53 254.756 163.079 260.274 163.384C263.506 163.567 266.982 164.116 269.695 166.799C271.128 168.231 271.646 170.305 270.122 172.103C267.134 175.609 261.921 175.975 258.171 176.219C239.268 177.439 65.4269 177.042 46.5855 176.859C42.0733 176.859 33.2623 177.012 29.7562 172.866C28.7196 171.646 28.7806 170.091 29.7562 168.841C32.8355 164.847 41.3111 164.268 45.4574 163.963C59.9696 162.835 121.098 163.018 135.579 162.683H135.549V162.652Z" fill="#99D9E5"/>
<path d="M219.379 109.267C197.725 107.28 184.527 129.55 192.754 148.727C201.146 168.298 228.139 174.822 241.515 156.633C255.057 138.218 241.672 111.317 219.379 109.277L219.379 109.267ZM196.228 149.379C187.202 131.488 199.087 109.877 219.966 112.111C240.689 114.329 252.026 141.56 237.436 157.126C224.958 170.442 203.995 164.761 196.228 149.379Z" fill="#22A8C3"/>
<path d="M138.477 106.55C118.675 104.741 105.993 124.151 111.123 142.395C116.31 160.83 138.397 171.788 154.738 159.442C175.548 143.728 163.993 108.888 138.477 106.55ZM116.232 147.502C106.785 129.943 117.871 107.129 139.054 109.394C158.416 111.462 169.105 135.804 158.208 151.767C147.266 167.791 124.849 163.521 116.232 147.502Z" fill="#22A8C3"/>
<path d="M214.491 110.416C215.391 110.173 215.261 111.239 215.363 111.946C216.592 120.052 217.093 128.27 218.132 136.401L222.874 129.315C226.156 124.731 228.796 119.265 232.2 114.822C232.376 114.597 232.676 114.092 232.969 114.113C233.503 114.151 233.218 114.845 233.082 115.124C232.575 116.157 231.329 117.628 230.642 118.697C226.576 125.039 222.604 131.427 218.404 137.691C217.91 138.977 219.682 139.645 220.577 140.19C227.521 139.446 234.458 138.576 241.418 137.96C242.597 137.863 244.677 137.491 245.724 137.569C246.772 137.646 246.101 137.602 246.157 137.825C246.224 138.31 245.992 138.365 245.59 138.446C240.02 138.952 234.437 139.489 228.874 140.101C226.724 140.333 224.116 140.466 222.035 140.869C221.855 140.905 221.689 140.857 221.557 141.042C227.714 145.26 233.541 149.918 239.446 154.463C239.815 154.749 241.575 155.795 241.552 156.172C241.518 156.549 241.307 156.574 241.159 156.6C240.601 156.665 233.623 150.918 232.569 150.127C228.627 147.149 224.575 144.325 220.6 141.377C220.381 141.044 218.918 141.142 218.776 141.305C219.329 148.905 220.989 156.395 221.657 163.999C221.711 164.6 221.915 166.024 221.782 166.524C221.662 166.992 221.086 166.931 221.004 166.582L217.912 141.392L215.8 141.783C214.065 144.36 212.299 146.926 210.493 149.438C208.126 152.708 205.61 156.362 203.081 159.459C202.391 160.297 201.65 160.178 202.219 159.178C205.83 154.175 209.688 149.327 213.146 144.214C213.323 143.957 214.745 141.916 214.654 141.818L192.565 144.962C192.192 144.834 192.157 144.318 192.498 144.172C192.881 144.017 194.345 143.856 194.873 143.779C201.609 142.651 208.415 141.903 215.157 140.9C215.753 140.679 216.327 139.207 216.764 138.707L194.998 122.225C194.795 122.019 194.841 121.58 195.138 121.506L217.369 137.866L214.489 110.468L214.491 110.416Z" fill="#22A8C3"/>
<path d="M137.249 134.369L138.66 107.367C138.903 106.997 139.531 107.354 139.401 107.791C139.002 116.23 138.761 124.675 138.174 133.098L154.38 112.861C154.314 113.248 154.757 113.515 154.461 113.872L138.242 134.518C137.863 135.156 137.985 135.916 138.777 136.069C144.97 137.054 151.188 137.893 157.356 138.971C159.475 139.347 162.12 139.667 164.139 140.207C164.929 140.433 164.776 141.237 163.993 141.116C161.841 140.791 159.677 140.215 157.526 139.859C151.503 138.827 145.44 138.046 139.441 136.952C139.274 137.22 139.433 137.183 139.524 137.291C139.885 137.786 140.412 138.35 140.815 138.847C145.839 144.938 151.272 150.727 156.544 156.606C156.641 157.134 156.213 157.393 155.805 157.022L151.429 152.287L138.043 136.979C137.547 142.706 137.563 148.461 137.276 154.206C137.134 156.889 137.068 159.775 136.748 162.431C136.674 163.069 136.747 164.353 135.844 163.724C136.513 154.737 136.679 145.733 137.117 136.738L136.712 136.598C131.466 143.1 126.187 149.612 121.155 156.29C120.988 156.547 120.599 156.565 120.397 156.338C120.135 156.014 121.129 154.871 121.36 154.553C125.84 148.361 131.054 142.551 135.667 136.458C129.735 135.545 123.842 134.402 117.914 133.363C116.985 133.195 110.923 132.393 110.68 132.123C110.478 131.906 110.712 131.504 111.102 131.454C111.829 131.374 114.32 131.909 115.239 132.055C122.026 133.144 128.891 134.719 135.696 135.598C136.177 135.656 136.47 135.687 136.594 135.124C130.931 128.056 125.162 121.037 119.994 113.618C120.025 113.01 120.4 112.771 120.825 113.268C125.136 119.619 130.06 125.538 134.792 131.567L137.249 134.38L137.25 134.359L137.26 134.359L137.249 134.369Z" fill="#22A8C3"/>
<path d="M215.871 141.534L190.294 140.675C189.896 137.858 189.967 134.784 190.554 132.01C191.528 127.381 193.46 122.993 196.644 119.477L195.327 118.036C195.725 117.451 195.326 118.068 195.326 118.068L190.132 112.979L189.875 112.204L194.978 90.5971C195.149 88.9542 193.105 88.8436 192.934 90.5075L183.059 132.294C182.797 132.285 182.402 131.841 182.201 131.583C172.669 119.366 164.275 105.811 154.863 93.4612L154.365 92.9824C154.253 92.8737 154.097 92.8055 153.888 92.7984L141.346 92.3774L146.718 72.4595L146.826 72.0431C147.146 71.2663 146.662 70.6935 146.098 70.6011L145.941 70.5958C145.574 70.5835 145.21 70.7813 145.017 71.2263C144.98 71.3721 144.933 71.5176 144.897 71.6529C142.676 79.6428 140.684 87.7139 138.328 95.6573L121.779 92.9491L120.93 75.416C120.861 74.6367 119.988 74.0719 119.309 74.5846C118.868 74.9163 118.928 75.6114 118.932 76.1156C118.929 81.8383 119.841 87.8333 119.836 93.598C120.029 94.728 120.477 94.848 121.477 95.0601C127.201 96.2603 133.342 96.582 139.085 97.8038C140.419 97.7961 140.459 95.3613 140.754 94.3737L152.289 94.7609L147.702 107.575C146.425 107.144 145.181 106.672 143.87 106.333C134.865 104.047 125.639 106.204 118.035 111.284C117.456 111.663 114.606 113.689 114.454 114.135C114.408 114.27 114.382 114.406 114.378 114.542C114.355 115.203 114.864 115.703 115.625 115.529C116.915 114.638 118.094 113.617 119.403 112.758C126.338 108.213 134.728 106.268 142.761 108.092C144.126 108.4 145.487 108.824 146.823 109.362C146.844 109.363 146.854 109.384 146.875 109.385L136.262 135.931C135.872 137.535 137.886 137.918 138.276 136.293L148.703 110.265C167.222 119.949 164.796 142.192 164.796 142.192L164.452 144.942C164.501 145.962 165.801 146.332 166.335 145.436C168.933 131.211 162.806 114.855 149.451 108.316L151.629 102.53L152.148 103.02C161.56 115.37 169.765 128.95 179.297 141.167C179.438 141.35 179.798 141.866 180.093 142.149C180.215 142.279 180.338 142.367 180.422 142.37L217.68 143.621L215.881 141.534L215.871 141.534Z" fill="#EDACB0"/>
<path d="M185.32 88.0885C183.985 87.2141 183.201 85.8438 185.306 85.3894C188.73 85.3363 192.159 85.1259 195.587 84.968C197.006 84.9001 198.416 84.8319 199.824 84.7952C201.211 84.7577 203.79 84.5293 205.032 84.739C206.912 85.0436 207.329 86.6852 206.169 88.1059C203.946 90.8244 198.825 91.3876 194.027 90.7959C190.535 90.3637 187.22 89.3389 185.32 88.0885Z" fill="#22A8C3"/>
<path d="M153.862 73.5504C152.113 73.4287 148.841 73.0143 146.708 72.4596C146.312 72.3624 145.969 72.2459 145.668 72.1412C145.306 72.0031 145.049 71.8369 144.897 71.6533C144.934 71.5075 144.981 71.3621 145.017 71.2268C145.21 70.7818 145.573 70.5945 145.941 70.5963L146.098 70.6016C146.777 70.6979 153.016 71.5374 154.2 71.9236C155.457 72.3333 155.088 73.6335 153.862 73.5504Z" fill="#22A8C3"/>
<path d="M248.545 128.907L223.06 143.802L217.67 143.621L215.871 141.534L215.75 141.394L215.679 141.318L196.644 119.478L195.327 118.037C195.327 118.037 204.889 106.545 221.618 108.261C225.185 108.623 228.739 109.393 231.961 110.992C239.076 114.507 244.315 120.763 248.545 128.907Z" fill="#D7425B"/>
<path d="M218.217 121.977C214.011 122.508 213.497 129.998 218.601 129.613C223.169 129.273 223.657 121.288 218.217 121.977ZM218.216 127.647C216.095 127.66 216.67 123.983 218.836 123.877C220.939 123.769 220.515 127.63 218.216 127.647Z" fill="#EDACB0"/>
<path d="M225.43 119.132C226.14 118.946 226.284 119.35 226.761 119.524C227.643 119.837 228.435 120 229.394 119.896C230.121 119.825 230.937 118.971 231.558 119.842C232.531 121.219 230.168 121.854 229.201 121.905C228.086 121.973 225.317 121.586 224.82 120.414C224.636 119.967 224.986 119.244 225.431 119.122L225.43 119.132Z" fill="#EDACB0"/>
<path d="M216.978 118.848C217.507 118.75 221.366 118.88 221.886 119.013C222.906 119.278 223.021 120.846 221.841 120.985C221.135 121.067 217.537 120.967 216.891 120.819C215.943 120.609 215.88 119.053 216.979 118.838C216.979 118.844 216.978 118.848 216.978 118.848Z" fill="#EDACB0"/>
<path d="M226.919 122.952C222.713 123.482 222.199 130.973 227.303 130.588C231.871 130.248 232.37 122.263 226.919 122.952ZM226.918 128.611C224.797 128.624 225.372 124.947 227.538 124.841C229.641 124.734 229.218 128.605 226.918 128.611Z" fill="#EDACB0"/>
<path d="M163.109 170.697C161.676 168.197 157.987 165.758 155.06 164.813C154.907 164.752 154.724 164.721 154.572 164.721C153.779 164.721 148.474 164.691 142.956 164.66C137.438 164.66 132.102 164.721 131.34 164.721C131.157 164.721 131.005 164.721 130.852 164.813C127.926 165.727 124.237 168.197 122.804 170.697C122.56 171.124 122.438 171.581 122.834 171.611C126.493 171.611 134.663 171.611 142.956 171.611C151.249 171.611 159.42 171.611 163.078 171.611C163.505 171.611 163.352 171.124 163.109 170.697Z" fill="#008099"/>
<path d="M141.005 101.215C139.907 101.429 139.664 102.069 139.724 103.045C139.755 105.057 139.846 108.868 139.968 113.654C140.304 127.709 140.761 150.606 141.066 164.356C141.066 165.362 141.066 166.063 141.493 166.52C142.56 167.557 145.517 167.435 145.578 165.606C145.731 155.514 146.127 112.587 146.188 102.679C146.188 101.886 145.7 101.49 144.999 101.307C143.901 101.002 142.164 100.971 141.005 101.215Z" fill="#008099"/>
<path d="M163.11 170.823C161.677 168.323 157.988 165.884 155.061 164.939C154.908 164.878 154.725 164.847 154.573 164.847C153.78 164.847 148.475 164.817 142.957 164.786C137.439 164.786 132.103 164.847 131.341 164.847C131.158 164.847 131.006 164.847 130.853 164.939C127.927 165.853 124.238 168.323 122.805 170.823C122.561 171.25 122.439 171.707 122.835 171.737C126.494 171.737 134.664 171.737 142.957 171.737C151.25 171.737 159.421 171.737 163.079 171.737C163.506 171.737 163.353 171.25 163.11 170.823Z" fill="#008099"/>
<path d="M141.006 101.341C139.908 101.555 139.664 102.195 139.725 103.171C139.756 105.183 139.847 108.994 139.969 113.78C140.305 127.835 140.762 150.732 141.067 164.482C141.067 165.488 141.067 166.189 141.494 166.646C142.561 167.683 145.518 167.561 145.579 165.732C145.732 155.64 146.128 112.713 146.189 102.805C146.189 102.012 145.701 101.616 145 101.433C143.902 101.128 142.164 101.097 141.006 101.341Z" fill="#008099"/>
<path d="M91.6774 0.395773C90.3055 0.273822 59.4518 -0.427397 53.7201 0.731139C52.6225 0.944554 51.8604 1.79821 51.8604 3.01772V103.719H93.8725V2.5909C93.8725 1.27992 93.2323 0.548212 91.6774 0.395773Z" fill="#008099"/>
<path d="M67.8045 11.1274C63.6887 11.7982 63.4448 19.1457 68.4448 18.597C72.9265 18.1092 73.1399 10.2738 67.8045 11.1274ZM67.9875 16.7067C65.9143 16.7982 66.3411 13.1701 68.4753 12.9872C70.5484 12.8043 70.2436 16.6152 67.9875 16.7067Z" fill="#C2E8F0"/>
<path d="M74.7558 8.10861C75.457 7.89519 75.6094 8.29153 76.0667 8.44397C76.9509 8.71836 77.7131 8.8708 78.6582 8.71836C79.3594 8.6269 80.1521 7.77324 80.7924 8.59641C81.7985 9.90739 79.4814 10.6086 78.5363 10.7001C77.4387 10.7915 74.7253 10.5171 74.207 9.38909C74.0241 8.96226 74.3289 8.23056 74.7558 8.10861Z" fill="#C2E8F0"/>
<path d="M66.4635 8.10904C66.9818 7.98709 70.7623 7.98709 71.2806 8.10904C72.2866 8.32246 72.4391 9.87733 71.2806 10.0298C70.5793 10.1212 67.0732 10.1517 66.433 10.0298C65.4879 9.84685 65.3964 8.32246 66.433 8.07855L66.4635 8.10904Z" fill="#C2E8F0"/>
<path d="M76.3412 11.7983C72.2253 12.4691 71.9814 19.8166 76.9814 19.2679C81.4631 18.7801 81.6765 10.9447 76.3412 11.7983ZM76.5546 17.3471C74.4814 17.4386 74.9082 13.8105 77.0424 13.6276C79.1155 13.4447 78.8107 17.2557 76.5546 17.3471Z" fill="#C2E8F0"/>
<path d="M86.6775 41.4933C85.6714 41.4018 63.0495 40.8835 58.8422 41.7372C58.0495 41.8896 57.4702 42.4994 57.4702 43.414V89.3896C57.4702 89.5421 57.5617 89.7555 57.7141 89.9689C57.897 90.2128 58.1409 90.4567 58.3544 90.5177C59.7873 90.8225 84.8788 90.914 87.2873 90.5177C88.2019 90.3652 88.2324 89.5725 88.2934 88.7799V43.0786C88.2934 42.1335 87.8361 41.5847 86.6775 41.4628V41.4933Z" fill="#C2E8F0"/>
<path d="M93.8725 103.688V168.048C93.8116 169.115 93.7506 170.213 92.5006 170.426C89.2384 170.914 55.0006 170.792 53.0494 170.396C52.4701 170.274 51.8604 169.359 51.8604 168.871V103.688H93.8725Z" fill="#99D9E5"/>
<path d="M88.2626 45.4268C87.8968 46.3109 87.5614 47.0426 87.1651 47.7438C82.0126 57.9572 72.1956 59.5121 63.2016 62.9572C61.1285 63.7499 59.2077 64.7255 57.4395 65.8536V89.3902C57.4395 89.5426 57.5309 89.756 57.6834 89.9694C60.8236 78.9938 67.409 73.7194 80.0004 69.5731C83.476 68.567 88.0492 66.0975 88.2321 61.9511C88.2321 61.6768 88.2321 61.4024 88.2626 61.128V45.4268Z" fill="#99D9E5"/>
</g>
</g>
<defs>
<clipPath id="clip0_10879_8880">
<rect width="300" height="177.012" fill="white"/>
</clipPath>
<clipPath id="clip1_10879_8880">
<rect width="242.073" height="177.012" fill="white" transform="translate(28.9634 0.0605469)"/>
</clipPath>
</defs>
</svg>
