<svg width="40" height="40" viewBox="0 0 40 40" fill="none" xmlns="http://www.w3.org/2000/svg">
<path d="M30.417 25.0004V6.66638C30.4168 5.51593 29.4835 4.58337 28.333 4.58337H8.33301C7.18267 4.58355 6.25018 5.51605 6.25 6.66638V33.3334C6.25 34.4839 7.18255 35.4162 8.33301 35.4164H21.667C22.3571 35.4166 22.9168 35.9763 22.917 36.6664C22.917 37.3566 22.3572 37.9162 21.667 37.9164H8.33301C5.80186 37.9162 3.75 35.8646 3.75 33.3334V6.66638C3.75018 4.13533 5.80196 2.08355 8.33301 2.08337H28.333C30.8643 2.08337 32.9168 4.13524 32.917 6.66638V25.0004C32.9168 25.6905 32.3571 26.2502 31.667 26.2504C30.9767 26.2504 30.4172 25.6906 30.417 25.0004Z" fill="black"/>
<path d="M22.917 4.58337H13.75V5.83337C13.75 6.52373 14.3096 7.08337 15 7.08337H21.667C22.3572 7.0832 22.917 6.52361 22.917 5.83337V4.58337ZM25.417 5.83337C25.417 7.90435 23.7378 9.5832 21.667 9.58337H15C12.9289 9.58337 11.25 7.90445 11.25 5.83337V3.33337C11.25 2.64302 11.8096 2.08337 12.5 2.08337H24.167C24.8572 2.08355 25.417 2.64313 25.417 3.33337V5.83337Z" fill="black"/>
<path d="M18.3337 23.7504C19.0239 23.7505 19.5837 24.3101 19.5837 25.0004C19.5835 25.6905 19.0238 26.2502 18.3337 26.2504H11.6667C10.9764 26.2504 10.4168 25.6906 10.4167 25.0004C10.4167 24.31 10.9763 23.7504 11.6667 23.7504H18.3337ZM24.9997 17.0834C25.69 17.0834 26.2497 17.643 26.2497 18.3334C26.2497 19.0237 25.69 19.5834 24.9997 19.5834H11.6667C10.9763 19.5834 10.4167 19.0237 10.4167 18.3334C10.4167 17.643 10.9763 17.0834 11.6667 17.0834H24.9997Z" fill="black"/>
<path d="M34.1159 27.4496C34.604 26.9615 35.3953 26.9616 35.8835 27.4496C36.3716 27.9377 36.3716 28.729 35.8835 29.2172L32.6003 32.4994L35.8835 35.7826C36.3716 36.2707 36.3716 37.062 35.8835 37.5502C35.3953 38.0383 34.604 38.0383 34.1159 37.5502L30.8327 34.267L27.5505 37.5502C27.0623 38.0383 26.271 38.0383 25.7829 37.5502C25.2949 37.062 25.2948 36.2707 25.7829 35.7826L29.0651 32.4994L25.7829 29.2172C25.2947 28.729 25.2947 27.9377 25.7829 27.4496C26.271 26.9614 27.0623 26.9614 27.5505 27.4496L30.8327 30.7318L34.1159 27.4496Z" fill="black"/>
</svg>
