<svg width="40" height="40" viewBox="0 0 40 40" fill="none" xmlns="http://www.w3.org/2000/svg">
<path d="M32.0837 6.66638C32.0836 5.51593 31.1503 4.58337 29.9998 4.58337H9.99976C8.84942 4.58355 7.91692 5.51605 7.91675 6.66638V33.3334C7.91675 34.4839 8.8493 35.4162 9.99976 35.4164H29.9998C31.1504 35.4164 32.0837 34.484 32.0837 33.3334V6.66638ZM34.5837 33.3334C34.5837 35.8647 32.5311 37.9164 29.9998 37.9164H9.99976C7.46861 37.9162 5.41675 35.8646 5.41675 33.3334V6.66638C5.41692 4.13533 7.46871 2.08355 9.99976 2.08337H29.9998C32.531 2.08337 34.5836 4.13524 34.5837 6.66638V33.3334Z" fill="black"/>
<path d="M24.5837 4.58337H15.4167V5.83337C15.4167 6.52373 15.9764 7.08337 16.6667 7.08337H23.3337C24.0239 7.0832 24.5837 6.52361 24.5837 5.83337V4.58337ZM27.0837 5.83337C27.0837 7.90435 25.4046 9.5832 23.3337 9.58337H16.6667C14.5957 9.58337 12.9167 7.90445 12.9167 5.83337V3.33337C12.9167 2.64302 13.4764 2.08337 14.1667 2.08337H25.8337C26.5239 2.08355 27.0837 2.64313 27.0837 3.33337V5.83337Z" fill="black"/>
<path d="M20.0004 23.7504C20.6906 23.7505 21.2504 24.3101 21.2504 25.0004C21.2502 25.6905 20.6905 26.2502 20.0004 26.2504H13.3334C12.6432 26.2504 12.0836 25.6906 12.0834 25.0004C12.0834 24.31 12.6431 23.7504 13.3334 23.7504H20.0004ZM26.6664 17.0834C27.3568 17.0834 27.9164 17.643 27.9164 18.3334C27.9164 19.0237 27.3568 19.5834 26.6664 19.5834H13.3334C12.6431 19.5834 12.0834 19.0237 12.0834 18.3334C12.0834 17.643 12.6431 17.0834 13.3334 17.0834H26.6664Z" fill="black"/>
</svg>
