<svg width="40" height="40" viewBox="0 0 40 40" fill="none" xmlns="http://www.w3.org/2000/svg">
<path d="M34.1162 4.11621C34.6044 3.62806 35.3957 3.62806 35.8838 4.11621C36.372 4.60437 36.372 5.39563 35.8838 5.88379L31.7676 10L35.8838 14.1162C36.372 14.6044 36.372 15.3956 35.8838 15.8838C35.3957 16.3719 34.6044 16.3719 34.1162 15.8838L30 11.7676L25.8838 15.8838C25.3957 16.3719 24.6044 16.3719 24.1162 15.8838C23.6281 15.3956 23.6281 14.6044 24.1162 14.1162L28.2324 10L24.1162 5.88379C23.6281 5.39563 23.6281 4.60437 24.1162 4.11621C24.6044 3.62806 25.3957 3.62806 25.8838 4.11621L30 8.23242L34.1162 4.11621Z" fill="black"/>
<path d="M33.75 27.7676C33.75 27.6024 33.6527 27.4528 33.502 27.3857L27.9346 24.9111C27.7892 24.8465 27.6193 24.8698 27.4971 24.9717L24.0762 27.8232C23.2887 28.4792 22.2045 28.6795 21.2324 28.3242L21.0401 28.2461C18.5929 27.145 16.8061 26.1029 15.3516 24.6484C13.8971 23.194 12.855 21.4071 11.7539 18.96C11.2957 17.9412 11.477 16.7638 12.1768 15.9238L15.0283 12.5029C15.1302 12.3806 15.1535 12.2108 15.0889 12.0654L12.6143 6.49805C12.5471 6.34724 12.3975 6.25 12.2324 6.25H6.64455C6.40636 6.25011 6.24451 6.439 6.25002 6.63379C6.51071 15.6126 8.94341 22.211 13.3662 26.6338C17.7891 31.0566 24.3875 33.4893 33.3662 33.75C33.5612 33.7554 33.75 33.5935 33.75 33.3555V27.7676ZM36.25 33.3555C36.25 34.9595 34.9394 36.2967 33.293 36.249C23.9189 35.9768 16.6187 33.4215 11.5987 28.4014C6.57859 23.3813 4.02324 16.0812 3.751 6.70703C3.70319 5.06044 5.04069 3.75012 6.64455 3.75H12.2324C13.3855 3.75 14.431 4.4288 14.8994 5.48242L17.3731 11.0498C17.8245 12.0654 17.6597 13.2498 16.9483 14.1035L14.0977 17.5244C13.9944 17.6483 13.9779 17.8094 14.0342 17.9346C15.0875 20.2755 15.98 21.7417 17.1192 22.8809C18.2583 24.02 19.7245 24.9125 22.0655 25.9658C22.1905 26.0221 22.3515 26.0057 22.4756 25.9023L25.8965 23.0518C26.7502 22.3403 27.9347 22.1756 28.9502 22.627L34.5176 25.1006C35.5713 25.569 36.25 26.6146 36.25 27.7676V33.3555Z" fill="black"/>
</svg>
