<svg width="300" height="178" viewBox="0 0 300 178" fill="none" xmlns="http://www.w3.org/2000/svg">
<g clip-path="url(#clip0_10879_8007)">
<g clip-path="url(#clip1_10879_8007)">
<path d="M135.549 162.652C141.067 162.53 254.756 163.079 260.274 163.384C263.506 163.567 266.982 164.116 269.695 166.799C271.128 168.231 271.646 170.305 270.122 172.103C267.134 175.609 261.921 175.975 258.171 176.219C239.268 177.439 65.4269 177.042 46.5855 176.859C42.0733 176.859 33.2623 177.012 29.7562 172.866C28.7196 171.646 28.7806 170.091 29.7562 168.841C32.8355 164.847 41.3111 164.268 45.4574 163.963C59.9696 162.835 121.098 163.018 135.579 162.683H135.549V162.652Z" fill="#22A8C3"/>
<g clip-path="url(#clip2_10879_8007)">
<path d="M219.673 109.369C198.019 107.382 184.821 129.652 193.048 148.83C201.44 168.401 228.433 174.925 241.809 156.735C255.35 138.32 241.965 111.42 219.673 109.38L219.673 109.369ZM196.522 149.482C187.496 131.59 199.381 109.98 220.26 112.214C240.983 114.432 252.32 141.663 237.73 157.228C225.252 170.544 204.289 164.863 196.522 149.482Z" fill="#00151A"/>
<path d="M138.771 106.653C118.969 104.844 106.286 124.254 111.416 142.497C116.603 160.932 138.691 171.891 155.031 159.545C175.841 143.831 164.287 108.99 138.771 106.653ZM116.526 147.604C107.079 130.045 118.164 107.232 139.347 109.497C158.71 111.565 169.399 135.907 158.501 151.87C147.559 167.894 125.142 163.623 116.526 147.604Z" fill="#00151A"/>
<path d="M214.784 110.517C215.685 110.274 215.554 111.341 215.656 112.048C216.886 120.154 217.387 128.372 218.426 136.502L223.168 129.416C226.45 124.833 229.09 119.366 232.494 114.923C232.669 114.698 232.969 114.194 233.263 114.214C233.797 114.253 233.511 114.947 233.376 115.226C232.869 116.259 231.622 117.729 230.936 118.798C226.87 125.141 222.897 131.528 218.698 137.793C218.203 139.078 219.976 139.747 220.871 140.291C227.814 139.548 234.751 138.678 241.711 138.061C242.89 137.964 244.971 137.593 246.018 137.67C247.065 137.747 246.395 137.704 246.45 137.926C246.518 138.412 246.285 138.467 245.883 138.548C240.313 139.054 234.731 139.591 229.167 140.202C227.018 140.435 224.41 140.568 222.328 140.97C222.149 141.006 221.982 140.959 221.85 141.143C228.007 145.361 233.835 150.019 239.74 154.565C240.108 154.85 241.868 155.897 241.845 156.274C241.811 156.651 241.601 156.675 241.453 156.702C240.894 156.767 233.917 151.02 232.862 150.228C228.92 147.25 224.868 144.426 220.894 141.479C220.674 141.146 219.212 141.244 219.07 141.407C219.623 149.007 221.282 156.497 221.951 164.101C222.004 164.701 222.208 166.126 222.076 166.625C221.955 167.094 221.38 167.032 221.297 166.683L218.206 141.493L216.093 141.884C214.358 144.462 212.593 147.028 210.787 149.54C208.42 152.81 205.903 156.464 203.374 159.561C202.685 160.398 201.943 160.279 202.512 159.28C206.124 154.277 209.982 149.429 213.439 144.316C213.616 144.059 215.039 142.017 214.948 141.919L192.859 145.063C192.485 144.935 192.45 144.419 192.791 144.273C193.174 144.118 194.639 143.957 195.166 143.881C201.902 142.752 208.709 142.004 215.451 141.002C216.046 140.78 216.621 139.308 217.057 138.809L195.291 122.327C195.088 122.121 195.135 121.681 195.431 121.607L217.663 137.968L214.782 110.57L214.784 110.517Z" fill="#00151A"/>
<path d="M137.543 134.471L138.953 107.468C139.196 107.099 139.825 107.456 139.695 107.892C139.296 116.332 139.054 124.777 138.467 133.2L154.673 112.963C154.608 113.349 155.05 113.616 154.755 113.974L138.535 134.619C138.157 135.258 138.278 136.018 139.071 136.171C145.263 137.155 151.481 137.994 157.65 139.073C159.768 139.449 162.413 139.768 164.432 140.309C165.222 140.535 165.069 141.338 164.286 141.217C162.134 140.893 159.97 140.316 157.819 139.961C151.796 138.929 145.734 138.148 139.734 137.054C139.568 137.321 139.726 137.285 139.817 137.393C140.178 137.888 140.705 138.452 141.109 138.948C146.132 145.039 151.565 150.829 156.837 156.708C156.935 157.236 156.506 157.495 156.099 157.124L151.723 152.388L138.337 137.08C137.84 142.808 137.857 148.563 137.57 154.307C137.427 156.991 137.362 159.876 137.042 162.533C136.968 163.171 137.04 164.454 136.137 163.825C136.806 154.838 136.972 145.834 137.411 136.839L137.006 136.7C131.759 143.202 126.48 149.714 121.448 156.391C121.282 156.648 120.893 156.667 120.69 156.439C120.428 156.116 121.422 154.973 121.653 154.655C126.134 148.463 131.347 142.653 135.961 136.56C130.028 135.647 124.135 134.504 118.207 133.465C117.279 133.297 111.217 132.495 110.974 132.224C110.771 132.007 111.005 131.606 111.395 131.556C112.122 131.475 114.613 132.01 115.532 132.157C122.319 133.246 129.185 134.82 135.99 135.7C136.471 135.758 136.764 135.789 136.887 135.226C131.225 128.158 125.455 121.139 120.287 113.72C120.318 113.112 120.694 112.872 121.118 113.37C125.43 119.72 130.354 125.64 135.086 131.669L137.542 134.481L137.543 134.46L137.553 134.461L137.543 134.471Z" fill="#00151A"/>
<path d="M216.164 141.635L190.588 140.776C190.189 137.959 190.261 134.885 190.847 132.112C191.822 127.482 193.754 123.095 196.937 119.579L195.621 118.138C196.018 117.553 195.62 118.17 195.62 118.17L190.426 113.081L190.168 112.306L195.271 90.6987C195.442 89.0558 193.399 88.9452 193.227 90.609L183.353 132.396C183.09 132.387 182.696 131.943 182.495 131.684C172.963 119.467 164.568 105.912 155.156 93.5628L154.658 93.084C154.546 92.9752 154.391 92.907 154.181 92.9L141.64 92.479L147.011 72.5611L147.12 72.1447C147.44 71.3679 146.955 70.7951 146.391 70.7027L146.234 70.6974C145.867 70.6851 145.503 70.8829 145.31 71.3279C145.274 71.4737 145.227 71.6191 145.191 71.7544C142.97 79.7444 140.977 87.8155 138.621 95.7589L122.073 93.0507L121.223 75.5176C121.155 74.7383 120.281 74.1734 119.603 74.6862C119.161 75.0179 119.222 75.7129 119.226 76.2171C119.223 81.9399 120.134 87.9348 120.13 93.6995C120.323 94.8296 120.77 94.9496 121.771 95.1617C127.494 96.3619 133.635 96.6835 139.379 97.9054C140.712 97.8977 140.752 95.4629 141.048 94.4752L152.583 94.8625L147.995 107.677C146.718 107.245 145.474 106.773 144.163 106.435C135.159 104.148 125.932 106.306 118.329 111.385C117.749 111.765 114.899 113.79 114.748 114.237C114.701 114.372 114.676 114.507 114.671 114.644C114.649 115.304 115.157 115.804 115.919 115.63C117.208 114.739 118.387 113.718 119.697 112.859C126.631 108.314 135.021 106.37 143.054 108.193C144.419 108.502 145.78 108.925 147.116 109.464C147.137 109.465 147.147 109.486 147.168 109.487L136.556 136.033C136.166 137.637 138.179 138.02 138.57 136.395L148.997 110.367C167.516 120.051 165.089 142.294 165.089 142.294L164.745 145.044C164.795 146.064 166.095 146.433 166.629 145.538C169.227 131.312 163.099 114.957 149.744 108.418L151.923 102.632L152.442 103.122C161.854 115.471 170.059 129.051 179.59 141.268C179.731 141.452 180.092 141.968 180.387 142.251C180.508 142.381 180.631 142.469 180.715 142.472L217.973 143.722L216.175 141.635L216.164 141.635Z" fill="#EDACB0"/>
<path d="M185.613 88.1901C184.278 87.3157 183.495 85.9453 185.599 85.4909C189.023 85.4379 192.453 85.2275 195.88 85.0695C197.3 85.0017 198.709 84.9335 200.117 84.8967C201.504 84.8593 204.084 84.6309 205.326 84.8406C207.205 85.1452 207.623 86.7868 206.462 88.2074C204.24 90.926 199.119 91.4891 194.32 90.8975C190.828 90.4653 187.514 89.4404 185.613 88.1901Z" fill="#00151A"/>
<path d="M154.156 73.6519C152.407 73.5302 149.135 73.1159 147.001 72.5612C146.605 72.4639 146.263 72.3474 145.962 72.2428C145.599 72.1046 145.342 71.9385 145.191 71.7549C145.227 71.6091 145.274 71.4637 145.31 71.3284C145.504 70.8833 145.867 70.696 146.234 70.6979L146.392 70.7031C147.071 70.7994 153.31 71.6389 154.494 72.0252C155.75 72.4349 155.381 73.7351 154.156 73.6519Z" fill="#00151A"/>
<path d="M248.839 129.008L223.353 143.904L217.963 143.723L216.164 141.636L216.043 141.495L215.972 141.419L196.937 119.579L195.621 118.139C195.621 118.139 205.182 106.646 221.911 108.363C225.479 108.724 229.033 109.495 232.255 111.094C239.37 114.609 244.608 120.865 248.839 129.008Z" fill="#C91D39"/>
<path d="M218.511 122.078C214.304 122.609 213.79 130.1 218.895 129.715C223.462 129.375 223.951 121.39 218.511 122.078ZM218.509 127.749C216.388 127.762 216.963 124.085 219.129 123.979C221.232 123.871 220.809 127.731 218.509 127.749Z" fill="#EDACB0"/>
<path d="M225.724 119.233C226.433 119.047 226.577 119.451 227.054 119.624C227.936 119.937 228.729 120.1 229.688 119.996C230.414 119.926 231.23 119.071 231.852 119.943C232.824 121.319 230.462 121.954 229.494 122.006C228.379 122.073 225.61 121.686 225.114 120.515C224.929 120.067 225.279 119.344 225.724 119.223L225.724 119.233Z" fill="#EDACB0"/>
<path d="M217.272 118.95C217.8 118.852 221.659 118.981 222.179 119.114C223.199 119.38 223.315 120.948 222.134 121.087C221.428 121.168 217.831 121.068 217.185 120.921C216.236 120.71 216.173 119.154 217.272 118.939C217.272 118.946 217.272 118.95 217.272 118.95Z" fill="#EDACB0"/>
<path d="M227.212 123.053C223.006 123.584 222.492 131.075 227.596 130.689C232.164 130.349 232.663 122.365 227.212 123.053ZM227.211 128.713C225.09 128.726 225.665 125.049 227.831 124.943C229.934 124.835 229.511 128.706 227.211 128.713Z" fill="#EDACB0"/>
<path fill-rule="evenodd" clip-rule="evenodd" d="M226.728 85.7326C226.921 85.812 227.045 86.0033 227.038 86.2123L226.853 91.7147L230.022 91.8211C230.217 91.8277 230.391 91.9477 230.467 92.1284C230.542 92.3091 230.505 92.5172 230.372 92.661L223.79 99.7845C223.648 99.9381 223.426 99.9873 223.232 99.9078C223.039 99.8284 222.915 99.6371 222.922 99.4281L223.107 93.9257L219.939 93.8193C219.743 93.8128 219.569 93.6927 219.494 93.512C219.418 93.3314 219.455 93.1233 219.588 92.9794L226.17 85.8559C226.312 85.7023 226.534 85.6531 226.728 85.7326Z" fill="#C91D39"/>
</g>
<path d="M163.11 170.823C161.677 168.323 157.988 165.884 155.061 164.939C154.908 164.878 154.725 164.847 154.573 164.847C153.78 164.847 148.475 164.847 142.957 164.786C137.439 164.786 132.103 164.847 131.341 164.847C130.579 164.847 131.006 164.847 130.853 164.939C127.927 165.853 124.238 168.323 122.805 170.823C122.561 171.25 122.439 171.707 122.835 171.737H163.079C163.506 171.737 163.353 171.25 163.11 170.823Z" fill="#00404D"/>
<path d="M141.006 101.341C139.908 101.555 139.664 102.195 139.725 103.171C139.756 105.183 139.847 108.994 139.969 113.78C140.305 127.835 140.762 150.732 141.067 164.482C141.067 165.488 141.067 166.189 141.494 166.646C142.561 167.683 145.518 167.561 145.579 165.732C145.732 155.64 146.128 112.713 146.189 102.805C146.189 102.012 145.701 101.616 145 101.433C143.902 101.128 142.164 101.097 141.006 101.341Z" fill="#00404D"/>
<path d="M91.6774 0.395773C90.3055 0.273822 59.4518 -0.427397 53.7201 0.731139C52.6225 0.944554 51.8604 1.79821 51.8604 3.01772V103.719H93.8725V2.5909C93.8725 1.27992 93.2323 0.548212 91.6774 0.395773Z" fill="#00404D"/>
<path d="M67.8045 11.1274C63.6887 11.7982 63.4448 19.1457 68.4448 18.597C72.9265 18.1092 73.1399 10.2738 67.8045 11.1274ZM67.9875 16.7067C65.9143 16.7982 66.3411 13.1701 68.4753 12.9872C70.5484 12.8043 70.2436 16.6152 67.9875 16.7067Z" fill="#99D9E5"/>
<path d="M74.7558 8.10861C75.457 7.89519 75.6094 8.29153 76.0667 8.44397C76.9509 8.71836 77.7131 8.8708 78.6582 8.71836C79.3594 8.6269 80.1521 7.77324 80.7924 8.59641C81.7985 9.90739 79.4814 10.6086 78.5363 10.7001C77.4387 10.7915 74.7253 10.5171 74.207 9.38909C74.0241 8.96226 74.3289 8.23056 74.7558 8.10861Z" fill="#99D9E5"/>
<path d="M66.4635 8.10904C66.9818 7.98709 70.7623 7.98709 71.2806 8.10904C72.2866 8.32246 72.4391 9.87733 71.2806 10.0298C70.5793 10.1212 67.0732 10.1517 66.433 10.0298C65.4879 9.84685 65.3964 8.32246 66.433 8.07855L66.4635 8.10904Z" fill="#99D9E5"/>
<path d="M76.3412 11.7983C72.2253 12.4691 71.9814 19.8166 76.9814 19.2679C81.4631 18.7801 81.6765 10.9447 76.3412 11.7983ZM76.5546 17.3471C74.4814 17.4386 74.9082 13.8105 77.0424 13.6276C79.1155 13.4447 78.8107 17.2557 76.5546 17.3471Z" fill="#99D9E5"/>
<path d="M86.6775 41.4933C85.6714 41.4018 63.0495 40.8835 58.8422 41.7372C58.0495 41.8896 57.4702 42.4994 57.4702 43.414V89.3896C57.4702 89.5421 57.5617 89.7555 57.7141 89.9689C57.897 90.2128 58.1409 90.4567 58.3544 90.5177C59.7873 90.8225 84.8788 90.914 87.2873 90.5177C88.2019 90.3652 88.2324 89.5725 88.2934 88.7799V43.0786C88.2934 42.1335 87.8361 41.5847 86.6775 41.4628V41.4933Z" fill="#99D9E5"/>
<path d="M93.8725 103.688V168.048C93.8116 169.115 93.7506 170.213 92.5006 170.426C89.2384 170.914 55.0006 170.792 53.0494 170.426C52.4701 170.304 51.8604 169.39 51.8604 168.902V103.719H93.8725V103.688Z" fill="#22A8C3"/>
<path d="M88.2626 45.4268C87.8968 46.3109 87.5614 47.0426 87.1651 47.7438C82.0126 57.9572 72.1956 59.5121 63.2016 62.9572C61.1285 63.7499 59.2077 64.7255 57.4395 65.8536V89.3902C57.4395 89.5426 57.5309 89.756 57.6834 89.9694C60.8236 78.9938 67.409 73.7194 80.0004 69.5731C83.476 68.567 88.0492 66.0975 88.2321 61.9511C88.2321 61.6768 88.2321 61.4024 88.2626 61.128V45.4268Z" fill="#70C9DB"/>
</g>
</g>
<defs>
<clipPath id="clip0_10879_8007">
<rect width="300" height="177.012" fill="white"/>
</clipPath>
<clipPath id="clip1_10879_8007">
<rect width="242.073" height="177.012" fill="white" transform="translate(28.9634 0.0605469)"/>
</clipPath>
<clipPath id="clip2_10879_8007">
<rect width="138.33" height="94.9728" fill="white" transform="matrix(-0.999437 -0.0335508 -0.0335508 0.999437 250.398 74.1016)"/>
</clipPath>
</defs>
</svg>
