<svg width="189" height="202" viewBox="0 0 189 202" fill="none" xmlns="http://www.w3.org/2000/svg">
<g clip-path="url(#clip0_7598_3814)">
<path d="M167.273 201.304C162.732 201.304 158.24 199.836 154.625 196.901C150.583 193.622 148.027 188.837 147.432 183.427C147.209 181.438 147.262 179.425 147.599 177.457C147.73 176.653 147.918 175.83 148.152 175.036C151.027 165.263 160.647 158.74 170.541 159.871C177.234 160.637 183.278 164.883 186.313 170.956C190.659 179.652 188.1 190.761 180.361 196.802C176.518 199.805 171.867 201.304 167.273 201.304ZM168.336 168.35C163.062 168.35 157.971 172.154 156.408 177.464C156.273 177.922 156.167 178.397 156.085 178.879C155.883 180.073 155.848 181.275 155.986 182.477C156.333 185.632 157.773 188.379 160.048 190.223C164.175 193.573 170.63 193.487 175.068 190.021C179.645 186.447 181.169 179.907 178.617 174.802C176.869 171.303 173.399 168.857 169.563 168.418C169.152 168.372 168.744 168.347 168.333 168.347L168.336 168.35Z" fill="#00151A"/>
<path d="M19.9806 199.709C15.4396 199.709 10.9481 198.242 7.33229 195.306C1.10383 190.248 -1.49816 181.46 0.85923 173.441C3.73418 163.664 13.3622 157.145 23.2491 158.276C23.8801 158.347 24.5182 158.453 25.1846 158.598C27.1592 159.027 29.0699 159.761 30.8601 160.782C34.3483 162.767 37.2481 165.816 39.0205 169.357C43.3666 178.046 40.8072 189.159 33.0686 195.204C29.2259 198.206 24.5749 199.709 19.9771 199.709H19.9806ZM21.0512 166.752C15.7693 166.752 10.6787 170.556 9.1154 175.866C7.9562 179.804 8.63329 185.278 12.7561 188.624C16.8788 191.974 23.3377 191.885 27.776 188.422C32.3525 184.849 33.8804 178.308 31.328 173.207C30.3106 171.169 28.6303 169.411 26.5991 168.255C25.5675 167.666 24.4827 167.245 23.359 167.004C22.9726 166.918 22.6252 166.862 22.2813 166.823C21.8701 166.777 21.4589 166.752 21.0477 166.752H21.0512Z" fill="#00151A"/>
<path d="M8.60985 154.964L4.56152 150.547C13.4593 149.65 20.3259 149.331 27.0648 150.515C27.7419 150.635 28.4119 150.781 29.0677 150.944L60.6212 73.1182L65.1127 74.7488L42.9781 129.348L65.2509 178.165H138.138C138.426 175.861 139.245 172.426 140.347 169.824C144.218 160.66 152.347 153.886 161.588 152.33C167.122 151.398 167.306 151.245 178.774 152.266L172.847 156.339C168.636 156.127 166.016 156.403 162.414 157.038C154.768 158.385 147.993 163.996 144.746 171.685C143.903 173.688 143.25 176.357 142.967 178.165H167.359V182.944H62.1881L40.5143 135.438L33.5946 152.511C40.2485 155.52 45.3071 161.199 48.1501 168.998C49.2313 171.962 49.6425 174.823 49.9687 177.495L45.2256 178.077C44.9313 175.673 44.5697 173.121 43.6622 170.629C41.3119 164.184 37.1856 159.476 31.7938 156.956L28.7345 164.5L22.3359 180.285L17.9082 178.488L24.2785 162.78L27.2598 155.421C26.9266 155.343 26.5827 155.279 26.2424 155.215C20.9002 154.276 15.5331 154.358 8.61339 154.957" fill="#008099"/>
<path d="M92.9038 6.65889L65.1147 74.7594C63.7747 74.3553 60.6233 73.1287 60.6233 73.1287C60.6375 73.0827 81.521 21.9695 87.792 6.53836C89.4475 6.82196 91.1809 6.85031 92.9038 6.65889Z" fill="#00151A"/>
<path d="M92.9005 6.98461C92.6027 8.041 91.6455 8.72872 90.5998 8.72872C90.3871 8.72872 90.1708 8.70036 89.9546 8.64009L79.2238 5.99565C77.9512 5.63761 77.2139 4.31889 77.5684 3.0498C77.9229 1.77717 79.2416 1.03627 80.5142 1.39431L91.2485 4.03877C92.5176 4.3968 93.2585 5.71552 92.904 6.98461H92.9005Z" fill="#00151A"/>
</g>
<defs>
<clipPath id="clip0_7598_3814">
<rect width="189" height="201" fill="white" transform="translate(0 0.471191)"/>
</clipPath>
</defs>
</svg>
