<svg width="101" height="173" viewBox="0 0 101 173" fill="none" xmlns="http://www.w3.org/2000/svg">
<path d="M10.2002 131.64C8.10311 131.808 3.43806 132.219 2.42274 129.939C1.62127 128.138 1.17563 122.463 0.956392 120.242C-1.48036 95.4306 0.0632744 72.5168 13.6038 51.0281C16.4413 46.5248 23.8306 36.0859 30.1813 39.1175C35.0619 41.4482 31.7968 50.6741 30.5802 54.491C29.272 58.5935 27.6007 62.5919 26.3626 66.725C22.3534 80.1146 19.9329 96.6615 20.5313 110.655C20.5762 111.712 23.8396 118.488 24.4901 119.818C28.5657 128.131 16.0351 131.175 10.1984 131.642L10.2002 131.64Z" fill="#E8AA7D"/>
<path d="M42.1781 94.6808C48.669 88.0768 61.6057 83.02 70.5332 86.3086C77.1373 88.7417 78.7187 96.6881 72.1793 100.397C67.4011 103.107 62.4233 101.005 57.9452 105.159C54.5883 108.275 51.9018 116.017 50.9799 120.475C50.5738 122.438 50.696 125.721 50.696 125.721C50.696 125.721 31.7213 123.469 31.5937 123.291C31.3637 122.969 31.5901 105.456 42.1799 94.6808H42.1781Z" fill="#E8AA7D"/>
<path d="M16.4683 61.4214C16.8241 58.5875 18.3695 55.0276 20.1396 51.7625C21.4945 49.2646 22.9825 46.9393 24.1703 45.2465C24.6789 44.5223 25.4156 43.4369 26.1758 42.3102C27.6996 40.0513 29.308 37.6271 29.308 37.6271C29.308 37.6271 20.0408 17.1609 20.7686 12.4851C21.5395 7.53792 27.1102 8.64308 30.6719 9.39423C36.2499 10.5731 49.5154 15.3334 49.5154 15.3334C49.5154 15.3334 59.505 7.53072 64.357 4.19726C66.4667 2.74706 71.3186 -0.129951 73.8308 0.00482941C74.6557 0.0497513 75.7303 0.610413 76.2568 1.25734C77.5147 2.80098 78.1113 6.87841 78.318 8.88747C78.9505 15.0279 78.6846 21.4576 79.301 27.625C82.8465 30.0419 86.7496 32.0115 90.3688 34.3817C92.978 36.0889 98.9639 39.9812 100.256 42.648C101.447 45.1117 100.371 47.6779 98.193 49.1622C93.2692 52.5208 77.7214 55.9333 77.4572 56.2712C76.4491 60.2929 75.8758 64.4638 74.9055 68.5268C74.0285 72.1927 71.5181 82.4914 69.0094 84.8527C68.0786 85.7279 67.3526 85.9417 66.0677 85.8303C62.0784 85.4817 54.3602 76.2917 51.8605 73.0499C49.7526 70.3131 47.9053 67.3821 45.8944 64.577C43.163 64.9921 24.8981 67.0874 20.3013 66.7658C18.5816 66.6454 17.5106 65.9966 16.9355 64.9813C16.4072 64.0576 16.2904 62.8285 16.4683 61.4214Z" fill="#C2E8F0"/>
<path d="M35.8761 124.218C18.7577 131.893 18.5942 115.494 19.1674 103.592C20.0372 85.5051 26.3159 54.494 43.7146 45.101C49.8461 41.7909 57.6182 42.6768 56.7484 51.2791C56.247 56.2353 52.2289 61.2867 49.8838 65.5654C40.9131 81.938 39.7055 99.0797 40.3111 117.508C40.2895 118.239 35.8761 124.216 35.8761 124.216V124.218Z" fill="#E8AA7D"/>
<path d="M21.3632 172.375C20.6858 172.432 19.8645 172.601 19.2571 172.249C9.582 161.966 2.67967 148.365 0.596931 134.31C0.4352 133.221 -0.281811 130.499 0.706547 129.979C16.0189 123.76 31.475 119.097 48.2538 120.732C48.9636 120.802 52.3007 121.16 52.6583 121.418C53.0949 121.737 53.8712 127.138 54.1282 128.173C55.2442 132.666 57.2856 136.632 59.8984 140.411C56.6548 147.905 51.5495 154.987 45.6122 160.588C39.2957 166.549 30.1704 171.631 21.3632 172.375Z" fill="#22A8C3"/>
<path d="M12.7485 69.7797C13.1654 68.3421 14.9049 64.5594 16.4683 61.4218C16.2904 62.8289 16.4072 64.058 16.9355 64.9817C15.8663 67.2351 14.9229 69.379 14.6461 70.3314C14.4934 70.8561 13.9453 71.158 13.4206 71.0035C12.8977 70.8525 12.5958 70.3027 12.7485 69.7797Z" fill="#00151A"/>
<path d="M26.4345 66.5628C26.6034 66.5628 26.7723 66.606 26.9287 66.6958C27.4013 66.969 27.563 67.5746 27.2881 68.0472C26.952 68.6294 26.5315 69.625 26.3213 70.2521C26.0266 71.1273 25.7283 72.0743 25.5432 73.068C25.4425 73.6035 24.9268 73.9576 24.3895 73.8569C23.8522 73.7563 23.5 73.2406 23.6006 72.7032C23.809 71.5909 24.1307 70.5648 24.4488 69.6196C24.6932 68.8918 25.1604 67.7776 25.5791 67.0552C25.7624 66.739 26.0948 66.561 26.4345 66.561V66.5628Z" fill="#00151A"/>
</svg>
