<svg width="240" height="192" viewBox="0 0 240 192" fill="none" xmlns="http://www.w3.org/2000/svg">
<path opacity="0.3" d="M68.125 48.5L22.7555 48.4906C18.9921 48.2984 16 45.1861 16 41.375C16 37.44 19.1899 34.25 23.125 34.25C24.7698 34.25 26.2843 34.8073 27.4902 35.7433C27.3329 35.0205 27.25 34.2699 27.25 33.5C27.25 27.701 31.951 23 37.75 23C41.4912 23 44.7754 24.9567 46.6352 27.9025C48.5529 25.3792 51.5862 23.75 55 23.75C60.4501 23.75 64.9304 27.9024 65.4496 33.216C66.2848 32.9144 67.1859 32.75 68.125 32.75C72.4743 32.75 76 36.2758 76 40.625C76 44.9742 72.4743 48.5 68.125 48.5Z" fill="white"/>
<path opacity="0.6" d="M115.401 52.75L50.0153 52.7364C44.5916 52.4594 40.2794 47.9741 40.2794 42.4816C40.2794 36.8105 44.8766 32.2132 50.5478 32.2132C52.9183 32.2132 55.1009 33.0164 56.8389 34.3654C56.6122 33.3237 56.4927 32.242 56.4927 31.1324C56.4927 22.775 63.2677 16 71.625 16C77.0168 16 81.7498 18.8199 84.4301 23.0653C87.1938 19.4288 91.5654 17.0809 96.4853 17.0809C104.34 17.0809 110.797 23.0652 111.545 30.7231C112.749 30.2884 114.047 30.0515 115.401 30.0515C121.669 30.0515 126.75 35.1327 126.75 41.4007C126.75 47.6688 121.669 52.75 115.401 52.75Z" fill="white"/>
<path opacity="0.8" d="M142.51 69L80.633 68.987C75.5004 68.7213 71.4196 64.419 71.4196 59.1507C71.4196 53.7111 75.7701 49.3015 81.137 49.3015C83.3803 49.3015 85.4458 50.0718 87.0905 51.3658C86.8759 50.3666 86.7628 49.329 86.7628 48.2647C86.7628 40.2484 93.1743 33.75 101.083 33.75C106.186 33.75 110.665 36.4548 113.201 40.5269C115.816 37.0389 119.953 34.7868 124.609 34.7868C132.042 34.7868 138.153 40.5268 138.861 47.8722C140 47.4552 141.229 47.2279 142.51 47.2279C148.441 47.2279 153.25 52.1018 153.25 58.114C153.25 64.1262 148.441 69 142.51 69Z" fill="#80C0D1"/>
<path fill-rule="evenodd" clip-rule="evenodd" d="M166.338 60.0217C180.587 59.5701 192 47.8767 192 33.5176C192 18.8724 180.128 7 165.482 7C156.359 7 148.311 11.6078 143.54 18.6233C142.038 18.3907 140.499 18.27 138.932 18.27C122.438 18.27 109.067 31.641 109.067 48.135C109.067 64.629 122.438 78 138.932 78C151.202 78 161.743 70.6011 166.338 60.0217Z" fill="#33AF85" fill-opacity="0.25"/>
<path d="M232 67.6352C232.005 63.3349 231.006 59.0919 229.083 55.2391C227.161 51.3863 224.366 48.0285 220.918 45.4289C222.775 42.476 223.767 39.0669 223.781 35.5848C223.785 31.8421 222.673 28.1823 220.586 25.0667C218.498 21.9512 215.529 19.5196 212.053 18.0786C208.576 16.6377 204.748 16.2518 201.051 16.9698C197.354 17.6878 193.954 19.4775 191.28 22.113C189.214 19.8814 186.639 18.1757 183.771 17.1395C180.904 16.1032 177.827 15.7669 174.801 16.1587C171.776 16.5505 168.889 17.6591 166.384 19.391C163.88 21.1229 161.831 23.4274 160.41 26.1104C157.342 25.0142 154.106 24.4559 150.845 24.4603C145.601 24.4599 140.459 25.8991 135.986 28.6189C131.512 31.3388 127.883 35.2335 125.496 39.8735C123.11 44.5134 122.061 49.7181 122.464 54.9132C122.866 60.1083 124.706 65.0918 127.779 69.3139C124.013 72.0635 121.394 76.0916 120.419 80.6334C119.445 85.1751 120.183 89.9143 122.493 93.951C124.804 97.9877 128.526 101.041 132.953 102.531C137.38 104.021 142.203 103.843 146.507 102.033C147.805 105.937 150.1 109.441 153.167 112.201C156.234 114.962 159.969 116.885 164.008 117.783C168.046 118.682 172.25 118.525 176.209 117.328C180.168 116.13 183.748 113.934 186.598 110.952C189.575 114.254 193.625 116.413 198.04 117.053C202.455 117.692 206.957 116.773 210.759 114.453C214.562 112.134 217.425 108.563 218.85 104.362C220.275 100.161 220.17 95.5959 218.555 91.4633C222.664 88.9691 226.058 85.4677 228.412 81.2951C230.767 77.1225 232.002 72.4188 232 67.6352Z" fill="#00B9AA"/>
<path d="M172.437 184L172.28 122.902L165.278 111.92L167.225 110.298L172.766 117.567L172.924 103.996L143.644 69.5556L146.078 67.6209L161.212 83.6248L152.306 53.5517L155.714 53.068L159.995 67.4928L164.018 49.9099L165.479 50.5216L162.314 71.0066L165.121 83.6248L171.836 92.2313L194.888 40.9477H196.234L189.275 61.0628L195.389 58.4026L196.119 59.6118L188.545 65.6719L180.255 94.0522L201.975 86.5268L199.77 77.3228L201.245 76.8391L204.653 86.0431L213.931 82.6574L214.174 85.0758L181.228 104.48L180.742 184H172.437Z" fill="#405459"/>
<path d="M37.6733 63.2364H55.9259C56.0966 63.2343 56.2595 63.1647 56.3795 63.0427C56.4995 62.9207 56.5667 62.7561 56.5667 62.5846V47.4838C56.5667 46.667 56.4064 45.8581 56.095 45.1036C55.7836 44.349 55.3271 43.6635 54.7518 43.0863C54.1764 42.509 53.4934 42.0514 52.7419 41.7395C51.9903 41.4276 51.1849 41.2676 50.3718 41.2687H37.7128C37.5429 41.2687 37.3798 41.3365 37.2597 41.4572C37.1395 41.578 37.072 41.7417 37.072 41.9125V62.5767C37.0719 62.7482 37.1392 62.9127 37.2592 63.0347C37.3791 63.1567 37.5421 63.2263 37.7128 63.2284" fill="#405459"/>
<path fill-rule="evenodd" clip-rule="evenodd" d="M36.1543 40.2677C37.2734 40.2677 38.1806 41.1749 38.1806 42.294V140.974C38.1806 142.093 37.2734 143 36.1543 143C35.0351 143 34.1279 142.093 34.1279 140.974V42.294C34.1279 41.1749 35.0351 40.2677 36.1543 40.2677Z" fill="#405459"/>
<path d="M52.5476 52.8567C48.2199 51.9268 43.1009 50.2816 39.8887 47.2932V46.8243C39.864 46.7011 39.8688 46.5737 39.9026 46.4527C39.9365 46.3316 39.9984 46.2204 40.0834 46.1281C40.1683 46.0358 40.2738 45.965 40.3913 45.9216C40.5087 45.8783 40.6348 45.8635 40.759 45.8785H48.7895C49.275 45.8371 49.7638 45.8989 50.224 46.0596C50.6842 46.2204 51.1055 46.4766 51.4607 46.8117C51.8159 47.1468 52.097 47.5531 52.2856 48.0044C52.4742 48.4557 52.5662 48.9418 52.5555 49.4312L52.5476 52.8567Z" fill="#B8D7CC"/>
<path d="M52.5475 57.3073V57.7127C52.5707 57.8353 52.5649 57.9618 52.5304 58.0818C52.4959 58.2017 52.4338 58.3118 52.349 58.4032C52.2642 58.4945 52.1592 58.5645 52.0425 58.6075C51.9258 58.6505 51.8006 58.6652 51.6772 58.6505H40.7826C40.6588 58.6608 40.5343 58.6433 40.4181 58.5993C40.3018 58.5553 40.1967 58.486 40.1104 58.3963C40.0241 58.3065 39.9588 58.1986 39.919 58.0804C39.8793 57.9622 39.8662 57.8366 39.8807 57.7127V52.944C43.2827 55.0978 48.2989 56.4967 52.5396 57.355" fill="#B8D7CC"/>
<path d="M49.569 161.537C50.6254 160.245 51.6063 158.893 52.5068 157.487L52.2105 153.916L56.325 153.982L56.2509 158.735L56.5225 161.322C55.6122 161.427 54.7102 161.595 53.8234 161.826C53.5025 162.025 51.0338 163.819 50.4742 163.877C49.9146 163.934 46.7794 163.877 46.7794 163.877" fill="#62584F"/>
<path d="M61.5011 154.726C61.5011 154.726 61.8879 158.272 61.8056 158.685C61.7233 159.099 61.5669 161.074 61.5669 161.074L63.9369 161.512C63.9369 161.512 68.4052 162.951 69.0965 163.05C70.0026 163.151 70.9177 163.137 71.8203 163.009C71.7933 162.757 71.7267 162.511 71.6228 162.281C70.5837 161.782 69.5114 161.357 68.4135 161.008L65.5333 157.569L65.3111 153.916L61.5011 154.726Z" fill="#62584F"/>
<path d="M50.7047 108.764L50.1369 114.973L51.865 131.29L51.4371 131.547L51.8156 131.72C51.8156 131.72 51.2807 152.891 51.5358 153.387C51.7909 153.882 52.0378 154.106 52.5069 154.114L56.2675 154.015C56.6293 153.877 56.9241 153.605 57.0904 153.254C57.3291 152.692 56.9752 132.249 56.9752 132.249H57.3867L57.1151 130.828L58.3165 113.369L58.6868 113.319L60.5219 130.522L60.2915 131.084C60.2915 131.084 60.5548 153.511 60.8099 154.122C60.8562 154.289 60.9533 154.437 61.0877 154.545C61.222 154.653 61.3868 154.716 61.5588 154.726L65.3688 153.899C65.6798 153.715 65.958 153.481 66.1917 153.205C66.5538 152.767 65.9037 131.034 65.9037 131.034L66.3892 130.654L65.8296 130.166L67.2121 114.601L67.459 107.987L50.7047 108.773" fill="#88857C"/>
<path d="M67.5576 119.378C68.5204 119.941 70.7423 119.825 71.5652 118.998C72.5197 118.056 75.367 114.162 75.0625 109.773C74.8681 106.804 73.5488 104.024 71.3759 102.002L69.5244 103.218L67.4095 104.681C67.4095 104.681 64.9408 117.907 67.5576 119.42" fill="#4C4C4C"/>
<path d="M72.1988 119.378C72.0342 119.635 68.4546 106.838 67.5988 104.648C67.5988 104.648 69.0883 104.557 72.0425 102.374C72.0425 102.374 75.079 105.392 76.4861 112.757C76.4861 112.757 73.6636 117.196 72.1988 119.37" fill="#5C5B5B"/>
<path d="M61.4594 78.3614L55.5272 78.4644L55.6889 87.8618L61.6211 87.7589L61.4594 78.3614Z" fill="#AD9771"/>
<path d="M63.007 75.2938C63.0729 78.9723 60.2421 81.5432 58.7033 81.5845C57.1644 81.6258 54.3254 79.1046 54.2678 75.4426C54.2102 71.7805 55.9136 68.8294 58.4729 68.7468C61.0321 68.6641 62.9412 71.6152 63.007 75.2938Z" fill="#AD9771"/>
<path d="M55.5926 81.1381L50.252 84.9324C50.252 84.9324 51.3218 112.121 51.4617 112.121L64.6281 111.939L67.031 85.1391L61.6657 81.3365C61.6657 81.3365 61.2048 86.4865 58.6127 86.627C56.8105 86.7179 55.5021 84.5191 55.6256 81.1712" fill="#CCE1DC"/>
<path d="M55.6091 81.849L48.6968 84.4446L50.2521 84.9323C50.2521 84.9323 48.9354 94.852 49.1411 96.0754C49.1411 96.0754 49.7419 100.779 49.7172 101.763C49.6925 102.746 48.0302 108.591 49.1082 112.104L56.5966 112.302C56.5966 112.302 55.6256 83.0558 55.6091 81.849Z" fill="#729E95"/>
<path d="M57.8803 95.3893L55.7408 88.0653C55.7408 88.0653 55.9465 107.963 56.6213 112.459L57.8803 95.3893Z" fill="#729E95"/>
<path d="M59.954 112.683L66.8088 112.947C66.8088 112.947 67.031 110.839 67.2614 109.45C68.5451 101.73 67.4013 83.99 67.4013 83.99L61.5011 81.7167L59.9293 112.683" fill="#729E95"/>
<path d="M55.8478 88.148C55.8478 88.148 50.0381 84.0975 50.0299 83.4114C50.0216 82.7253 52.1694 80.2949 55.5598 80.2371C55.5598 80.2371 55.8972 87.2139 55.8478 88.148Z" fill="#729E95"/>
<path d="M57.7076 68.4737C57.7076 68.4737 56.2593 69.4574 59.6661 71.5158C61.0653 72.5209 62.212 73.8399 63.0153 75.3679L63.0976 76.6161C63.4312 76.3266 63.6908 75.9609 63.8546 75.5498C64.2554 74.4199 64.2915 73.1919 63.9576 72.0402C63.6237 70.8886 62.9369 69.872 61.9949 69.135C59.5262 67.1676 57.7076 68.4985 57.7076 68.4985" fill="#5C473B"/>
<path d="M54.3089 75.3351C54.2837 74.239 54.5691 73.1582 55.1318 72.2187C56.1275 70.5654 58.5139 70.2926 58.5139 70.2926L57.9626 68.3666C57.9626 68.3666 56.3168 67.482 54.3171 69.8958C52.8277 71.7227 52.5808 74.8557 53.7987 76.0378L54.3089 75.3351Z" fill="#5C473B"/>
<path d="M50.2521 84.9324C49.7646 84.6833 49.2388 84.5184 48.6968 84.4447C48.2771 84.4943 43.603 95.7283 42.7884 97.6709C42.0971 99.3242 42.6978 100.019 43.9733 101.093C44.7962 101.804 49.5608 106.962 53.0746 105.02C53.0746 105.02 52.8524 103.805 52.7455 102.97C52.4613 101.806 51.8925 100.733 51.0907 99.8466C50.2888 98.9603 49.2792 98.2891 48.1537 97.8941C48.1537 97.8941 49.4209 96.1582 49.4374 95.0422L50.2521 84.9324Z" fill="#729E95"/>
<path d="M53.8975 76.765C53.8975 76.765 51.9802 78.8233 51.9473 79.931C51.9143 81.0387 53.7906 81.9315 56.465 80.9313L56.4074 79.9641C56.4074 79.9641 54.7616 78.5919 54.5394 77.6495C54.3685 77.5661 54.2206 77.4419 54.1087 77.2877C53.9968 77.1334 53.9243 76.954 53.8975 76.765Z" fill="#5C473B"/>
<path d="M65.8624 84.6845C66.2996 84.3478 66.7967 84.0981 67.3271 83.9487C67.7468 83.9487 72.4456 93.8684 73.0874 95.1001C73.5574 95.9896 73.8079 96.9794 73.8179 97.9863C73.8279 98.9932 73.5972 99.9879 73.145 100.887C72.5855 101.854 69.5407 105.954 64.9983 105.64C64.9983 105.64 63.7804 102.474 63.8216 101.639C64.9871 99.6933 66.7071 98.144 68.759 97.1915C68.2102 96.2438 67.5854 95.3425 66.891 94.4967L65.8624 84.6845Z" fill="#729E95"/>
<path d="M61.1061 88.3547C61.1061 88.3547 65.5333 85.9987 65.8707 83.3948C66.0435 82.0226 63.1881 79.9312 61.46 80.0221C61.46 80.0221 61.3777 81.353 61.3366 81.7911C61.1308 84.2049 61.1061 88.4043 61.1061 88.4043" fill="#729E95"/>
<path d="M62.6039 77.7735C62.6039 77.7735 65.2454 78.6828 63.2211 81.1462C61.7152 82.9731 63.361 85.1637 63.361 85.1637C63.361 85.1637 60.127 83.9733 61.3696 79.9724C61.8691 79.2929 62.2836 78.5544 62.6039 77.7735Z" fill="#5C473B"/>
<path d="M54.4159 75.087C54.4159 75.087 53.8234 74.2603 53.593 74.4257C53.3626 74.591 53.7411 77.0957 54.5311 77.5008C54.4001 76.7033 54.3532 75.8943 54.3912 75.087" fill="#AD9771"/>
<path d="M62.6202 74.9631C62.6202 74.9631 63.1797 74.1365 63.3937 74.2687C63.6077 74.401 63.3279 76.947 62.5708 77.3769C62.674 76.5766 62.696 75.7679 62.6366 74.9631" fill="#AD9771"/>
<path d="M57.9626 68.3664C57.9626 68.3664 56.9586 68.8789 56.9586 69.6725C57.027 70.4789 57.3679 71.2376 57.9248 71.8226C58.4816 72.4075 59.2209 72.7835 60.0198 72.8881L59.6413 71.9871C60.4657 73.2039 61.4358 74.3144 62.5297 75.2936L62.3239 71.6895L57.9626 68.3664Z" fill="#5C473B"/>
<g clip-path="url(#clip0_1:1282)">
<path d="M138.811 172.385L139.014 174.004L136.886 174.513L136.591 172.385H138.811Z" fill="#F5CDB0"/>
<path d="M141.068 172.913L141.694 175.54L143.536 174.587V172.987L141.068 172.913Z" fill="#F5CDB0"/>
<path d="M138.811 151.947V159.182L139.511 159.635L139.161 160.089L139.511 172.385H134.832V160.218L134.068 158.988L133.672 151.281L138.811 151.947Z" fill="#D9D6C7"/>
<path d="M139.281 151.558L139.474 158.96L139.796 159.672L140.432 172.811C141.958 173.026 143.497 173.131 145.037 173.125L143.757 159.09L144.945 150.54C144.945 150.54 140.616 151.308 139.271 151.53" fill="#D9D6C7"/>
<path d="M140.469 176.632L139.548 175.087V173.449L136.628 174.189L137.052 176.04L136.628 178.482C136.628 178.482 135.145 178.048 134.952 178.196C134.823 178.801 134.907 179.432 135.191 179.981C135.191 179.981 138.645 180.509 138.875 180.314C139.1 179.51 139.248 178.686 139.318 177.853C139.757 177.496 140.167 177.103 140.543 176.678" fill="#62584F"/>
<path d="M143.794 173.791L140.681 174.717L141.454 176.114L140.874 178.889C140.874 178.889 139.953 178.603 139.815 178.695C139.649 179.098 139.649 179.551 139.815 179.953C139.815 179.953 142.32 180.666 143.177 180.333L143.997 177.733C144.418 177.445 144.786 177.085 145.083 176.669L144.043 175.003L143.794 173.791Z" fill="#62584F"/>
<path d="M139.474 127.4L139.142 126.54L134.298 127.872L134.454 129.158C134.454 129.158 136.425 130.722 137.623 130.278C138.82 129.834 139.465 127.4 139.465 127.4" fill="#F5CDB0"/>
<path d="M150.425 147.672L150.223 149.643C150.407 149.791 150.932 148.921 151.144 148.718C151.356 148.514 151.936 149.153 151.936 149.153C151.936 149.153 151.015 150.587 151.171 150.688C151.328 150.79 153.013 149.264 153.013 148.653L151.908 146.571L150.425 147.672Z" fill="#F5CDB0"/>
<path d="M133.911 128.992C133.911 128.992 133.294 151.197 133.478 152.326C133.478 152.326 139.879 154.639 145.811 152.002L141.592 128.002L139.281 127.511C139.281 127.511 137.899 129.168 136.379 129.168C134.362 129.168 134.454 128.612 134.454 128.612C134.454 128.612 134.289 128.742 133.911 128.992Z" fill="#D9D6C7"/>
<path d="M136.149 149.347L135.504 133.183C135.504 133.183 133.552 130.408 131.489 129.899L128.339 133.313L126.165 128.992L125.649 129.223V128.298L122.702 129.973L122.96 130.62L122.315 131.166C122.315 131.166 125.225 137.828 127.114 137.828C127.445 137.828 131.968 135.052 131.968 135.052L130.816 149.921C130.816 149.921 134.344 150.568 136.149 149.282" fill="#D0B399"/>
<path d="M140.837 149.56L141.298 134.404L143.554 129.029C143.554 129.029 145.222 129.602 145.479 130.056C145.479 130.056 152.019 144.795 152.019 145.119C152.019 145.442 151.31 145.701 151.31 145.701L152.019 146.627C151.7 147.054 151.281 147.396 150.799 147.622C150.317 147.848 149.787 147.951 149.256 147.922L148.814 146.886L147.975 147.08L144.052 135.108L146.428 148.986C146.428 148.986 144.724 151.049 140.837 149.624" fill="#D0B399"/>
<path d="M125.078 128.64L123.991 126.864L122.324 128.011L123.153 129.732L125.078 128.64Z" fill="#F5CDB0"/>
<path d="M134.022 127.946C134.022 127.946 131.258 129.38 131.258 129.797C131.258 130.213 134.593 131.555 135.532 133.165C135.496 132.705 135.416 132.249 135.293 131.805C134.945 130.673 134.705 129.512 134.574 128.335C134.361 128.279 134.174 128.147 134.049 127.965" fill="#D0B399"/>
<path d="M139.281 126.965C139.281 126.965 143.37 127.974 143.886 128.039C144.029 128.49 144.029 128.975 143.886 129.427C143.628 130 141.289 133.988 141.243 134.793C141.243 134.793 140.948 133.609 140.782 132.831C140.616 132.054 140.782 129.399 139.226 127.521L139.281 126.965Z" fill="#D0B399"/>
<path d="M133.589 121.747C133.408 121.401 133.145 121.105 132.824 120.884C132.503 120.663 132.133 120.524 131.747 120.48C131.29 120.484 130.838 120.583 130.421 120.771C130.005 120.959 129.631 121.231 129.324 121.571L129.232 121.849L130.153 121.266L129.131 122.191C129.131 122.779 129.273 123.357 129.544 123.877C129.815 124.398 130.207 124.845 130.687 125.18C130.687 125.18 131.12 121.96 133.073 122.062L133.589 121.747Z" fill="#5C473B"/>
<path d="M141.749 123.209C141.69 123.044 141.585 122.9 141.447 122.793C141.309 122.685 141.143 122.62 140.97 122.603C140.796 122.587 140.621 122.62 140.466 122.7C140.31 122.779 140.18 122.901 140.091 123.052C140.091 123.052 138.323 121.146 138.323 120.054L133.515 119.379C133.009 120.353 132.593 121.372 132.272 122.423C132.223 122.833 132.287 123.249 132.456 123.626C132.281 123.945 132.173 124.297 132.14 124.66C132.106 125.023 132.148 125.389 132.262 125.735C132.526 126.483 132.992 127.143 133.607 127.641C133.831 127.908 134.115 128.118 134.435 128.255C134.755 128.391 135.102 128.45 135.449 128.427C136.763 128.294 138.026 127.846 139.133 127.123C139.747 126.569 140.208 125.864 140.469 125.078C140.647 125.141 140.843 125.132 141.015 125.053C141.187 124.974 141.322 124.83 141.39 124.653C141.491 124.347 141.952 123.727 141.795 123.209" fill="#F5CDB0"/>
<path d="M137.807 120.146C137.72 120.605 137.497 121.026 137.169 121.356C136.841 121.686 136.421 121.909 135.965 121.997C134.523 122.108 133.074 121.877 131.737 121.321C131.737 121.321 132.272 117.935 134.593 116.973C136.914 116.011 137.964 116.806 137.964 116.806C138.449 116.695 138.952 116.691 139.439 116.795C139.926 116.899 140.384 117.108 140.782 117.408C142.182 118.444 143.158 119.406 143.251 121.442C143.366 122.478 143.1 123.52 142.503 124.372C141.906 125.225 141.018 125.828 140.008 126.068L140.478 125.069C140.67 125.075 140.859 125.025 141.022 124.924C141.186 124.824 141.317 124.678 141.399 124.504C141.666 123.792 141.51 123.283 140.92 123.32C140.728 123.346 140.544 123.417 140.384 123.528C140.224 123.639 140.092 123.787 139.999 123.958C139.999 123.958 137.559 122.321 137.798 120.137" fill="#5C473B"/>
<path d="M143.241 121.285C143.232 121.799 143.167 122.311 143.048 122.811C143.048 122.811 145.332 124.856 145.323 126.161C145.505 125.691 145.528 125.174 145.387 124.69L145.774 125.939C146.413 125.316 146.973 124.617 147.441 123.857L146.29 122.932L147.856 123.774C148.055 122.962 148.055 122.114 147.856 121.303C147.486 120.895 147.022 120.584 146.505 120.397C145.988 120.21 145.434 120.153 144.89 120.23C143.508 120.443 143.269 121.303 143.269 121.303" fill="#5C473B"/>
<path d="M134.473 125.902H134.279C134.097 125.902 133.92 125.843 133.773 125.735C133.773 125.735 134.114 126.707 134.454 126.661C134.961 126.596 135.311 125.809 135.311 125.809C135.036 125.871 134.755 125.899 134.473 125.892" fill="white"/>
<path d="M122.112 125.957C122.112 125.957 121.68 127.077 121.394 127.178C121.108 127.28 120.289 126.309 120.095 125.198C120.095 125.198 120.335 123.718 121.099 123.348C121.34 123.214 121.605 123.131 121.879 123.102C122.153 123.074 122.43 123.1 122.693 123.181C122.932 123.311 122.536 125.032 122.112 125.911" fill="#F5CDB0"/>
</g>
<g clip-path="url(#clip1_1:1282)">
<path d="M98.5906 178.343L100.239 177.767C99.4542 176.229 99.0008 174.544 98.9072 172.82L94.2519 173.321L94.6336 177.962L98.5906 178.343Z" fill="#E9BD9D"/>
<path d="M103.73 176.338L104.531 173.907L108.721 173.684L108.516 175.234L110.238 177.23L106.43 179.921L103.73 176.338Z" fill="#E9BD9D"/>
<path d="M99.2798 175.196C99.5145 175.491 99.7028 175.82 99.8384 176.171C100.094 176.787 100.269 177.432 100.36 178.092C100.4 178.667 100.4 179.244 100.36 179.819L100.472 180.394C100.472 180.394 99.1681 180.524 96.8497 182.613C96.2166 183.179 94.5035 184.943 93.3211 184.989C92.1386 185.035 88.8148 184.692 88.4982 184.358C88.1816 184.024 88.5541 182.947 88.5541 182.947L92.3341 180.664L93.7866 178.092C93.7866 178.092 93.4514 175.939 95.1832 175.818C96.9149 175.698 97.9763 178.343 97.9763 178.343L99.6708 176.737L99.2798 175.196Z" fill="#62584F"/>
<path d="M104.13 175.16C103.421 175.712 102.88 176.45 102.566 177.29C102.252 178.131 102.178 179.041 102.352 179.921L102.212 180.803C103.69 181.386 105.284 181.615 106.867 181.472C110.722 182.065 114.649 182.015 118.487 181.323C118.487 181.323 118.701 180.395 118.487 180.014C118.487 180.014 112.9 178.575 112.342 178.473L110.368 176.942L107.053 178.074L103.869 176.051L104.13 175.16Z" fill="#62584F"/>
<path d="M109.847 175.633C108.935 175.852 108.119 176.363 107.524 177.086C106.929 177.81 106.588 178.708 106.551 179.643L110.35 176.942L109.847 175.633Z" fill="#62584F"/>
<path d="M110.322 120.293L89.1498 120.478C89.1498 120.478 88.9357 144.816 88.917 145.883C88.8984 146.951 93.442 174.769 93.442 174.769C93.442 174.769 98.7862 174.482 99.7359 172.3L97.0172 146.31L97.5107 145.605L96.8031 145.002L100.146 125.555L104.67 148.362L103.162 149.29L103.711 150.367L103.274 151.583L102.343 173.99L108.758 173.656L111.132 150.636L111.579 149.411L110.322 120.293Z" fill="#35A195"/>
<path d="M98.2739 73.9565C98.2739 73.9565 98.0598 70.7449 98.097 70.3086C98.1342 69.8724 97.4266 66.0481 97.4266 66.0481C97.4266 66.0481 105.043 66.9114 105.741 67.0599C106.105 67.924 106.379 68.8228 106.56 69.7424L106.3 71.1069C107.082 71.8304 107.789 72.6295 108.413 73.4924C108.469 73.808 106.625 74.4206 106.625 74.4206C106.625 74.4206 104.186 77.5487 100.704 77.1496C99.6332 77.0289 98.2739 73.9751 98.2739 73.9751" fill="#E9BD9D"/>
<path d="M94.8203 88.7081C95.5763 86.4342 96.1461 84.1029 96.5242 81.7372C96.6266 80.809 95.9935 74.6178 95.9935 74.6178C96.4689 74.6121 96.9404 74.5306 97.39 74.3765C97.39 74.3765 98.768 77.4117 99.8946 78.1729C101.104 78.533 102.357 78.7267 103.619 78.7484L103.861 82.4055C104.507 84.9941 105.014 87.6154 105.378 90.2582C105.378 90.2582 98.9077 91.0472 94.811 88.7081" fill="#E9BD9D"/>
<path d="M93.8889 74.3645C93.0102 72.8345 92.5901 71.0853 92.6785 69.3244C92.7379 68.4706 93.0143 67.6459 93.4818 66.9282C93.9493 66.2104 94.5925 65.6231 95.3506 65.2216C96.3841 64.7483 102.687 62.8547 105.816 67.0781C105.816 67.0781 100.397 66.3541 99.8755 66.976C98.7769 68.2569 99.9593 68.8324 99.8197 70.4846C99.7297 71.7886 99.3513 73.0565 98.7117 74.1975L96.2537 75.6919L96.4213 77.8732C95.5011 76.7666 94.6551 75.6007 93.8889 74.3831" fill="#232628"/>
<path d="M106.485 74.2254C105.962 74.7101 105.348 75.0885 104.679 75.3393C103.748 75.6549 102.584 76.6481 101.541 76.4903C100.884 76.4054 100.265 76.1335 99.7578 75.7072C99.2509 75.2809 98.8778 74.7182 98.6831 74.0862L97.2121 74.2533C97.3983 75.4592 97.7329 76.6376 98.2083 77.7619C98.475 78.3449 98.8765 78.8566 99.3798 79.2552C99.8831 79.6537 100.474 79.9276 101.104 80.0546C102.747 80.344 104.425 80.3691 106.076 80.1289C106.848 79.9711 107.603 79.5627 107.64 78.718C107.677 77.8733 107.137 77.7898 107.137 77.7898C107.137 77.7898 107.91 77.0286 106.979 76.6017C106.979 76.6017 107.519 75.9983 107.398 75.5528L106.485 74.2254Z" fill="#232628"/>
<path d="M94.8198 65.8713C94.7257 65.4882 94.5116 65.1449 94.2086 64.8912C93.9056 64.6375 93.5294 64.4866 93.1346 64.4605C92.8293 64.3841 92.5105 64.3783 92.2026 64.4435C91.8947 64.5086 91.6058 64.643 91.3579 64.8364C91.1101 65.0298 90.9098 65.2771 90.7723 65.5594C90.6349 65.8417 90.5639 66.1516 90.5649 66.4654C90.4811 67.4679 91.7194 68.5539 93.358 68.3961C93.651 67.4566 94.1504 66.5941 94.8198 65.8713Z" fill="#232628"/>
<path d="M93.3765 86.6604L95.6669 122.861L107.054 123.046C107.054 123.046 108.962 107.267 108.199 105.048C107.435 102.83 106.067 87.273 106.067 87.273C106.067 87.273 99.298 92.8423 93.3765 86.6696" fill="white"/>
<path d="M97.1661 122.13L97.613 124.349C97.613 124.349 89.1683 125.75 88.8425 125.741C88.5751 124.871 88.4034 123.975 88.3304 123.068C91.2832 122.947 94.2252 122.637 97.1381 122.14" fill="#80B9A3"/>
<path d="M95.4711 82.8761C95.4711 82.8761 86.6633 85.3544 85.3971 86.9602C85.3971 86.9602 88.4789 93.2628 89.0096 96.9942C89.5403 100.726 88.0785 112.3 87.7247 116.487C87.5315 118.678 87.5097 120.882 87.6595 123.077C87.6595 123.077 95.3314 123.383 97.7056 121.926C97.7056 121.926 95.5456 97.9131 94.959 93.4484C94.959 93.4484 95.2756 84.0549 95.4711 82.8761Z" fill="#35A195"/>
<path d="M96.5701 81.2239C96.5701 81.2239 91.5704 81.3724 90.2017 83.3031C92.2011 86.9577 93.7994 90.8166 94.9687 94.8129C94.9687 94.8129 95.1642 92.9565 95.3784 90.1718C95.5832 87.6007 96.4956 83.0524 96.5143 82.5883L96.5701 81.2239Z" fill="#80B9A3"/>
<path d="M97.1843 72.8239C97.1843 72.8239 97.1843 71.8956 96.4208 71.6821C96.2544 71.6529 96.0838 71.657 95.919 71.694C95.7542 71.7311 95.5983 71.8004 95.4606 71.898C95.3229 71.9956 95.206 72.1195 95.1167 72.2625C95.0274 72.4055 94.9675 72.5648 94.9404 72.731C94.8323 73.2009 94.8349 73.6893 94.948 74.1579C95.061 74.6266 95.2816 75.0627 95.5922 75.4321C96.1864 75.8521 96.8858 76.0995 97.6126 76.1469L97.1843 72.8239Z" fill="#E9BD9D"/>
<path d="M120.116 125.184C120.116 125.184 119.008 124.256 118.859 123.736C118.859 123.736 119.25 120.952 119.25 120.608C118.745 119.574 118.16 118.581 117.5 117.638L120.116 115.642L121.978 118.882C121.978 118.882 125.088 121.351 125.433 121.499C125.433 121.499 124.939 125.574 124.893 126.085C124.846 126.595 121.978 130.262 121.829 130.336C121.68 130.41 120.954 130.512 121.15 129.491C121.345 128.47 122.081 123.393 122.081 123.393C122.081 123.393 120.219 124.21 120.135 125.184" fill="#E9BD9D"/>
<path d="M112.267 86.9606L115.191 103H116.047L115.665 103.511L121.82 116.107L121.419 117.035L121.82 117.963L119.027 120.265L118.254 119.337H116.829L112.537 113.767L112.295 103.928C112.295 103.928 109.288 92.7898 112.295 86.9978" fill="#80B9A3"/>
<path d="M112.324 104.791L112.007 94.5809C112.007 94.5809 111.868 92.7802 111.644 90.701L112.259 86.9881L110.462 84.6583C110.462 84.6583 106.375 83.1546 104.224 82.2357C104.224 82.2357 105.984 103.789 105.779 106.973C105.574 110.156 105.257 122.669 104.689 123.968C107.573 124.813 110.603 125.041 113.581 124.636L113.693 123.328L114.354 123.021L112.324 104.791Z" fill="#35A195"/>
<path d="M113.692 123.495C113.692 123.495 107.352 124.349 105.061 122.493L104.652 124.126C107.55 124.89 110.563 125.117 113.543 124.795L113.692 123.495Z" fill="#80B9A3"/>
<path d="M103.869 81.5122C103.869 81.5122 104.921 88.2511 105.303 90.4324C105.303 90.4324 104.53 84.3618 108.031 88.316C108.031 88.316 108.45 81.8742 103.869 81.5122Z" fill="#80B9A3"/>
<path d="M85.398 86.9606L81.8879 101.524L81.3013 101.831L81.9438 102.081C81.9438 102.081 88.9267 102.824 89.4387 102.508C89.4387 102.508 89.5039 97.3102 88.6753 94.5906C87.7814 91.967 86.6857 89.4161 85.398 86.9606Z" fill="#80B9A3"/>
<path d="M97.3244 96.9018C97.3244 96.9018 99.0189 94.2286 99.3913 93.8294C99.7638 93.4303 101.831 91.973 101.831 91.973C101.831 91.973 102.315 92.8084 101.831 93.2911C101.347 93.7737 100.471 94.507 100.471 94.507L98.6093 97.83L97.3244 96.9018Z" fill="#E9BD9D"/>
<path d="M105.853 89.6766L103.06 88.6157C102.58 88.4331 102.042 88.6735 101.858 89.1525L99.6869 94.8338C99.5038 95.3128 99.7449 95.8492 100.225 96.0317L103.018 97.0927C103.499 97.2752 104.037 97.0349 104.22 96.5558L106.391 90.8745C106.574 90.3955 106.333 89.8592 105.853 89.6766Z" fill="#405459"/>
<path d="M100.071 94.9803L103.795 93.7922C104.695 93.8474 105.582 94.0286 106.43 94.3306C107.138 94.7205 106.328 98.0435 105.769 98.5168C105.211 98.9902 100.49 99.6307 100.49 99.6307L95.9467 101.589L95.8443 97.9785L100.071 94.9803Z" fill="#E9BD9D"/>
<path d="M96.4775 97.4309L95.7606 97.9135L94.2523 97.338L89.2339 98.6468L82.8097 101.209L82.1766 101.821L81.8879 102.109C81.8879 102.109 79.7837 106.119 84.6811 107.929L97.1293 103.158L97.4738 101.821L98.5445 101.144L96.4775 97.4309Z" fill="#80B9A3"/>
</g>
<path d="M46.595 103.883L46.4084 100.425L40.5958 104.983C40.5958 104.983 40.7898 102.871 40.7451 101.644L37.9992 102.559L36.5666 105.333L36.1636 110.679C36.1871 111.294 36.395 111.887 36.7606 112.382C36.7606 112.382 40.6779 111.765 42.5433 109.556C44.0014 107.744 45.3541 105.849 46.595 103.883Z" fill="#AD9771"/>
<path d="M44.6549 96.3944C44.6549 96.3944 45.9756 95.7846 45.9234 97.257L46.6695 100.328L45.2369 97.1901L44.6549 96.3944Z" fill="#AD9771"/>
<path d="M45.319 92.6095L46.5128 103.63H50.7809L51.5867 92.5128L45.319 92.6095Z" fill="#00232C"/>
<path d="M24.1356 78.384C24.2251 78.0642 30.2615 72.0038 30.2615 72.0038C30.2615 72.0038 34.2013 72.7474 35.0295 74.9782C35.7757 76.9934 35.5145 77.6032 35.5145 79.4771C35.5145 79.4771 35.8652 80.1464 35.5145 81.9385C35.0444 84.5263 33.7834 87.0471 32.8507 87.4115C32.1045 87.709 25.6726 86.1027 25.113 85.1212C24.5534 84.1396 22.9492 82.4739 24.1057 78.3691" fill="#AD9771"/>
<path d="M19.0766 91.9327C20.5466 91.5881 22.0452 91.3791 23.5536 91.3081C23.9253 91.1613 24.262 90.9385 24.5422 90.6542C24.8223 90.3699 25.0397 90.0303 25.1802 89.6573C25.807 88.2741 25.7324 84.4519 25.7324 84.4519L31.5748 86.8018V91.2635C31.5748 91.2635 35.8204 91.4791 36.7158 91.8807C36.7158 91.8807 35.4996 96.5729 29.1572 97.0414C24.531 97.3834 19.0692 91.9104 19.0692 91.9104" fill="#AD9771"/>
<path d="M23.643 81.7674C22.8951 81.1439 22.2985 80.3597 21.8979 79.4737C21.4973 78.5877 21.3031 77.6228 21.3299 76.6513C21.5314 73.2158 25.2398 70.7916 29.2765 71.037C29.2765 71.037 34.7085 70.1893 35.4398 76.6067C35.4398 76.6067 35.0965 73.1043 31.4777 73.2902C31.4777 73.2902 31.3434 78.4955 24.7622 79.8489L23.643 81.7674Z" fill="#5C473B"/>
<path d="M24.9265 90.1556C24.9265 90.1556 21.9419 89.0327 22.0165 85.9467C22.0911 82.8607 23.673 81.7229 23.673 81.7229L24.3072 82.117C24.6735 83.1183 25.2338 84.038 25.9562 84.8238C25.9562 84.8238 26.0532 88.4453 24.9265 90.1556Z" fill="#5C473B"/>
<path d="M51.1168 99.2648C50.8763 99.1214 50.6767 98.919 50.5369 98.6768C50.3971 98.4347 50.3219 98.161 50.3184 97.8817C50.1881 96.7423 50.3287 95.5883 50.7288 94.5131C51.14 94.7442 51.4881 95.0723 51.7425 95.4686C51.997 95.8649 52.1501 96.3174 52.1884 96.7863C52.2267 97.2553 52.149 97.7264 51.9622 98.1585C51.7754 98.5906 51.4851 98.9705 51.1168 99.2648Z" fill="#AD9771"/>
<path d="M15.2339 103.362C15.2339 103.362 15.495 108.976 15.5547 110.389C15.5547 110.389 14.443 115.595 16.7934 127.366L18.8005 127.143C18.8005 127.143 19.4497 114.501 19.196 110.835L20.1212 105.928L15.2339 103.362Z" fill="#AD9771"/>
<path d="M18.6065 126.095L19.3527 128.244L18.7856 129.865C18.7856 129.865 20.0988 133.984 19.5989 134.483C19.099 134.981 15.689 131.456 15.689 131.456L16.6889 126.466L18.6065 126.095Z" fill="#AD9771"/>
<path fill-rule="evenodd" clip-rule="evenodd" d="M40.5959 104.641V104.983H40.5735C38.1634 105.519 36.2831 108.887 36.2831 108.887L36.4547 106.455C37.6112 104.686 40.5959 104.641 40.5959 104.641ZM39.9168 111.066L40.6041 119.006C39.6955 118.941 38.7839 118.919 37.8724 118.941L39.8721 133.345L42.1105 132.043L43.2671 119.32C42.7361 119.232 42.2031 119.159 41.6685 119.101L41.3867 110.174L39.9168 111.066Z" fill="#00232C"/>
<path d="M18.7109 125.537C18.7109 125.537 19.9943 137.115 21.5389 141.004C22.4945 143.572 22.9577 146.296 22.9044 149.035C22.9044 149.035 21.897 155.519 21.9866 158.397C22.0761 161.58 23.8147 168.265 23.8147 168.265H28.1797L28.5528 149.355L29.0453 148.068L29.978 128.325C29.978 128.325 29.575 132.98 34.6116 145.191C34.6116 145.191 33.0745 150.322 32.6492 152.775C32.2239 155.229 32.306 162.294 32.3209 163.409L36.5889 163.922L40.163 147.198L41.0435 145.243C41.0435 145.243 41.6404 131.501 39.3348 124.778L18.7109 125.537Z" fill="#D0B399"/>
<path d="M19.0468 91.8881C19.0468 91.8881 17.3082 92.2599 16.9053 93.3084C16.0373 96.6059 15.4778 99.9766 15.2339 103.377C15.8227 104.122 16.562 104.735 17.404 105.177C18.2459 105.619 19.1717 105.88 20.1212 105.942L21.0017 109.571C21.0017 109.571 18.2484 118.071 18.1066 125.983C18.1066 125.983 32.1941 126.675 39.5438 124.912C39.5438 124.912 38.0515 115.468 36.1711 110.746L36.5666 105.348C36.5666 105.348 37.9843 103.637 37.9992 102.574C39.0257 102.358 40.0263 102.034 40.9839 101.607C40.9839 101.607 39.8945 93.9033 36.7308 91.9402C36.7308 91.9402 34.8355 95.9854 28.8513 95.978C27.0246 95.9917 25.214 95.6364 23.5289 94.9335C21.8437 94.2305 20.319 93.1946 19.0468 91.8881Z" fill="#CCE1DC"/>
<path fill-rule="evenodd" clip-rule="evenodd" d="M31.3883 173.961C32.6418 171.611 32.3433 163.432 32.3433 163.432L36.589 163.9C36.589 163.9 35.0967 171.582 35.0967 172.526C35.1524 173.26 35.3158 173.981 35.5817 174.668C34.0147 174.742 32.0598 176.452 32.0598 176.452L31.3883 173.961ZM28.2767 176.393L28.1797 168.28L23.8147 168.265C24.4924 171.148 24.8601 174.094 24.9115 177.055C24.8618 177.649 24.7339 178.234 24.531 178.795C24.531 178.795 25.21 179.501 25.7696 179.501C27.0115 179.263 28.2395 178.957 29.4482 178.586L28.2767 176.393Z" fill="#AD9771"/>
<path fill-rule="evenodd" clip-rule="evenodd" d="M30.4107 176.237L31.3882 173.82L31.433 173.761C31.5747 175.211 32.2164 175.337 32.2164 175.337C32.2164 175.337 33.5073 174.608 33.9027 174.46C34.4508 174.339 35.0186 174.339 35.5667 174.46C35.6465 175.178 35.7914 175.887 35.9995 176.579L37.6112 179.033C38.2258 179.27 38.8136 179.572 39.3646 179.933C39.8049 181.041 38.0514 180.929 38.0514 180.929C36.3726 180.89 34.7055 180.64 33.0894 180.185C32.5269 179.372 32.0279 178.517 31.5971 177.627L30.4107 176.237ZM24.7474 178.274C24.3967 179.23 24.1905 180.232 24.1356 181.249C24.4713 181.338 24.9596 181.566 25.377 181.762C25.6924 181.91 25.9673 182.039 26.1054 182.074C26.2184 182.103 26.6023 182.35 27.081 182.658C27.9621 183.226 29.1645 184 29.59 184C30.5301 183.978 34.9549 183.427 34.9549 183.427C34.9549 183.427 35.2235 182.468 34.731 182.319C33.2719 181.762 31.8883 181.025 30.6122 180.126L29.0528 178.096C28.2573 178.039 27.3747 178.524 26.7539 178.866C26.3964 179.062 26.1257 179.211 26.0084 179.181C25.5533 178.93 25.13 178.626 24.7474 178.274Z" fill="#58585B"/>
<path fill-rule="evenodd" clip-rule="evenodd" d="M33.6864 82.8308L32.097 83.448L32.0746 83.4703C32.1183 83.4738 32.162 83.4771 32.2056 83.4802C32.7417 83.8291 33.3409 84.0708 33.97 84.1916C34.4997 84.1247 34.3132 83.5075 34.3132 83.5075L34.3131 83.5075C34.44 83.3885 34.3803 82.7639 34.3803 82.7639L33.6864 82.8308Z" fill="white" fill-opacity="0.35"/>
<path d="M19.5915 136.282L17.4202 135.412C17.3182 135.371 17.2254 135.311 17.1471 135.234C17.0689 135.157 17.0068 135.065 16.9644 134.964C16.9221 134.863 16.9003 134.755 16.9004 134.645C16.9005 134.536 16.9225 134.427 16.965 134.326L19.4796 128.125C19.5205 128.023 19.5813 127.931 19.6585 127.853C19.7356 127.775 19.8275 127.713 19.9289 127.67C20.0303 127.628 20.1391 127.607 20.249 127.607C20.3589 127.607 20.4677 127.629 20.569 127.671L22.7254 128.534C22.9306 128.619 23.094 128.782 23.1805 128.986C23.267 129.19 23.2697 129.42 23.188 129.627L20.666 135.821C20.6249 135.923 20.5642 136.015 20.4872 136.094C20.4102 136.172 20.3185 136.234 20.2173 136.277C20.1161 136.32 20.0074 136.342 19.8974 136.343C19.7875 136.344 19.6785 136.323 19.5766 136.282" fill="#00232C"/>
<path fill-rule="evenodd" clip-rule="evenodd" d="M24.3562 82.0633C24.3563 82.0632 24.3563 82.0632 24.4937 82.0724C24.6312 82.0816 24.6312 82.0817 24.6312 82.0818L24.6284 82.1232L24.6204 82.2459C24.6134 82.3541 24.6033 82.5141 24.5905 82.7215C24.565 83.1363 24.529 83.7407 24.4874 84.4987C24.4042 86.0147 24.2984 88.145 24.2079 90.6021C24.027 95.5172 23.9078 101.737 24.1538 106.962C24.1661 107.217 24.1755 107.483 24.1819 107.757C24.2644 107.608 24.3784 107.399 24.5217 107.126C24.8465 106.509 25.3221 105.57 25.9247 104.283C27.1298 101.711 28.8425 97.7492 30.8706 92.1983C31.4198 90.65 31.7094 89.0222 31.728 87.3802L32.0035 87.3833C31.9846 89.0559 31.6895 90.714 31.1301 92.2911L31.1296 92.2923C29.0988 97.8507 27.3829 101.82 26.1742 104.4C25.5699 105.69 25.0923 106.633 24.7656 107.254C24.6022 107.565 24.4765 107.795 24.3915 107.948C24.3491 108.024 24.3167 108.081 24.295 108.119L24.2703 108.162L24.264 108.172L24.2624 108.175L24.2618 108.176C24.2618 108.176 24.2617 108.176 24.1888 108.133C24.2227 110.643 24.0258 113.844 23.609 117.03C23.1291 120.699 22.356 124.36 21.3016 126.928L21.313 126.932L20.9691 127.836L20.6901 127.73L21.0339 126.827L21.0438 126.83C22.0861 124.295 22.8565 120.658 23.3358 116.994C23.8191 113.3 24.0049 109.59 23.8786 106.975C23.6321 101.738 23.7516 95.5094 23.9326 90.592C24.0231 88.1329 24.129 86.0009 24.2123 84.4836C24.2539 83.7249 24.2899 83.1199 24.3155 82.7046C24.3283 82.4969 24.3385 82.3366 24.3455 82.2282L24.3535 82.1051L24.3562 82.0633Z" fill="white"/>
<defs>
<clipPath id="clip0_1:1282">
<rect width="32.9182" height="63.9242" fill="white" transform="translate(120.095 116.497)"/>
</clipPath>
<clipPath id="clip1_1:1282">
<rect width="44.7706" height="122" fill="white" transform="translate(81.1724 63)"/>
</clipPath>
</defs>
</svg>
