<svg width="240" height="192" viewBox="0 0 240 192" fill="none" xmlns="http://www.w3.org/2000/svg">
<path opacity="0.6" d="M218.625 59.5L173.255 59.4906C169.492 59.2984 166.5 56.1861 166.5 52.375C166.5 48.44 169.69 45.25 173.625 45.25C175.27 45.25 176.784 45.8073 177.99 46.7433C177.833 46.0205 177.75 45.2699 177.75 44.5C177.75 38.701 182.451 34 188.25 34C191.991 34 195.275 35.9567 197.135 38.9025C199.053 36.3792 202.086 34.75 205.5 34.75C210.95 34.75 215.43 38.9024 215.95 44.216C216.785 43.9144 217.686 43.75 218.625 43.75C222.974 43.75 226.5 47.2758 226.5 51.625C226.5 55.9742 222.974 59.5 218.625 59.5Z" fill="white"/>
<path opacity="0.6" d="M115.401 52.75L50.0153 52.7364C44.5916 52.4594 40.2794 47.9741 40.2794 42.4816C40.2794 36.8105 44.8766 32.2132 50.5478 32.2132C52.9183 32.2132 55.1009 33.0164 56.8389 34.3654C56.6122 33.3237 56.4927 32.242 56.4927 31.1324C56.4927 22.775 63.2677 16 71.625 16C77.0168 16 81.7498 18.8199 84.4301 23.0653C87.1938 19.4288 91.5654 17.0809 96.4853 17.0809C104.34 17.0809 110.797 23.0652 111.545 30.7231C112.749 30.2884 114.047 30.0515 115.401 30.0515C121.669 30.0515 126.75 35.1327 126.75 41.4007C126.75 47.6688 121.669 52.75 115.401 52.75Z" fill="white"/>
<path opacity="0.8" d="M58.8516 65.75L21.9888 65.7423C18.9311 65.5839 16.5 63.0209 16.5 59.8824C16.5 56.6417 19.0918 54.0147 22.2891 54.0147C23.6255 54.0147 24.856 54.4736 25.8358 55.2445C25.708 54.6493 25.6406 54.0311 25.6406 53.3971C25.6406 48.6214 29.4602 44.75 34.1719 44.75C37.2116 44.75 39.88 46.3614 41.3911 48.7873C42.9492 46.7093 45.4138 45.3676 48.1875 45.3676C52.6157 45.3676 56.2559 48.7872 56.6778 53.1632C57.3564 52.9148 58.0885 52.7794 58.8516 52.7794C62.3854 52.7794 65.25 55.683 65.25 59.2647C65.25 62.8464 62.3854 65.75 58.8516 65.75Z" fill="#80C0D1"/>
<path fill-rule="evenodd" clip-rule="evenodd" d="M145.373 90.7975C164.923 90.7975 180.771 74.9489 180.771 55.3987C180.771 35.8486 164.923 20 145.373 20C133.375 20 122.772 25.9686 116.37 35.0984C115.717 35.0626 115.06 35.0445 114.399 35.0445C94.8486 35.0445 79 50.8931 79 70.4432C79 89.9934 94.8486 105.842 114.399 105.842C126.396 105.842 137 99.8734 143.402 90.7436C144.054 90.7794 144.711 90.7975 145.373 90.7975Z" fill="#33AF85" fill-opacity="0.25"/>
<path d="M120.767 77.3198C119.023 73.4284 118.054 69.1147 118.054 64.5745C118.054 47.342 132.023 33.3723 149.256 33.3723C164.301 33.3723 176.859 44.0205 179.805 58.1917C185.363 53.0739 192.784 49.9485 200.934 49.9485C218.167 49.9485 232.137 63.9182 232.137 81.1507C232.137 96.7341 220.713 109.649 205.783 111.978C205.801 112.426 205.81 112.876 205.81 113.328C205.81 131.638 190.967 146.48 172.657 146.48C162.032 146.48 152.574 141.482 146.507 133.708C140.498 139.788 132.153 143.555 122.929 143.555C104.619 143.555 89.7766 128.712 89.7766 110.403C89.7766 92.8196 103.465 78.4336 120.767 77.3198Z" fill="#00B9AA"/>
<path fill-rule="evenodd" clip-rule="evenodd" d="M145.281 118.955L101.475 52.5822L102.36 51.2547L145.281 108.778V118.955ZM145.078 149.718L109.882 113.203L110.767 111.433L145.145 140.224L145.724 57.4495L151.033 54.7946V93.2397L172.715 70.724L174.485 72.494L151.033 101.809V126.315L197.937 89.3084L199.264 77.3613H201.034L201.919 85.7685L208.114 81.3437L210.326 83.9986L203.689 89.3084L217.849 86.6535L218.734 89.3084L195.724 96.3881L151.033 135.063V184H144.839L145.078 149.718Z" fill="#405459"/>
<path d="M181.845 82.9917L180.607 82.7166C180.199 82.6258 179.772 82.7263 179.449 82.9895L169.853 90.7956C169.502 91.0811 169.315 91.5227 169.355 91.9753L169.451 93.074L150.979 108.1C150.862 108.196 150.844 108.369 150.94 108.487L157.714 116.814C158.05 117.227 158.655 117.291 159.066 116.957L161.173 115.242C160.964 115.105 160.771 114.934 160.605 114.729C159.742 113.667 159.897 112.111 160.953 111.253C162.008 110.394 163.563 110.559 164.427 111.62C164.593 111.825 164.722 112.048 164.813 112.281L185.696 95.2933C185.487 95.1562 185.295 94.9848 185.128 94.78C184.265 93.7187 184.42 92.1623 185.476 91.3038C186.531 90.4453 188.086 90.6098 188.95 91.6711C189.116 91.8759 189.245 92.0991 189.336 92.3322L191.551 90.5311C191.961 90.1972 192.021 89.592 191.686 89.1793L184.912 80.8519C184.816 80.734 184.643 80.7157 184.526 80.8111L181.845 82.9917Z" fill="white"/>
<path d="M151.5 108.741C151.383 108.836 151.365 109.009 151.461 109.127L154.588 112.971C154.684 113.088 154.857 113.107 154.974 113.011L182.86 90.3267C183.901 89.4801 186.765 89.8117 187.912 88.8779L184.243 82.4602C184.147 82.3423 183.974 82.324 183.857 82.4194L151.5 108.741Z" fill="#003441"/>
<path d="M183.097 83.3923C183.001 83.2744 183.019 83.1015 183.136 83.0061L185.259 81.2789L190.036 87.1508L187.912 88.8779C187.795 88.9733 187.622 88.9551 187.526 88.8371L183.097 83.3923Z" fill="#003441"/>
<ellipse cx="162.516" cy="113.174" rx="2.05274" ry="2.06435" transform="rotate(-39.1274 162.516 113.174)" fill="#003441"/>
<ellipse cx="187.039" cy="93.2255" rx="2.05274" ry="2.06435" transform="rotate(-39.1274 187.039 93.2255)" fill="#003441"/>
<path d="M146.943 86.5259C146.943 86.5259 129.214 62.8559 126.94 59.8213C124.667 56.7866 117.998 50.4128 112.691 49.6512C111.477 50.5604 114.507 55.8704 114.507 55.8704L140.874 91.072L143.302 89.2535L141.483 86.8258L143.911 85.0074L145.73 87.4351L146.943 86.5259Z" fill="white"/>
<path d="M142.088 90.1628C142.088 90.1628 119.812 60.4235 117.084 56.782C114.357 53.1405 112.691 49.6512 112.691 49.6512C112.691 49.6512 112.691 49.6512 112.084 50.1058C111.477 50.5605 109.047 56.1704 109.047 56.1704C109.047 56.1704 112.988 58.9027 112.684 61.0258C112.379 63.1489 116.321 65.8812 116.321 65.8812C116.321 65.8812 120.262 68.6135 119.957 70.7366C119.653 72.8596 123.594 75.592 123.594 75.592C123.594 75.592 127.536 78.3243 127.231 80.4473C126.927 82.5704 130.868 85.3027 130.868 85.3027C130.868 85.3027 133.9 86.8212 134.505 90.1581C135.11 93.495 137.233 93.7996 137.233 93.7996L142.088 90.1628Z" fill="#3E6FA3"/>
<path d="M133.31 60.7351L128.309 54.059L126.336 56.4843L132.7 64.9813L133.31 60.7351Z" fill="#003441"/>
<path d="M134.371 60.8875L128.461 52.9975L127.854 53.4521L133.31 60.7351L134.371 60.8875Z" fill="white"/>
<path d="M135.252 59.2804L134.161 57.8237L131.491 58.3074L132.946 60.2496L135.252 59.2804Z" fill="white"/>
<path d="M138.46 70.1413C138.46 70.1413 145.734 79.852 137.551 68.9274C129.368 58.0028 123.001 53.2974 116.177 51.7766C116.934 54.052 122.694 59.212 122.694 59.212L133.605 73.7782L138.46 70.1413Z" fill="white"/>
<path d="M143.911 85.0074C143.911 85.0074 133.455 71.0482 126.636 61.9443C123.908 58.3028 120.402 53.6212 114.207 50.4105C114.207 50.4105 131.574 73.597 141.483 86.8258L143.911 85.0074Z" fill="#003441"/>
<path d="M137.854 70.5959L135.126 66.9543C128.761 58.4574 125.729 56.939 125.729 56.939C125.729 56.939 125.461 57.8458 126.031 58.6074C128.045 61.2952 132.944 67.8366 136.033 71.9597L137.854 70.5959Z" fill="#003441"/>
<path d="M136.647 60.1305L133.464 55.8821L133.768 55.6548L136.95 59.9032L136.647 60.1305Z" fill="white"/>
<path d="M132.584 57.4891L129.401 53.2407L129.705 53.0134L132.887 57.2618L132.584 57.4891Z" fill="white"/>
<path d="M158.998 61.8744C158.021 61.8744 157.228 62.6668 157.228 63.6443V74.2639C157.228 75.2414 158.021 76.0339 158.998 76.0339L158.998 85.7685H160.768V76.0339C161.746 76.0339 162.538 75.2414 162.538 74.2639V63.6443C162.538 62.6668 161.746 61.8744 160.768 61.8744H158.998Z" fill="#003441"/>
<circle cx="159.883" cy="73.3789" r="1.76994" fill="#7FDABB"/>
<circle cx="159.883" cy="68.9541" r="1.76994" fill="#FCBA63"/>
<circle cx="159.883" cy="64.5293" r="1.76994" fill="#A61419"/>
<path fill-rule="evenodd" clip-rule="evenodd" d="M30.3422 180.8C39.3093 180.8 46.5632 173.553 46.5632 164.632C46.5632 155.711 39.3093 148.464 30.3422 148.464C21.3751 148.464 14.1211 155.711 14.1211 164.632C14.1211 173.553 21.3751 180.8 30.3422 180.8ZM30.3422 184.113C41.1303 184.113 49.8759 175.391 49.8759 164.632C49.8759 153.873 41.1303 145.151 30.3422 145.151C19.554 145.151 10.8085 153.873 10.8085 164.632C10.8085 175.391 19.554 184.113 30.3422 184.113Z" fill="#405459"/>
<path fill-rule="evenodd" clip-rule="evenodd" d="M93.9663 180.8C102.933 180.8 110.187 173.553 110.187 164.632C110.187 155.711 102.933 148.464 93.9663 148.464C84.9992 148.464 77.7452 155.711 77.7452 164.632C77.7452 173.553 84.9992 180.8 93.9663 180.8ZM93.9663 184.113C104.754 184.113 113.5 175.391 113.5 164.632C113.5 153.873 104.754 145.151 93.9663 145.151C83.1781 145.151 74.4326 153.873 74.4326 164.632C74.4326 175.391 83.1781 184.113 93.9663 184.113Z" fill="#405459"/>
<path fill-rule="evenodd" clip-rule="evenodd" d="M56.573 161.292C56.4858 161.292 56.3989 161.294 56.3126 161.298L30.3302 161.849L30.354 162.962L52.9347 162.483C51.4179 163.598 50.4339 165.392 50.4339 167.415C50.4339 168.953 51.003 170.359 51.9426 171.435L30.1912 166.316L29.9348 167.4L54.5084 173.183C55.1536 173.412 55.8487 173.537 56.573 173.537C59.9636 173.537 62.7122 170.796 62.7122 167.415C62.7122 164.033 59.9636 161.292 56.573 161.292ZM55.0221 172.181C55.5106 172.339 56.0318 172.424 56.573 172.424C59.3471 172.424 61.596 170.181 61.596 167.415C61.596 164.65 59.3505 162.409 56.5793 162.405L56.3492 162.41C53.679 162.527 51.5501 164.723 51.5501 167.415C51.5501 169.57 52.9154 171.408 54.8307 172.115L55.0269 172.161L55.0221 172.181Z" fill="#405459"/>
<ellipse cx="30.3422" cy="164.632" rx="2.79053" ry="2.78298" fill="#405459"/>
<path fill-rule="evenodd" clip-rule="evenodd" d="M85.3047 124.169C85.3652 124.471 85.1692 124.764 84.8669 124.824L81.2551 125.545L82.5084 130.544C82.5831 130.843 82.4013 131.145 82.1023 131.219C81.8033 131.294 81.5002 131.113 81.4255 130.814L80.0302 125.248C79.9932 125.101 80.0184 124.944 80.1001 124.816C80.1817 124.687 80.3125 124.598 80.4622 124.568L84.648 123.733C84.9502 123.673 85.2443 123.868 85.3047 124.169Z" fill="#405459"/>
<path fill-rule="evenodd" clip-rule="evenodd" d="M47.2419 126.797C47.5426 126.729 47.8412 126.918 47.9089 127.218L50.4203 138.35C50.488 138.65 50.2991 138.947 49.9984 139.015C49.6977 139.082 49.399 138.894 49.3314 138.594L46.8199 127.462C46.7522 127.162 46.9412 126.864 47.2419 126.797Z" fill="#405459"/>
<path d="M52.9264 125.813C53.6648 126.043 53.8969 127.178 53.038 127.451C51.818 127.839 43.4827 128.713 42.3988 128.484C40.8752 128.161 39.4191 126.321 39.2188 125.192C39.0184 124.062 43.4319 125.262 45.9283 125.643C47.5981 125.899 49.8791 125.862 51.3804 125.824C52.2271 125.802 52.8259 125.781 52.9264 125.813Z" fill="#405459"/>
<path fill-rule="evenodd" clip-rule="evenodd" d="M81.5458 129.078C82.4305 128.845 83.3363 129.374 83.5688 130.258L91.0081 158.561L95.2317 163.563C95.8218 164.262 95.7337 165.307 95.0348 165.897C94.3358 166.487 93.2908 166.399 92.7007 165.7L88.8983 161.197L56.9674 169.023C56.7813 169.069 56.5888 169.082 56.3983 169.062L30.1674 166.279C29.5754 166.216 29.0626 165.84 28.8243 165.295C28.586 164.749 28.6588 164.118 29.015 163.641L48.5487 137.481C48.8178 137.12 49.2219 136.885 49.6682 136.829L80.8356 132.891L80.365 131.101C80.1325 130.216 80.6611 129.31 81.5458 129.078ZM81.685 136.123L51.9029 139.885L57.5272 164.191L82.6786 139.903L81.685 136.123ZM83.644 143.575L62.135 164.346L87.4713 158.136L83.644 143.575ZM54.4351 165.522L33.4099 163.292L49.067 142.323L54.4351 165.522Z" fill="#008C7D"/>
<path d="M93.1555 130.477C91.8931 130.481 91.4069 129.748 91.4069 129.748L90.375 130.367C90.1096 131.773 87.0876 132.76 86.6324 131.062C86.4404 131.052 85.3496 130.904 85.2605 131.149C84.5605 133.003 80.5076 131.833 79.3295 131.59C79.2101 131.565 79.0996 131.665 79.1147 131.784C79.4985 134.843 81.6806 137.522 84.9195 137.808C87.2448 138.023 90.0426 137.597 91.7608 135.906C93.876 133.674 93.1555 130.477 93.1555 130.477Z" fill="#405459"/>
<path fill-rule="evenodd" clip-rule="evenodd" d="M84.3356 123.825C84.3356 123.825 84.3032 123.372 84.8462 123.215C85.6258 123.547 86.3329 124.17 86.8749 124.806L88.0135 126.299L91.1568 129.899L90.5937 130.236L87.4136 126.538L87.4138 126.538L86.2664 131.049L86.1497 131.047C85.9181 131.045 85.6553 131.049 85.4744 131.073L86.7334 126.388L86.2858 125.296L86.2901 125.293C85.808 124.781 84.764 123.74 84.3356 123.825Z" fill="#405459"/>
<path d="M89.0583 116.5L94.7043 118.45C94.7043 118.45 89.5266 129.052 89.4712 128.97C89.4159 128.888 84.431 125.948 84.431 125.948L89.0583 116.5Z" fill="#405459"/>
<path d="M88.7829 118.175L93.3274 120.07L89.6368 127.569L85.3398 125.426L88.7829 118.175Z" fill="white" fill-opacity="0.52"/>
<path d="M82.2774 118.367L85.5713 122.398L89.4458 125.015L89.9599 128.412L89.7813 129.96L86.7997 126.718L80.5 121.14L82.2774 118.367Z" fill="#F5CDB0"/>
<path fill-rule="evenodd" clip-rule="evenodd" d="M49.8346 177.683L49.2717 180.488L52.3662 181.423L54.6164 183.012L62.397 183.106C62.397 183.106 62.3981 182.265 61.2724 181.891C60.1479 181.517 56.4912 180.956 56.0223 180.488C55.5535 180.02 54.5589 178.303 54.5589 178.303L49.8246 177.683" fill="#405459"/>
<path d="M65.8932 179.823L70.2061 179.005L73.4406 181.038C73.4406 181.038 76.5693 181.213 78.0454 181.563C79.5227 181.914 79.3817 183.071 79.3817 183.071L71.7841 183.013L68.8334 182.491L65.389 182.405C65.4841 180.981 65.818 180.024 65.8827 179.85C65.8899 179.832 65.8932 179.823 65.8932 179.823Z" fill="#405459"/>
<path fill-rule="evenodd" clip-rule="evenodd" d="M56.4878 126.456L54.5616 125.919L58.2974 142.324L57.6041 142.897L58.3234 143.726L57.2082 144.308L58.6319 145.263L49.5813 178.222L54.5659 178.991H54.5692L54.7102 178.557L54.5605 178.303L61.9895 155.994L65.3544 179.821L70.3944 180.098L68.7092 129.853C66.9229 129.356 65.2227 128.884 63.5391 128.416C61.2179 127.771 58.9282 127.135 56.4878 126.456Z" fill="#4C4C4C"/>
<path opacity="0.3" d="M59.6264 131.896L65.54 145.331L61.9894 155.994L60.9457 148.603C58.7091 140.559 56.6819 133.267 54.6462 125.943C55.2696 126.117 55.881 126.287 56.4832 126.454L57.3337 126.691L59.6264 131.896Z" fill="black" fill-opacity="0.7"/>
<path d="M72.4657 89.6598L73.9082 87.6043L78.9111 89.0577L80.682 84.2265L82.1289 83.5252C82.2881 83.448 82.3334 83.2418 82.2201 83.1061L80.4 80.9095L81.0126 78.9752L79.6592 75.5556L75.0311 73.5204L70.5179 75.2484L68.7836 82.5774L67.2184 86.1056L72.4657 89.6598Z" fill="#F5CDB0"/>
<path d="M81.2965 78.6823C81.2965 78.6823 81.6846 79.9141 81.4088 79.8656C81.134 79.8176 79.043 79.5866 79.043 79.5866L78.8484 78.8808L81.2965 78.6823Z" fill="#58453F"/>
<path d="M80.5193 84.909L75.701 83.7594L74.3879 84.2198L74.6074 87.8959L76.877 89.7711L79.0586 89.4789L80.5193 84.909Z" fill="#58453F"/>
<path d="M75.0311 73.5201H75.0316L75.0327 73.5202L79.6597 75.5548L79.6586 75.5553L77.2857 77.7906L75.5845 84.4044H75.5823L74.3825 84.2208C74.3825 84.2208 74.1702 81.4407 73.9436 81.0426C73.7545 80.7107 73.3763 80.6164 73.0695 80.6164C72.9594 80.6164 72.8583 80.6285 72.7787 80.6462C72.2418 80.7658 71.6032 81.2439 72.2263 82.8131L68.5613 82.5342C68.5613 82.5342 69.9949 75.058 70.0767 74.9714C70.1575 74.8854 74.8252 73.5777 75.025 73.5218L75.025 73.5217L75.0305 73.5202L75.0311 73.5201Z" fill="#58453F"/>
<path d="M66.853 86.1195L62.9475 91.641C62.7253 91.9564 62.55 92.3016 62.4278 92.6671L51.6014 125.097L69.4775 130.066L69.8529 110.337L80.3189 121.347L82.8151 117.034L73.4875 105.58L72.4089 89.9069L66.853 86.1195Z" fill="#80B9A3"/>
<path d="M64.4868 104.739L64.5808 105.674L65.7054 109.975L66.7138 107.532L64.4868 104.739Z" fill="#003441" fill-opacity="0.52"/>
<path d="M66.8103 86.0996L67.6307 86.0996L58.6265 116.993L69.1063 119.102L69.2715 109.618L70.9123 111.455L71.2936 119.526L73.1 120.009L70.6728 136.407L50.6759 130.948L55.0012 116.633L66.8103 86.0996Z" fill="#405459"/>
<path d="M74.0214 88.3944L67.9363 82.9891L66.4543 85.5897L72.3151 89.8106L74.0214 88.3944Z" fill="white"/>
<path d="M66.6994 85.3584L38.7921 81.25L35.0647 86.5324L66.1719 86.0674L66.6994 85.3584Z" fill="white"/>
<path fill-rule="evenodd" clip-rule="evenodd" d="M40.489 86.4513L40.7539 90.25L66.1664 86.0752L66.171 86.0677L40.489 86.4513Z" fill="white"/>
<path d="M72.5353 89.5168L66.1665 86.075L66.6994 85.3587L72.5353 89.5168Z" fill="#014D61"/>
<path opacity="0.2" d="M40.2548 83.042H40.2513V83.0443L40.4885 86.4518L66.1717 86.0676L66.6992 85.3587L40.2548 83.042Z" fill="black"/>
</svg>
