<svg width="40" height="40" viewBox="0 0 40 40" fill="none" xmlns="http://www.w3.org/2000/svg">
<path fill-rule="evenodd" clip-rule="evenodd" d="M23.5192 2.07851C24.0087 2.26061 24.3334 2.72781 24.3334 3.25006V17.0003H32.2514C32.7404 17.0003 33.1845 17.2855 33.388 17.7302C33.5915 18.1748 33.517 18.6973 33.1974 19.0673L17.364 37.4003C17.0227 37.7957 16.4717 37.937 15.9822 37.7548C15.4927 37.5728 15.168 37.1057 15.168 36.5833V22.8332H7.25002C6.761 22.8332 6.3169 22.548 6.1134 22.1033C5.9099 21.6587 5.98437 21.1362 6.304 20.766L22.1374 2.43303C22.4787 2.03778 23.0297 1.89641 23.5192 2.07851Z" fill="black"/>
</svg>
