<svg width="40" height="40" viewBox="0 0 40 40" fill="none" xmlns="http://www.w3.org/2000/svg">
<path d="M21.8876 2.18257C22.229 1.78762 22.7802 1.64603 23.2695 1.82807C23.7588 2.01022 24.0829 2.47777 24.0829 2.99995V16.7499H32.0009C32.4899 16.7499 32.9341 17.0358 33.1376 17.4804C33.341 17.925 33.2668 18.4473 32.9472 18.8173L17.1142 37.1503C16.7729 37.5455 16.2217 37.6868 15.7324 37.5048C15.2429 37.3227 14.9179 36.8552 14.9179 36.333V22.583H6.99993C6.511 22.583 6.06676 22.298 5.86321 21.8535C5.65971 21.4088 5.73401 20.8857 6.05364 20.5156L21.8876 2.18257ZM9.73137 20.083H16.1669C16.8226 20.0831 17.3589 20.5882 17.4111 21.2304C17.4153 21.2725 17.4179 21.3152 17.4179 21.3583V32.9736L29.2704 19.2499H22.8349C22.1707 19.2499 21.628 18.7322 21.5878 18.0781C21.585 18.0441 21.5829 18.0093 21.5829 17.9746V6.3603L9.73137 20.083Z" fill="black"/>
</svg>
