<svg width="40" height="40" viewBox="0 0 40 40" fill="none" xmlns="http://www.w3.org/2000/svg">
<path fill-rule="evenodd" clip-rule="evenodd" d="M12.007 29.3103C12.657 29.9603 12.657 31.0203 12.007 31.6703L7.84687 35.8403C7.18687 36.4903 6.1375 36.4903 5.4875 35.8403C4.8375 35.1903 4.8375 34.1303 5.4875 33.4803L9.64766 29.3103C10.3077 28.6603 11.357 28.6603 12.007 29.3103ZM27.9875 29.3103C28.6375 28.6603 29.6869 28.6603 30.3469 29.3103L34.507 33.4803C35.157 34.1303 35.157 35.1903 34.507 35.8403C33.857 36.4903 32.8077 36.4903 32.1477 35.8403L27.9875 31.6703C27.3375 31.0203 27.3375 29.9603 27.9875 29.3103Z" fill="black"/>
<path fill-rule="evenodd" clip-rule="evenodd" d="M7.42662 9.96C8.09662 5.94 11.5773 3 15.6473 3H24.3465C28.4265 3 31.8972 5.94 32.5672 9.96L34.7665 23.16C35.4965 27.5 32.6871 31.78 28.1571 32.39C25.7071 32.72 22.7969 33 19.9969 33C17.1969 33 14.2968 32.72 11.8368 32.39C7.31678 31.78 4.50741 27.5 5.22741 23.16L7.42662 9.96ZM15.6473 6.33C13.2073 6.33 11.1167 8.1 10.7167 10.51L10.1073 14.17C11.4573 15.61 13.2267 16.55 15.0067 17.15C16.9967 17.81 18.8969 18 19.9969 18C21.0969 18 22.9972 17.81 24.9872 17.15C26.7672 16.56 28.5373 15.61 29.8973 14.17L29.287 10.51C28.877 8.1 26.7965 6.33 24.3465 6.33H15.6473ZM14.9969 22.99C14.0769 22.99 13.327 23.74 13.327 24.66C13.327 25.58 14.0769 26.33 14.9969 26.33C15.9269 26.33 16.6669 25.58 16.6669 24.66C16.6669 23.74 15.9269 22.99 14.9969 22.99ZM24.9774 22.99C24.0574 22.99 23.3172 23.74 23.3172 24.66C23.3172 25.58 24.0574 26.33 24.9774 26.33H24.9969C25.9169 26.33 26.6669 25.58 26.6669 24.66C26.6669 23.74 25.9169 22.99 24.9969 22.99H24.9774Z" fill="black"/>
</svg>
