<svg width="327" height="45" viewBox="0 0 327 45" fill="none" xmlns="http://www.w3.org/2000/svg">
<rect y="0.5" width="327" height="44" rx="8" fill="#FF5B24"/>
<path d="M74.7781 15.5V27.5H81.8661V25.404H77.0981V15.5H74.7781ZM86.6076 18.028C84.1116 18.028 82.0476 19.852 82.0476 22.876C82.0476 25.9 84.1116 27.74 86.6076 27.74C89.1036 27.74 91.1676 25.9 91.1676 22.876C91.1676 19.852 89.1036 18.028 86.6076 18.028ZM86.6076 20.012C87.8556 20.012 88.8956 20.94 88.8956 22.876C88.8956 24.812 87.8556 25.756 86.6076 25.756C85.3596 25.756 84.3196 24.812 84.3196 22.876C84.3196 20.94 85.3596 20.012 86.6076 20.012ZM95.6863 26.972C97.1423 26.972 98.0063 26.3 98.5503 25.5V26.284C98.5503 28.06 97.8943 28.78 96.2943 28.78C95.3183 28.78 94.5023 28.476 94.1023 27.388L91.9103 27.708C92.3743 30.044 94.4703 30.828 96.1343 30.828C99.0783 30.828 100.806 29.292 100.806 26.204V18.268H98.5503V19.388C97.8463 18.444 96.9023 18.028 95.8463 18.028C93.8463 18.028 91.9583 19.436 91.9583 22.364C91.9583 25.5 93.8783 26.972 95.6863 26.972ZM96.3583 20.012C97.5583 20.012 98.5503 20.892 98.5503 22.492C98.5503 24.172 97.5583 24.972 96.3583 24.972C95.2063 24.972 94.2303 24.172 94.2303 22.476C94.2303 20.844 95.2383 20.012 96.3583 20.012ZM105.908 26.972C107.364 26.972 108.228 26.3 108.772 25.5V26.284C108.772 28.06 108.116 28.78 106.516 28.78C105.54 28.78 104.724 28.476 104.324 27.388L102.132 27.708C102.596 30.044 104.692 30.828 106.356 30.828C109.3 30.828 111.028 29.292 111.028 26.204V18.268H108.772V19.388C108.068 18.444 107.124 18.028 106.068 18.028C104.068 18.028 102.18 19.436 102.18 22.364C102.18 25.5 104.1 26.972 105.908 26.972ZM106.58 20.012C107.78 20.012 108.772 20.892 108.772 22.492C108.772 24.172 107.78 24.972 106.58 24.972C105.428 24.972 104.452 24.172 104.452 22.476C104.452 20.844 105.46 20.012 106.58 20.012ZM116.899 18.284V27.5H119.139V18.284H116.899ZM118.019 14.284C117.267 14.284 116.755 14.796 116.755 15.532C116.755 16.268 117.267 16.78 118.019 16.78C118.771 16.78 119.283 16.268 119.283 15.532C119.283 14.796 118.771 14.284 118.019 14.284ZM125.157 20.092C126.149 20.092 126.901 20.652 126.901 22.188V27.5H129.157V21.324C129.157 18.844 127.637 18.028 126.037 18.028C125.013 18.028 123.829 18.476 123.189 19.644V18.284H120.933V27.5H123.189V22.236C123.189 20.764 124.021 20.092 125.157 20.092ZM135.16 20.092C136.152 20.092 136.904 20.652 136.904 22.188V27.5H139.16V21.324C139.16 18.844 137.64 18.028 136.04 18.028C135.016 18.028 133.832 18.476 133.192 19.644V18.284H130.936V27.5H133.192V22.236C133.192 20.764 134.024 20.092 135.16 20.092ZM155.133 20.092C156.125 20.092 156.877 20.652 156.877 22.188V27.5H159.133V21.324C159.133 18.844 157.613 18.028 156.013 18.028C154.909 18.028 153.613 18.444 152.925 19.82C152.429 18.508 151.261 18.028 150.045 18.028C149.021 18.028 147.837 18.476 147.197 19.644V18.284H144.941V27.5H147.197V22.236C147.197 20.764 148.029 20.092 149.165 20.092C150.157 20.092 150.909 20.652 150.909 22.188V27.5H153.165V22.236C153.165 20.764 153.997 20.092 155.133 20.092ZM164.864 19.916C165.936 19.916 166.816 20.428 167.008 21.756H162.704C162.976 20.476 163.76 19.916 164.864 19.916ZM169.168 23.372V22.668C169.168 19.948 167.408 18.028 164.944 18.028C162.32 18.028 160.336 19.9 160.336 22.86C160.336 25.9 162.448 27.74 165.168 27.74C166.864 27.74 168.912 26.764 169.264 24.636L167.216 24.316C167.04 25.196 166.48 25.756 165.088 25.756C163.616 25.756 162.784 24.812 162.64 23.372H169.168ZM179.258 15.1H177.002V19.468C176.25 18.444 175.306 18.028 174.202 18.028C172.138 18.028 170.09 19.58 170.09 22.796C170.09 26.172 172.154 27.74 173.946 27.74C175.386 27.74 176.362 27.164 177.002 26.348V27.5H179.258V15.1ZM174.698 20.012C175.914 20.012 177.002 21.004 177.002 22.908C177.002 24.876 175.914 25.74 174.682 25.74C173.546 25.74 172.362 24.828 172.362 22.908C172.362 20.956 173.562 20.012 174.698 20.012Z" fill="white"/>
<path fill-rule="evenodd" clip-rule="evenodd" d="M253.5 18.4788C252.746 15.8235 250.915 14.7695 248.417 14.7695C246.393 14.7695 243.852 15.8235 243.852 18.3616C243.852 20.0013 245.08 21.29 247.082 21.6221L248.977 21.9342C250.269 22.1488 250.636 22.598 250.636 23.2032C250.636 23.8865 249.839 24.2768 248.654 24.2768C247.104 24.2768 246.135 23.7693 245.983 22.344L243.249 22.7346C243.679 25.4871 246.35 26.6197 248.762 26.6197C251.045 26.6197 253.478 25.4091 253.478 22.9689C253.478 21.3093 252.38 20.0992 250.334 19.7474L248.245 19.3963C247.082 19.2011 246.694 18.674 246.694 18.1664C246.694 17.5221 247.448 17.1124 248.482 17.1124C249.796 17.1124 250.722 17.5221 250.765 18.8692L253.5 18.4788ZM192.703 22.6562L195.545 15.0622H198.882L193.93 26.3265H191.453L186.5 15.0624H189.837L192.703 22.6562ZM210.168 18.2836C210.168 19.1815 209.393 19.8061 208.489 19.8061C207.584 19.8061 206.808 19.1815 206.808 18.2836C206.808 17.3854 207.584 16.761 208.489 16.761C209.393 16.761 210.169 17.3854 210.169 18.2836H210.168ZM210.685 22.2662C209.565 23.5933 208.381 24.5109 206.291 24.511C204.16 24.511 202.501 23.3397 201.21 21.6219C200.692 20.9189 199.896 20.7628 199.314 21.1338C198.776 21.4853 198.647 22.2271 199.142 22.8715C200.929 25.3507 203.406 26.795 206.291 26.795C208.941 26.795 211.008 25.6239 212.623 23.6716C213.226 22.9495 213.205 22.2076 212.623 21.7976C212.085 21.4068 211.288 21.544 210.685 22.2662ZM218.116 20.6651C218.116 22.9689 219.58 24.1794 221.216 24.1794C222.767 24.1794 224.361 23.047 224.361 20.6651C224.361 18.3223 222.767 17.1902 221.238 17.1902C219.58 17.1902 218.116 18.2639 218.116 20.6651ZM218.116 16.6243V15.0817H215.08V30.2311H218.116V24.8427C219.128 26.0924 220.442 26.6197 221.927 26.6197C224.706 26.6197 227.419 24.6283 227.419 20.5288C227.419 16.6044 224.598 14.7697 222.186 14.7697C220.269 14.7697 218.955 15.57 218.116 16.6243ZM232.697 20.6651C232.697 22.9689 234.16 24.1794 235.797 24.1794C237.348 24.1794 238.941 23.047 238.941 20.6651C238.941 18.3223 237.348 17.1902 235.818 17.1902C234.16 17.1902 232.695 18.2639 232.695 20.6651H232.697ZM232.697 16.6243V15.0817H232.695H229.66V30.2311H232.695V24.8427C233.708 26.0924 235.022 26.6197 236.507 26.6197C239.286 26.6197 241.999 24.6283 241.999 20.5288C241.999 16.6044 239.178 14.7697 236.766 14.7697C234.849 14.7697 233.536 15.57 232.697 16.6243Z" fill="white"/>
</svg>
