<svg width="40" height="40" viewBox="0 0 40 40" fill="none" xmlns="http://www.w3.org/2000/svg">
<path d="M20 37.9201C10.12 37.9201 2.08008 29.8801 2.08008 20.0001C2.08008 10.1201 10.12 2.08008 20 2.08008C29.88 2.08008 37.9199 10.1201 37.9199 20.0001C37.9199 29.8801 29.88 37.9201 20 37.9201ZM20 4.58008C11.5 4.58008 4.58008 11.5001 4.58008 20.0001C4.58008 28.5001 11.5 35.4201 20 35.4201C28.5 35.4201 35.4199 28.5001 35.4199 20.0001C35.4199 11.5001 28.5 4.58008 20 4.58008Z" fill="black"/>
<path d="M20.0002 20.42C18.6002 20.42 17.24 20.08 16.07 19.43C15.47 19.1 15.2403 18.34 15.5803 17.73C15.9103 17.12 16.67 16.9 17.28 17.24C18.9 18.13 21.1205 18.13 22.7405 17.24C23.3405 16.91 24.1002 17.13 24.4402 17.73C24.7702 18.33 24.5504 19.09 23.9504 19.43C22.7704 20.08 21.4102 20.42 20.0202 20.42H20.0002Z" fill="black"/>
<path d="M25 13.3302C24.08 13.3302 23.3301 12.5802 23.3301 11.6602C23.3301 10.7402 24.08 9.99023 25 9.99023C25.92 9.99023 26.6699 10.7402 26.6699 11.6602C26.6699 12.5802 25.9298 13.3302 25.0098 13.3302H25ZM15.0098 13.3302C14.0898 13.3302 13.3398 12.5802 13.3398 11.6602C13.3398 10.7402 14.0898 9.99023 15.0098 9.99023C15.9298 9.99023 16.6802 10.7402 16.6802 11.6602C16.6802 12.5802 15.94 13.3302 15.02 13.3302H15.0098Z" fill="black"/>
</svg>
