<svg width="28" height="28" viewBox="0 0 28 28" fill="none" xmlns="http://www.w3.org/2000/svg">
<path d="M0 4C0 1.79086 1.79086 0 4 0H24C26.2091 0 28 1.79086 28 4V24C28 26.2091 26.2091 28 24 28H4C1.79086 28 0 26.2091 0 24V4Z" fill="#0959AA"/>
<path d="M10.7051 21.4167C10.2221 21.4167 9.12695 21.1869 9.12695 20.7039V8.29175C9.12695 7.80875 9.51895 7.41675 10.002 7.41675H14.6641C17.0791 7.41675 19.0391 9.37675 19.0391 11.7917C19.0391 14.2067 17.0791 16.2039 14.6641 16.2039H12.2177V20.7039C12.2177 21.1869 11.1881 21.4167 10.7051 21.4167ZM12.2177 13.2039H13.7177C15.1667 13.2039 16.2177 13.1529 16.2177 11.7039C16.2177 10.3055 15.1667 10.2039 13.7177 10.2039H12.2177V13.2039Z" fill="white"/>
</svg>
