<svg width="48" height="40" viewBox="0 0 48 40" fill="none" xmlns="http://www.w3.org/2000/svg">
<path d="M45.0636 30.3719C45.0636 31.1157 44.3579 31.7107 43.4759 31.7107H3.95953C3.07747 31.7107 2.37183 31.1157 2.37183 30.3719V10.3388C2.37183 9.59504 3.07747 9 3.95953 9H43.4759C44.3579 9 45.0636 9.59504 45.0636 10.3388V30.3719V30.3719Z" fill="#1A1F71"/>
<path d="M18.6019 15.5951L13.8388 25.1653H10.7222L8.37001 17.5289C8.2524 17.0827 8.07599 16.8843 7.66436 16.686C6.95871 16.3884 5.78263 16.0413 4.78296 15.8926L4.84176 15.5951H9.84011C10.487 15.5951 11.075 15.9422 11.1926 16.5868L12.4275 22.1405L15.4853 15.6446H18.6019V15.5951ZM30.7744 22.0413C30.7744 19.5124 26.6581 19.3636 26.6581 18.2727C26.6581 17.9256 27.0697 17.5785 27.893 17.4793C28.3046 17.4298 29.4807 17.3802 30.7744 17.9256L31.3036 15.8926C30.598 15.6942 29.7159 15.4463 28.5398 15.4463C25.6584 15.4463 23.6003 16.7355 23.6003 18.6198C23.6003 20.0083 25.0704 20.7521 26.1877 21.1984C27.3049 21.6446 27.7166 21.9422 27.7166 22.3884C27.7166 23.0331 26.8345 23.3306 25.9524 23.3306C24.4823 23.3306 23.6003 22.9835 22.9534 22.7355L22.4242 24.8182C23.1298 25.0661 24.3647 25.3141 25.6584 25.3141C28.7162 25.3141 30.7156 24.0248 30.7744 22.0413ZM38.4189 25.1653H41.1239L38.7717 15.5951H36.2431C35.6551 15.5951 35.1847 15.8926 35.0083 16.2893L30.598 25.1653H33.6558L34.2438 23.7273H38.0073L38.4189 25.1653ZM35.1259 21.7934L36.6548 18.2231L37.5368 21.7934H35.1259ZM22.777 15.5951L20.366 25.1653H17.4258L19.8368 15.5951H22.777Z" fill="white"/>
</svg>
