<svg width="200" height="347" viewBox="0 0 200 347" fill="none" xmlns="http://www.w3.org/2000/svg">
<g clip-path="url(#clip0_7555_3529)">
<path d="M76.2019 74.6037C82.5098 73.7715 87.24 77.7128 88.0846 83.9156C89.619 95.1734 79.3698 117.689 75.7966 129.281C67.7067 155.524 61.4575 189.066 65.9959 216.181C67.1282 222.95 70.027 236.145 71.3634 238.944C79.2429 255.458 55.6786 261.318 43.9506 262.688C39.5793 263.199 27.9843 264.962 27.1552 260.167C18.4311 209.648 20.3492 160.202 38.184 120.597C44.0898 107.48 60.6687 76.6517 76.2019 74.6037Z" fill="#E8AA7D"/>
<path d="M199.246 169.114C198.72 170.414 196.993 171.512 195.672 171.877C191.802 172.954 183.434 173.056 179.152 173.192C119.844 175.073 64.7895 158.735 13.8124 129.652C7.67769 126.15 -1.1918 123.013 0.648919 114.369L9.15645 85.227C10.4187 83.148 13.6886 84.237 15.8542 84.0019C29.3641 82.5324 41.1479 73.2793 38.543 58.5473C37.1942 50.906 32.1392 45.7025 26.7624 40.6073C26.057 39.9391 24.4545 39.3389 24.4019 38.2561C24.3617 37.4425 26.6758 31.2861 27.146 29.9064C29.129 24.1151 34.6326 6.97007 37.8624 2.97617C38.9359 1.65209 40.3652 0.365132 42.11 0.0897973C44.0992 -0.225755 45.083 0.343476 46.7814 1.17257C52.6284 4.0311 59.7159 9.97709 65.6279 13.6338C97.313 33.2382 131.659 45.9748 169.636 44.793C172.606 44.6971 176.148 44.0536 179.115 43.967C187.774 43.704 192.839 43.704 193.986 53.6965C194.707 59.955 195.771 80.6329 195.119 82.5571C194.828 83.4048 189.479 84.9423 188.177 85.5239C164.068 96.2806 163.706 119.978 189.634 127.796C191.558 128.377 197.368 128.903 197.869 130.657C198.277 132.068 198.432 149.723 198.732 156.347C198.865 159.345 200.217 166.711 199.243 169.111L199.246 169.114Z" fill="#86B200"/>
<path d="M104.388 190.611C116.011 175.217 140.881 166.19 159.938 169.788C170.716 171.824 180.823 182.024 174.664 193.272C167.663 206.055 149.88 199.942 139.919 208.459C129.766 217.143 122.882 237.434 124.534 250.603C124.379 252.085 94.8073 246.622 84.524 246.245C83.3917 246.043 89.3934 210.479 104.391 190.611H104.388Z" fill="#E8AA7D"/>
<path d="M72.0659 250.128C63.4872 246.329 61.0525 235.359 60.4493 226.87C57.7764 189.35 69.9932 122.159 99.0734 95.8879C106.857 88.8561 121.595 79.4483 131.913 86.4523C145.89 95.9436 127.513 120.26 122.202 130.11C109.963 152.796 104.475 177.078 103.627 202.684C103.401 209.502 104.698 251.873 104.076 252.668C100.831 256.838 81.681 254.385 72.0659 250.128Z" fill="#E8AA7D"/>
<path d="M128.525 242.212C130.554 252.442 132.247 262.085 137.178 271.41C137.973 272.913 142.836 279.861 142.889 280.39C143.139 282.884 134.063 297.662 132.101 300.511C119.689 318.51 101.885 335.052 80.7404 341.886C77.4302 342.956 63.812 346.523 61.2442 345.36C60.2852 344.924 55.917 339.81 54.9054 338.619C38.3636 319.166 26.6387 292.929 22.8614 267.626C22.518 265.334 21.0485 260.52 23.3038 259.483C41.4944 252.47 60.4739 245.568 79.7876 242.255C95.9395 239.486 112.373 239.468 128.522 242.209L128.525 242.212Z" fill="#E4F0C2"/>
<path d="M38.2122 165.407C38.107 165.407 38.0018 165.398 37.8967 165.382C36.8046 165.209 36.0621 164.185 36.2323 163.093C36.8263 159.334 37.5749 155.554 38.4535 151.854C39.1465 148.93 39.9416 145.991 40.814 143.114C41.1326 142.056 42.2494 141.459 43.3074 141.778C44.3655 142.096 44.9625 143.213 44.6439 144.271C43.7962 147.071 43.0228 149.936 42.3484 152.779C41.4946 156.38 40.7676 160.058 40.189 163.718C40.0344 164.702 39.1836 165.407 38.2153 165.407H38.2122Z" fill="#00151A"/>
<path d="M64.496 165.819C64.3785 165.819 64.2609 165.81 64.1402 165.788C63.0544 165.593 62.3305 164.554 62.5254 163.465C62.7821 162.036 63.0606 160.591 63.3575 159.168C63.7783 157.135 64.2454 155.084 64.7435 153.07C65.0096 151.997 66.0923 151.344 67.1658 151.61C68.2393 151.876 68.8921 152.959 68.626 154.032C68.1403 155.997 67.6856 157.999 67.2741 159.982C66.9864 161.368 66.7142 162.778 66.4636 164.173C66.2903 165.142 65.4458 165.819 64.496 165.819Z" fill="#00151A"/>
<path d="M47.1777 130.446C47.0633 130.446 46.9457 130.437 46.8281 130.415C45.7392 130.224 45.0153 129.184 45.2071 128.098C48.2481 110.916 52.7803 93.8886 58.6768 77.4892C63.4565 64.1958 69.2107 51.1066 75.7816 38.5866C76.2951 37.609 77.5047 37.2316 78.4823 37.7451C79.4599 38.2587 79.8374 39.4683 79.3238 40.4459C72.8395 52.805 67.1596 65.7241 62.4418 78.8442C56.6226 95.0302 52.1492 111.835 49.1484 128.797C48.9782 129.766 48.1337 130.449 47.1808 130.449L47.1777 130.446Z" fill="#F6FAEB"/>
</g>
<defs>
<clipPath id="clip0_7555_3529">
<rect width="200" height="346.324" fill="white"/>
</clipPath>
</defs>
</svg>
