<svg width="40" height="40" viewBox="0 0 40 40" fill="none" xmlns="http://www.w3.org/2000/svg">
<path d="M27.0548 18.8016C27.7452 18.8016 28.3047 19.3611 28.3047 20.0515C28.3047 20.7418 27.7452 21.3013 27.0548 21.3013H15.719C15.0287 21.3013 14.4692 20.7418 14.4692 20.0515C14.4692 19.3611 15.0287 18.8016 15.719 18.8016H27.0548Z" fill="black"/>
<path d="M14.5857 12C16.5281 12 18.1024 13.5745 18.1026 15.5169C18.1025 16.2073 17.5431 16.7668 16.8527 16.7668C16.1624 16.7666 15.6028 16.2072 15.6028 15.5169C15.6027 14.9552 15.1474 14.4997 14.5857 14.4997L6.45602 14.5004C5.37569 14.5004 4.4997 15.3764 4.49973 16.4567V23.6466C4.49977 24.7269 5.37566 25.6027 6.45602 25.6028L14.5857 25.6035C15.1473 25.6035 15.6026 25.148 15.6028 24.5864C15.6028 23.896 16.163 23.3358 16.8534 23.3358C17.5435 23.3361 18.1031 23.8956 18.1033 24.5857C18.1033 26.5282 16.5282 28.1033 14.5857 28.1033L6.45602 28.1026C3.99498 28.1025 2.00008 26.1076 2 23.6466L2 16.4567C1.99992 13.9956 3.99559 11.9999 6.45671 12L14.5857 12Z" fill="black"/>
<path d="M34.0503 12C36.5115 11.9999 38.507 13.9956 38.507 16.4567V23.6465C38.507 26.1076 36.512 28.1025 34.051 28.1026L25.9214 28.1033C23.9788 28.1033 22.4038 26.5282 22.4038 24.5857C22.4039 23.8956 22.9636 23.336 23.6536 23.3358C24.344 23.3358 24.9042 23.896 24.9042 24.5864C24.9044 25.148 25.3597 25.6035 25.9214 25.6035L34.051 25.6028C35.1314 25.6027 36.0073 24.7269 36.0073 23.6465V16.4567C36.0073 15.3762 35.1313 14.5004 34.051 14.5004L25.9214 14.4997C25.3597 14.4997 24.9043 14.9552 24.9042 15.5169C24.9042 16.2072 24.3446 16.7666 23.6543 16.7668C22.964 16.7668 22.4045 16.2072 22.4045 15.5169C22.4046 13.5745 23.9789 12 25.9214 12L34.0503 12Z" fill="black"/>
</svg>
