<svg width="40" height="40" viewBox="0 0 40 40" fill="none" xmlns="http://www.w3.org/2000/svg">
<path d="M29.0002 8.25C29.0002 6.17894 27.3213 4.5 25.2502 4.5C23.1792 4.5 21.5002 6.17893 21.5002 8.25C21.5002 10.321 23.1792 12 25.2502 12C27.3213 12 29.0002 10.321 29.0002 8.25ZM31.5002 8.25C31.5002 11.7018 28.702 14.5 25.2502 14.5C21.7985 14.5 19.0002 11.7018 19.0002 8.25C19.0002 4.79822 21.7985 2 25.2502 2C28.702 2 31.5002 4.79821 31.5002 8.25Z" fill="black"/>
<path d="M24.2502 6.25C24.2502 5.69772 24.698 5.25 25.2502 5.25C25.8025 5.25 26.2502 5.69772 26.2502 6.25V8.58301L27.05 9.65039C27.3813 10.0922 27.2916 10.7185 26.8499 11.0498C26.408 11.381 25.7818 11.2914 25.4504 10.8496L24.4504 9.5166C24.3207 9.34359 24.2503 9.13325 24.2502 8.91699V6.25Z" fill="black"/>
<path d="M28.0003 29.7588C28.0002 29.4638 27.8191 29.1712 27.3313 28.873C27.106 28.7353 26.8701 28.6338 26.6848 28.5664C26.5943 28.5335 26.5202 28.5109 26.4729 28.4971L26.4241 28.4834L26.4231 28.4824C26.4215 28.482 26.4199 28.4818 26.4182 28.4814L26.2669 28.4346C26.2625 28.433 26.2542 28.4293 26.2415 28.4248C26.2159 28.4156 26.1735 28.401 26.1155 28.3818C25.9995 28.3436 25.8208 28.2884 25.5872 28.2256C25.119 28.0997 24.4333 27.9455 23.5891 27.8418C21.8965 27.6339 19.5978 27.632 17.1389 28.4375C16.764 28.5602 16.3531 28.4995 16.0305 28.2725C15.7483 28.0737 15.5622 27.7681 15.513 27.4307L15.5003 27.2842V27.2734C15.5 27.2637 15.4992 27.2472 15.4983 27.2256C15.4966 27.1822 15.4942 27.1152 15.4895 27.0264C15.4801 26.8485 15.4629 26.5825 15.4348 26.2393C15.3786 25.5522 15.276 24.5573 15.0911 23.3428C14.7207 20.91 14.0236 17.6149 12.718 14.1543C12.4988 13.5735 11.7131 13.2648 11.0423 13.7041C10.6258 13.9769 10.4298 14.4594 10.5237 14.9209L13.7952 30.0146C13.9198 30.5897 14.4285 31 15.0169 31H26.7151C27.4452 31 28.0003 30.4238 28.0003 29.7588ZM30.5003 29.7588C30.5003 31.8453 28.7848 33.5 26.7151 33.5H15.0169C13.2519 33.5 11.7257 32.2689 11.3518 30.5439L8.07742 15.4346C8.07632 15.4295 8.07456 15.4241 8.07352 15.4189C7.77263 13.9396 8.41289 12.4384 9.67215 11.6133C11.5407 10.3891 14.2151 11.041 15.0569 13.2725C16.4403 16.9394 17.174 20.4132 17.5628 22.9668C17.7249 24.0321 17.8263 24.9407 17.8909 25.6406C20.1939 25.123 22.2914 25.1636 23.8938 25.3604C24.8713 25.4804 25.6732 25.659 26.2366 25.8105C26.5185 25.8864 26.7418 25.956 26.8987 26.0078C26.977 26.0336 27.0388 26.0554 27.0833 26.0713C27.0851 26.072 27.0873 26.0726 27.0891 26.0732C27.1134 26.0798 27.1429 26.0879 27.1761 26.0977C27.2673 26.1244 27.3917 26.1635 27.5384 26.2168C27.8283 26.3222 28.2268 26.4907 28.635 26.7402C29.4145 27.2167 30.5002 28.1701 30.5003 29.7588Z" fill="black"/>
<path d="M27.2502 22C27.9406 22 28.5002 22.5596 28.5002 23.25C28.5002 23.9404 27.9406 24.5 27.2502 24.5H21.2502C20.5599 24.5 20.0002 23.9404 20.0002 23.25C20.0002 22.5596 20.5599 22 21.2502 22H27.2502Z" fill="black"/>
<path d="M23.7551 32.377C24.2371 31.8828 25.0285 31.8736 25.5227 32.3555C26.0169 32.8374 26.0271 33.6288 25.5452 34.1231L23.7151 36H27.2502C27.9406 36 28.5002 36.5596 28.5002 37.25C28.5002 37.9404 27.9406 38.5 27.2502 38.5H14.2502C13.5599 38.5 13.0002 37.9404 13.0002 37.25C13.0002 36.5596 13.5599 36 14.2502 36H20.2229L23.7551 32.377Z" fill="black"/>
</svg>
