<svg width="40" height="40" viewBox="0 0 40 40" fill="none" xmlns="http://www.w3.org/2000/svg">
<path fill-rule="evenodd" clip-rule="evenodd" d="M25 2C21.6863 2 19 4.68629 19 8C19 11.3137 21.6863 14 25 14C28.3137 14 31 11.3137 31 8C31 4.68629 28.3137 2 25 2ZM25.5581 5.76744C25.5581 5.45919 25.3083 5.2093 25 5.2093C24.6917 5.2093 24.4419 5.45919 24.4419 5.76744V8C24.4419 8.14802 24.5007 8.29001 24.6053 8.39466L25.7216 9.51094C25.9396 9.72889 26.293 9.72889 26.5109 9.51094C26.7289 9.29299 26.7289 8.93957 26.5109 8.72162L25.5581 7.76882V5.76744Z" fill="black"/>
<path fill-rule="evenodd" clip-rule="evenodd" d="M14.3428 31.8538H22.6888L19.7426 35.2683H13.5C12.7406 35.2683 12.125 35.8798 12.125 36.6341C12.125 37.3885 12.7406 38 13.5 38H27.25C28.0094 38 28.625 37.3885 28.625 36.6341C28.625 35.8798 28.0094 35.2683 27.25 35.2683H23.3645L26.3109 31.8538H27.2118C28.7516 31.8538 30 30.635 30 29.1317C30 27.0733 27.2118 26.4096 27.2118 26.4096C27.2118 26.4096 22.141 24.4732 16.25 26.3903C16.25 26.3903 16.0589 19.3872 13.101 11.599C12.5175 10.0624 10.6141 9.53772 9.21741 10.4468C8.29572 11.0467 7.83596 12.1303 8.05321 13.1907L11.6552 29.7006C11.9294 30.9572 13.0485 31.8538 14.3428 31.8538ZM19.6875 20.244C18.9281 20.244 18.3125 20.8555 18.3125 21.6098C18.3125 22.3642 18.9281 22.9757 19.6875 22.9757H27.25C28.0094 22.9757 28.625 22.3642 28.625 21.6098C28.625 20.8555 28.0094 20.244 27.25 20.244H19.6875Z" fill="black"/>
</svg>
