<svg xmlns="http://www.w3.org/2000/svg" width="110" height="78" fill="none"><g clip-path="url(#a)"><mask id="b" width="110" height="78" x="0" y="0" maskUnits="userSpaceOnUse" style="mask-type:luminance"><path fill="#fff" d="M102 0H8a8 8 0 0 0-8 8v62a8 8 0 0 0 8 8h94a8 8 0 0 0 8-8V8a8 8 0 0 0-8-8"/></mask><g mask="url(#b)"><path fill="#003f23" d="M0 0h110v78H0z"/><path fill="#406f5a" d="M81.538 30.465h.005v-.436C81.543 17.93 87.073 7.126 95.74 0H76.931l-113.15 66.514V78h146.217V67.904c-16.409-4.547-28.46-19.581-28.46-37.439"/><path fill="#fff" d="m14.58 17.702-1.96-4.186q-.014-.042-.056-.042h-2.016q-.056 0-.056.056v4.13q0 .14-.14.14H9.288q-.14 0-.14-.14V8.14q0-.14.14-.14h3.766q.84 0 1.477.35t.987.98.35 1.456q0 .98-.51 1.659c-.512.679-.816.758-1.422.917q-.057.028-.028.07l2.03 4.2q.014.028.014.07 0 .098-.112.098h-1.106q-.111 0-.154-.098m-4.088-8.484v3.136q.001.056.056.056h2.338q.741 0 1.19-.441.447-.441.448-1.17 0-.74-.448-1.19-.449-.447-1.19-.447h-2.338q-.056 0-.056.056m12.824 5.418q0 .14-.14.14H18.71q-.056 0-.056.056 0 .476.084.728.153.56.623.875t1.183.315q1.035 0 1.596-.854.07-.141.182-.042l.798.532q.099.084.042.182-.393.63-1.113.994-.721.364-1.63.364-1.024 0-1.723-.448c-.7-.448-.817-.724-1.05-1.274q-.336-.826-.336-2.002 0-1.023.154-1.554.252-.966 1.008-1.526.757-.56 1.834-.56 1.413 0 2.114.707.698.707.854 2.079.055.573.042 1.288m-4.004-2.611q-.393.3-.532.805a3.3 3.3 0 0 0-.126.784q.001.056.056.056h3.206q.057 0 .056-.056a4 4 0 0 0-.084-.686 1.6 1.6 0 0 0-.553-.875q-.414-.33-1.03-.33-.6 0-.993.302m5.866-2.723a.87.87 0 0 1-.252-.644.87.87 0 0 1 .252-.644c.252-.251.382-.252.644-.252q.392 0 .644.252a.87.87 0 0 1 .252.644.87.87 0 0 1-.252.644c-.252.252-.383.252-.644.252a.87.87 0 0 1-.644-.252m-.057 8.344v-6.832q0-.14.14-.14h1.065q.14 0 .14.14v6.832q0 .14-.14.14h-1.064q-.14 0-.14-.14m4.488-.014q-.636-.253-.987-.693c-.35-.44-.35-.618-.35-.973v-.154q0-.14.14-.14h1.008q.14 0 .14.14v.07q0 .392.428.686.426.294 1.085.294.63 0 1.022-.273t.392-.693a.66.66 0 0 0-.365-.61q-.363-.202-1.175-.426-.798-.225-1.338-.455c-.539-.23-.662-.373-.91-.658q-.37-.428-.37-1.1 0-.938.734-1.49.736-.553 1.954-.553.81 0 1.435.259.623.26.96.72.334.463.334 1.037v.042q0 .14-.14.14h-.98q-.14 0-.14-.14v-.042q0-.405-.399-.68-.398-.272-1.085-.272-.615 0-1 .238c-.386.238-.385.373-.385.644q0 .406.37.616.372.21 1.197.448.813.224 1.352.44.54.217.917.645c.38.427.377.655.377 1.113q0 .953-.749 1.512-.75.56-1.995.56-.84 0-1.477-.252m11.6-2.996q0 .14-.14.14H36.6q-.056 0-.056.056 0 .476.084.728.154.56.623.875.47.315 1.183.315 1.037 0 1.596-.854.07-.141.182-.042l.8.532q.098.084.041.182-.393.63-1.114.994-.72.364-1.63.364-1.023 0-1.723-.448c-.7-.448-.817-.724-1.05-1.274q-.335-.826-.335-2.002 0-1.023.153-1.554.252-.966 1.008-1.526.757-.56 1.834-.56 1.416 0 2.114.707.7.707.854 2.079.057.573.042 1.288m-4.005-2.611q-.39.3-.532.805a3.3 3.3 0 0 0-.126.784q.001.056.056.056h3.206q.056 0 .056-.056a4 4 0 0 0-.084-.686 1.6 1.6 0 0 0-.553-.875q-.413-.33-1.029-.33-.6 0-.994.302M42.9 17.66V8.14q0-.14.14-.14h1.064q.14 0 .14.14v5.39q0 .027.028.042.03.014.042-.014l2.59-2.814q.057-.07.168-.07h1.246q.084 0 .105.049.022.048-.035.119l-1.806 2.086q-.027.056-.014.084l2.142 4.62.014.056q0 .111-.126.112h-1.12q-.11 0-.154-.112L45.66 13.88q-.026-.07-.07-.014l-1.316 1.456a.2.2 0 0 0-.028.07v2.268q0 .14-.14.14h-1.064q-.14 0-.14-.14m7.868-.273q-.77-.525-1.078-1.463a5.4 5.4 0 0 1-.252-1.708q0-.996.24-1.68.306-.924 1.076-1.45c.77-.525 1.125-.524 1.834-.524q1.01 0 1.758.525.75.525 1.07 1.435.252.714.252 1.68 0 .98-.252 1.722-.308.938-1.064 1.463c-.756.525-1.096.525-1.777.525q-1.035 0-1.807-.525m2.787-.952q.42-.315.602-.89.153-.531.153-1.315 0-.786-.14-1.302-.18-.575-.6-.89t-1.024-.314q-.575 0-.993.315-.42.315-.602.889-.155.489-.155 1.302 0 .812.155 1.316.168.573.594.889.427.315 1.03.315.56 0 .98-.315m7.812-5.65q.096.043.07.169l-.225 1.05q-.014.126-.168.084a1.5 1.5 0 0 0-.56-.098l-.196.014q-.657.027-1.085.455c-.427.428-.426.656-.426 1.113v4.088q0 .14-.14.14h-1.064q-.14 0-.14-.14v-6.846q0-.14.14-.14h1.064q.14 0 .14.14v.742q0 .042.02.049.021.006.035-.021.63-.98 1.723-.98.448 0 .812.182m4.787.995h-1.512q-.056 0-.056.056v3.71q.001.588.266.847.267.258.826.259h.406q.14 0 .14.14v.868q0 .14-.14.14-.447.027-.644.028-1.065 0-1.603-.385-.54-.385-.539-1.421v-4.186q0-.056-.056-.056h-.854q-.14 0-.14-.14v-.826q0-.14.14-.14h.854q.056 0 .056-.056V8.966q0-.14.14-.14h1.008q.14 0 .14.14v1.652q.001.056.056.056h1.512q.14 0 .14.14v.826q0 .14-.14.14M100 8.25c.965 0 1.75.785 1.75 1.75v6c0 .965-.785 1.75-1.75 1.75h-6c-.965 0-1.75-.785-1.75-1.75v-6c0-.965.785-1.75 1.75-1.75zm0-.25h-6a2 2 0 0 0-2 2v6a2 2 0 0 0 2 2h6a2 2 0 0 0 2-2v-6a2 2 0 0 0-2-2"/><path fill="#fff" d="M100.75 13h-.25A3.5 3.5 0 0 0 97 9.5v-.25a3.764 3.764 0 0 1 3.75 3.75m-6.5 0c0-1.018.56-1.896 1.38-2.372l-.266-.462A3.29 3.29 0 0 0 93.725 13a3.29 3.29 0 0 0 1.639 2.834l.267-.462A2.74 2.74 0 0 1 94.25 13m5.584-1.636a3.3 3.3 0 0 0-1.198-1.198l-.267.462A2.74 2.74 0 0 1 99.75 13c0 1.018-.56 1.896-1.38 2.372l.266.462A3.29 3.29 0 0 0 100.275 13c0-.597-.162-1.154-.441-1.636M99.5 13a2.5 2.5 0 1 1-5 0 2.5 2.5 0 0 1 5 0m-.75 0a1.75 1.75 0 1 0-3.5 0 1.75 1.75 0 0 0 3.5 0m-.25 0a1.5 1.5 0 1 1-3 0 1.5 1.5 0 0 1 3 0m-1 0a.5.5 0 1 0-1 0 .5.5 0 0 0 1 0m-4 0h-.25A3.763 3.763 0 0 0 97 16.75v-.25a3.5 3.5 0 0 1-3.5-3.5"/></g></g><defs><clipPath id="a"><path fill="#fff" d="M0 0h110v78H0z"/></clipPath></defs></svg>