<svg width="40" height="40" viewBox="0 0 40 40" fill="none" xmlns="http://www.w3.org/2000/svg">
<path d="M11.3105 7.59115C12.2402 8.08566 13.395 7.73331 13.8895 6.80272C14.384 5.87301 14.0316 4.71828 13.1011 4.22377C12.1713 3.72926 11.0166 4.08161 10.5221 5.01219C10.0276 5.94191 10.3799 7.09664 11.3105 7.59115Z" fill="#EF60A3"/>
<path d="M7.89264 10.1226C9.60206 9.12661 11.5487 8.91555 13.3148 9.38128C15.08 9.84613 16.6682 10.9869 17.6634 12.6928L15.4045 14.0159C14.7757 12.9379 13.7675 12.2158 12.6441 11.9201C11.5225 11.6244 10.2911 11.7544 9.21657 12.3815L7.89351 10.1217L7.89264 10.1226Z" fill="url(#paint0_linear_4947_12583)"/>
<path d="M7.89264 10.1226C9.60206 9.12661 11.5487 8.91555 13.3148 9.38128C15.08 9.84613 16.6682 10.9869 17.6634 12.6928L15.4045 14.0159C14.7757 12.9379 13.7675 12.2158 12.6441 11.9201C11.5225 11.6244 10.2911 11.7544 9.21657 12.3815L7.89351 10.1217L7.89264 10.1226Z" fill="url(#paint1_linear_4947_12583)"/>
<path d="M19.2977 6.50474C18.2198 7.13356 17.4976 8.14177 17.202 9.2651C16.9063 10.3867 17.0363 11.6182 17.6633 12.6927L15.4045 14.0157C14.4085 12.3072 14.1974 10.3596 14.6631 8.59354C15.128 6.82831 16.2679 5.23925 17.9747 4.245L19.2977 6.50474Z" fill="url(#paint2_linear_4947_12583)"/>
<path d="M15.9235 14.5164C16.5619 14.8557 17.3547 14.6141 17.6939 13.9757C18.0332 13.3372 17.7916 12.5445 17.1532 12.2052C16.5148 11.8659 15.722 12.1075 15.3827 12.7459C15.0435 13.3843 15.2851 14.1771 15.9235 14.5164Z" fill="#307FE2"/>
<path d="M33.1075 30.4342C31.399 31.4302 29.4514 31.6412 27.6853 31.1755C25.921 30.7107 24.3319 29.5699 23.3368 27.8639L25.5965 26.5409C26.2245 27.618 27.2344 28.341 28.3569 28.6367C29.4785 28.9323 30.71 28.8015 31.7844 28.1753L33.1075 30.4342Z" fill="url(#paint3_linear_4947_12583)"/>
<path d="M21.7024 34.0519C22.7795 33.4239 23.5016 32.4148 23.7982 31.2915C24.0947 30.1699 23.963 28.9384 23.3368 27.8639L25.5965 26.5409C26.5925 28.2494 26.8036 30.197 26.3379 31.9631C25.873 33.7274 24.7968 35.1508 23.0263 36.3116L21.7033 34.0527L21.7024 34.0519Z" fill="url(#paint4_linear_4947_12583)"/>
<path d="M23.8468 28.3514C24.4852 28.6906 25.278 28.449 25.6173 27.8106C25.9566 27.1722 25.715 26.3794 25.0765 26.0402C24.4381 25.7009 23.6453 25.9425 23.3061 26.5809C22.9668 27.2193 23.2084 28.0121 23.8468 28.3514Z" fill="#00AD50"/>
<path d="M27.8842 36.343C28.8139 36.8375 29.9686 36.4851 30.4632 35.5546C30.9577 34.6248 30.6053 33.4701 29.6747 32.9756C28.745 32.4811 27.5903 32.8334 27.0958 33.764C26.6013 34.6937 26.9536 35.8485 27.8842 36.343Z" fill="#307FE2"/>
<path d="M26.8932 5.97311C26.9298 7.0258 27.8125 7.84911 28.8651 7.81248C29.9178 7.77585 30.7411 6.89323 30.7045 5.84054C30.6679 4.78786 29.7853 3.96455 28.7326 4.00118C27.6799 4.03781 26.8566 4.92042 26.8932 5.97311Z" fill="#FF6A14"/>
<path d="M22.9913 4.28088C24.7086 5.26293 25.8642 6.84414 26.3439 8.60588C26.8244 10.3668 26.6299 12.3134 25.6505 14.0272L23.3751 12.732C23.9943 11.6488 24.1155 10.4147 23.8103 9.29401C23.5059 8.17504 22.7768 7.17381 21.6962 6.55633L22.9913 4.28088Z" fill="url(#paint5_linear_4947_12583)"/>
<path d="M31.8272 12.3497C30.744 11.7305 29.5099 11.6093 28.3892 11.9145C27.2703 12.2189 26.2682 12.948 25.6515 14.0278L23.3761 12.7335C24.3581 11.0162 25.9394 9.86062 27.7011 9.38094C29.462 8.90038 31.4086 9.094 33.1233 10.0743L31.8281 12.3497H31.8272Z" fill="url(#paint6_linear_4947_12583)"/>
<path d="M23.2016 13.4362C23.2269 14.1583 23.8331 14.7243 24.5552 14.6991C25.2773 14.6738 25.8434 14.0676 25.8181 13.3455C25.7928 12.6233 25.1866 12.0573 24.4645 12.0826C23.7424 12.1079 23.1763 12.714 23.2016 13.4362Z" fill="#F9423A"/>
<path d="M18.0079 36.2741C16.2906 35.2921 15.135 33.7118 14.6545 31.9491C14.1748 30.1883 14.3684 28.2416 15.3487 26.527L17.6242 27.8221C17.0049 28.9045 16.8837 30.1403 17.1889 31.261C17.4933 32.38 18.2224 33.3812 19.3022 33.9987L18.0079 36.2741Z" fill="url(#paint7_linear_4947_12583)"/>
<path d="M9.17308 28.2067C10.2554 28.826 11.4904 28.9463 12.6111 28.6411C13.7301 28.3367 14.7313 27.6076 15.3488 26.527L17.6242 27.8221C16.6422 29.5394 15.061 30.6959 13.2992 31.1755C11.5383 31.6552 9.59171 31.4616 7.87793 30.4822L9.17308 28.2067Z" fill="url(#paint8_linear_4947_12583)"/>
<path d="M15.1821 27.2129C15.2074 27.9351 15.8135 28.5011 16.5357 28.4758C17.2578 28.4505 17.8238 27.8444 17.7985 27.1222C17.7733 26.4001 17.1671 25.834 16.445 25.8593C15.7228 25.8846 15.1568 26.4908 15.1821 27.2129Z" fill="#FAE053"/>
<path d="M10.2814 34.7048C10.318 35.7575 11.2006 36.5808 12.2533 36.5442C13.306 36.5075 14.1293 35.6249 14.0927 34.5722C14.0561 33.5195 13.1734 32.6962 12.1208 32.7329C11.0681 32.7695 10.2448 33.6521 10.2814 34.7048Z" fill="#F1B434"/>
<path d="M4.91773 21.8936C5.81081 21.3355 6.08292 20.1589 5.52475 19.2659C4.96657 18.3728 3.79004 18.1007 2.89695 18.6588C2.00387 19.217 1.73176 20.3935 2.28994 21.2866C2.84811 22.1797 4.02465 22.4518 4.91773 21.8936Z" fill="#00AD50"/>
<path d="M5.40094 26.1179C5.39309 24.1398 6.18413 22.3484 7.47055 21.0515C8.75523 19.7555 10.5379 18.9496 12.5125 18.9409L12.529 21.5591C11.281 21.5644 10.1515 22.0772 9.33434 22.9014C8.51801 23.7247 8.01478 24.8567 8.02001 26.1004L5.40181 26.117L5.40094 26.1179Z" fill="url(#paint9_linear_4947_12583)"/>
<path d="M7.97051 14.4334C7.97574 15.6814 8.48857 16.8109 9.31275 17.6281C10.1361 18.4444 11.2681 18.9476 12.5118 18.9424L12.5284 21.5606C10.5503 21.5693 8.75894 20.7774 7.46205 19.491C6.16603 18.2063 5.36016 16.4236 5.35144 14.4491L7.96964 14.4325L7.97051 14.4334Z" fill="url(#paint10_linear_4947_12583)"/>
<path d="M13.2224 21.3603C13.8355 20.9774 14.0221 20.1698 13.6393 19.5567C13.2564 18.9435 12.4488 18.7569 11.8357 19.1398C11.2225 19.5227 11.0359 20.3303 11.4188 20.9434C11.8016 21.5565 12.6093 21.7431 13.2224 21.3603Z" fill="#F1A7DC"/>
<path d="M35.5992 14.4373C35.6079 16.4153 34.816 18.2067 33.5295 19.5036C32.2449 20.7996 30.4622 21.6055 28.4868 21.6133L28.4711 18.9951C29.7182 18.9899 30.8494 18.4771 31.6666 17.652C32.4838 16.8287 32.9853 15.6967 32.981 14.453L35.5992 14.4364V14.4373Z" fill="url(#paint11_linear_4947_12583)"/>
<path d="M33.0297 26.1246C33.0244 24.8774 32.5116 23.748 31.6866 22.9299C30.8632 22.1127 29.7321 21.6104 28.4875 21.6156L28.4718 18.9974C30.4498 18.9887 32.2412 19.7806 33.5381 21.0661C34.8341 22.3517 35.6391 24.1344 35.6479 26.108L33.0297 26.1246Z" fill="url(#paint12_linear_4947_12583)"/>
<path d="M29.1645 21.4167C29.7776 21.0338 29.9642 20.2262 29.5813 19.6131C29.1985 18.9999 28.3909 18.8133 27.7777 19.1962C27.1646 19.579 26.978 20.3867 27.3608 20.9998C27.7437 21.6129 28.5513 21.7995 29.1645 21.4167Z" fill="#8031A7"/>
<path d="M38.103 21.9138C38.9961 21.3556 39.2682 20.1791 38.71 19.286C38.1519 18.3929 36.9753 18.1208 36.0823 18.679C35.1892 19.2372 34.9171 20.4137 35.4752 21.3068C36.0334 22.1998 37.2099 22.472 38.103 21.9138Z" fill="#56C271"/>
<defs>
<linearGradient id="paint0_linear_4947_12583" x1="9.66806" y1="13.2072" x2="15.8848" y2="9.61942" gradientUnits="userSpaceOnUse">
<stop offset="0.11" stop-color="#6C50A0"/>
<stop offset="0.25" stop-color="#7154A2"/>
<stop offset="0.42" stop-color="#7F60A8"/>
<stop offset="0.6" stop-color="#9875B3"/>
<stop offset="0.79" stop-color="#B991C2"/>
<stop offset="0.95" stop-color="#DBAED1"/>
</linearGradient>
<linearGradient id="paint1_linear_4947_12583" x1="9.66806" y1="13.2072" x2="15.8848" y2="9.61942" gradientUnits="userSpaceOnUse">
<stop offset="0.11" stop-color="#8031A7"/>
<stop offset="0.25" stop-color="#8436A9"/>
<stop offset="0.41" stop-color="#9244AF"/>
<stop offset="0.59" stop-color="#AA5DBA"/>
<stop offset="0.77" stop-color="#CA7EC9"/>
<stop offset="0.95" stop-color="#F1A7DC"/>
</linearGradient>
<linearGradient id="paint2_linear_4947_12583" x1="15.9352" y1="6.40711" x2="20.7945" y2="20.393" gradientUnits="userSpaceOnUse">
<stop stop-color="#307FE2"/>
<stop offset="0.52" stop-color="#00AD50"/>
</linearGradient>
<linearGradient id="paint3_linear_4947_12583" x1="32.2498" y1="31.4054" x2="22.7442" y2="25.5537" gradientUnits="userSpaceOnUse">
<stop stop-color="#F1A7DC"/>
<stop offset="0.18" stop-color="#ECA2DA"/>
<stop offset="0.36" stop-color="#E096D4"/>
<stop offset="0.55" stop-color="#CC81CB"/>
<stop offset="0.75" stop-color="#B164BD"/>
<stop offset="0.94" stop-color="#8D3EAD"/>
<stop offset="1" stop-color="#8031A7"/>
</linearGradient>
<linearGradient id="paint4_linear_4947_12583" x1="22.9077" y1="36.841" x2="25.0419" y2="29.1783" gradientUnits="userSpaceOnUse">
<stop offset="0.03" stop-color="#00AD50"/>
<stop offset="0.19" stop-color="#01AB54"/>
<stop offset="0.35" stop-color="#05A760"/>
<stop offset="0.51" stop-color="#0CA176"/>
<stop offset="0.68" stop-color="#169793"/>
<stop offset="0.85" stop-color="#228BB9"/>
<stop offset="1" stop-color="#307FE2"/>
</linearGradient>
<linearGradient id="paint5_linear_4947_12583" x1="22.509" y1="3.20072" x2="25.4868" y2="12.6667" gradientUnits="userSpaceOnUse">
<stop stop-color="#00AD50"/>
<stop offset="0.47" stop-color="#00AD50"/>
<stop offset="0.99" stop-color="#307FE2"/>
</linearGradient>
<linearGradient id="paint6_linear_4947_12583" x1="29.5614" y1="10.8837" x2="20.6375" y2="15.4424" gradientUnits="userSpaceOnUse">
<stop stop-color="#F9423A"/>
<stop offset="0.71" stop-color="#FAE053"/>
</linearGradient>
<linearGradient id="paint7_linear_4947_12583" x1="15.7612" y1="26.3517" x2="17.1192" y2="33.8208" gradientUnits="userSpaceOnUse">
<stop offset="0.12" stop-color="#00AD50"/>
<stop offset="0.99" stop-color="#307FE2"/>
</linearGradient>
<linearGradient id="paint8_linear_4947_12583" x1="17.7289" y1="27.6015" x2="5.70017" y2="31.4817" gradientUnits="userSpaceOnUse">
<stop stop-color="#F9423A"/>
<stop offset="0.52" stop-color="#FAE053"/>
</linearGradient>
<linearGradient id="paint9_linear_4947_12583" x1="7.56998" y1="24.4145" x2="15.6243" y2="13.9574" gradientUnits="userSpaceOnUse">
<stop stop-color="#F9423A"/>
<stop offset="0.5" stop-color="#FAE053"/>
</linearGradient>
<linearGradient id="paint10_linear_4947_12583" x1="17.3603" y1="21.2057" x2="8.68278" y2="17.6524" gradientUnits="userSpaceOnUse">
<stop stop-color="#8031A7"/>
<stop offset="0.19" stop-color="#9345B0"/>
<stop offset="0.58" stop-color="#C478C7"/>
<stop offset="0.89" stop-color="#F1A7DC"/>
</linearGradient>
<linearGradient id="paint11_linear_4947_12583" x1="30.4447" y1="19.944" x2="35.1003" y2="14.3178" gradientUnits="userSpaceOnUse">
<stop stop-color="#F9423A"/>
<stop offset="0.52" stop-color="#FAE053"/>
</linearGradient>
<linearGradient id="paint12_linear_4947_12583" x1="32.0443" y1="26.1271" x2="32.0456" y2="19.0008" gradientUnits="userSpaceOnUse">
<stop offset="0.11" stop-color="#8031A7"/>
<stop offset="0.25" stop-color="#8436A9"/>
<stop offset="0.41" stop-color="#9244AF"/>
<stop offset="0.59" stop-color="#AA5DBA"/>
<stop offset="0.77" stop-color="#CA7EC9"/>
<stop offset="0.95" stop-color="#F1A7DC"/>
</linearGradient>
</defs>
</svg>
