<svg id="Layer_1" data-name="Layer 1" xmlns="http://www.w3.org/2000/svg" viewBox="0 0 873.76 183.44"><defs><style>.cls-1{fill:#0082a3;}.cls-2{fill:#2e2d2c;}.cls-3{fill:#2d2d2b;}.cls-4{fill:#ffd500;isolation:isolate;}.cls-5{fill:#1d1d1b;}.cls-6{fill:none;stroke:#646363;stroke-miterlimit:10;}</style></defs><path class="cls-1" d="M673.83,136.58c-10,0-15.34-3.44-19.65-6.21-3.51-2.25-6-3.89-11.78-3.89s-8.27,1.64-11.78,3.89c-4.31,2.77-9.67,6.21-19.65,6.21s-15.35-3.44-19.65-6.21c-3.52-2.25-6.06-3.89-11.79-3.89v-20c10,0,15.35,3.44,19.65,6.21,3.52,2.26,6.06,3.89,11.79,3.89s8.27-1.63,11.78-3.89c4.3-2.77,9.66-6.21,19.65-6.21s15.35,3.44,19.65,6.21c3.52,2.26,6.06,3.89,11.78,3.89s8.27-1.63,11.79-3.89c4.3-2.77,9.66-6.21,19.65-6.21v20c-5.73,0-8.27,1.64-11.79,3.89C689.18,133.14,683.82,136.58,673.83,136.58Z" transform="translate(-63.99 -31.58)"/><rect class="cls-1" x="515.55" y="122.4" width="34.67" height="18.62"/><rect class="cls-1" x="561.08" y="122.4" width="34.67" height="18.62"/><rect class="cls-1" x="606.61" y="122.4" width="34.67" height="18.62"/><polygon class="cls-1" points="608.67 31.82 578.64 53.62 548.6 31.82 515.55 56.04 515.55 59.09 571.81 59.09 585.47 59.09 641.28 59.09 641.28 55.68 608.67 31.82"/><path class="cls-2" d="M826.8,114.48H785.46V115q0,8.33,5.19,12.42t13.63,4.09a39.79,39.79,0,0,0,8.89-.89,44.6,44.6,0,0,0,7.49-2.43l2,11.15a37.32,37.32,0,0,1-7.85,2.28,54.46,54.46,0,0,1-11.9,1.16,43.79,43.79,0,0,1-12.74-1.8,28.41,28.41,0,0,1-10.43-5.63,27.1,27.1,0,0,1-7.1-9.72A34.43,34.43,0,0,1,770,111.54a37.47,37.47,0,0,1,2.17-13.06,29.65,29.65,0,0,1,6.14-10.11,27.23,27.23,0,0,1,9.6-6.53,32.66,32.66,0,0,1,12.42-2.3q12.15,0,19.32,7.42t7.17,20.61ZM811.31,104a21.14,21.14,0,0,0-.63-5.19,12.77,12.77,0,0,0-2-4.41,9.78,9.78,0,0,0-3.65-3,12.09,12.09,0,0,0-5.31-1.09,12.59,12.59,0,0,0-9.47,3.84,17,17,0,0,0-4.48,10.11Z" transform="translate(-63.99 -31.58)"/><path class="cls-2" d="M895.88,92.49s-8.09-1.81-11.28-1.81-5.57.55-7.23,1.66a5.38,5.38,0,0,0-.45,8.77q2.05,1.73,8.19,3.52l3.84,1.15q8.19,2.43,12.35,6.65t4.16,11.14a16.82,16.82,0,0,1-6.65,14q-6.66,5.19-18.18,5.19a44.7,44.7,0,0,1-19.25-3.8l2-11.56a47,47,0,0,0,7.87,2.94,32.11,32.11,0,0,0,8.64,1.15q10.62,0,10.62-6.78a5.06,5.06,0,0,0-2.5-4.61,39.17,39.17,0,0,0-8.51-3.33l-4-1.28q-7.93-2.55-11.71-6.71c-2.51-2.78-3.77-6.42-3.77-11a16.51,16.51,0,0,1,1.66-7.36,17.16,17.16,0,0,1,4.67-5.82,22,22,0,0,1,7.3-3.78,31.94,31.94,0,0,1,9.53-1.34,53.17,53.17,0,0,1,10.18,1,41.1,41.1,0,0,1,9.15,2.88Z" transform="translate(-63.99 -31.58)"/><path class="cls-2" d="M773.2,81.13a22,22,0,0,0-3.88-1.44,20.51,20.51,0,0,0-5.38-.64,18.71,18.71,0,0,0-11.77,3.65,21.22,21.22,0,0,0-6.87,8.85l-2-11.34H731.69V141h15V111.9q0-9.72,4.48-14.2a15,15,0,0,1,11-4.48c.78,0,1.49,0,2.18.1Z" transform="translate(-63.99 -31.58)"/><polygon class="cls-2" points="770.87 46.57 773.02 59 781.75 59 771.38 73.2 771.38 109.42 786.92 109.42 786.92 46.57 770.87 46.57"/><path class="cls-3" d="M732.11,172.87V158.65h2.35l.46,2.74a4.93,4.93,0,0,1,1.65-2.12,4.52,4.52,0,0,1,2.77-.86,5.79,5.79,0,0,1,1.26.12,4.16,4.16,0,0,1,.94.33l-.57,2.59a4.18,4.18,0,0,0-1.9-.42,3.75,3.75,0,0,0-2.77,1.13,4.69,4.69,0,0,0-1.11,3.42v7.29Z" transform="translate(-63.99 -31.58)"/><path class="cls-3" d="M755.71,166.3h-10v.12a4.13,4.13,0,0,0,1.27,3.29,4.88,4.88,0,0,0,3.34,1.11,10.06,10.06,0,0,0,2.07-.19,9.15,9.15,0,0,0,1.85-.62l.6,2.26a10.23,10.23,0,0,1-2.08.65,12.76,12.76,0,0,1-2.65.25,10,10,0,0,1-2.92-.42,6.59,6.59,0,0,1-2.43-1.32,6.43,6.43,0,0,1-1.64-2.29,8.34,8.34,0,0,1-.6-3.32,8.68,8.68,0,0,1,.5-3,6.86,6.86,0,0,1,1.41-2.35,6.18,6.18,0,0,1,2.23-1.5,7.77,7.77,0,0,1,2.91-.53,6.81,6.81,0,0,1,2.52.45,5.44,5.44,0,0,1,1.92,1.28,5.59,5.59,0,0,1,1.24,2,7.61,7.61,0,0,1,.44,2.64Zm-3.2-2.17a4.89,4.89,0,0,0-.18-1.35,3.23,3.23,0,0,0-.54-1.1,2.64,2.64,0,0,0-.95-.75,3,3,0,0,0-1.4-.29,3.32,3.32,0,0,0-2.46,1,4.42,4.42,0,0,0-1.16,2.59Z" transform="translate(-63.99 -31.58)"/><path class="cls-3" d="M761.22,155.13a1.75,1.75,0,1,1,1.28-3,1.7,1.7,0,0,1,.5,1.25,1.68,1.68,0,0,1-.5,1.26A1.73,1.73,0,0,1,761.22,155.13Zm-1.57,17.74V158.65h3.11v14.22Z" transform="translate(-63.99 -31.58)"/><path class="cls-3" d="M775.83,161.54a9.28,9.28,0,0,0-1.79-.64,6.63,6.63,0,0,0-1.64-.2,3.27,3.27,0,0,0-1.92.47,1.45,1.45,0,0,0-.64,1.25,1.36,1.36,0,0,0,.48,1,5.5,5.5,0,0,0,2,.86l.9.27a7.45,7.45,0,0,1,3,1.56,3.44,3.44,0,0,1,1,2.59,3.91,3.91,0,0,1-1.51,3.21,6.33,6.33,0,0,1-4.13,1.22,12.84,12.84,0,0,1-2.63-.25,9.88,9.88,0,0,1-2.19-.71l.72-2.35a11.24,11.24,0,0,0,1.87.69,7.85,7.85,0,0,0,2,.27,3.8,3.8,0,0,0,2-.45,1.51,1.51,0,0,0,.72-1.38,1.35,1.35,0,0,0-.64-1.26,10.56,10.56,0,0,0-2-.79l-.93-.27a6.91,6.91,0,0,1-2.82-1.6,3.53,3.53,0,0,1-.92-2.53,3.63,3.63,0,0,1,.39-1.69,4.23,4.23,0,0,1,1.09-1.3,5.14,5.14,0,0,1,1.67-.84,7.32,7.32,0,0,1,2.16-.3,12.7,12.7,0,0,1,2.27.21,9.13,9.13,0,0,1,2.15.66Z" transform="translate(-63.99 -31.58)"/><path class="cls-3" d="M783.88,172.87h-3.11V158.65h2.44l.43,1.9a8.44,8.44,0,0,1,2.21-1.58,6,6,0,0,1,2.64-.56,4.73,4.73,0,0,1,3.49,1.23,4.8,4.8,0,0,1,1.24,3.53v9.7h-3.11v-9.31a2.9,2.9,0,0,0-.63-2,2.39,2.39,0,0,0-1.9-.72,4.3,4.3,0,0,0-1.91.47,6.5,6.5,0,0,0-1.79,1.34Z" transform="translate(-63.99 -31.58)"/><path class="cls-3" d="M811.08,165.61a8.64,8.64,0,0,1-.55,3.19,6.83,6.83,0,0,1-1.53,2.38,6.38,6.38,0,0,1-2.26,1.48,7.54,7.54,0,0,1-2.8.51,7.84,7.84,0,0,1-2.78-.48,6.35,6.35,0,0,1-2.23-1.4,6.17,6.17,0,0,1-1.48-2.27,9.38,9.38,0,0,1,0-6.3,6.86,6.86,0,0,1,1.52-2.35,6.43,6.43,0,0,1,2.26-1.46,7.78,7.78,0,0,1,2.8-.5,8.09,8.09,0,0,1,2.79.47,6.09,6.09,0,0,1,3.71,3.63A8.54,8.54,0,0,1,811.08,165.61Zm-3.22.15a7,7,0,0,0-.33-2.3,4.42,4.42,0,0,0-.88-1.56,3.23,3.23,0,0,0-1.23-.87,4,4,0,0,0-1.45-.27,4.26,4.26,0,0,0-1.41.24,3,3,0,0,0-1.24.81,4.13,4.13,0,0,0-.86,1.54,7.88,7.88,0,0,0-.31,2.41,7.05,7.05,0,0,0,.33,2.29,4.67,4.67,0,0,0,.87,1.58,3.22,3.22,0,0,0,1.25.91,3.79,3.79,0,0,0,1.43.28,4.28,4.28,0,0,0,1.42-.24,2.93,2.93,0,0,0,1.23-.83,4,4,0,0,0,.86-1.56A8,8,0,0,0,807.86,165.76Z" transform="translate(-63.99 -31.58)"/><path class="cls-3" d="M814.76,172.87V158.65h2.35l.45,2.74a4.88,4.88,0,0,1,1.66-2.12,4.5,4.5,0,0,1,2.77-.86,5.7,5.7,0,0,1,1.25.12,4.24,4.24,0,0,1,1,.33l-.57,2.59a4.23,4.23,0,0,0-.83-.3,4.32,4.32,0,0,0-1.07-.12,3.73,3.73,0,0,0-2.77,1.13,4.65,4.65,0,0,0-1.12,3.42v7.29Z" transform="translate(-63.99 -31.58)"/><path class="cls-3" d="M835.25,151.45h3.1v21.42h-2.44l-.36-1.56h-.12a5,5,0,0,1-4.25,1.86,5.92,5.92,0,0,1-2.31-.46,5.63,5.63,0,0,1-2-1.4,6.89,6.89,0,0,1-1.37-2.32,9,9,0,0,1-.52-3.2,9.92,9.92,0,0,1,.44-3,6.43,6.43,0,0,1,1.27-2.32,5.61,5.61,0,0,1,2-1.49,6.8,6.8,0,0,1,2.74-.53,6.47,6.47,0,0,1,2,.33,4.92,4.92,0,0,1,1.69.93Zm0,10.73a3.91,3.91,0,0,0-3-1.45,4.24,4.24,0,0,0-1.5.27,3.46,3.46,0,0,0-1.3.87,4.38,4.38,0,0,0-.9,1.54,6.93,6.93,0,0,0-.33,2.29,7.53,7.53,0,0,0,.31,2.32,5,5,0,0,0,.83,1.6,3.07,3.07,0,0,0,1.19.92,3.57,3.57,0,0,0,1.4.28,3.77,3.77,0,0,0,1.92-.48,4.47,4.47,0,0,0,1.43-1.35Z" transform="translate(-63.99 -31.58)"/><path class="cls-3" d="M843,172.87V151.45h3v21.42Z" transform="translate(-63.99 -31.58)"/><path class="cls-3" d="M850.92,159.92a13.15,13.15,0,0,1,2.66-1.13,10.13,10.13,0,0,1,2.85-.38,8.52,8.52,0,0,1,2.21.27,4.53,4.53,0,0,1,1.74.87,4,4,0,0,1,1.13,1.62,6.58,6.58,0,0,1,.4,2.45v9.25h-2.5l-.33-1.53H859a5,5,0,0,1-2,1.4,6.74,6.74,0,0,1-2.47.43,5.07,5.07,0,0,1-3.45-1.14,3.85,3.85,0,0,1-1.31-3,3.89,3.89,0,0,1,1.84-3.47,6.45,6.45,0,0,1,2.08-.86,11.52,11.52,0,0,1,2.65-.28h2.41v-1.09a2.19,2.19,0,0,0-.72-1.88,3.36,3.36,0,0,0-2-.53,7,7,0,0,0-1.76.26,9.6,9.6,0,0,0-2.25,1Zm7.89,6.5-1.9,0a5.29,5.29,0,0,0-3,.76,2,2,0,0,0-.88,1.63,2.21,2.21,0,0,0,.2,1,1.72,1.72,0,0,0,.53.63,2.09,2.09,0,0,0,.77.35,3.74,3.74,0,0,0,.89.1,4,4,0,0,0,1.85-.46,4.32,4.32,0,0,0,1.55-1.34Z" transform="translate(-63.99 -31.58)"/><path class="cls-3" d="M869.35,172.87h-3.1V158.65h2.44l.42,1.9a8.49,8.49,0,0,1,2.22-1.58,6,6,0,0,1,2.63-.56,4.74,4.74,0,0,1,3.5,1.23,4.8,4.8,0,0,1,1.24,3.53v9.7h-3.11v-9.31a2.9,2.9,0,0,0-.63-2,2.4,2.4,0,0,0-1.9-.72,4.3,4.3,0,0,0-1.91.47,6.54,6.54,0,0,0-1.8,1.34Z" transform="translate(-63.99 -31.58)"/><path class="cls-3" d="M892.62,151.45h3.1v21.42h-2.44l-.36-1.56h-.12a5.8,5.8,0,0,1-1.75,1.38,5.62,5.62,0,0,1-2.5.48,5.88,5.88,0,0,1-2.31-.46,5.76,5.76,0,0,1-2-1.4,7.06,7.06,0,0,1-1.37-2.32,9.26,9.26,0,0,1-.51-3.2,9.92,9.92,0,0,1,.44-3,6.56,6.56,0,0,1,1.26-2.32,5.65,5.65,0,0,1,2-1.49,6.76,6.76,0,0,1,2.74-.53,6.52,6.52,0,0,1,2,.33,5,5,0,0,1,1.69.93Zm0,10.73a3.91,3.91,0,0,0-3-1.45,4.24,4.24,0,0,0-1.5.27,3.39,3.39,0,0,0-1.3.87,4.38,4.38,0,0,0-.9,1.54,6.66,6.66,0,0,0-.34,2.29,7.51,7.51,0,0,0,.32,2.32,5,5,0,0,0,.83,1.6,3.07,3.07,0,0,0,1.19.92,3.57,3.57,0,0,0,1.4.28,3.74,3.74,0,0,0,1.91-.48,4.5,4.5,0,0,0,1.44-1.35Z" transform="translate(-63.99 -31.58)"/><path class="cls-3" d="M899.88,171.06a2,2,0,0,1,2-2,1.93,1.93,0,0,1,1.4.58,2,2,0,0,1,.58,1.46,2,2,0,0,1-.58,1.54,2,2,0,0,1-1.4.57,2,2,0,0,1-1.42-.57A2,2,0,0,1,899.88,171.06Z" transform="translate(-63.99 -31.58)"/><path class="cls-3" d="M910.54,172.87h-3.1V158.65h2.44l.42,1.9a8.33,8.33,0,0,1,2.22-1.58,6,6,0,0,1,2.63-.56,4.29,4.29,0,0,1,4.73,4.76v9.7h-3.1v-9.31a2.9,2.9,0,0,0-.63-2,2.41,2.41,0,0,0-1.9-.72,4.38,4.38,0,0,0-1.92.47,6.5,6.5,0,0,0-1.79,1.34Z" transform="translate(-63.99 -31.58)"/><path class="cls-3" d="M937.75,165.61a8.64,8.64,0,0,1-.56,3.19,6.81,6.81,0,0,1-1.52,2.38,6.48,6.48,0,0,1-2.26,1.48,7.57,7.57,0,0,1-2.8.51,7.9,7.9,0,0,1-2.79-.48,6.44,6.44,0,0,1-2.23-1.4,6.28,6.28,0,0,1-1.47-2.27,9.38,9.38,0,0,1,0-6.3,6.72,6.72,0,0,1,1.52-2.35,6.34,6.34,0,0,1,2.26-1.46,7.74,7.74,0,0,1,2.8-.5,8.17,8.17,0,0,1,2.79.47,6.31,6.31,0,0,1,2.23,1.37,6.07,6.07,0,0,1,1.47,2.26A8.53,8.53,0,0,1,937.75,165.61Zm-3.22.15a7,7,0,0,0-.34-2.3,4.57,4.57,0,0,0-.87-1.56,3.19,3.19,0,0,0-1.24-.87,3.92,3.92,0,0,0-1.44-.27,4.32,4.32,0,0,0-1.42.24,3.07,3.07,0,0,0-1.23.81,4.13,4.13,0,0,0-.86,1.54,7.86,7.86,0,0,0-.32,2.41,7.05,7.05,0,0,0,.33,2.29,4.68,4.68,0,0,0,.88,1.58,3.22,3.22,0,0,0,1.25.91,3.79,3.79,0,0,0,1.43.28,4.37,4.37,0,0,0,1.42-.24,2.93,2.93,0,0,0,1.23-.83,4.15,4.15,0,0,0,.86-1.56A8,8,0,0,0,934.53,165.76Z" transform="translate(-63.99 -31.58)"/><path class="cls-4" d="M64.45,64.7v42.63c0,42.7,47.26,74.47,47.26,74.47S159,150,159,107.33V64.7Z" transform="translate(-63.99 -31.58)"/><path class="cls-5" d="M64,64.25v43.08c0,42.45,47,74.54,47.46,74.86l.26.17.25-.17c.48-.32,47.47-32.41,47.47-74.86V64.25Zm94.53.91v42.17c0,40.41-43.19,71.39-46.81,73.91-3.63-2.52-46.81-33.5-46.81-73.91V65.16Z" transform="translate(-63.99 -31.58)"/><path class="cls-5" d="M84.35,80.05s-1.74,0-1.95,0c-.37,0-.55-1.38.21-1.43l59,1.5c.52,0,.4,1.38-.48,1.38h-1.39s-29.13,22.32-24.71,42.56c1.09,5,7.24,11.58,7.24,11.58l-1.49.28A24.26,24.26,0,0,0,111,128.7c-4.3-1.5-9.09,1.49-3.55,7.32l.22.55S82.18,120.15,84.35,80.05Z" transform="translate(-63.99 -31.58)"/><polygon class="cls-5" points="47.46 48.07 47.12 39.17 46.32 38.98 46.2 48 47.46 48.07"/><path class="cls-5" d="M110.82,76.23s-2.7-.2-2.65-2.17c0-1.65,2.13-1.81,2.13-1.81l.52-.79a2.65,2.65,0,0,0-1.5.39c-.51.37-.85.75-1.64.48a8.21,8.21,0,0,0-2.81-.87,4.82,4.82,0,0,0-2.53,1s-1,.79-2.81-.7a3.67,3.67,0,0,0-2.8-.71c-1,.14-.86.83-3.15,1.68,0,0-1.66.43-1.92-.19,0,0-.74,1.26,1.4,1.49,1.14.11,2.57-.78,3.48-.75,2.13,0,2,.7,2.61,1.21a4,4,0,0,0,3.94.59c1.42-.74,1.48-.72,2-.68s.53.95,2.62,1.06a3.46,3.46,0,0,0,2.88,1.5Z" transform="translate(-63.99 -31.58)"/><path class="cls-5" d="M140.67,114s.06-.52,1.36-.81c.1,0,.76.08.3,1l-.1.22a16.21,16.21,0,0,0-.52,3.94l-.43,9.92a6.5,6.5,0,0,0,1.11,3.81,6.65,6.65,0,0,1,.8,3.87s-.62,5.28-.7,5.53a1.63,1.63,0,0,1-1.92,1.41s-1.66-.26-1.56-1.68C139,141.05,140.75,114.3,140.67,114Z" transform="translate(-63.99 -31.58)"/><path class="cls-5" d="M140.22,129.7l-17.33,3.41a4.21,4.21,0,0,0-.77.88s-.53,1,.37.88c0,0,.14-.16.14-.16s.26-.72.79-.79l17-3.53Z" transform="translate(-63.99 -31.58)"/><polygon class="cls-5" points="45.1 96.47 45.01 104.41 46.85 104.86 47.03 95.93 45.1 96.47"/><path class="cls-5" d="M139.45,112.9s-.72,25-1.34,26.85c0,0-.11,2.89-3.74,3.8,0,0-47.51,0-49.09-.05,0,0-6.13-.47-6.22-6.19,0,0-1.26-30.13-1-32.95,0,0,.35-.43,1.13.26l1.66,1.24s.53.48.08,1.68c0,0-2.26,10.1-.08,16.08,0,0,2.17,9.49,9.05,10.37,0,0,15.41,2.2,38.4,1a11.31,11.31,0,0,0,9-9.51s1.66-8-.35-13.8c0,0-.26-.52,1.15-.08C138.15,111.58,139.53,112.2,139.45,112.9Z" transform="translate(-63.99 -31.58)"/><path class="cls-5" d="M79.54,118.5a.86.86,0,0,0,1,0s-.32-1,.27-1.19c0,0,2.93-.1,3.38-.16,0,0,.71.25,0,1,0,0-3.93,4.34-4.14,4.34l-1.36,0s-3.39-3.35-4.32-4.48c0,0-.65-.65.27-.72h2.48a.7.7,0,0,1,.59.53,1.68,1.68,0,0,1,0,.65.8.8,0,0,0,.91.2C79.13,118.61,79.54,118.5,79.54,118.5Z" transform="translate(-63.99 -31.58)"/><path class="cls-5" d="M198.14,158.9c-3.19,0-5.65-.08-7.75-.15v7.09l7.08-.11c.85,0,.88.39.88,1.14v.49c0,.75,0,1.14-.88,1.14l-7.08-.11v10.1c0,.81-.22,1-.88,1H188c-.88,0-1.09-.14-1.09-1V156.77c0-.89.38-.92,1.09-.92h10.1c.56,0,.88.1.88.92v1C199,158.51,199,158.9,198.14,158.9Z" transform="translate(-63.99 -31.58)"/><path class="cls-5" d="M219.75,157.19,212.8,170.3v8.19c0,.81-.24,1-.87,1h-1.47c-.92,0-1.09-.14-1.09-1v-7.87l-7.09-13.43a1.57,1.57,0,0,1-.21-.78c0-.39.28-.56.74-.56h1.86a1.05,1.05,0,0,1,1.19.74l5.22,10.17,5.41-10.17a1.05,1.05,0,0,1,1.19-.74h1.51c.46,0,.77.17.77.56A1.24,1.24,0,0,1,219.75,157.19Z" transform="translate(-63.99 -31.58)"/><path class="cls-5" d="M235.05,179.51h-9.79c-.88,0-1.09-.14-1.09-1V156.77c0-.89.38-.92,1.09-.92h1.47c.78,0,.88.32.88.92v19.8c2,0,4.39-.07,7.44-.1.84,0,.84.39.84,1.13v1C235.89,179.41,235.61,179.51,235.05,179.51Z" transform="translate(-63.99 -31.58)"/><path class="cls-5" d="M255.5,179.51h-2.38a1.8,1.8,0,0,1-1.66-.78l-8.27-9v8.76c0,.81-.21,1-.88,1h-1.47c-.88,0-1.09-.14-1.09-1V156.77c0-.89.38-.92,1.09-.92h1.47c.77,0,.88.32.88.92v9.78l8.27-9.92c.57-.68.78-.78,1.48-.78h1.79c.77,0,.81.53.42,1l-9,10.88,9.62,10.52C256.42,179,256.2,179.51,255.5,179.51Z" transform="translate(-63.99 -31.58)"/><path class="cls-5" d="M272.21,179.51H261.43c-.88,0-1.09-.14-1.09-1V156.77c0-.89.39-.92,1.09-.92h10.78c.55,0,.87.1.87.92v1c0,.75,0,1.14-.87,1.14-3.2,0-6.25-.08-8.43-.15v7.12c2.07-.07,4.49-.1,7.65-.14.84,0,.88.39.88,1.14v.49c0,.75,0,1.14-.88,1.14-3.16,0-5.58-.07-7.65-.15v8.26c2.18-.07,5.23-.11,8.43-.14.83,0,.87.39.87,1.13v1C273.08,179.41,272.76,179.51,272.21,179.51Z" transform="translate(-63.99 -31.58)"/><path class="cls-5" d="M290.27,177.35c-1.16,2.37-4.28,2.48-6.66,2.48-2,0-3.9-.17-5.06-.28-.91-.07-1.23-.14-1.23-.67v-1.24c0-.82,0-1.17.71-1.17,1.93,0,1.47.28,6.1.28,2.49,0,3.41-.25,3.41-3s0-3.19-1.62-3.86-2.91-1.28-4.35-1.95c-3.44-1.59-4-2.16-4-6.31,0-1.7,0-3.54,1.33-4.75s3.44-1.27,6.35-1.27c1.58,0,2.42.07,3.93.18.88.07,1.23.14,1.23.67v1.24c0,.82,0,1.17-.7,1.17-1.37,0-1-.18-3.79-.18l-2.49,0c-2.49,0-2.53,1.06-2.53,3.33,0,1.66.11,2.05,1.58,2.76l2.88,1.28c4.49,2,5.51,2.51,5.51,6.44C290.87,173.81,290.87,176.15,290.27,177.35Z" transform="translate(-63.99 -31.58)"/><path class="cls-5" d="M311.85,179.51h-2.39a1.78,1.78,0,0,1-1.65-.78l-8.28-9v8.76c0,.81-.21,1-.88,1h-1.47c-.87,0-1.08-.14-1.08-1V156.77c0-.89.38-.92,1.08-.92h1.47c.78,0,.88.32.88.92v9.78l8.28-9.92c.56-.68.78-.78,1.48-.78h1.79c.77,0,.81.53.42,1l-9,10.88,9.61,10.52C312.76,179,312.55,179.51,311.85,179.51Z" transform="translate(-63.99 -31.58)"/><path class="cls-5" d="M332.58,177.1c-1.75,2.34-4,3.16-7.05,3.16s-5.3-.82-7-3.16c-2-2.72-2.28-6-2.28-9.38s.28-6.7,2.28-9.43c1.82-2.48,4.21-3.11,7-3.11s5.19.63,7.05,3.11c2,2.73,2.28,6.1,2.28,9.43S334.58,174.38,332.58,177.1ZM330.41,161c-.91-2.09-2.84-2.76-4.88-2.76s-4,.67-4.87,2.76c-.74,1.7-.85,4.82-.85,6.7s.11,5,.85,6.66c.87,2.09,2.8,2.76,4.87,2.76s4-.67,4.88-2.76c.73-1.7.84-4.79.84-6.66S331.14,162.72,330.41,161Z" transform="translate(-63.99 -31.58)"/><path class="cls-5" d="M361.74,179.51h-1.47c-.64,0-.85-.21-.88-1l-1.05-18.18c-.29.92-.71,2.59-1.06,3.58-1.44,4.22-3,8.86-4.1,11.76-.28.78-.53,1.07-1.33,1.07h-.91c-.82,0-1-.29-1.3-1.07-1.09-2.9-2.74-7.54-4.18-11.76-.35-1-.74-2.66-1-3.58l-1.12,18.18c0,.81-.22,1-.88,1H341c-.87,0-1.15-.14-1.08-1l1.79-21.72c.07-.89.38-.92,1.08-.92h2c.77,0,.95.17,1.16.74,1.43,3.86,3.78,10.7,5.47,15.66,1.69-5,4-11.8,5.44-15.66.21-.57.42-.74,1.19-.74h2c.71,0,1,0,1.06.92l1.79,21.72C362.9,179.37,362.65,179.51,361.74,179.51Z" transform="translate(-63.99 -31.58)"/><path class="cls-5" d="M389.7,179.51h-1.47c-.63,0-.84-.21-.88-1l-1.05-18.18c-.28.92-.7,2.59-1.05,3.58-1.44,4.22-3,8.86-4.11,11.76-.28.78-.53,1.07-1.33,1.07h-.91c-.81,0-1-.29-1.3-1.07-1.09-2.9-2.74-7.54-4.18-11.76-.35-1-.74-2.66-1-3.58l-1.12,18.18c0,.81-.21,1-.88,1H369c-.88,0-1.16-.14-1.09-1l1.79-21.72c.07-.89.39-.92,1.09-.92h2c.77,0,.95.17,1.16.74,1.44,3.86,3.79,10.7,5.47,15.66,1.69-5,4-11.8,5.44-15.66.21-.57.42-.74,1.19-.74h2c.7,0,1,0,1.05.92l1.79,21.72C390.86,179.37,390.62,179.51,389.7,179.51Z" transform="translate(-63.99 -31.58)"/><path class="cls-5" d="M413.14,173.67a8.56,8.56,0,0,1-2,4.53c-1.2,1.28-3.13,1.84-6.5,1.84s-5.26-.56-6.45-1.84a8.56,8.56,0,0,1-2-4.53,52.37,52.37,0,0,1-.43-9v-7.86c0-.89.39-.92,1.09-.92h1.47c.78,0,.88.32.88.92v11c0,4.15.18,5.56.81,7,.7,1.6,2,2.2,4.59,2.2s3.94-.6,4.63-2.2c.64-1.42.81-2.83.81-7v-11c0-.89.43-.92,1.13-.92h1.47c.77,0,.84.32.84.92v7.86A53.78,53.78,0,0,1,413.14,173.67Z" transform="translate(-63.99 -31.58)"/><path class="cls-5" d="M435.74,179.51h-1.16c-.6,0-1,0-1.44-.53-2.84-4.11-7.51-11.51-10.92-16.86v16.37c0,.81-.24,1-.87,1h-1.47c-.92,0-1.09-.14-1.09-1V156.77c0-.89.35-.92,1.09-.92h1c.74,0,.94,0,1.26.49,2.88,4.22,7.2,11.06,11.05,16.94V156.77c0-.89.35-.92,1.06-.92h1.51c.77,0,.87.32.87.92v21.72C436.61,179.3,436.37,179.51,435.74,179.51Z" transform="translate(-63.99 -31.58)"/><path class="cls-5" d="M454.16,179.51H443.38c-.87,0-1.08-.14-1.08-1V156.77c0-.89.38-.92,1.08-.92h10.78c.56,0,.87.1.87.92v1c0,.75,0,1.14-.87,1.14-3.2,0-6.25-.08-8.42-.15v7.12c2.07-.07,4.49-.1,7.64-.14.84,0,.88.39.88,1.14v.49c0,.75,0,1.14-.88,1.14-3.15,0-5.57-.07-7.64-.15v8.26c2.17-.07,5.22-.11,8.42-.14.84,0,.87.39.87,1.13v1C455,179.41,454.72,179.51,454.16,179.51Z" transform="translate(-63.99 -31.58)"/><path class="cls-5" d="M225.51,69.58c-.18,2.06-.23,10-.11,19.81l0-4.44h0c.15,11.62.52,25.75,1.16,35.42,0,0-22.07-25.78-31.27-39.74,0,0-.27-4-.32-6.87S193.37,70,193.37,70s-4.61-3.13-6.59-4.28c0,0,0,38.31,0,57.64,0,15.55,9.76,16.38,9.76,16.38l-.57-45.06c11.36,15.9,31.21,48,38.84,46.39,0,0,.94-41.12,1.33-53.94A18.68,18.68,0,0,0,225.51,69.58Z" transform="translate(-63.99 -31.58)"/><path class="cls-5" d="M390.51,112.18s-2.31,10.7,1.57,19.2c3.39-4.25,4.08-16.37,9.94-15.16s2.43,22.56,14.28,25.3C418.4,114.63,408.88,89.23,390.51,112.18Z" transform="translate(-63.99 -31.58)"/><path class="cls-5" d="M274.86,125.65a48.87,48.87,0,0,0,3,15.39c6.49-4.77,2.32-18.7,5.37-22.21s6.17-2.72,6.86-2.32c1-2.56-.64-7.48-2.67-8.67a7,7,0,0,0-8,.65c-2.81,2.24-5.56,4.75-7.2,5.3C272.23,113.79,274.62,117.12,274.86,125.65Z" transform="translate(-63.99 -31.58)"/><path class="cls-5" d="M344.07,70c.07-1.89-2.08-2.76-2.08-2.76s-3.07-1.41-6.45-2.56c0,0-.17,47.46-.76,64.52-.48,13.69,7.8,11.21,7.8,11.21l.81-42S344,73,344.07,70Z" transform="translate(-63.99 -31.58)"/><path class="cls-5" d="M302.33,140.44s2.17,1.78,4.33.72a35.87,35.87,0,0,0,11.12-10c1.74,9.13,7.85,8.85,7.85,8.85l.81-44.14s.47-14.7.5-17.66c0-3.41-1.82-4.3-1.82-4.3l-7.23-4.24s.09,16.49-.18,36.94c-8.56-.44-22.57,3.77-22.91,13.53C294.36,132.71,299.24,137.8,302.33,140.44Zm15.1-19.3c-2.14,5-4.69,8.83-11.58,13.42-2.75-2.88-3.24-12-1.44-15.22s9-6.1,12.91-5.32C317.92,114.2,317.81,120.07,317.43,121.14Z" transform="translate(-63.99 -31.58)"/><path class="cls-5" d="M438.37,141.29s-.07.07,0,0a49.08,49.08,0,0,0,8.54-10.17c1.45,10.18,8.09,8.28,8.09,8.28l.12-48.12s.2-9.79.24-12.75a5.28,5.28,0,0,0-1.82-4.3s-.48-.63-6.51-2.34c0,0,.19,16.08,0,35-8.1,1.67-24.88,8.06-25.25,18.91-.29,8.21,7.36,12.69,11.53,15.7A4.52,4.52,0,0,0,438.37,141.29Zm8.55-27.06c.42.15.23,5.88-.16,7.27-2.22,5.74-4.52,8.18-9.4,11.73-3.15-2-7.51-5.37-5.71-8.56S443.74,114.44,446.92,114.23Z" transform="translate(-63.99 -31.58)"/><path class="cls-5" d="M267.92,126.76c.13-4-.77-8.69-3.58-14.48s-9.73-6.86-9.73-6.86c0,14.58,10.16,13.72,8.21,25.71,0,0-1.74,1.7-7.29,1.38-7.72-.46-5.64-14.88-4.12-19.84-17.17,4.4-14,33.27,10.67,28.37C266.09,137.45,267.75,132.31,267.92,126.76Z" transform="translate(-63.99 -31.58)"/><path class="cls-5" d="M348.62,131.22s-1,3.77.76,5.13c5.89,4.82,21,3.58,25.49-11,.37,8.35,2.8,17.79,13,16.51.61-.1-1.56-9.28-4-18.15a142.42,142.42,0,0,0-4.83-15.51,4.91,4.91,0,0,0-4.61-2.93C359,107.11,352.24,119.58,348.62,131.22Zm5.1,1.78c.22-6.13,9.92-17.73,19.94-19C367.8,119,364.58,134.23,353.72,133Z" transform="translate(-63.99 -31.58)"/><line class="cls-6" x1="452.93" x2="452.93" y2="183.44"/></svg>