<svg width="16" height="16" viewBox="0 0 16 16" fill="none" xmlns="http://www.w3.org/2000/svg">
  <path
    d="M4.875 6.4375H1.125C0.87636 6.4375 0.637903 6.33873 0.462087 6.16291C0.286272 5.9871 0.1875 5.74864 0.1875 5.5V1.75C0.1875 1.50136 0.286272 1.2629 0.462087 1.08709C0.637903 0.911272 0.87636 0.8125 1.125 0.8125C1.37364 0.8125 1.6121 0.911272 1.78791 1.08709C1.96373 1.2629 2.0625 1.50136 2.0625 1.75V2.83281C3.36328 1.55156 5.36641 0.1875 8 0.1875C11.4734 0.1875 13.575 2.24922 13.6633 2.33672C13.8371 2.5127 13.9343 2.75024 13.9338 2.99759C13.9332 3.24494 13.835 3.48205 13.6604 3.65726C13.4858 3.83247 13.249 3.93158 13.0017 3.93301C12.7543 3.93443 12.5164 3.83804 12.3398 3.66484C12.3055 3.63203 10.6562 2.0625 8 2.0625C5.73438 2.0625 4.02031 3.44375 3 4.5625H4.875C5.12364 4.5625 5.3621 4.66127 5.53791 4.83709C5.71373 5.0129 5.8125 5.25136 5.8125 5.5C5.8125 5.74864 5.71373 5.9871 5.53791 6.16291C5.3621 6.33873 5.12364 6.4375 4.875 6.4375ZM14.875 9.5625H11.125C10.8764 9.5625 10.6379 9.66127 10.4621 9.83709C10.2863 10.0129 10.1875 10.2514 10.1875 10.5C10.1875 10.7486 10.2863 10.9871 10.4621 11.1629C10.6379 11.3387 10.8764 11.4375 11.125 11.4375H13C11.9844 12.5562 10.2656 13.9375 8 13.9375C5.34375 13.9375 3.69453 12.368 3.66016 12.3344C3.48356 12.1612 3.24568 12.0648 2.99833 12.0662C2.75099 12.0676 2.51423 12.1667 2.33963 12.342C2.16504 12.5172 2.06676 12.7543 2.06622 13.0016C2.06567 13.249 2.1629 13.4865 2.33672 13.6625C2.425 13.7508 4.52656 15.8125 8 15.8125C10.6336 15.8125 12.6367 14.4484 13.9375 13.1672V14.25C13.9375 14.4986 14.0363 14.7371 14.2121 14.9129C14.3879 15.0887 14.6264 15.1875 14.875 15.1875C15.1236 15.1875 15.3621 15.0887 15.5379 14.9129C15.7137 14.7371 15.8125 14.4986 15.8125 14.25V10.5C15.8125 10.2514 15.7137 10.0129 15.5379 9.83709C15.3621 9.66127 15.1236 9.5625 14.875 9.5625Z"
    fill="black" />
</svg>