<svg width="20" height="20" viewBox="0 0 20 20" fill="none" xmlns="http://www.w3.org/2000/svg">
<path d="M19 4.5C19 6.15685 17.6569 7.5 16 7.5C14.3431 7.5 13 6.15685 13 4.5C13 2.84315 14.3431 1.5 16 1.5C17.6569 1.5 19 2.84315 19 4.5Z" fill="#A2AD00"/>
<path d="M11.3585 5.5H8.82143V7.5H12.2923C11.7638 6.9903 11.4162 6.28649 11.3585 5.5Z" fill="black"/>
<path d="M1 7.5H4.19463C4.53272 8.0978 5.16463 8.5 5.88839 8.5C6.96831 8.5 7.84375 7.60457 7.84375 6.5C7.84375 5.39543 6.96831 4.5 5.88839 4.5C5.16463 4.5 4.53272 4.9022 4.19463 5.5H1V7.5Z" fill="black"/>
<path d="M10.0607 12.5H1V10.5H10.0607C10.3988 9.9022 11.0307 9.5 11.7545 9.5C12.8344 9.5 13.7098 10.3954 13.7098 11.5C13.7098 12.6046 12.8344 13.5 11.7545 13.5C11.0307 13.5 10.3988 13.0978 10.0607 12.5Z" fill="black"/>
<path d="M1 17.5H4.19463C4.53272 18.0978 5.16463 18.5 5.88839 18.5C6.96831 18.5 7.84375 17.6046 7.84375 16.5C7.84375 15.3954 6.96831 14.5 5.88839 14.5C5.16463 14.5 4.53272 14.9022 4.19463 15.5H1V17.5Z" fill="black"/>
<path d="M16.6429 12.5H14.6875V10.5H16.6429V12.5Z" fill="black"/>
<path d="M8.82143 17.5H16.6429V15.5H8.82143V17.5Z" fill="black"/>
</svg>
