<svg width="40" height="40" viewBox="0 0 40 40" fill="none" xmlns="http://www.w3.org/2000/svg">
<path d="M34.5837 19.9993C34.5837 17.4339 33.8771 15.0304 32.6414 12.9573C32.2879 12.3644 32.4821 11.597 33.075 11.2434C33.6679 10.89 34.4353 11.0841 34.7888 11.677C36.2472 14.1237 37.0837 16.9677 37.0837 19.9993C37.0837 29.2106 29.399 36.6145 19.9998 36.6145C18.2644 36.6145 16.587 36.3623 15.0056 35.8929C14.9359 35.8722 14.8685 35.8525 14.8035 35.8333C14.8117 35.8487 14.8195 35.8645 14.8279 35.8802L15.825 37.7434C16.1503 38.352 15.9206 39.1091 15.3123 39.4349C14.7036 39.7604 13.9456 39.5317 13.6199 38.9231L12.6238 37.0599C12.3024 36.4591 12.0089 35.9136 11.8367 35.4866C11.7508 35.2736 11.6552 34.9977 11.6277 34.7005C11.5983 34.3832 11.6384 33.9216 11.9744 33.5149L12.1101 33.3704C12.4384 33.064 12.8296 32.9736 13.0955 32.9505C13.3901 32.9249 13.6824 32.9664 13.9167 33.011C14.3887 33.101 15.0133 33.2873 15.7175 33.4964C17.0699 33.8978 18.5074 34.1145 19.9998 34.1145C28.0895 34.1145 34.5837 27.7597 34.5837 19.9993ZM2.91675 19.9993C2.91697 10.7882 10.6008 3.38424 19.9998 3.38407C21.7351 3.38407 23.4126 3.63631 24.9939 4.10575C25.0636 4.12646 25.132 4.14508 25.197 4.16435C25.189 4.14928 25.1808 4.13379 25.1726 4.11845L24.1755 2.25614C23.8499 1.6474 24.0795 0.889376 24.6882 0.563759C25.297 0.238185 26.055 0.467735 26.3806 1.07645L27.3767 2.93974C27.698 3.5403 27.9916 4.08511 28.1638 4.512C28.2498 4.72508 28.3453 5.00178 28.3728 5.29911C28.4021 5.61629 28.3618 6.07709 28.0261 6.48368C27.6758 6.90758 27.2078 7.02172 26.9041 7.04813C26.6094 7.07372 26.3171 7.03321 26.0828 6.98856C25.6109 6.89862 24.9868 6.71219 24.283 6.50321C22.9305 6.10166 21.4923 5.88407 19.9998 5.88407C11.9103 5.88424 5.41697 12.2391 5.41675 19.9993C5.41675 22.5647 6.12327 24.969 7.35913 27.0423C7.71239 27.6352 7.51746 28.4027 6.92456 28.7561C6.33176 29.1092 5.56518 28.9151 5.21167 28.3225C3.75316 25.8758 2.91675 23.0309 2.91675 19.9993Z" fill="black"/>
</svg>
