<svg width="40" height="40" viewBox="0 0 40 40" fill="none" xmlns="http://www.w3.org/2000/svg">
<path d="M31.25 7.49984C31.25 6.34923 30.3173 5.4165 29.1667 5.4165H10.8333C9.68274 5.4165 8.75 6.34924 8.75 7.49984V33.7482L19.4124 28.063L19.5524 27.9995C19.888 27.8708 20.2659 27.8917 20.5876 28.063L31.25 33.7482V7.49984ZM33.75 35.8332C33.75 36.2722 33.5194 36.6799 33.1429 36.9058C32.7667 37.1312 32.2995 37.1428 31.9124 36.9367L20 30.5825L8.08757 36.9367C7.70046 37.1428 7.23327 37.1312 6.8571 36.9058C6.48059 36.6799 6.25 36.2722 6.25 35.8332V7.49984C6.25 4.96853 8.30203 2.9165 10.8333 2.9165H29.1667C31.698 2.9165 33.75 4.96854 33.75 7.49984V35.8332Z" fill="#000000"/>
</svg>
