<svg width="40" height="40" viewBox="0 0 40 40" fill="none" xmlns="http://www.w3.org/2000/svg">
<path d="M19.1816 22.0672C18.8616 22.0672 18.5416 21.9472 18.3016 21.6972C17.8116 21.2072 17.8116 20.4172 18.3016 19.9272L24.1315 14.0972C24.6215 13.6072 25.4116 13.6072 25.9016 14.0972C26.3916 14.5872 26.3916 15.3772 25.9016 15.8672L20.0716 21.6972C19.8316 21.9372 19.5116 22.0672 19.1916 22.0672H19.1816Z" fill="black"/>
<path d="M24.2415 37.9077C24.1715 37.9077 24.1116 37.9077 24.0416 37.9077C22.6416 37.8177 21.4916 36.8477 21.1916 35.4777L18.1315 21.8777L4.52155 18.8177C3.15155 18.5077 2.17149 17.3577 2.09149 15.9577C2.01149 14.5577 2.84156 13.2977 4.16156 12.8277L33.7415 2.2677C34.8915 1.8577 36.1415 2.13771 37.0015 3.00771C37.8615 3.86771 38.1415 5.1177 37.7215 6.2677L27.1616 35.8377C26.7116 37.0977 25.5515 37.9177 24.2215 37.9177L24.2415 37.9077ZM34.8116 4.56771C34.7416 4.56771 34.6715 4.5777 34.5915 4.6077L5.01154 15.1677C4.61154 15.3077 4.58149 15.6577 4.59149 15.7977C4.59149 15.9377 4.66159 16.2777 5.07159 16.3677L19.4515 19.5977C19.9215 19.7077 20.2915 20.0677 20.4016 20.5477L23.6315 34.9177C23.7215 35.3277 24.0615 35.3877 24.2015 35.3977C24.3415 35.3977 24.6815 35.3877 24.8315 34.9877L35.3915 5.4077C35.5115 5.0677 35.3315 4.83771 35.2515 4.75771C35.1915 4.69771 35.0416 4.56771 34.8216 4.56771H34.8116Z" fill="black"/>
</svg>
